<svg xmlns="http://www.w3.org/2000/svg" viewBox="0 0 157 167.4"><g id="first_group"><path opacity=".2" fill="#A0D6DE" d="M151.3 113.8V53.5c0-7.2-3.9-13.9-10.1-17.5L88.6 5.8c-6.2-3.6-13.9-3.6-20.2 0L15.9 36C9.6 39.6 5.8 46.3 5.8 53.5v60.3c0 7.2 3.9 13.9 10.1 17.6l52.5 30.2c6.2 3.6 13.9 3.6 20.2 0l52.5-30.2c6.3-3.7 10.2-10.3 10.2-17.6z"/><path fill="#2A2B60" d="M78.906 129.63l.094-14.6 1.5.009-.094 14.6z"/><path fill="#2A2B60" d="M79.7 130.4H51.8c-3.6 0-6.5-2.9-6.5-6.5v-10c0-2.4-1.9-4.3-4.3-4.3V108c3.2 0 5.8 2.6 5.8 5.8v10c0 2.8 2.2 5 5 5h27.9v1.6zM125.2 116.7h-1.5v-11.8c.1-1.6-1-3-2.6-3.2H80.8v-1.5H121c2.4.2 4.3 2.3 4.1 4.7l.1 11.8z"/><circle fill="#51B7B7" cx="79.6" cy="129.6" r="4"/><path fill="#2A2B60" d="M79.6 134.4c-2.6 0-4.8-2.1-4.8-4.8 0-2.6 2.1-4.8 4.8-4.8s4.8 2.1 4.8 4.8c0 2.7-2.1 4.8-4.8 4.8zm0-8c-1.8 0-3.2 1.5-3.2 3.3 0 1.8 1.5 3.2 3.3 3.2s3.2-1.5 3.2-3.3c0-1.8-1.5-3.2-3.3-3.2z"/><path fill="#FDD52F" d="M76.6 111.8l.1 4.5c-.1 1.7 1.2 2.7 3.2 2.7 1.6.1 3-1.1 3.1-2.6v-4.6h-6.4z"/><path fill="#2A2B60" d="M79.9 119.8c-1.2.1-2.3-.4-3.1-1.2-.6-.6-.9-1.5-.9-2.3l-.1-5.2h7.9v5.3c0 .9-.4 1.7-1 2.3-.7.7-1.8 1.1-2.8 1.1zm-2.5-7.2v3.7c0 .5.1.9.4 1.3.5.5 1.3.7 2 .7s1.3-.2 1.8-.7c.3-.3.5-.8.6-1.3v-3.8l-4.8.1z"/><circle fill="#FDD52F" cx="124.4" cy="115" r="4.1"/><path fill="#2A2B60" d="M124.4 119.8c-2.7 0-4.9-2.2-4.9-4.9s2.2-4.9 4.9-4.9 4.9 2.2 4.9 4.9c0 2.8-2.2 4.9-4.9 4.9zm0-8.2c-1.9 0-3.4 1.5-3.4 3.4s1.5 3.4 3.4 3.4 3.4-1.5 3.4-3.4-1.5-3.4-3.4-3.4z"/><circle fill="#FDD52F" cx="38" cy="107.7" r="4.1"/><path fill="#2A2B60" d="M38 112.6c-2.7 0-4.9-2.2-4.9-4.9s2.2-4.9 4.9-4.9 4.9 2.2 4.9 4.9-2.2 4.9-4.9 4.9zm0-8.3c-1.9 0-3.4 1.5-3.4 3.4s1.5 3.4 3.4 3.4 3.4-1.5 3.4-3.4-1.5-3.4-3.4-3.4z"/><path fill="#A0D6DE" d="M71.8 37.1h18.1l19.6 19.1v47.2c-.1 4.6-3.8 8.3-8.4 8.2H58.9c-4.6 0-8.4-3.6-8.4-8.2v-58c.1-4.6 3.8-8.3 8.4-8.2h12.9v-.1z"/><path fill="#2A2B60" d="M101 112.5H58.9c-5 0-9.1-4-9.2-9V45.4c.1-5 4.2-9.1 9.2-9h31.2l20 19.6v47.6c0 4.9-4.1 8.9-9.1 8.9zM58.9 37.9c-4.2-.1-7.6 3.3-7.7 7.5v58.1c0 4.2 3.5 7.6 7.6 7.5H101c4.2 0 7.6-3.3 7.7-7.5v-47L89.6 37.9H58.9z"/><path fill="#C5E5EB" d="M92.9 42.8H63.8c-4.5 0-8.1 3.6-8.1 8.1V99c0 4.5 3.6 8.1 8.1 8.1H96c4.5 0 8.1-3.6 8.1-8.1V54.6C101.2 51.1 93 43 92.9 42.8z"/><path fill="#51B7B7" d="M89.6 37.6V48c-.1 4.6 3.6 8.4 8.2 8.5h10.9"/><path fill="#2A2B60" d="M108.8 57h-11c-4.9 0-8.8-4.1-8.8-9V37.6h1.2V48c-.1 4.3 3.3 7.8 7.6 7.9h10.9l.1 1.1zM103.5 90.8v8.9c0 3.5-2.9 6.2-6.3 6.2H62.7c-3.5 0-6.3-2.7-6.3-6.2V50c0-2.1 1.1-4 2.8-5.2.3-.2.3-.5.2-.8-.2-.3-.5-.3-.8-.2-2.1 1.4-3.3 3.6-3.3 6.1v49.7c0 4.1 3.4 7.4 7.5 7.4h34.5c4.1 0 7.5-3.3 7.5-7.4V89.5c-.6.3-1 .8-1.3 1.3z"/><path fill="#2A2B60" d="M100.3 77.8H61.1c-.3 0-.6-.2-.6-.6 0-.3.3-.6.6-.6h39.2c.3 0 .6.3.6.6 0 .4-.3.6-.6.6zM100.3 71H61.1c-.3 0-.6-.2-.6-.6 0-.3.3-.6.6-.6h39.2c.3 0 .6.3.6.6s-.3.6-.6.6zM100.3 64.1H61.1c-.3 0-.6-.2-.7-.5 0-.3.2-.6.5-.7H100.3c.3 0 .5.3.5.7 0 .2-.2.4-.5.5zM81.8 55.5h-7.4c-.3 0-.6-.3-.6-.6s.3-.6.6-.6h7.4c.3 0 .6.3.6.6 0 .4-.3.6-.6.6zM66.3 50.4h-5.4c-.3 0-.6-.3-.6-.6s.3-.6.6-.6h5.4c.3 0 .6.3.6.6 0 .4-.3.6-.6.6zM72.4 55.5H60.9c-.3 0-.6-.3-.6-.6s.3-.6.6-.6h11.5c.3 0 .6.3.6.6-.1.4-.3.6-.6.6zM66.8 101.5c-.5 0-.9 0-1.4-.1-.7 0-1.3-.3-1.8-.8-.3-.4-.3-.9-.2-1.3s.5-.6.9-.7c.3 0 .5.1.6.4 0 .3-.1.5-.4.6 0 0-.1 0-.1.1-.1.1-.1.2 0 .3.3.3.7.4 1.1.4 2 .3 4-.1 5.7-1.2-1.5-.7-2.7-1.9-3.6-3.2-.7-1.3-1.9-4.6 3.1-7.6 3-1.8 6.9-1.5 8.3.5.9 1.4 1.3 4.5-5.8 10.1 2.8 1.1 6.2 1.2 8.8-.2.5-.3.9-.9.9-1.6-.2-.5-.3-1-.3-1.5 0-.2.1-.4.4-.5.2-.1.5 0 .6.3.2.5.4 1 .3 1.5.1.4.4.8.8 1.2.1.1.2 0 .2 0s.1 0 .2-.3c.1-.5-.1-1-.4-1.5l-.1-.1c-.2-.2-.2-.5.1-.7.2-.2.5-.2.7 0l.1.1c.2.3.6.6 1 .7.2 0 .4 0 .5-.2v-.1c-.1-.3.1-.6.4-.6.3-.1.6.1.6.4v.1c0 .2.1.3.2.5.2.1.3.1.5 0 0-.3.1-.5.4-.6s.5.1.6.4v.2c0 .2.2.3.3.3.2.1.4.1.5 0 0-.3.1-.5.4-.6.2 0 .4.1.5.3.2.3.1.7-.1 1-.4.4-1 .6-1.6.4-.2-.1-.5-.2-.7-.4-.4.2-.8.2-1.1.1-.2 0-.4-.2-.5-.3-.3.2-.8.3-1.2.2H86v.7c-.1.4-.4.8-.8 1s-.8.1-1.1-.1c-.2-.1-.4-.3-.5-.5-.2.5-.6.9-1 1.1-3 1.7-7 1.4-10.2 0l-.1.1c-1.6 1.1-3.5 1.7-5.5 1.7zm8.3-13.3c-1.3 0-2.6.3-3.8 1-3 1.8-4 4-2.8 6.2.9 1.4 2.2 2.5 3.7 3.1 7.4-5.7 6.5-8.4 6.1-9.1-.9-.8-2-1.3-3.2-1.2z"/><path fill="#6DC3BF" d="M105.6 78.7L91 95l.1 4.5H96l.1-.2-.8-2.3 2-.2-.4-1.6 2-.2-.4-1.6 2.8.1 9.3-10.3"/><path fill="#2A2B60" d="M96 100h-4.9c-.3 0-.5-.2-.5-.5l-.1-4.5c0-.1 0-.3.1-.3l14.6-16.3c.2-.2.5-.2.7-.1.2.2.2.5.1.7L91.5 95.2l.1 3.8h3.9l-.6-1.8c-.1-.1-.1-.3 0-.4s.2-.2.4-.2l1.4-.1-.3-1.1c0-.1 0-.3.1-.4s.2-.2.4-.2l1.4-.1-.3-1c0-.2 0-.3.1-.4s.2-.2.4-.2l2.6.1 9.1-10.1c.2-.2.5-.2.7 0 .2.2.2.5 0 .7l-9.2 10.3c-.1.1-.2.2-.4.2h-2.2l.3 1c.1.3-.1.5-.4.6h-.1l-1.4.1.3 1c0 .1 0 .3-.1.4s-.2.2-.4.2l-1.4.1.6 1.7c.1.2 0 .4-.1.5l-.2.2c0-.1-.1-.1-.2-.1z"/><path fill="#FDD52F" d="M124.4 65.9c-3.7-5.1-10.8-6.1-15.9-2.4s-6.1 10.8-2.4 15.9 10.8 6.1 15.9 2.4c5.1-3.7 6.2-10.8 2.4-15.9zm-2 11.1l-12-10.7c3.7-2.6 8.9-1.7 11.5 2 1.9 2.6 2.1 5.9.5 8.7z"/><path fill="#2A2B60" d="M115.3 84.8c-.6 0-1.2 0-1.8-.1-6.6-1-11.2-7.2-10.2-13.8 1-6.6 7.2-11.2 13.8-10.2 3.2.5 6 2.2 7.9 4.8 4 5.4 2.8 13-2.5 16.9-2.1 1.5-4.6 2.4-7.2 2.4zm0-22.8c-5.9 0-10.6 4.8-10.6 10.6 0 5.9 4.8 10.6 10.6 10.6 5.9 0 10.6-4.8 10.6-10.6 0-2.3-.7-4.5-2.1-6.3-1.7-2.3-4.2-3.8-7-4.2-.4 0-1-.1-1.5-.1zm7.4 16.2l-13.4-12 .8-.5c4.1-2.8 9.7-1.7 12.5 2.4 1.9 2.8 2.1 6.3.5 9.3l-.4.8zm-10.9-11.8l10.4 9.3c1.5-3.9-.5-8.2-4.3-9.7-2-.7-4.2-.6-6.1.4z"/><path fill="none" d="M91.3 98.3l9.9-11"/><path fill="#2A2B60" d="M91.3 98.5c-.1 0-.1 0-.2-.1s-.1-.2 0-.3l9.9-11c.1-.1.2-.1.3 0 .1.1.1.3 0 .3l-9.9 11c.1.1 0 .1-.1.1zM122.9 71.1c-1.3-.1-2.5-.6-3.4-1.6-2.6-2.3-2.8-6.2-.5-8.8 1.1-1.2 2.7-2 4.3-2.1 3.4-.2 6.4 2.4 6.6 5.8.1 1.7-.5 3.3-1.6 4.5-.3.4-.7.7-1.1 1-.2.1-.5.1-.6-.1s-.1-.5.1-.6c.3-.2.6-.5.9-.8.9-1.1 1.4-2.5 1.3-3.9-.1-1.4-.7-2.7-1.8-3.7-2.2-2-5.6-1.8-7.6.4s-1.8 5.6.4 7.6c.8.8 1.9 1.2 3 1.3.2 0 .4.3.4.5 0 .3-.1.5-.4.5z"/></g></svg>
