<svg xmlns="http://www.w3.org/2000/svg" viewBox="0 0 157.03 167.35"><defs><style>.web_svg__cls-5{fill:#a0d6de}.web_svg__cls-2{fill:#51b7b7}.web_svg__cls-3{fill:#2a2b60}.web_svg__cls-4{fill:#fdd52f}</style></defs><g id="first_group"><path id="web_svg___g_" data-name="&lt;g&gt;" d="M151.26 113.81V53.54A20.24 20.24 0 0 0 141.12 36L88.61 5.79a20.25 20.25 0 0 0-20.18 0L15.91 36A20.24 20.24 0 0 0 5.77 53.54v60.27a20.27 20.27 0 0 0 10.14 17.55l52.52 30.2a20.25 20.25 0 0 0 20.18 0l52.51-30.2a20.27 20.27 0 0 0 10.14-17.55z" opacity=".2" fill="#a0d6de"/><g id="web_svg__icon"><circle class="web_svg__cls-2" cx="93.01" cy="65.91" r="32.71"/><path class="web_svg__cls-3" d="M93 99.42a33.51 33.51 0 1 1 30.6-19.87A33.54 33.54 0 0 1 93 99.42zM93.05 34a31.94 31.94 0 1 0 29.12 45 31.93 31.93 0 0 0-29.12-45z"/><path class="web_svg__cls-3" transform="rotate(-.08 93.06 64.523)" d="M92.62 33.2h.78v65.78h-.78z"/><path class="web_svg__cls-3" d="M60.3 66.36l-.01-.78 64.93-.1v.78l-64.92.1zM69.54 89l-.54-.56a31.82 31.82 0 0 1 23.52-10.59h.06a31.81 31.81 0 0 1 23.54 10.5l-.58.52a31 31 0 0 0-23-10.24h-.06A31 31 0 0 0 69.54 89zM92.42 54a31.78 31.78 0 0 1-23.54-10.5l.58-.52a31 31 0 0 0 23 10.24h.06a31 31 0 0 0 23-10.32l.58.52A31.78 31.78 0 0 1 92.48 54z"/><path class="web_svg__cls-3" d="M93.28 98.77l-.46-.63C104 90.05 110.39 78.33 110.37 66c0-11.67-6.62-23.64-17.64-32l.47-.62c11.22 8.54 17.92 20.74 18 32.65-.03 12.56-6.54 24.5-17.92 32.74z"/><path class="web_svg__cls-3" d="M92.35 98.25C81.51 90 75.28 78.23 75.26 65.94s6.16-24.09 17-32.37l.48.62C82.09 42.32 76 53.89 76 65.94s6.14 23.59 16.78 31.69zM92.45 102.43h1.56V129h-1.56z"/><path class="web_svg__cls-3" d="M114.86 129.78H64.38a6.76 6.76 0 0 1-6.76-6.78V87.34H31a7.18 7.18 0 0 1-7.17-7.17V62.65h1.55v17.52A5.62 5.62 0 0 0 31 85.78h28.18V123a5.2 5.2 0 0 0 5.2 5.2h50.48a3.32 3.32 0 0 0 3.32-3.31v-17.17h1.56v17.19a4.88 4.88 0 0 1-4.88 4.87z"/><circle class="web_svg__cls-2" cx="93.08" cy="128.17" r="4.15"/><path class="web_svg__cls-3" d="M93.08 133.1a4.93 4.93 0 1 1 4.92-4.93 4.94 4.94 0 0 1-4.92 4.93zm0-8.3a3.37 3.37 0 1 0 3.37 3.37 3.38 3.38 0 0 0-3.37-3.37z"/><path class="web_svg__cls-4" d="M89.91 99.06v4.68c0 1.68 1.3 2.81 3.36 2.81a3 3 0 0 0 3.23-2.8v-4.69z"/><path class="web_svg__cls-3" d="M93.32 107.33a4.44 4.44 0 0 1-3.23-1.19 3.27 3.27 0 0 1-.91-2.42l-.06-5.43h8.21v5.46a3.41 3.41 0 0 1-1 2.42 4.14 4.14 0 0 1-3.01 1.16zm-2.62-7.49v3.89a1.71 1.71 0 0 0 .47 1.32 2.88 2.88 0 0 0 2.11.72 2.56 2.56 0 0 0 1.88-.7 1.89 1.89 0 0 0 .57-1.32v-3.91z"/><circle class="web_svg__cls-4" cx="118.96" cy="104.09" r="4.31"/><path class="web_svg__cls-3" d="M119 109.17a5.09 5.09 0 1 1 5.08-5.08 5.09 5.09 0 0 1-5.08 5.08zm0-8.61a3.53 3.53 0 1 0 3.52 3.53 3.53 3.53 0 0 0-3.52-3.53z"/><path class="web_svg__cls-5" d="M48.11 55.91h-.82a5.64 5.64 0 0 0-5.69 5.56v39.19a5.64 5.64 0 0 0 5.69 5.56h28.36a5.64 5.64 0 0 0 5.69-5.56V68.8L68.15 55.91H55.93"/><path class="web_svg__cls-3" d="M75.65 106.74H47.29a6.15 6.15 0 0 1-6.21-6.08V61.47a6.15 6.15 0 0 1 6.21-6.08h.82v1h-.82a5.11 5.11 0 0 0-5.17 5v39.19a5.11 5.11 0 0 0 5.17 5h28.36a5.11 5.11 0 0 0 5.17-5V69L67.94 56.43h-12v-1h12.42l13.5 13.19v32.08a6.16 6.16 0 0 1-6.21 6.04z"/><path class="web_svg__cls-2" d="M68 56.23v7A5.66 5.66 0 0 0 73.52 69h7.36"/><path class="web_svg__cls-3" d="M80.88 69.35h-7.36a6 6 0 0 1-5.93-6.13v-7h.78v7a5.26 5.26 0 0 0 5.15 5.35h7.36zM73.09 103.11H49.84a5 5 0 0 1-5.05-5V64.6A4.94 4.94 0 0 1 47 60.48l.44.65a4.16 4.16 0 0 0-1.89 3.47v33.54a4.24 4.24 0 0 0 4.27 4.19h23.27a4.24 4.24 0 0 0 4.28-4.19V86.79h.78v11.35a5 5 0 0 1-5.06 4.97z"/><path class="web_svg__cls-3" d="M55 57.18v7.37a2.58 2.58 0 0 1-2.52 2.5 2.69 2.69 0 0 1-2.63-2.52v-7.79a1.8 1.8 0 0 1 1.71-1.58 1.61 1.61 0 0 1 1.53 1.56v6.67s-.31.64-.64.64-.75-.23-.67-.58v-6.27h-.65v6.15c0 .88.48 1.28 1.35 1.28s1.28-.46 1.28-1.34v-6.5a2.05 2.05 0 0 0-2.24-2.22 2.13 2.13 0 0 0-2.32 2.24v7.72a3 3 0 0 0 3.23 3.12 3 3 0 0 0 3.26-3v-7.45z"/><circle class="web_svg__cls-4" cx="24.56" cy="61.25" r="4.31"/><path class="web_svg__cls-3" d="M24.56 66.34a5.09 5.09 0 1 1 5.09-5.09 5.09 5.09 0 0 1-5.09 5.09zm0-8.61a3.53 3.53 0 1 0 3.53 3.52 3.53 3.53 0 0 0-3.53-3.52z"/><path class="web_svg__cls-5" d="M48.7 70.22h12.22l13.19 12.9V115a5.64 5.64 0 0 1-5.69 5.56H40.06a5.64 5.64 0 0 1-5.69-5.56V75.78a5.65 5.65 0 0 1 5.69-5.56h8.64z"/><path class="web_svg__cls-3" d="M68.42 121.05H40.06a6.15 6.15 0 0 1-6.21-6.05V75.78a6.15 6.15 0 0 1 6.21-6.08h21.07l13.5 13.2V115a6.16 6.16 0 0 1-6.21 6.05zM40.06 70.74a5.11 5.11 0 0 0-5.17 5V115a5.11 5.11 0 0 0 5.17 5h28.36a5.11 5.11 0 0 0 5.17-5V83.34l-12.88-12.6z"/><path class="web_svg__cls-2" d="M60.75 70.54v7a5.66 5.66 0 0 0 5.54 5.74h7.36"/><path class="web_svg__cls-3" d="M73.65 83.67h-7.36a6 6 0 0 1-5.93-6.13v-7h.78v7a5.26 5.26 0 0 0 5.15 5.35h7.36zM65.86 117.42H42.61a5 5 0 0 1-5-5V78.91a5 5 0 0 1 2.23-4.11.39.39 0 1 1 .44.65 4.16 4.16 0 0 0-1.89 3.46v33.54a4.24 4.24 0 0 0 4.27 4.19h23.2a4.24 4.24 0 0 0 4.28-4.19v-11.34a.38.38 0 0 1 .39-.39.39.39 0 0 1 .39.39v11.34a5 5 0 0 1-5.06 4.97z"/><path class="web_svg__cls-3" d="M51.59 97.69H41.54a.38.38 0 0 1-.39-.39.39.39 0 0 1 .39-.39h10.05a.4.4 0 0 1 .39.39.39.39 0 0 1-.39.39zM49.86 102.33H41.7a.38.38 0 0 1-.39-.39.39.39 0 0 1 .39-.39h8.16a.4.4 0 0 1 .39.39.39.39 0 0 1-.39.39zM66.81 102.33H51.74a.39.39 0 0 1-.39-.39.4.4 0 0 1 .39-.39h15.07a.4.4 0 0 1 .39.39.39.39 0 0 1-.39.39zM61 106.45h-6.9a.38.38 0 0 1-.39-.39.39.39 0 0 1 .39-.39H61a.39.39 0 0 1 .39.39.38.38 0 0 1-.39.39zM67.28 106.45h-5a.38.38 0 0 1-.39-.39.39.39 0 0 1 .39-.39h5a.39.39 0 0 1 .39.39.38.38 0 0 1-.39.39zM52.21 106.45H41.54a.38.38 0 0 1-.39-.39.39.39 0 0 1 .39-.39h10.67a.39.39 0 0 1 .39.39.38.38 0 0 1-.39.39zM66.65 110.57h-8.79a.39.39 0 0 1-.39-.39.4.4 0 0 1 .39-.39h8.79a.39.39 0 0 1 .39.39.38.38 0 0 1-.39.39zM56.61 110.57H41.54a.38.38 0 0 1-.39-.39.39.39 0 0 1 .39-.39h15.07a.4.4 0 0 1 .39.39.39.39 0 0 1-.39.39zM51.59 93.05H41.54a.38.38 0 0 1-.39-.39.39.39 0 0 1 .39-.39h10.05a.4.4 0 0 1 .39.39.39.39 0 0 1-.39.39zM51.59 88.41H41.54a.38.38 0 0 1-.39-.39.39.39 0 0 1 .39-.39h10.05A.4.4 0 0 1 52 88a.39.39 0 0 1-.41.41z"/><rect x="53.5" y="86.62" width="12.43" height="12.11" rx="1.27" ry="1.27" fill="#fff"/><path class="web_svg__cls-3" d="M64.6 99.12h-9.78a1.72 1.72 0 0 1-1.71-1.71V88a1.72 1.72 0 0 1 1.71-1.72h9.78A1.72 1.72 0 0 1 66.32 88v9.46a1.72 1.72 0 0 1-1.72 1.66zM54.82 87a.94.94 0 0 0-.93.94v9.46a.93.93 0 0 0 .93.93h9.78a.94.94 0 0 0 .94-.93V88a.94.94 0 0 0-.94-1z"/><circle class="web_svg__cls-4" cx="57.17" cy="89.73" r="1.75"/><path class="web_svg__cls-3" d="M57.17 91.75a2 2 0 1 1 2-2 2 2 0 0 1-2 2zm0-3.51a1.5 1.5 0 1 0 1.49 1.49 1.5 1.5 0 0 0-1.49-1.49z"/><path class="web_svg__cls-2" d="M53.5 95.86l3-3.19 2.41 3.15-2 2.91H54.6s-1.12-.18-1.12-1.21z"/><path class="web_svg__cls-3" d="M57.06 99h-2.44a1.54 1.54 0 0 1-1.38-1.47v-1.77l3.25-3.49 2.71 3.54zm-3.3-3v1.5c0 .79.87.94.9 1h2.13l1.77-2.64-2.11-2.75z"/><path class="web_svg__cls-2" d="M65.89 94.87l-3.17-4.44-5.72 8.3h7.72a1.23 1.23 0 0 0 1.26-1.19v-2.66z"/><path class="web_svg__cls-3" d="M64.67 99h-8.22l6.27-9L66 94.63h.16v2.89A1.49 1.49 0 0 1 64.67 99zm-7.23-.52h7.23a1 1 0 0 0 1-.93V95l-3-4.13zM55.49 82.63h-5a.4.4 0 0 1-.39-.39.39.39 0 0 1 .39-.39h5a.38.38 0 0 1 .39.39.39.39 0 0 1-.39.39zM45 79.22h-3.63a.39.39 0 0 1-.39-.39.38.38 0 0 1 .39-.39H45a.38.38 0 0 1 .39.39.39.39 0 0 1-.39.39zM49.11 82.63h-7.74a.39.39 0 0 1-.39-.39.38.38 0 0 1 .39-.39h7.74a.38.38 0 0 1 .39.39.39.39 0 0 1-.39.39z"/></g></g></svg>
