<svg id="Layer_1" fill="#ffffff" xmlns="http://www.w3.org/2000/svg" xmlns:xlink="http://www.w3.org/1999/xlink" viewBox="0 0 235 85">
  <defs>
    <path id="SVGID_1_" d="M211.493 40.327h3.152c0-.898-.459-3.57-4.968-3.57-2.755 0-4.947 1.232-4.947 3.611 0 2.693 2.171 3.256 4.655 3.59l.626.083c.898.125 1.733.313 1.733 1.023 0 .835-.898 1.169-1.921 1.169-1.106 0-2.087-.334-2.087-1.44H204.5c0 .605.271 3.799 5.135 3.799 4.321 0 5.365-2.108 5.365-3.883 0-4.655-7.056-2.797-7.056-4.572 0-.793.877-1.044 1.691-1.044 1.107.002 1.858.441 1.858 1.234zm-13.757-.96c1.399 0 2.442.939 2.442 3.319 0 2.359-1.044 3.298-2.442 3.298-1.566 0-2.421-.731-2.421-3.298 0-2.589.856-3.319 2.421-3.319zm-2.442 9.08V47.32c.585.731 1.607 1.273 2.881 1.273 3.131 0 5.281-2.004 5.281-5.908 0-3.924-2.192-5.928-5.094-5.928-1.273 0-2.484.543-3.069 1.273V33h-3.215v15.447h3.216zm-15.593-7.765h3.11c0-.459.125-1.419 2.025-1.419 1.545 0 1.921.543 1.921 1.336v.397l-3.799.543c-1.065.146-3.632.793-3.632 3.423 0 2.317 1.774 3.632 4.154 3.632 1.983 0 2.86-.668 3.361-1.19v1.044h3.403s-.251-.877-.251-1.712v-6.221c0-1.67-.919-3.757-5.156-3.757-4.385-.001-5.095 2.233-5.136 3.924zm7.055 3.34c0 .981-.668 2.234-2.568 2.234-1.232 0-1.566-.772-1.566-1.294 0-.731.564-1.19 1.336-1.336.793-.167 2.797-.418 2.797-.418v.814zm-8.705 4.425v-2.881h-7.056V33.835h-3.298v14.612h10.354zm-17.242 0V33h-3.215v15.447h3.215zm-10.5-9.08c1.399 0 2.442.939 2.442 3.319 0 2.359-1.044 3.298-2.442 3.298-1.357 0-2.421-.939-2.421-3.298-.001-2.38 1.064-3.319 2.421-3.319zm0 9.227c3.34 0 5.72-2.004 5.72-5.908 0-3.924-2.38-5.928-5.72-5.928-3.319 0-5.699 2.004-5.699 5.928 0 3.904 2.38 5.908 5.699 5.908zm-9.853-4.509c-.209 1.378-1.148 1.9-2.171 1.9-1.315 0-2.359-.939-2.359-3.298 0-2.38 1.023-3.319 2.401-3.319 1.085 0 1.92.543 2.087 1.962h3.236c-.271-3.048-2.442-4.572-5.344-4.572-3.319 0-5.699 2.067-5.699 5.97 0 3.924 2.442 5.866 5.761 5.866 2.964 0 4.968-1.524 5.302-4.509h-3.214zm-14.613-4.718c1.399 0 2.442.939 2.442 3.319 0 2.359-1.044 3.298-2.442 3.298-1.357 0-2.422-.939-2.422-3.298.001-2.38 1.065-3.319 2.422-3.319zm0 9.227c3.34 0 5.72-2.004 5.72-5.908 0-3.924-2.38-5.928-5.72-5.928-3.319 0-5.699 2.004-5.699 5.928 0 3.904 2.38 5.908 5.699 5.908zm-6.68-.188v-2.672s-.731.063-1.399.063c-.689 0-.898-.188-.898-.898v-5.407h2.442v-2.588h-2.442v-3.069h-3.236v3.069h-1.67v2.588h1.67v5.574c0 2.15.313 3.465 3.006 3.465 1.463 0 2.527-.125 2.527-.125zm-13.652-9.039c1.399 0 2.442.939 2.442 3.319 0 2.359-1.044 3.298-2.442 3.298-1.357 0-2.422-.939-2.422-3.298.001-2.38 1.065-3.319 2.422-3.319zm0 9.227c3.34 0 5.72-2.004 5.72-5.908 0-3.924-2.38-5.928-5.72-5.928-3.319 0-5.699 2.004-5.699 5.928 0 3.904 2.38 5.908 5.699 5.908zm-6.534-8.476v-3.215h-1.002c-1.148 0-2.254.501-2.818 1.461v-1.461h-3.11v11.544h3.215V42.31c0-1.607.939-2.213 2.526-2.213.438 0 1.189.021 1.189.021zm-12.045-1.482c0 1.253-.814 2.087-1.92 2.087h-2.735V36.59h2.735c1.106 0 1.92.71 1.92 2.046zm3.445-.209c0-2.985-2.254-4.592-4.926-4.592H79v14.612h3.298v-4.968h2.797c3.424 0 5.282-2.296 5.282-5.052z"/>
  </defs>
  <clipPath id="SVGID_2_">
    <use xlink:href="#SVGID_1_" overflow="visible"/>
  </clipPath>
  <g clip-path="url(#SVGID_2_)">
    <defs>
      <path id="SVGID_3_" d="M0 0h235v85H0z"/>
    </defs>
    <clipPath id="SVGID_4_">
      <use xlink:href="#SVGID_3_" overflow="visible"/>
    </clipPath>
    <path clip-path="url(#SVGID_4_)" d="M74 28h146v25.594H74z"/>
  </g>
  <g>
    <path d="M31 20.186l-9.66 5.573 21.502 12.399 9.566-5.573zM54.545 20.186l-9.66 5.665 9.66 5.48 9.705-5.572zM43.817 40.015v11.146l9.752-5.573V34.489z"/>
    <path d="M55.52 33.305l9.706-5.782v24.799L43.817 64.814V53.669l11.738-6.943zM41.82 40.015L41.774 51.3l-11.796-6.733V58.08l-9.752-5.619V27.663z"/>
    <path d="M31.998 47.899l9.822 5.677v11.238l-9.822-5.596z"/>
  </g>
</svg>
