<svg id="Layer_1" data-name="Layer 1" xmlns="http://www.w3.org/2000/svg" viewBox="0 0 500 500"><title>jsIPFS_alpha_icon</title><path d="M405,412.7a106.83,106.83,0,0,0,13.48-29.8,169.88,169.88,0,0,0,5.26-29.73c.48-5.29,1-11.51,1.07-17.57a1.9,1.9,0,0,0-2-2.05c-5.6-.23-11.33-.23-17,0a2.07,2.07,0,0,0-1.89,2.05c-.17,1.56-.27,3.13-.36,4.69-.09,1.29-.17,2.58-.28,3.86a81.09,81.09,0,0,1-3.76,18.75A23.27,23.27,0,0,1,382,378.34c-8.48,1.76-17.44-.9-22.81-6.83A66.8,66.8,0,0,1,348.33,355c-5.95-12.48-9.35-25.52-12.33-37.79a12,12,0,0,1,.22-6c8-29.13,14.59-57.81,20-82q8.19-36.6,16.48-73.17,7.62-33.75,15.2-67.5a5,5,0,0,0,.05-2c-.22-.85-.44-1.73-3-1.73H325.31c-2.75,0-3.29.44-3.89,3.17L307,152.45l-7,20L290,150.64c-.88-2-1.7-3.91-2.57-5.8-7.77-17-15.56-30-24.52-40.84A79.8,79.8,0,0,0,232,80.81,86.89,86.89,0,0,0,198.09,74a97.2,97.2,0,0,0-17,1.53A122.8,122.8,0,0,0,118,107.35C100,124.19,87,145.42,78.37,172.27,71.05,195,67.2,219.34,66.6,246.63a318.13,318.13,0,0,0,4.49,63.26c4.53,25.44,12.07,46.68,23.07,64.92a127.54,127.54,0,0,0,28.65,33.4A122.22,122.22,0,0,0,186.48,435c13.91,1.64,28.71.59,45.25-3.23a111.74,111.74,0,0,0,34.07-14.1,125.12,125.12,0,0,0,31.82-28.91c1.73-2.19,3.4-4.42,5.12-6.71l11.32-15,5.53,13.54-7.72,3.16,7.9-2.73.5,1.25c3.93,11.26,7.92,20.05,12.57,27.65,5.63,9.23,11.48,15.66,18.39,20.24a35.07,35.07,0,0,0,40-1.56C396.07,424.82,400.34,419.91,405,412.7ZM283.24,265.08c-2,7.53-3.86,15.12-5.69,22.71-1.71,7.1-3.41,14.2-5.29,21.25-4.95,18.61-9.93,32.53-16.15,45.15-6.56,13.29-13.48,23-21.78,30.68-9.68,8.92-20.72,13.42-32.83,13.42-.8,0-1.61,0-2.4,0-17.24,0-31.11-8-41.24-23.9-6-9.4-10.27-20.08-13.84-34.64-3-12.41-5.06-25.92-6.35-42.52a513.82,513.82,0,0,1-1-56.79c.81-24.49,3-44.35,7-62.48,3-13.61,6.72-24.53,11.85-34.37,5.43-10.4,11.56-17.82,19.31-23.35a47,47,0,0,1,28.56-8.84c6.72.08,11.88,3.26,15.61,6a65.92,65.92,0,0,1,13.54,13.91c10.5,14,17.94,29.28,23.84,42.42,10.58,23.57,18.86,48,26.42,70.92A34,34,0,0,1,283.24,265.08Z"/></svg>