<svg id="Layer_1" data-name="Layer 1" xmlns="http://www.w3.org/2000/svg" viewBox="0 0 500 500"><title>jsIPFS_close_icon</title><path d="M249.9,45.2c-113.15,0-205.2,92.05-205.2,205.2s92.05,205.2,205.2,205.2,205.2-92.05,205.2-205.2S363.05,45.2,249.9,45.2ZM431.2,247.4c0,100-81.33,181.3-181.3,181.3S68.6,347.37,68.6,247.4,149.93,66.1,249.9,66.1,431.2,147.43,431.2,247.4Z"/><path d="M345.58,151.72a11,11,0,0,0-15.56,0L249.9,231.84l-80.12-80.12a11,11,0,0,0-15.56,15.56l80.12,80.12-80.12,80.12a11,11,0,0,0,15.56,15.56L249.9,263,330,343.08a11,11,0,0,0,15.56-15.56L265.46,247.4l80.12-80.12A11,11,0,0,0,345.58,151.72Z"/></svg>