<svg data-name="Layer 1" xmlns="http://www.w3.org/2000/svg" viewBox="0 0 1137.885 512"><path d="M221.7 512l221.7-128V128L221.7 256z" fill="#377779"/><path d="M221.7 512V256L0 128v256z" fill="#47989b"/><path d="M0 128l221.7 128 221.7-128L221.7 0z" fill="#418a8d"/><path d="M198.811 30.84l-160.74 92.806a38.423 38.423 0 0 1 0 8.589l160.75 92.806a38.4 38.4 0 0 1 45.6 0l160.75-92.807a38.3 38.3 0 0 1 0-8.588L244.427 30.84a38.4 38.4 0 0 1-45.6 0zM420.6 157.87l-160.92 93.84a38.4 38.4 0 0 1-22.8 39.489l.18 184.58a38.388 38.388 0 0 1 7.438 4.294l160.75-92.8a38.4 38.4 0 0 1 22.8-39.49V162.168a38.426 38.426 0 0 1-7.439-4.294zM22.791 158.9a38.422 38.422 0 0 1-7.438 4.3v185.61a38.4 38.4 0 0 1 22.8 39.489L198.892 481.1a38.379 38.379 0 0 1 7.439-4.295V291.2a38.4 38.4 0 0 1-22.8-39.489L22.792 158.9z" fill="#57b9bc"/><path d="M594.332 233.924c-2.46-10.742-11.275-16.359-21.362-16.359-13.816 0-24.23 10.5-24.23 31.242 0 20.787 10.414 31.16 24.23 31.16 10.087 0 18.779-5.535 21.239-16.195l12.833.861c-3.567 17.261-17.261 27.266-34.072 27.266-21.442 0-37.063-16.318-37.063-43.092 0-26.814 15.621-43.174 37.063-43.174 16.811 0 30.546 10.046 34.154 27.43zM618.075 259.467c0-19.434 11.357-32.513 28.9-32.513 17.507 0 28.9 13.079 28.9 32.513 0 19.394-11.4 32.555-28.9 32.555-17.543 0-28.9-13.161-28.9-32.555zm45.511 0c0-11.931-5.084-21.812-16.606-21.812-11.562 0-16.605 9.881-16.605 21.812 0 11.972 5.043 21.813 16.605 21.813 11.52 0 16.606-9.841 16.606-21.813zM736.776 290.75H724.27v-40.59c0-8.61-4.222-12.054-10.537-12.054-6.395 0-12.259 5.248-12.259 14.392v38.252h-12.628v-62.976h12.464v9.389h.615a18.4 18.4 0 0 1 16.4-10.209c7.749 0 13.2 4.469 15.949 10.5h.655c2.338-5.207 9.226-10.5 18.041-10.5 10.579 0 19.106 6.888 19.106 23.206v40.59h-12.627v-40.794c0-9.021-5.9-11.85-10.906-11.85-7.421 0-11.767 5.043-11.767 13.284zM787.909 227.774h12.341v8.938h1.025c2.132-3.731 6.437-9.758 16.892-9.758 14.883 0 26.077 11.89 26.077 32.431 0 20.459-10.988 32.555-25.954 32.555-10.332 0-14.883-5.945-17.015-9.8h-.738v32.227h-12.628zm27.716 9.881c-10.824 0-15.909 8.938-15.909 21.607 0 12.751 5.167 22.018 15.909 22.018 10.824 0 16.359-9.349 16.359-22.018 0-12.546-5.412-21.607-16.359-21.607zM893.9 282.919h-.574c-2.091 4.018-7.5 9.184-17.507 9.184-11.6 0-20.992-6.929-20.992-19.187 0-13.244 11.111-17.63 24.847-19.107 7.215-.861 13.939-.82 13.939-4.551v-.533c0-8.159-4.633-11.4-11.234-11.4-7.749 0-12.464 4.182-14.1 8.61l-11.932-2.747c3.978-11.521 14.6-16.236 25.955-16.236 10.127 0 23.984 3.813 23.984 21.935v41.863H893.9zm-.287-22.713c-1.435 1.639-9.963 2.624-13.489 3.074-7.544.943-12.915 3.321-12.915 9.841 0 5.658 4.634 8.732 11.193 8.732 9.389 0 15.211-6.272 15.211-13.079zM934.7 290.75h-12.631v-62.976h12.136v9.389h.656c3.157-5.822 9.349-10.209 18.122-10.209 11.44 0 20.582 7.216 20.582 23.985v39.811h-12.587V251.6c0-8.405-5.166-13.489-12.259-13.489-7.174 0-14.022 5.74-14.022 16.605zM987.962 213.1a7.927 7.927 0 0 1 15.826 0 7.927 7.927 0 0 1-15.826 0zm14.267 77.654H989.6v-62.98h12.628zM1015.433 259.467c0-19.434 11.358-32.513 28.906-32.513 17.506 0 28.9 13.079 28.9 32.513 0 19.394-11.4 32.555-28.9 32.555-17.548 0-28.906-13.161-28.906-32.555zm45.511 0c0-11.931-5.084-21.812-16.605-21.812-11.563 0-16.606 9.881-16.606 21.812 0 11.972 5.043 21.813 16.606 21.813 11.521 0 16.605-9.841 16.605-21.813zM1098.832 290.75H1086.2v-62.976h12.136v9.389h.664c3.157-5.822 9.348-10.209 18.122-10.209 11.439 0 20.582 7.216 20.582 23.985v39.811h-12.587V251.6c0-8.405-5.166-13.489-12.259-13.489-7.175 0-14.022 5.74-14.022 16.605z"/></svg>
