<svg data-name="Layer 1" xmlns="http://www.w3.org/2000/svg" viewBox="0 0 2046.988 600"><defs><linearGradient id="filenation_svg__a" x1="87.863" y1="87.862" x2="512.137" y2="512.138" gradientTransform="matrix(1 0 0 -1 0 600)" gradientUnits="userSpaceOnUse"><stop offset="0" stop-color="#0063cc"/><stop offset="1" stop-color="#00c5cc"/></linearGradient></defs><path d="M139.8 478.1s-75-158.8 72-238.2L476.2 144s3.5 48.2-25.6 73.2l-217.9 76.7s-88.3 42.4-34.3 155.1zm278.9-210.4l-182 64.1c-34.3 29.2-22.1 66.3-21.3 68.7L395.5 337c27.4-23.5 23.7-64.7 23.2-69.3zM600 300c0 165.7-134.3 300-300 300S0 465.7 0 300 134.3 0 300 0s300 134.3 300 300zm-21.8 0c0-153-124.1-277.1-277.1-277.1S24 147 24 300s124 277.1 277.1 277.1S578.2 453 578.2 300z" fill="url(#filenation_svg__a)"/><path d="M901.46 200.71v26.566h-94.87v65.73h83.151v26.566H806.59V407.3h-27.721V200.71zm33.146 35.139a16.371 16.371 0 0 1 11.148-4.281 15.875 15.875 0 0 1 11 4.281 14.215 14.215 0 0 1 0 21.15 15.83 15.83 0 0 1-11 4.281 16.323 16.323 0 0 1-11.148-4.28 13.93 13.93 0 0 1 0-21.15zM958.321 289v118.3h-26.576V289zm69.143-103.157V407.3h-26.576V185.844zm126.872 191.172l12.292 19.709a82.772 82.772 0 0 1-20.43 9.866 69.091 69.091 0 0 1-21.288 3.571q-19.726 0-34.439-8.149a57.121 57.121 0 0 1-22.709-22.433q-8.01-14.274-8.01-32.288a60.425 60.425 0 0 1 8.72-31.863 63.346 63.346 0 0 1 23.864-22.857 67.01 67.01 0 0 1 33.146-8.424q23.142 0 38.72 13.574 15.561 13.574 21.277 37.861l-93.715 32.86a37.073 37.073 0 0 0 13.86 13.85 39.131 39.131 0 0 0 19.858 5q14.845.002 28.854-10.276zm-57.719-60.3q-10.571 11.428-10.575 29.141a56.843 56.843 0 0 0 .286 6.58l68.867-25.431a39.472 39.472 0 0 0-12.144-15.726q-7.867-5.993-19.572-6-16.291.009-26.862 11.442zM1401.5 200.71v213.446h-.858l-151.732-154.01.572 147.155h-28.006V194.416h1.43l151.446 155.737-.572-149.443zM1572.094 289v118.3h-26.576v-19.434q-6.294 8.3-18.29 15.291a52.915 52.915 0 0 1-27.148 7 63.356 63.356 0 0 1-30.433-7.291 52.906 52.906 0 0 1-21.426-21.288q-7.869-14-7.863-33.432t8.149-33.856a57.557 57.557 0 0 1 22-22.3 61.215 61.215 0 0 1 30.719-7.852q15.149 0 26.29 6.569a53.662 53.662 0 0 1 18 17.146l2-18.862zm-39.864 91.013q10.427-8.154 13.288-22.146v-23.428a36.451 36.451 0 0 0-14.284-20.43 41.315 41.315 0 0 0-24.86-7.863 38.872 38.872 0 0 0-19.582 5.139 37.9 37.9 0 0 0-14.284 14.433 41.669 41.669 0 0 0-5.288 21 41.6 41.6 0 0 0 20.006 35.859 37.667 37.667 0 0 0 20.007 5.574q14.559.002 24.997-8.137zm120.726-143.021v52.294h32.288v21.151h-32.288V407.3h-26.862v-96.862h-21.723v-21.151h21.723v-52.294zm63.717-1.144a16.371 16.371 0 0 1 11.148-4.281 15.877 15.877 0 0 1 11 4.281 14.217 14.217 0 0 1 0 21.15 15.832 15.832 0 0 1-11 4.281 16.323 16.323 0 0 1-11.148-4.279 13.928 13.928 0 0 1 0-21.15zM1740.388 289v118.3h-26.576V289zm40.723 26.141a60.361 60.361 0 0 1 23.429-22.708q15-8.3 33.866-8.286t33.57 8.286a59.092 59.092 0 0 1 22.857 22.571 63.418 63.418 0 0 1 8.149 32 64.2 64.2 0 0 1-8.149 32.15 58.68 58.68 0 0 1-23 22.719q-14.861 8.282-34 8.287a70.406 70.406 0 0 1-33.433-7.86 57.888 57.888 0 0 1-23.291-22.147q-8.441-14.272-8.435-33.146a61.981 61.981 0 0 1 8.437-31.865zm23.429 52.729a38.118 38.118 0 0 0 13.722 14.856 35.676 35.676 0 0 0 19.286 5.426q16.562 0 27.424-11.71t10.861-29.151q0-17.42-10.861-29.288t-27.424-11.858a34.807 34.807 0 0 0-19.434 5.574 39.608 39.608 0 0 0-13.574 15 44.811 44.811 0 0 0 0 41.147zm231.3-73.583q10.856 9.855 11.147 25.57V407.3h-26.862V329q-.572-10-6-15.715t-16.287-6q-15.72 0-26 12.568-10.284 12.588-10.289 32.012V407.3h-26.577V289h24l1.716 22.857a46.39 46.39 0 0 1 18.862-20.144q12.573-7.281 28.854-7.28 16.582.001 27.437 9.855z"/></svg>
