<svg xmlns="http://www.w3.org/2000/svg" viewBox="0 0 1514 712"><title>with-artboard-nobeams</title><g id="ipfs-nodes"><g id="_browser_" data-name="browser"><path d="M.662,254.85V256.1a4.79,4.79,0,0,0,4.781,4.78H59.219A4.79,4.79,0,0,0,64,256.1V254.85Z" fill="#51b7b7"/><rect x="0.692" y="208.248" width="63.308" height="44.787" fill="#a0d6de"/><path d="M59.219,197.54,5.443,197.5a4.791,4.791,0,0,0-4.781,4.781v4.152H64v-4.112A4.791,4.791,0,0,0,59.219,197.54ZM9.8,204.317a2.286,2.286,0,1,1,2.286-2.285A2.285,2.285,0,0,1,9.8,204.317Zm7.228,0a2.286,2.286,0,1,1,2.285-2.285A2.285,2.285,0,0,1,17.026,204.317Zm7.227,0a2.286,2.286,0,1,1,2.286-2.285A2.286,2.286,0,0,1,24.253,204.317Z" fill="#51b7b7"/><path d="M25.79,202.032a1.528,1.528,0,0,0-1.527-1.528h-.01a1.538,1.538,0,1,0,1.537,1.537Z" fill="#fdd52f"/><path d="M11.335,202.032A1.527,1.527,0,0,0,9.809,200.5H9.8a1.538,1.538,0,1,0,1.538,1.537Z" fill="#a0d6de"/><path d="M18.563,202.032a1.528,1.528,0,0,0-1.527-1.528h-.01a1.538,1.538,0,1,0,1.537,1.537Z" fill="#fff"/></g><g id="_lines_" data-name="lines"><line x1="596.156" y1="58.17" x2="669.656" y2="76.17" fill="none" stroke="#13d6d6" stroke-linecap="round" stroke-linejoin="round" opacity="0.2"/><line x1="662.656" y1="171.67" x2="669.656" y2="76.17" fill="none" stroke="#13d6d6" stroke-linecap="round" stroke-linejoin="round" opacity="0.2"/><line x1="669.656" y1="76.17" x2="707.156" y2="143.17" fill="none" stroke="#13d6d6" stroke-linecap="round" stroke-linejoin="round" opacity="0.2"/><line x1="707.156" y1="143.17" x2="770.156" y2="106.17" fill="none" stroke="#13d6d6" stroke-linecap="round" stroke-linejoin="round" opacity="0.2"/><line x1="707.156" y1="143.17" x2="764.156" y2="263.17" fill="none" stroke="#13d6d6" stroke-linecap="round" stroke-linejoin="round" opacity="0.2"/><line x1="701.156" y1="299.67" x2="764.156" y2="263.17" fill="none" stroke="#13d6d6" stroke-linecap="round" stroke-linejoin="round" opacity="0.2"/><line x1="801.656" y1="330.17" x2="764.156" y2="263.17" fill="none" stroke="#13d6d6" stroke-linecap="round" stroke-linejoin="round" opacity="0.2"/><line x1="801.656" y1="330.17" x2="900.156" y2="343.17" fill="none" stroke="#13d6d6" stroke-linecap="round" stroke-linejoin="round" opacity="0.2"/><line x1="435.156" y1="174.17" x2="466.156" y2="101.67" fill="none" stroke="#13d6d6" stroke-linecap="round" stroke-linejoin="round" opacity="0.2"/><line x1="581.156" y1="190.67" x2="571.156" y2="104.67" fill="none" stroke="#13d6d6" stroke-linecap="round" stroke-linejoin="round" opacity="0.2"/><line x1="466.156" y1="101.67" x2="571.156" y2="104.67" fill="none" stroke="#13d6d6" stroke-linecap="round" stroke-linejoin="round" opacity="0.2"/><line x1="707.156" y1="143.17" x2="662.656" y2="171.67" fill="none" stroke="#13d6d6" stroke-linecap="round" stroke-linejoin="round" opacity="0.2"/><line x1="435.156" y1="174.17" x2="581.156" y2="190.67" fill="none" stroke="#13d6d6" stroke-linecap="round" stroke-linejoin="round" opacity="0.2"/><line x1="571.156" y1="104.67" x2="662.656" y2="171.67" fill="none" stroke="#13d6d6" stroke-linecap="round" stroke-linejoin="round" opacity="0.2"/><line x1="662.656" y1="254.67" x2="662.656" y2="171.67" fill="none" stroke="#13d6d6" stroke-linecap="round" stroke-linejoin="round" opacity="0.2"/><line x1="701.156" y1="300.17" x2="662.656" y2="254.67" fill="none" stroke="#13d6d6" stroke-linecap="round" stroke-linejoin="round" opacity="0.2"/><line x1="601.156" y1="320.17" x2="662.656" y2="254.67" fill="none" stroke="#13d6d6" stroke-linecap="round" stroke-linejoin="round" opacity="0.2"/><line x1="476.156" y1="231.17" x2="581.156" y2="190.67" fill="none" stroke="#13d6d6" stroke-linecap="round" stroke-linejoin="round" opacity="0.2"/><line x1="435.156" y1="174.17" x2="476.156" y2="231.17" fill="none" stroke="#13d6d6" stroke-linecap="round" stroke-linejoin="round" opacity="0.2"/><line x1="500.656" y1="284.17" x2="581.156" y2="190.67" fill="none" stroke="#13d6d6" stroke-linecap="round" stroke-linejoin="round" opacity="0.2"/><line x1="601.156" y1="320.17" x2="500.656" y2="284.17" fill="none" stroke="#13d6d6" stroke-linecap="round" stroke-linejoin="round" opacity="0.2"/><line x1="438.656" y1="322.67" x2="601.156" y2="320.17" fill="none" stroke="#13d6d6" stroke-linecap="round" stroke-linejoin="round" opacity="0.2"/><line x1="662.656" y1="254.67" x2="581.156" y2="190.67" fill="none" stroke="#13d6d6" stroke-linecap="round" stroke-linejoin="round" opacity="0.2"/><line x1="438.656" y1="322.67" x2="476.156" y2="231.17" fill="none" stroke="#13d6d6" stroke-linecap="round" stroke-linejoin="round" opacity="0.2"/><line x1="500.656" y1="284.17" x2="476.156" y2="231.17" fill="none" stroke="#13d6d6" stroke-linecap="round" stroke-linejoin="round" opacity="0.2"/><line x1="596.511" y1="58.187" x2="570.755" y2="104.33" fill="none" stroke="#13d6d6" stroke-linecap="round" stroke-linejoin="round" opacity="0.2"/><line x1="415.218" y1="119.748" x2="465.167" y2="102.498" fill="none" stroke="#13d6d6" stroke-linecap="round" stroke-linejoin="round" opacity="0.2"/><line x1="652.5" y1="362.217" x2="701.156" y2="300.17" fill="none" stroke="#13d6d6" stroke-linecap="round" stroke-linejoin="round" opacity="0.2"/><line x1="829.299" y1="410.828" x2="801.827" y2="330.16" fill="none" stroke="#13d6d6" stroke-linecap="round" stroke-linejoin="round" opacity="0.2"/><line x1="701.156" y1="300.17" x2="801.827" y2="330.16" fill="none" stroke="#13d6d6" stroke-linecap="round" stroke-linejoin="round" opacity="0.2"/><line x1="963.289" y1="397.446" x2="912.942" y2="413.499" fill="none" stroke="#13d6d6" stroke-linecap="round" stroke-linejoin="round" opacity="0.2"/><line x1="963.5" y1="397.5" x2="898.942" y2="343.499" fill="none" stroke="#13d6d6" stroke-linecap="round" stroke-linejoin="round" opacity="0.2"/><line x1="1064.5" y1="366.5" x2="962.942" y2="396.499" fill="none" stroke="#13d6d6" stroke-linecap="round" stroke-linejoin="round" opacity="0.2"/><g id="_lines_2" data-name="lines"><line x1="1438.015" y1="305.771" x2="1431.015" y2="210.271" fill="none" stroke="#13d6d6" stroke-linecap="round" stroke-linejoin="round" opacity="0.2"/><line x1="1431.015" y1="210.271" x2="1393.515" y2="277.271" fill="none" stroke="#13d6d6" stroke-linecap="round" stroke-linejoin="round" opacity="0.2"/><line x1="1393.515" y1="277.271" x2="1330.515" y2="240.271" fill="none" stroke="#13d6d6" stroke-linecap="round" stroke-linejoin="round" opacity="0.2"/><line x1="1393.515" y1="277.271" x2="1336.515" y2="397.271" fill="none" stroke="#13d6d6" stroke-linecap="round" stroke-linejoin="round" opacity="0.2"/><line x1="1399.515" y1="433.771" x2="1336.515" y2="397.271" fill="none" stroke="#13d6d6" stroke-linecap="round" stroke-linejoin="round" opacity="0.2"/><line x1="1299.015" y1="464.271" x2="1336.515" y2="397.271" fill="none" stroke="#13d6d6" stroke-linecap="round" stroke-linejoin="round" opacity="0.2"/><line x1="1299.015" y1="464.271" x2="1200.515" y2="477.271" fill="none" stroke="#13d6d6" stroke-linecap="round" stroke-linejoin="round" opacity="0.2"/><line x1="1393.515" y1="277.271" x2="1438.015" y2="305.771" fill="none" stroke="#13d6d6" stroke-linecap="round" stroke-linejoin="round" opacity="0.2"/><line x1="1438.015" y1="388.771" x2="1438.015" y2="305.771" fill="none" stroke="#13d6d6" stroke-linecap="round" stroke-linejoin="round" opacity="0.2"/><line x1="1399.515" y1="434.271" x2="1438.015" y2="388.771" fill="none" stroke="#13d6d6" stroke-linecap="round" stroke-linejoin="round" opacity="0.2"/><line x1="1448.171" y1="496.318" x2="1399.515" y2="434.271" fill="none" stroke="#13d6d6" stroke-linecap="round" stroke-linejoin="round" opacity="0.2"/><line x1="1271.372" y1="544.929" x2="1298.844" y2="464.261" fill="none" stroke="#13d6d6" stroke-linecap="round" stroke-linejoin="round" opacity="0.2"/><line x1="1399.515" y1="434.271" x2="1298.844" y2="464.261" fill="none" stroke="#13d6d6" stroke-linecap="round" stroke-linejoin="round" opacity="0.2"/><line x1="1448.171" y1="496.318" x2="1271.372" y2="544.929" fill="none" stroke="#13d6d6" stroke-linecap="round" stroke-linejoin="round" opacity="0.2"/><line x1="1383.266" y1="556.967" x2="1271.372" y2="544.929" fill="none" stroke="#13d6d6" stroke-linecap="round" stroke-linejoin="round" opacity="0.2"/><line x1="1448.171" y1="496.318" x2="1383.266" y2="556.967" fill="none" stroke="#13d6d6" stroke-linecap="round" stroke-linejoin="round" opacity="0.2"/><line x1="1276.293" y1="624.078" x2="1271.372" y2="544.929" fill="none" stroke="#13d6d6" stroke-linecap="round" stroke-linejoin="round" opacity="0.2"/><line x1="1305.461" y1="685.205" x2="1276.293" y2="624.078" fill="none" stroke="#13d6d6" stroke-linecap="round" stroke-linejoin="round" opacity="0.2"/><line x1="1433.105" y1="625.693" x2="1305.461" y2="685.205" fill="none" stroke="#13d6d6" stroke-linecap="round" stroke-linejoin="round" opacity="0.2"/><line x1="1433.105" y1="625.693" x2="1383.266" y2="556.967" fill="none" stroke="#13d6d6" stroke-linecap="round" stroke-linejoin="round" opacity="0.2"/><line x1="1276.293" y1="624.078" x2="1383.266" y2="556.967" fill="none" stroke="#13d6d6" stroke-linecap="round" stroke-linejoin="round" opacity="0.2"/><line x1="1175.5" y1="659.5" x2="1276.266" y2="623.967" fill="none" stroke="#13d6d6" stroke-linecap="round" stroke-linejoin="round" opacity="0.2"/><line x1="1064.321" y1="366.201" x2="1075" y2="506" fill="none" stroke="#13d6d6" stroke-linecap="round" stroke-linejoin="round" opacity="0.2"/><line x1="1210.321" y1="349.701" x2="1175.321" y2="430.701" fill="none" stroke="#13d6d6" stroke-linecap="round" stroke-linejoin="round" opacity="0.2"/><line x1="1075" y1="506" x2="1175.321" y2="430.701" fill="none" stroke="#13d6d6" stroke-linecap="round" stroke-linejoin="round" opacity="0.2"/><line x1="1336.321" y1="397.201" x2="1291.821" y2="368.701" fill="none" stroke="#13d6d6" stroke-linecap="round" stroke-linejoin="round" opacity="0.2"/><line x1="1064.321" y1="366.201" x2="1210.321" y2="349.701" fill="none" stroke="#13d6d6" stroke-linecap="round" stroke-linejoin="round" opacity="0.2"/><line x1="1175.321" y1="430.701" x2="1291.821" y2="368.701" fill="none" stroke="#13d6d6" stroke-linecap="round" stroke-linejoin="round" opacity="0.2"/><line x1="1291.821" y1="285.701" x2="1291.821" y2="368.701" fill="none" stroke="#13d6d6" stroke-linecap="round" stroke-linejoin="round" opacity="0.2"/><line x1="1330.321" y1="240.201" x2="1291.821" y2="285.701" fill="none" stroke="#13d6d6" stroke-linecap="round" stroke-linejoin="round" opacity="0.2"/><line x1="1230.321" y1="220.201" x2="1291.821" y2="285.701" fill="none" stroke="#13d6d6" stroke-linecap="round" stroke-linejoin="round" opacity="0.2"/><line x1="1105.321" y1="309.201" x2="1210.321" y2="349.701" fill="none" stroke="#13d6d6" stroke-linecap="round" stroke-linejoin="round" opacity="0.2"/><line x1="1064.321" y1="366.201" x2="1105.321" y2="309.201" fill="none" stroke="#13d6d6" stroke-linecap="round" stroke-linejoin="round" opacity="0.2"/><line x1="1179.821" y1="286.201" x2="1210.321" y2="349.701" fill="none" stroke="#13d6d6" stroke-linecap="round" stroke-linejoin="round" opacity="0.2"/><line x1="1230.321" y1="220.201" x2="1179.821" y2="286.201" fill="none" stroke="#13d6d6" stroke-linecap="round" stroke-linejoin="round" opacity="0.2"/><line x1="1087.821" y1="177.701" x2="1230.321" y2="220.201" fill="none" stroke="#13d6d6" stroke-linecap="round" stroke-linejoin="round" opacity="0.2"/><line x1="1291.821" y1="285.701" x2="1210.321" y2="349.701" fill="none" stroke="#13d6d6" stroke-linecap="round" stroke-linejoin="round" opacity="0.2"/><line x1="1087.821" y1="177.701" x2="1105.321" y2="309.201" fill="none" stroke="#13d6d6" stroke-linecap="round" stroke-linejoin="round" opacity="0.2"/><line x1="1179.821" y1="286.201" x2="1105.321" y2="309.201" fill="none" stroke="#13d6d6" stroke-linecap="round" stroke-linejoin="round" opacity="0.2"/><line x1="1200.676" y1="477.183" x2="1174.92" y2="431.041" fill="none" stroke="#13d6d6" stroke-linecap="round" stroke-linejoin="round" opacity="0.2"/><line x1="995.134" y1="473.03" x2="1074.011" y2="505.172" fill="none" stroke="#13d6d6" stroke-linecap="round" stroke-linejoin="round" opacity="0.2"/><line x1="1281.664" y1="178.154" x2="1330.321" y2="240.201" fill="none" stroke="#13d6d6" stroke-linecap="round" stroke-linejoin="round" opacity="0.2"/><line x1="1330.321" y1="240.201" x2="1430.991" y2="210.211" fill="none" stroke="#13d6d6" stroke-linecap="round" stroke-linejoin="round" opacity="0.2"/><line x1="1344.321" y1="142.201" x2="1431.5" y2="210.5" fill="none" stroke="#13d6d6" stroke-linecap="round" stroke-linejoin="round" opacity="0.2"/><line x1="1281.664" y1="178.154" x2="1345.561" y2="142.296" fill="none" stroke="#13d6d6" stroke-linecap="round" stroke-linejoin="round" opacity="0.2"/><line x1="1230.321" y1="220.201" x2="1281.821" y2="178.201" fill="none" stroke="#13d6d6" stroke-linecap="round" stroke-linejoin="round" opacity="0.2"/><line x1="1230.571" y1="219.951" x2="1210.571" y2="151.451" fill="none" stroke="#13d6d6" stroke-linecap="round" stroke-linejoin="round" opacity="0.2"/><line x1="1210.321" y1="151.201" x2="1281.821" y2="178.201" fill="none" stroke="#13d6d6" stroke-linecap="round" stroke-linejoin="round" opacity="0.2"/><line x1="1200.546" y1="477.675" x2="1186.5" y2="589.499" fill="none" stroke="#13d6d6" stroke-linecap="round" stroke-linejoin="round" opacity="0.2"/></g><line x1="926.5" y1="538.217" x2="1103.299" y2="586.828" fill="none" stroke="#13d6d6" stroke-linecap="round" stroke-linejoin="round" opacity="0.2"/><line x1="902.5" y1="484.217" x2="995.252" y2="472.907" fill="none" stroke="#13d6d6" stroke-linecap="round" stroke-linejoin="round" opacity="0.2"/><line x1="1075.827" y1="506.16" x2="1186.942" y2="589.499" fill="none" stroke="#13d6d6" stroke-linecap="round" stroke-linejoin="round" opacity="0.2"/><line x1="1175.527" y1="659.689" x2="1186.942" y2="589.499" fill="none" stroke="#13d6d6" stroke-linecap="round" stroke-linejoin="round" opacity="0.2"/><line x1="1232.258" y1="702.105" x2="1175.527" y2="659.689" fill="none" stroke="#13d6d6" stroke-linecap="round" stroke-linejoin="round" opacity="0.2"/><line x1="1099.21" y1="707.104" x2="1175.527" y2="659.689" fill="none" stroke="#13d6d6" stroke-linecap="round" stroke-linejoin="round" opacity="0.2"/><line x1="991.405" y1="598.866" x2="1103.299" y2="586.828" fill="none" stroke="#13d6d6" stroke-linecap="round" stroke-linejoin="round" opacity="0.2"/><line x1="926.5" y1="538.217" x2="991.405" y2="598.866" fill="none" stroke="#13d6d6" stroke-linecap="round" stroke-linejoin="round" opacity="0.2"/><line x1="1011.401" y1="646.392" x2="1103.299" y2="586.828" fill="none" stroke="#13d6d6" stroke-linecap="round" stroke-linejoin="round" opacity="0.2"/><line x1="1099.21" y1="707.104" x2="1011.401" y2="646.392" fill="none" stroke="#13d6d6" stroke-linecap="round" stroke-linejoin="round" opacity="0.2"/><line x1="941.566" y1="667.592" x2="1099.21" y2="707.104" fill="none" stroke="#13d6d6" stroke-linecap="round" stroke-linejoin="round" opacity="0.2"/><line x1="1175.527" y1="659.689" x2="1103.299" y2="586.828" fill="none" stroke="#13d6d6" stroke-linecap="round" stroke-linejoin="round" opacity="0.2"/><line x1="941.566" y1="667.592" x2="991.405" y2="598.866" fill="none" stroke="#13d6d6" stroke-linecap="round" stroke-linejoin="round" opacity="0.2"/><line x1="1011.401" y1="646.392" x2="991.405" y2="598.866" fill="none" stroke="#13d6d6" stroke-linecap="round" stroke-linejoin="round" opacity="0.2"/><line x1="795.5" y1="551.5" x2="941.656" y2="667.67" fill="none" stroke="#13d6d6" stroke-linecap="round" stroke-linejoin="round" opacity="0.2"/><line x1="593.467" y1="548.563" x2="795.5" y2="551.5" fill="none" stroke="#13d6d6" stroke-linecap="round" stroke-linejoin="round" opacity="0.2"/><line x1="593.11" y1="549.075" x2="667.5" y2="491.5" fill="none" stroke="#13d6d6" stroke-linecap="round" stroke-linejoin="round" opacity="0.2"/><line x1="593.4" y1="549.471" x2="750.5" y2="679.5" fill="none" stroke="#13d6d6" stroke-linecap="round" stroke-linejoin="round" opacity="0.2"/><line x1="1103.299" y1="586.828" x2="1075.827" y2="506.16" fill="none" stroke="#13d6d6" stroke-linecap="round" stroke-linejoin="round" opacity="0.2"/><line x1="1271.5" y1="544.5" x2="1186.942" y2="589.499" fill="none" stroke="#13d6d6" stroke-linecap="round" stroke-linejoin="round" opacity="0.2"/><line x1="963.5" y1="397.5" x2="995.252" y2="472.907" fill="none" stroke="#13d6d6" stroke-linecap="round" stroke-linejoin="round" opacity="0.2"/><line x1="593.11" y1="549.075" x2="505.301" y2="488.363" fill="none" stroke="#13d6d6" stroke-linecap="round" stroke-linejoin="round" opacity="0.2"/><line x1="794.4" y1="551.471" x2="750.5" y2="679.5" fill="none" stroke="#13d6d6" stroke-linecap="round" stroke-linejoin="round" opacity="0.2"/><line x1="941.5" y1="667.5" x2="750.5" y2="679.5" fill="none" stroke="#13d6d6" stroke-linecap="round" stroke-linejoin="round" opacity="0.2"/><line x1="593.5" y1="549.5" x2="600.5" y2="691.5" fill="none" stroke="#13d6d6" stroke-linecap="round" stroke-linejoin="round" opacity="0.2"/><line x1="750.5" y1="679.5" x2="600.5" y2="691.5" fill="none" stroke="#13d6d6" stroke-linecap="round" stroke-linejoin="round" opacity="0.2"/><line x1="1345.019" y1="142.388" x2="1338.019" y2="46.888" fill="none" stroke="#13d6d6" stroke-linecap="round" stroke-linejoin="round" opacity="0.2"/><line x1="1338.019" y1="46.888" x2="1281.664" y2="178.154" fill="none" stroke="#13d6d6" stroke-linecap="round" stroke-linejoin="round" opacity="0.2"/><line x1="1281.664" y1="178.154" x2="1199.515" y2="69.271" fill="none" stroke="#13d6d6" stroke-linecap="round" stroke-linejoin="round" opacity="0.2"/><line x1="1199.321" y1="69.201" x2="1210.571" y2="151.451" fill="none" stroke="#13d6d6" stroke-linecap="round" stroke-linejoin="round" opacity="0.2"/><line x1="1115.321" y1="101.201" x2="1210.571" y2="151.451" fill="none" stroke="#13d6d6" stroke-linecap="round" stroke-linejoin="round" opacity="0.2"/><line x1="1115.321" y1="101.201" x2="1032.821" y2="83.201" fill="none" stroke="#13d6d6" stroke-linecap="round" stroke-linejoin="round" opacity="0.2"/><line x1="998.5" y1="7.5" x2="1115.321" y2="101.201" fill="none" stroke="#13d6d6" stroke-linecap="round" stroke-linejoin="round" opacity="0.2"/><line x1="1199.321" y1="69.201" x2="1337.996" y2="46.828" fill="none" stroke="#13d6d6" stroke-linecap="round" stroke-linejoin="round" opacity="0.2"/><line x1="1168.664" y1="44.154" x2="1232.561" y2="8.296" fill="none" stroke="#13d6d6" stroke-linecap="round" stroke-linejoin="round" opacity="0.2"/><line x1="1115.321" y1="101.201" x2="1168.821" y2="44.201" fill="none" stroke="#13d6d6" stroke-linecap="round" stroke-linejoin="round" opacity="0.2"/><line x1="1168.664" y1="44.154" x2="1199.321" y2="69.201" fill="none" stroke="#13d6d6" stroke-linecap="round" stroke-linejoin="round" opacity="0.2"/><line x1="1115.571" y1="100.951" x2="1095.571" y2="32.451" fill="none" stroke="#13d6d6" stroke-linecap="round" stroke-linejoin="round" opacity="0.2"/><line x1="1095.321" y1="32.201" x2="1168.821" y2="44.201" fill="none" stroke="#13d6d6" stroke-linecap="round" stroke-linejoin="round" opacity="0.2"/><line x1="652.5" y1="362.217" x2="829.299" y2="410.828" fill="none" stroke="#13d6d6" stroke-linecap="round" stroke-linejoin="round" opacity="0.2"/><line x1="801.827" y1="330.16" x2="912.942" y2="413.499" fill="none" stroke="#13d6d6" stroke-linecap="round" stroke-linejoin="round" opacity="0.2"/><line x1="901.527" y1="483.689" x2="912.942" y2="413.499" fill="none" stroke="#13d6d6" stroke-linecap="round" stroke-linejoin="round" opacity="0.2"/><line x1="926.984" y1="537.582" x2="901.527" y2="483.689" fill="none" stroke="#13d6d6" stroke-linecap="round" stroke-linejoin="round" opacity="0.2"/><line x1="795.21" y1="551.104" x2="901.527" y2="483.689" fill="none" stroke="#13d6d6" stroke-linecap="round" stroke-linejoin="round" opacity="0.2"/><line x1="717.405" y1="422.866" x2="829.299" y2="410.828" fill="none" stroke="#13d6d6" stroke-linecap="round" stroke-linejoin="round" opacity="0.2"/><line x1="652.5" y1="362.217" x2="717.405" y2="422.866" fill="none" stroke="#13d6d6" stroke-linecap="round" stroke-linejoin="round" opacity="0.2"/><line x1="757.401" y1="470.392" x2="829.299" y2="410.828" fill="none" stroke="#13d6d6" stroke-linecap="round" stroke-linejoin="round" opacity="0.2"/><line x1="795.21" y1="551.104" x2="757.401" y2="470.392" fill="none" stroke="#13d6d6" stroke-linecap="round" stroke-linejoin="round" opacity="0.2"/><line x1="667.566" y1="491.592" x2="795.21" y2="551.104" fill="none" stroke="#13d6d6" stroke-linecap="round" stroke-linejoin="round" opacity="0.2"/><line x1="795.566" y1="550.592" x2="926.5" y2="537.5" fill="none" stroke="#13d6d6" stroke-linecap="round" stroke-linejoin="round" opacity="0.2"/><line x1="901.527" y1="483.689" x2="829.299" y2="410.828" fill="none" stroke="#13d6d6" stroke-linecap="round" stroke-linejoin="round" opacity="0.2"/><line x1="667.566" y1="491.592" x2="717.405" y2="422.866" fill="none" stroke="#13d6d6" stroke-linecap="round" stroke-linejoin="round" opacity="0.2"/><line x1="757.401" y1="470.392" x2="717.405" y2="422.866" fill="none" stroke="#13d6d6" stroke-linecap="round" stroke-linejoin="round" opacity="0.2"/><line x1="601.156" y1="320.17" x2="652.656" y2="362.17" fill="none" stroke="#13d6d6" stroke-linecap="round" stroke-linejoin="round" opacity="0.2"/><polyline points="438.656 322.17 581.156 389.17 667.656 491.67" fill="none" stroke="#13d6d6" stroke-linecap="round" stroke-linejoin="round" opacity="0.2"/><line x1="601.406" y1="320.42" x2="581.406" y2="388.92" fill="none" stroke="#13d6d6" stroke-linecap="round" stroke-linejoin="round" opacity="0.2"/><line x1="581.156" y1="389.17" x2="652.656" y2="362.17" fill="none" stroke="#13d6d6" stroke-linecap="round" stroke-linejoin="round" opacity="0.2"/><line x1="438.656" y1="325.67" x2="505.656" y2="488.67" fill="none" stroke="#13d6d6" stroke-linecap="round" stroke-linejoin="round" opacity="0.2"/><line x1="505.656" y1="488.67" x2="581.656" y2="389.17" fill="none" stroke="#13d6d6" stroke-linecap="round" stroke-linejoin="round" opacity="0.2"/><line x1="1036.35" y1="232.099" x2="1005.35" y2="304.599" fill="none" stroke="#13d6d6" stroke-linecap="round" stroke-linejoin="round" opacity="0.2"/><line x1="890.35" y1="215.599" x2="925.35" y2="296.599" fill="none" stroke="#13d6d6" stroke-linecap="round" stroke-linejoin="round" opacity="0.2"/><line x1="1005.35" y1="304.599" x2="925.35" y2="296.599" fill="none" stroke="#13d6d6" stroke-linecap="round" stroke-linejoin="round" opacity="0.2"/><line x1="764.35" y1="263.099" x2="808.85" y2="234.599" fill="none" stroke="#13d6d6" stroke-linecap="round" stroke-linejoin="round" opacity="0.2"/><line x1="1036.35" y1="232.099" x2="890.35" y2="215.599" fill="none" stroke="#13d6d6" stroke-linecap="round" stroke-linejoin="round" opacity="0.2"/><line x1="925.35" y1="296.599" x2="808.85" y2="234.599" fill="none" stroke="#13d6d6" stroke-linecap="round" stroke-linejoin="round" opacity="0.2"/><line x1="808.85" y1="151.599" x2="808.85" y2="234.599" fill="none" stroke="#13d6d6" stroke-linecap="round" stroke-linejoin="round" opacity="0.2"/><line x1="770.35" y1="106.099" x2="808.85" y2="151.599" fill="none" stroke="#13d6d6" stroke-linecap="round" stroke-linejoin="round" opacity="0.2"/><line x1="870.35" y1="86.099" x2="808.85" y2="151.599" fill="none" stroke="#13d6d6" stroke-linecap="round" stroke-linejoin="round" opacity="0.2"/><line x1="995.35" y1="175.099" x2="890.35" y2="215.599" fill="none" stroke="#13d6d6" stroke-linecap="round" stroke-linejoin="round" opacity="0.2"/><line x1="1036.35" y1="232.099" x2="995.35" y2="175.099" fill="none" stroke="#13d6d6" stroke-linecap="round" stroke-linejoin="round" opacity="0.2"/><line x1="1087.5" y1="177.5" x2="1036.35" y2="232.099" fill="none" stroke="#13d6d6" stroke-linecap="round" stroke-linejoin="round" opacity="0.2"/><line x1="970.85" y1="122.099" x2="890.35" y2="215.599" fill="none" stroke="#13d6d6" stroke-linecap="round" stroke-linejoin="round" opacity="0.2"/><line x1="870.35" y1="86.099" x2="970.85" y2="122.099" fill="none" stroke="#13d6d6" stroke-linecap="round" stroke-linejoin="round" opacity="0.2"/><line x1="1032.85" y1="83.599" x2="870.35" y2="86.099" fill="none" stroke="#13d6d6" stroke-linecap="round" stroke-linejoin="round" opacity="0.2"/><line x1="808.85" y1="151.599" x2="890.35" y2="215.599" fill="none" stroke="#13d6d6" stroke-linecap="round" stroke-linejoin="round" opacity="0.2"/><line x1="1032.85" y1="83.599" x2="995.35" y2="175.099" fill="none" stroke="#13d6d6" stroke-linecap="round" stroke-linejoin="round" opacity="0.2"/><line x1="970.85" y1="122.099" x2="995.35" y2="175.099" fill="none" stroke="#13d6d6" stroke-linecap="round" stroke-linejoin="round" opacity="0.2"/><line x1="899.995" y1="343.082" x2="925.751" y2="296.939" fill="none" stroke="#13d6d6" stroke-linecap="round" stroke-linejoin="round" opacity="0.2"/><line x1="1064.5" y1="366.5" x2="1006.339" y2="303.771" fill="none" stroke="#13d6d6" stroke-linecap="round" stroke-linejoin="round" opacity="0.2"/><line x1="819.007" y1="44.052" x2="770.35" y2="106.099" fill="none" stroke="#13d6d6" stroke-linecap="round" stroke-linejoin="round" opacity="0.2"/><line x1="770.35" y1="106.099" x2="669.68" y2="76.11" fill="none" stroke="#13d6d6" stroke-linecap="round" stroke-linejoin="round" opacity="0.2"/><line x1="819.007" y1="44.052" x2="755.11" y2="8.195" fill="none" stroke="#13d6d6" stroke-linecap="round" stroke-linejoin="round" opacity="0.2"/><line x1="870.35" y1="86.099" x2="818.85" y2="44.099" fill="none" stroke="#13d6d6" stroke-linecap="round" stroke-linejoin="round" opacity="0.2"/><line x1="870.1" y1="85.849" x2="890.1" y2="17.349" fill="none" stroke="#13d6d6" stroke-linecap="round" stroke-linejoin="round" opacity="0.2"/><line x1="890.35" y1="17.099" x2="818.85" y2="44.099" fill="none" stroke="#13d6d6" stroke-linecap="round" stroke-linejoin="round" opacity="0.2"/><line x1="1032.5" y1="83.5" x2="889.85" y2="17.099" fill="none" stroke="#13d6d6" stroke-linecap="round" stroke-linejoin="round" opacity="0.2"/><line x1="1032.5" y1="83.5" x2="1087.5" y2="177.5" fill="none" stroke="#13d6d6" stroke-linecap="round" stroke-linejoin="round" opacity="0.2"/></g><g id="_pulse_" data-name="pulse"><g id="_pulse_2" data-name="pulse"><g opacity="0.2"><path d="M438.906,330.92a8,8,0,1,1,8-8A8.009,8.009,0,0,1,438.906,330.92Zm0-10a2,2,0,1,0,2,2A2,2,0,0,0,438.906,320.92Z" fill="#13d6d6"/></g><g opacity="0.2"><path d="M581.406,396.92a8,8,0,1,1,8-8A8.009,8.009,0,0,1,581.406,396.92Zm0-10a2,2,0,1,0,2,2A2,2,0,0,0,581.406,386.92Z" fill="#13d6d6"/></g><g opacity="0.2"><path d="M500.656,292.17a8,8,0,1,1,8-8A8.009,8.009,0,0,1,500.656,292.17Zm0-10a2,2,0,1,0,2,2A2,2,0,0,0,500.656,282.17Z" fill="#13d6d6"/></g><g opacity="0.2"><path d="M601.156,328.17a8,8,0,1,1,8-8A8.009,8.009,0,0,1,601.156,328.17Zm0-10a2,2,0,1,0,2,2A2,2,0,0,0,601.156,318.17Z" fill="#13d6d6"/></g><g opacity="0.2"><path d="M662.656,262.67a8,8,0,1,1,8-8A8.009,8.009,0,0,1,662.656,262.67Zm0-10a2,2,0,1,0,2,2A2,2,0,0,0,662.656,252.67Z" fill="#13d6d6"/></g><g opacity="0.2"><path d="M701.156,308.17a8,8,0,1,1,8-8A8.009,8.009,0,0,1,701.156,308.17Zm0-10a2,2,0,1,0,2,2A2,2,0,0,0,701.156,298.17Z" fill="#13d6d6"/></g><g opacity="0.2"><path d="M707.156,151.17a8,8,0,1,1,8-8A8.009,8.009,0,0,1,707.156,151.17Zm0-10a2,2,0,1,0,2,2A2,2,0,0,0,707.156,141.17Z" fill="#13d6d6"/></g><g opacity="0.2"><path d="M596.521,66.191a8.032,8.032,0,0,1-2.323-.345,8,8,0,1,1,9.363-11.439h0a8.007,8.007,0,0,1-7.041,11.783Zm-1.773-7.059a2,2,0,1,0-.151-1.523,2.016,2.016,0,0,0,.151,1.523Z" fill="#13d6d6"/></g><g opacity="0.2"><path d="M415.232,127.751a8.044,8.044,0,0,1-1.893-.227,7.954,7.954,0,1,1,1.893.227Zm-.01-10a2,2,0,1,0,.465.056A1.972,1.972,0,0,0,415.222,117.748Z" fill="#13d6d6"/></g><g opacity="0.2"><path d="M571.156,112.67a8,8,0,1,1,8-8A8.009,8.009,0,0,1,571.156,112.67Zm0-10a2,2,0,1,0,2,2A2,2,0,0,0,571.156,102.67Z" fill="#13d6d6"/></g><g opacity="0.2"><path d="M465.906,109.92a8,8,0,1,1,8-8A8.009,8.009,0,0,1,465.906,109.92Zm0-10a2,2,0,1,0,2,2A2,2,0,0,0,465.906,99.92Z" fill="#13d6d6"/></g><g opacity="0.2"><path d="M435.156,182.17a8,8,0,1,1,8-8A8.009,8.009,0,0,1,435.156,182.17Zm0-10a2,2,0,1,0,2,2A2,2,0,0,0,435.156,172.17Z" fill="#13d6d6"/></g><g opacity="0.2"><path d="M476.156,239.17a8,8,0,1,1,8-8A8.009,8.009,0,0,1,476.156,239.17Zm0-10a2,2,0,1,0,2,2A2,2,0,0,0,476.156,229.17Z" fill="#13d6d6"/></g><g opacity="0.2"><path d="M581.156,198.67a8,8,0,1,1,8-8A8.009,8.009,0,0,1,581.156,198.67Zm0-10a2,2,0,1,0,2,2A2,2,0,0,0,581.156,188.67Z" fill="#13d6d6"/></g><g opacity="0.2"><path d="M662.656,179.67a8,8,0,1,1,8-8A8.009,8.009,0,0,1,662.656,179.67Zm0-10a2,2,0,1,0,2,2A2,2,0,0,0,662.656,169.67Z" fill="#13d6d6"/></g><g opacity="0.2"><path d="M667.741,499.9a8,8,0,1,1,7.732-5.938v0A8.016,8.016,0,0,1,667.741,499.9Zm-1.93-8.516a2,2,0,0,0,3.865,1.032Zm1.933-1.485a2,2,0,0,0-1.933,1.483l3.865,1.033h0a2,2,0,0,0-1.932-2.516Z" fill="#13d6d6"/></g><g opacity="0.2"><path d="M757.4,478.394a8,8,0,1,1,7.732-5.938h0A8.016,8.016,0,0,1,757.4,478.394Zm-1.93-8.517a2,2,0,0,0,3.865,1.032Zm1.933-1.484a2,2,0,0,0-1.932,1.482l3.864,1.033h0a2,2,0,0,0-1.416-2.448A2.036,2.036,0,0,0,757.4,468.393Z" fill="#13d6d6"/></g><g opacity="0.2"><path d="M795.223,559.107a8.029,8.029,0,0,1-2.078-.275,8,8,0,1,1,9.794-5.666h0a8.01,8.01,0,0,1-7.716,5.941Zm-1.946-8.519a2,2,0,1,0,.931-1.215,2.015,2.015,0,0,0-.931,1.215Z" fill="#13d6d6"/></g><g opacity="0.2"><path d="M901.524,491.69a8,8,0,1,1,7.733-5.938v0A8.017,8.017,0,0,1,901.524,491.69Zm-1.929-8.517a2,2,0,1,0,3.864,1.032Zm1.933-1.484a2,2,0,0,0-1.933,1.483l3.864,1.033h0a2,2,0,0,0-1.932-2.515Z" fill="#13d6d6"/></g><g opacity="0.2"><path d="M926.982,545.583a8,8,0,1,1,7.731-5.937A7.97,7.97,0,0,1,926.982,545.583Zm-1.93-8.518a2,2,0,1,0,2.449-1.415,2.013,2.013,0,0,0-2.449,1.415Z" fill="#13d6d6"/></g><g opacity="0.2"><path d="M963.3,405.449a8,8,0,1,1,2.052-15.732,8,8,0,0,1-2.052,15.732Zm-1.945-8.52a2,2,0,1,0,2.45-1.415,2.018,2.018,0,0,0-2.45,1.415Z" fill="#13d6d6"/></g><g opacity="0.2"><path d="M801.84,338.163A8.011,8.011,0,0,1,794.1,328.1a8,8,0,0,1,15.459,4.127h0a8.013,8.013,0,0,1-7.716,5.94Zm-1.946-8.519a2,2,0,1,0,.932-1.216,2.015,2.015,0,0,0-.932,1.216Z" fill="#13d6d6"/></g><g opacity="0.2"><path d="M652.513,370.22a8,8,0,1,1,2.051-15.732,8,8,0,0,1-2.051,15.732Zm-1.946-8.519a2,2,0,1,0,.931-1.215,2.019,2.019,0,0,0-.931,1.215Z" fill="#13d6d6"/></g><g opacity="0.2"><path d="M717.417,430.869a8,8,0,1,1,2.053-15.732,8,8,0,0,1,5.664,9.792h0a8.011,8.011,0,0,1-7.717,5.94Zm-1.945-8.519a2,2,0,1,0,2.45-1.416,2.015,2.015,0,0,0-2.45,1.416h0Z" fill="#13d6d6"/></g><g opacity="0.2"><path d="M829.3,418.829a8,8,0,1,1,7.732-5.937h0A8.015,8.015,0,0,1,829.3,418.829Zm-1.93-8.517a2,2,0,0,0,3.864,1.032Zm1.933-1.484a2,2,0,0,0-1.933,1.483l3.864,1.033h0a2,2,0,0,0-1.932-2.515Z" fill="#13d6d6"/></g><g opacity="0.2"><path d="M912.955,421.5a8,8,0,1,1,7.716-5.94h0a8.007,8.007,0,0,1-7.716,5.94Zm-1.945-8.519a2,2,0,1,0,.93-1.215,2.01,2.01,0,0,0-.93,1.215Z" fill="#13d6d6"/></g><g opacity="0.2"><path d="M505.906,495.92a8,8,0,1,1,8-8A8.009,8.009,0,0,1,505.906,495.92Zm0-10a2,2,0,1,0,2,2A2,2,0,0,0,505.906,485.92Z" fill="#13d6d6"/></g><g opacity="0.2"><path d="M1032.6,91.349a8,8,0,1,1,8-8A8.009,8.009,0,0,1,1032.6,91.349Zm0-10a2,2,0,1,0,2,2A2,2,0,0,0,1032.6,81.349Z" fill="#13d6d6"/></g><g opacity="0.2"><path d="M890.1,25.349a8,8,0,1,1,8-8A8.009,8.009,0,0,1,890.1,25.349Zm0-10a2,2,0,1,0,2,2A2,2,0,0,0,890.1,15.349Z" fill="#13d6d6"/></g><g opacity="0.2"><path d="M970.85,130.1a8,8,0,1,1,8-8A8.009,8.009,0,0,1,970.85,130.1Zm0-10a2,2,0,1,0,2,2A2,2,0,0,0,970.85,120.1Z" fill="#13d6d6"/></g><g opacity="0.2"><path d="M870.35,94.1a8,8,0,1,1,8-8A8.009,8.009,0,0,1,870.35,94.1Zm0-10a2,2,0,1,0,2,2A2,2,0,0,0,870.35,84.1Z" fill="#13d6d6"/></g><g opacity="0.2"><path d="M808.85,159.6a8,8,0,1,1,8-8A8.009,8.009,0,0,1,808.85,159.6Zm0-10a2,2,0,1,0,2,2A2,2,0,0,0,808.85,149.6Z" fill="#13d6d6"/></g><g opacity="0.2"><path d="M770.35,114.1a8,8,0,1,1,8-8A8.009,8.009,0,0,1,770.35,114.1Zm0-10a2,2,0,1,0,2,2A2,2,0,0,0,770.35,104.1Z" fill="#13d6d6"/></g><g opacity="0.2"><path d="M764.35,271.1a8,8,0,1,1,8-8A8.009,8.009,0,0,1,764.35,271.1Zm0-10a2,2,0,1,0,2,2A2,2,0,0,0,764.35,261.1Z" fill="#13d6d6"/></g><g opacity="0.2"><path d="M900.005,351.086a8.028,8.028,0,0,1-2.323-.346,7.945,7.945,0,0,1-4.738-3.878h0a7.988,7.988,0,1,1,7.061,4.225Zm-1.773-7.059a2,2,0,0,0,3.526-1.889ZM900,341.083a2,2,0,0,0-1.766,2.943h0l3.526-1.89a1.992,1.992,0,0,0-1.76-1.054Z" fill="#13d6d6"/></g><g opacity="0.2"><path d="M925.35,304.6a8,8,0,1,1,8-8A8.009,8.009,0,0,1,925.35,304.6Zm0-10a2,2,0,1,0,2,2A2,2,0,0,0,925.35,294.6Z" fill="#13d6d6"/></g><g opacity="0.2"><path d="M1005.35,312.6a8,8,0,1,1,8-8A8.009,8.009,0,0,1,1005.35,312.6Zm0-10a2,2,0,1,0,2,2A2,2,0,0,0,1005.35,302.6Z" fill="#13d6d6"/></g><g opacity="0.2"><path d="M1036.35,240.1a8,8,0,1,1,8-8A8.009,8.009,0,0,1,1036.35,240.1Zm0-10a2,2,0,1,0,2,2A2,2,0,0,0,1036.35,230.1Z" fill="#13d6d6"/></g><g opacity="0.2"><path d="M995.35,183.1a8,8,0,1,1,8-8A8.009,8.009,0,0,1,995.35,183.1Zm0-10a2,2,0,1,0,2,2A2,2,0,0,0,995.35,173.1Z" fill="#13d6d6"/></g><g opacity="0.2"><path d="M890.35,223.6a8,8,0,1,1,8-8A8.009,8.009,0,0,1,890.35,223.6Zm0-10a2,2,0,1,0,2,2A2,2,0,0,0,890.35,213.6Z" fill="#13d6d6"/></g><g opacity="0.2"><path d="M808.85,242.6a8,8,0,1,1,8-8A8.009,8.009,0,0,1,808.85,242.6Zm0-10a2,2,0,1,0,2,2A2,2,0,0,0,808.85,232.6Z" fill="#13d6d6"/></g><g opacity="0.2"><path d="M669.678,84.111a8,8,0,0,1-7.728-10.064h0a8,8,0,1,1,7.728,10.064Zm0-10a2,2,0,1,0,1.932,2.515v0a2,2,0,0,0-1.416-2.45A2.048,2.048,0,0,0,669.68,74.11Z" fill="#13d6d6"/></g><g opacity="0.2"><path d="M819.005,52.053a8,8,0,1,1,7.731-5.937A8.015,8.015,0,0,1,819.005,52.053Zm0-10a2,2,0,1,0,.516.068A2,2,0,0,0,819.007,42.052Z" fill="#13d6d6"/></g><g opacity="0.2"><path d="M755.005,16.053a8,8,0,0,1-7.727-10.065,8,8,0,1,1,7.727,10.065Zm0-10a2,2,0,1,0,.516.068A2,2,0,0,0,755.007,6.052Z" fill="#13d6d6"/></g></g><g id="_pulse_3" data-name="pulse"><g opacity="0.2"><path d="M1430.015,388.771a8,8,0,1,1,8,8A8.009,8.009,0,0,1,1430.015,388.771Zm6,0a2,2,0,1,0,2-2A2,2,0,0,0,1436.015,388.771Z" fill="#13d6d6"/></g><g opacity="0.2"><path d="M1391.515,434.271a8,8,0,1,1,8,8A8.009,8.009,0,0,1,1391.515,434.271Zm6,0a2,2,0,1,0,2-2A2,2,0,0,0,1397.515,434.271Z" fill="#13d6d6"/></g><g opacity="0.2"><path d="M1385.515,277.271a8,8,0,1,1,8,8A8.009,8.009,0,0,1,1385.515,277.271Zm6,0a2,2,0,1,0,2-2A2,2,0,0,0,1391.515,277.271Z" fill="#13d6d6"/></g><g opacity="0.2"><path d="M1430.015,305.771a8,8,0,1,1,8,8A8.009,8.009,0,0,1,1430.015,305.771Zm6,0a2,2,0,1,0,2-2A2,2,0,0,0,1436.015,305.771Z" fill="#13d6d6"/></g><g opacity="0.2"><path d="M1425.2,628.065v0A7.994,7.994,0,1,1,1432.93,634,7.946,7.946,0,0,1,1425.2,628.063Zm5.8-1.549a2,2,0,0,0,3.865-1.032Zm1.416-2.448a2,2,0,0,0-1.416,2.447h0l3.865-1.032a2,2,0,0,0-2.449-1.415Z" fill="#13d6d6"/></g><g opacity="0.2"><path d="M1268.564,626.143v0a7.994,7.994,0,1,1,7.732,5.938A8.009,8.009,0,0,1,1268.564,626.141Zm5.8-1.549a2,2,0,0,0,3.865-1.031Zm1.416-2.448a2,2,0,0,0-1.416,2.447h0l3.864-1.032a2,2,0,0,0-2.448-1.415Z" fill="#13d6d6"/></g><g opacity="0.2"><path d="M1301.455,692.13a7.952,7.952,0,0,1-3.723-4.862h0a8.007,8.007,0,1,1,3.723,4.862Zm5.939-7.44a2,2,0,1,0-.2,1.516,2.009,2.009,0,0,0,.2-1.516Z" fill="#13d6d6"/></g><g opacity="0.2"><path d="M1294.839,471.186a7.948,7.948,0,0,1-3.724-4.862h0a8,8,0,1,1,9.793,5.666,8.063,8.063,0,0,1-2.077.274A7.95,7.95,0,0,1,1294.839,471.186Zm5.938-7.44a2,2,0,1,0-.2,1.516,2.013,2.013,0,0,0,.2-1.516Z" fill="#13d6d6"/></g><g opacity="0.2"><path d="M1444.166,503.243a8,8,0,1,1,6.07.8,7.959,7.959,0,0,1-6.07-.8Zm5.938-7.441a2,2,0,1,0-.2,1.517,2.016,2.016,0,0,0,.2-1.517Z" fill="#13d6d6"/></g><g opacity="0.2"><path d="M1379.261,563.892a7.947,7.947,0,0,1-3.724-4.862h0a8.009,8.009,0,1,1,3.724,4.862Zm5.938-7.441h0a2,2,0,1,0-.2,1.518,2,2,0,0,0,.2-1.518Z" fill="#13d6d6"/></g><g opacity="0.2"><path d="M1263.643,546.994h0a8,8,0,1,1,7.732,5.937A7.954,7.954,0,0,1,1263.642,546.993Zm5.8-1.549a2,2,0,1,0,3.864-1.031Zm1.415-2.448a2,2,0,0,0-1.416,2.447h0l3.864-1.033a2,2,0,0,0-2.449-1.415Z" fill="#13d6d6"/></g><g opacity="0.2"><path d="M1080.071,177.451a8,8,0,1,1,8,8A8.008,8.008,0,0,1,1080.071,177.451Zm6,0a2,2,0,1,0,2-2A2,2,0,0,0,1086.071,177.451Z" fill="#13d6d6"/></g><g opacity="0.2"><path d="M1202.571,151.451a8,8,0,1,1,8,8A8.008,8.008,0,0,1,1202.571,151.451Zm6,0a2,2,0,1,0,2-2A2,2,0,0,0,1208.571,151.451Z" fill="#13d6d6"/></g><g opacity="0.2"><path d="M1171.821,286.2a8,8,0,1,1,8,8A8.008,8.008,0,0,1,1171.821,286.2Zm6,0a2,2,0,1,0,2-2A2,2,0,0,0,1177.821,286.2Z" fill="#13d6d6"/></g><g opacity="0.2"><path d="M1222.321,220.2a8,8,0,1,1,8,8A8.008,8.008,0,0,1,1222.321,220.2Zm6,0a2,2,0,1,0,2-2A2,2,0,0,0,1228.321,220.2Z" fill="#13d6d6"/></g><g opacity="0.2"><path d="M1283.821,285.7a8,8,0,1,1,8,8A8.009,8.009,0,0,1,1283.821,285.7Zm6,0a2,2,0,1,0,2-2A2,2,0,0,0,1289.821,285.7Z" fill="#13d6d6"/></g><g opacity="0.2"><path d="M1322.321,240.2a8,8,0,1,1,8,8A8.008,8.008,0,0,1,1322.321,240.2Zm6,0a2,2,0,1,0,2-2A2,2,0,0,0,1328.321,240.2Z" fill="#13d6d6"/></g><g opacity="0.2"><path d="M1328.321,397.2a8,8,0,1,1,8,8A8.009,8.009,0,0,1,1328.321,397.2Zm6,0a2,2,0,1,0,2-2A2,2,0,0,0,1334.321,397.2Z" fill="#13d6d6"/></g><g opacity="0.2"><path d="M1196.9,484.234a8,8,0,1,1,10.83-3.271h0a7.946,7.946,0,0,1-4.737,3.878,8.04,8.04,0,0,1-2.324.346A7.957,7.957,0,0,1,1196.9,484.234Zm2.016-8a2,2,0,0,0,3.526,1.89Zm1.185-.97a2.014,2.014,0,0,0-1.185.969l3.526,1.89h0a2,2,0,0,0-1.766-2.944A1.972,1.972,0,0,0,1200.1,475.269Z" fill="#13d6d6"/></g><g opacity="0.2"><path d="M990.964,479.857a8,8,0,1,1,6.049.949,8.044,8.044,0,0,1-1.893.227A7.95,7.95,0,0,1,990.964,479.857Zm3.7-8.771a2.014,2.014,0,1,0,.466-.055A1.979,1.979,0,0,0,994.665,471.086Z" fill="#13d6d6"/></g><g opacity="0.2"><path d="M1167.321,430.7a8,8,0,1,1,8,8A8.009,8.009,0,0,1,1167.321,430.7Zm6,0a2,2,0,1,0,2-2A2,2,0,0,0,1173.321,430.7Z" fill="#13d6d6"/></g><g opacity="0.2"><path d="M1067,506a8,8,0,1,1,8,8A8.009,8.009,0,0,1,1067,506Zm6,0a2,2,0,1,0,2-2A2,2,0,0,0,1073,506Z" fill="#13d6d6"/></g><g opacity="0.2"><path d="M1056.321,366.2a8,8,0,1,1,8,8A8.009,8.009,0,0,1,1056.321,366.2Zm6,0a2,2,0,1,0,2-2A2,2,0,0,0,1062.321,366.2Z" fill="#13d6d6"/></g><g opacity="0.2"><path d="M1097.321,309.2a8,8,0,1,1,8,8A8.009,8.009,0,0,1,1097.321,309.2Zm6,0a2,2,0,1,0,2-2A2,2,0,0,0,1103.321,309.2Z" fill="#13d6d6"/></g><g opacity="0.2"><path d="M1202.321,349.7a8,8,0,1,1,8,8A8.009,8.009,0,0,1,1202.321,349.7Zm6,0a2,2,0,1,0,2-2A2,2,0,0,0,1208.321,349.7Z" fill="#13d6d6"/></g><g opacity="0.2"><path d="M1283.821,368.7a8,8,0,1,1,8,8A8.009,8.009,0,0,1,1283.821,368.7Zm6,0a2,2,0,1,0,2-2A2,2,0,0,0,1289.821,368.7Z" fill="#13d6d6"/></g><g opacity="0.2"><path d="M1423.262,212.275a8,8,0,1,1,15.459-4.127h0a8,8,0,1,1-15.459,4.127Zm7.213-4a2,2,0,0,0-1.416,2.449v0a2,2,0,1,0,1.416-2.447Z" fill="#13d6d6"/></g><g opacity="0.2"><path d="M1273.935,180.217a7.994,7.994,0,1,1,7.731,5.938A8.01,8.01,0,0,1,1273.935,180.217Zm7.213-4a2,2,0,1,0,.516-.068A2.016,2.016,0,0,0,1281.148,176.221Z" fill="#13d6d6"/></g><g opacity="0.2"><path d="M1337.935,144.217a7.994,7.994,0,1,1,7.731,5.938A8.01,8.01,0,0,1,1337.935,144.217Zm7.213-4a2,2,0,1,0,.516-.068A2.016,2.016,0,0,0,1345.148,140.221Z" fill="#13d6d6"/></g></g><g opacity="0.2"><path d="M941.741,675.9a8,8,0,1,1,7.732-5.938v0A8.016,8.016,0,0,1,941.741,675.9Zm-1.93-8.516a2,2,0,0,0,3.865,1.032Zm1.933-1.485a2,2,0,0,0-1.933,1.483l3.865,1.033h0a2,2,0,0,0-1.932-2.516Z" fill="#13d6d6"/></g><g opacity="0.2"><path d="M1011.4,654.394a8,8,0,1,1,7.732-5.938h0A8.016,8.016,0,0,1,1011.4,654.394Zm-1.93-8.517a2,2,0,0,0,3.865,1.032Zm1.933-1.484a2,2,0,0,0-1.932,1.482l3.864,1.033h0a2,2,0,0,0-1.416-2.448A2.036,2.036,0,0,0,1011.4,644.393Z" fill="#13d6d6"/></g><g opacity="0.2"><path d="M1099.223,715.107a8.029,8.029,0,0,1-2.078-.275,8,8,0,1,1,9.794-5.666h0a8.01,8.01,0,0,1-7.716,5.941Zm-1.946-8.519a2,2,0,1,0,.931-1.215,2.015,2.015,0,0,0-.931,1.215Z" fill="#13d6d6"/></g><g opacity="0.2"><path d="M1175.524,667.69a8,8,0,1,1,7.733-5.938v0A8.017,8.017,0,0,1,1175.524,667.69Zm-1.929-8.517a2,2,0,1,0,3.864,1.032Zm1.933-1.484a2,2,0,0,0-1.933,1.483l3.864,1.033h0a2,2,0,0,0-1.932-2.515Z" fill="#13d6d6"/></g><g opacity="0.2"><path d="M1232.256,710.106a8,8,0,1,1,7.731-5.937A7.97,7.97,0,0,1,1232.256,710.106Zm-1.93-8.518a2,2,0,1,0,2.449-1.415,2.013,2.013,0,0,0-2.449,1.415Z" fill="#13d6d6"/></g><g opacity="0.2"><path d="M991.417,606.869a8,8,0,1,1,2.053-15.732,8,8,0,0,1,5.664,9.792h0a8.011,8.011,0,0,1-7.717,5.94Zm-1.945-8.519a2,2,0,1,0,2.45-1.416,2.015,2.015,0,0,0-2.45,1.416h0Z" fill="#13d6d6"/></g><g opacity="0.2"><path d="M1103.3,594.829a8,8,0,1,1,7.732-5.937h0A8.015,8.015,0,0,1,1103.3,594.829Zm-1.93-8.517a2,2,0,0,0,3.864,1.032Zm1.933-1.484a2,2,0,0,0-1.933,1.483l3.864,1.033h0a2,2,0,0,0-1.932-2.515Z" fill="#13d6d6"/></g><g opacity="0.2"><path d="M1186.955,597.5a8,8,0,1,1,7.716-5.94h0a8.007,8.007,0,0,1-7.716,5.94Zm-1.945-8.519a2,2,0,1,0,.93-1.215,2.01,2.01,0,0,0-.93,1.215Z" fill="#13d6d6"/></g><g opacity="0.2"><path d="M593.123,557.078a8.04,8.04,0,0,1-2.078-.275,8,8,0,1,1,9.794-5.666h0a8.01,8.01,0,0,1-7.716,5.941Zm-1.945-8.519a2,2,0,1,0,.93-1.215,2.011,2.011,0,0,0-.93,1.215Z" fill="#13d6d6"/></g><g opacity="0.2"><path d="M751.178,687.079a8.04,8.04,0,0,1-2.078-.275,8,8,0,1,1,9.794-5.666h0a8.01,8.01,0,0,1-7.716,5.941Zm-1.945-8.519a2,2,0,1,0,.93-1.215,2.011,2.011,0,0,0-.93,1.215Z" fill="#13d6d6"/></g><g opacity="0.2"><path d="M601.087,700.073a8.029,8.029,0,0,1-2.078-.275,8,8,0,1,1,9.794-5.666h0a8.01,8.01,0,0,1-7.716,5.941Zm-1.946-8.519a2,2,0,1,0,.931-1.216,2.02,2.02,0,0,0-.931,1.216Z" fill="#13d6d6"/></g><g opacity="0.2"><path d="M1087.571,32.451a8,8,0,1,1,8,8A8.008,8.008,0,0,1,1087.571,32.451Zm6,0a2,2,0,1,0,2-2A2,2,0,0,0,1093.571,32.451Z" fill="#13d6d6"/></g><g opacity="0.2"><path d="M1107.321,101.2a8,8,0,1,1,8,8A8.008,8.008,0,0,1,1107.321,101.2Zm6,0a2,2,0,1,0,2-2A2,2,0,0,0,1113.321,101.2Z" fill="#13d6d6"/></g><g opacity="0.2"><path d="M1191.321,69.2a8,8,0,1,1,8,8A8.008,8.008,0,0,1,1191.321,69.2Zm6,0a2,2,0,1,0,2-2A2,2,0,0,0,1197.321,69.2Z" fill="#13d6d6"/></g><g opacity="0.2"><path d="M1330.266,48.891a8,8,0,0,1,15.459-4.126h0a8,8,0,1,1-15.459,4.126Zm7.213-4a2,2,0,0,0-1.416,2.45v0a2,2,0,1,0,1.416-2.448Z" fill="#13d6d6"/></g><g opacity="0.2"><path d="M1160.783,45.533a8.073,8.073,0,0,1,5.413-8.989,8,8,0,1,1-5.413,8.989Zm7.365-3.312a2,2,0,1,0,.516-.068A2.016,2.016,0,0,0,1168.148,42.221Z" fill="#13d6d6"/></g><g opacity="0.2"><path d="M1224.783,9.533A8.073,8.073,0,0,1,1230.2.544a8,8,0,0,1,9.393,11.616,8,8,0,0,1-14.806-2.627Zm7.365-3.312a2,2,0,1,0,.516-.068A2.016,2.016,0,0,0,1232.148,6.221Z" fill="#13d6d6"/></g></g><g id="_nodes_" data-name="nodes"><circle cx="581.406" cy="388.92" r="3" fill="#13d6d6"/><circle cx="500.656" cy="284.17" r="3" fill="#13d6d6"/><circle cx="601.156" cy="320.17" r="3" fill="#13d6d6"/><circle cx="701.156" cy="300.17" r="3" fill="#13d6d6"/><circle cx="707.156" cy="143.17" r="3" fill="#13d6d6"/><circle cx="596.511" cy="58.187" r="3" fill="#13d6d6"/><circle cx="415.218" cy="119.748" r="3" fill="#13d6d6"/><circle cx="571.156" cy="104.67" r="3" fill="#13d6d6"/><circle cx="466.156" cy="101.67" r="3" fill="#13d6d6"/><circle cx="476.156" cy="231.17" r="3" fill="#13d6d6"/><circle cx="662.656" cy="171.67" r="3" fill="#13d6d6"/><circle cx="667.744" cy="491.898" r="3" fill="#13d6d6"/><circle cx="757.401" cy="470.392" r="3" fill="#13d6d6"/><circle cx="795.21" cy="551.104" r="3" fill="#13d6d6"/><circle cx="901.527" cy="483.689" r="3" fill="#13d6d6"/><circle cx="926.984" cy="537.582" r="3" fill="#13d6d6"/><circle cx="941.744" cy="667.898" r="3" fill="#13d6d6"/><circle cx="1011.401" cy="646.392" r="3" fill="#13d6d6"/><circle cx="1099.21" cy="707.104" r="3" fill="#13d6d6"/><circle cx="1175.527" cy="659.689" r="3" fill="#13d6d6"/><circle cx="1232.258" cy="702.105" r="3" fill="#13d6d6"/><circle cx="991.405" cy="598.866" r="3" fill="#13d6d6"/><circle cx="1103.299" cy="586.828" r="3" fill="#13d6d6"/><circle cx="1186.942" cy="589.499" r="3" fill="#13d6d6"/><circle cx="593.11" cy="549.075" r="3" fill="#13d6d6"/><circle cx="751.165" cy="679.076" r="3" fill="#13d6d6"/><circle cx="601.074" cy="692.069" r="3" fill="#13d6d6"/><circle cx="1095.571" cy="32.451" r="3" fill="#13d6d6"/><g opacity="0.2"><path d="M991,8a8,8,0,1,1,8,8A8.009,8.009,0,0,1,991,8Zm6,0a2,2,0,1,0,2-2A2,2,0,0,0,997,8Z" fill="#13d6d6"/></g><circle cx="999" cy="8" r="3" fill="#13d6d6"/><circle cx="1115.321" cy="101.201" r="3" fill="#13d6d6"/><circle cx="1337.996" cy="46.828" r="3" fill="#13d6d6"/><circle cx="1199.321" cy="69.201" r="3" fill="#13d6d6"/><circle cx="1168.664" cy="44.154" r="3" fill="#13d6d6"/><circle cx="1232.561" cy="8.296" r="3" fill="#13d6d6"/><circle cx="963.289" cy="397.446" r="3" fill="#13d6d6"/><circle cx="801.827" cy="330.16" r="3" fill="#13d6d6"/><circle cx="701.156" cy="300.17" r="3" fill="#13d6d6"/><circle cx="652.5" cy="362.217" r="3" fill="#13d6d6"/><circle cx="717.405" cy="422.866" r="3" fill="#13d6d6"/><circle cx="829.299" cy="410.828" r="3" fill="#13d6d6"/><circle cx="912.942" cy="413.499" r="3" fill="#13d6d6"/><circle cx="1032.6" cy="83.349" r="3" fill="#13d6d6"/><circle cx="890.1" cy="17.349" r="3" fill="#13d6d6"/><circle cx="970.85" cy="122.099" r="3" fill="#13d6d6"/><circle cx="870.35" cy="86.099" r="3" fill="#13d6d6"/><circle cx="808.85" cy="151.599" r="3" fill="#13d6d6"/><circle cx="770.35" cy="106.099" r="3" fill="#13d6d6"/><circle cx="764.35" cy="263.099" r="3" fill="#13d6d6"/><circle cx="899.995" cy="343.082" r="3" fill="#13d6d6"/><circle cx="925.35" cy="296.599" r="3" fill="#13d6d6"/><circle cx="1005.35" cy="304.599" r="3" fill="#13d6d6"/><circle cx="1399.515" cy="434.271" r="3" fill="#13d6d6"/><circle cx="1393.515" cy="277.271" r="3" fill="#13d6d6"/><circle cx="1438.015" cy="305.771" r="3" fill="#13d6d6"/><circle cx="1432.928" cy="625.999" r="3" fill="#13d6d6"/><circle cx="1276.293" cy="624.078" r="3" fill="#13d6d6"/><circle cx="1305.461" cy="685.205" r="3" fill="#13d6d6"/><circle cx="1298.844" cy="464.261" r="3" fill="#13d6d6"/><circle cx="1399.515" cy="434.271" r="3" fill="#13d6d6"/><circle cx="1448.171" cy="496.318" r="3" fill="#13d6d6"/><circle cx="1383.266" cy="556.967" r="3" fill="#13d6d6"/><circle cx="1271.372" cy="544.929" r="3" fill="#13d6d6"/><circle cx="1088.071" cy="177.451" r="3" fill="#13d6d6"/><circle cx="1210.571" cy="151.451" r="3" fill="#13d6d6"/><circle cx="1179.821" cy="286.201" r="3" fill="#13d6d6"/><circle cx="1230.321" cy="220.201" r="3" fill="#13d6d6"/><circle cx="1291.821" cy="285.701" r="3" fill="#13d6d6"/><circle cx="1330.321" cy="240.201" r="3" fill="#13d6d6"/><circle cx="1336.321" cy="397.201" r="3" fill="#13d6d6"/><circle cx="1200.676" cy="477.183" r="3" fill="#13d6d6"/><circle cx="995.134" cy="473.03" r="3" fill="#13d6d6"/><circle cx="1175.321" cy="430.701" r="3" fill="#13d6d6"/><circle cx="1075" cy="506" r="3" fill="#13d6d6"/><circle cx="1064.321" cy="366.201" r="3" fill="#13d6d6"/><circle cx="1105.321" cy="309.201" r="3" fill="#13d6d6"/><circle cx="1210.321" cy="349.701" r="3" fill="#13d6d6"/><circle cx="1291.821" cy="368.701" r="3" fill="#13d6d6"/><circle cx="1430.991" cy="210.211" r="3" fill="#13d6d6"/><circle cx="1330.321" cy="240.201" r="3" fill="#13d6d6"/><circle cx="1281.664" cy="178.154" r="3" fill="#13d6d6"/><circle cx="1345.561" cy="142.296" r="3" fill="#13d6d6"/><circle id="_Ellipse_" data-name="Ellipse" cx="1438.015" cy="388.771" r="3" fill="#13d6d6"/><circle cx="1036.35" cy="232.099" r="3" fill="#13d6d6"/><circle cx="995.35" cy="175.099" r="3" fill="#13d6d6"/><circle cx="890.35" cy="215.599" r="3" fill="#13d6d6"/><circle cx="808.85" cy="234.599" r="3" fill="#13d6d6"/><circle cx="669.68" cy="76.11" r="3" fill="#13d6d6"/><circle cx="770.35" cy="106.099" r="3" fill="#13d6d6"/><circle cx="819.007" cy="44.052" r="3" fill="#13d6d6"/><circle cx="755.11" cy="8.195" r="3" fill="#13d6d6"/><circle cx="435.156" cy="174.17" r="3" fill="#13d6d6"/><circle cx="505.906" cy="487.92" r="3" fill="#13d6d6"/><circle cx="438.906" cy="322.92" r="3" fill="#13d6d6"/><circle cx="581.156" cy="190.67" r="3" fill="#13d6d6"/><circle id="_Ellipse_2" data-name="Ellipse" cx="662.656" cy="254.67" r="3" fill="#13d6d6"/></g></g><g id="service-worker" data-name="service-worker"><g id="_yellow-conection_" data-name="yellow-conection"><path d="M93.723,224.8S208.354,410.944,506.156,487.67" fill="none" stroke="#fcd42d" stroke-miterlimit="10" opacity="0.6"/><path d="M100.854,223.944S325.5,100.5,581.406,190.92" fill="none" stroke="#fcd42d" stroke-miterlimit="10" opacity="0.6"/><path d="M101.854,225.944s256.5,66,560.8,28.726" fill="none" stroke="#fcd42d" stroke-miterlimit="10" opacity="0.6"/><path d="M103.5,229.5s105,94,335,93" fill="none" stroke="#fcd42d" stroke-miterlimit="10" opacity="0.6"/><path d="M102.5,227.5s83-36,333-53" fill="none" stroke="#fcd42d" stroke-miterlimit="10" opacity="0.6"/></g><g id="_service-worker-icon_" data-name="service-worker-icon"><path d="M109.634,197.45,87.845,210.012v25.162l21.789,12.6,21.79-12.6V210.012Z" fill="#2a2b60"/><polygon points="127.965 210.506 109.589 221.127 91.133 210.459 109.634 199.803 127.965 210.506" fill="#e1fafb"/><polygon points="89.795 212.296 108.51 223.241 108.51 244.761 89.795 233.993 89.795 212.296" fill="#fcd42d"/><polygon points="110.759 244.606 110.759 223.188 129.204 212.402 129.204 233.993 110.759 244.606" fill="#9ddde3"/><path d="M137.034,256.768a18.11,18.11,0,0,1-5.261-2.153l-.283-.174.133-.3a3.91,3.91,0,0,0-1.7-5.256,3.908,3.908,0,0,0-3.62.027l-.292.128-.175-.277a17.778,17.778,0,0,1-2.223-5.261l-.078-.325.306-.12a3.77,3.77,0,0,0,2.774-3.845,3.729,3.729,0,0,0-2.818-3.646l-.314-.114.073-.325a17.834,17.834,0,0,1,2.155-5.31l.175-.289.307.138a4.891,4.891,0,0,0,2.048.511,3.627,3.627,0,0,0,2.637-1.2,3.753,3.753,0,0,0,.607-4.651l-.143-.3.288-.18a17.971,17.971,0,0,1,5.294-2.223l.332-.079.114.312c.712,1.928,1.936,2.865,3.739,2.865.125,0,.252,0,.382-.014a3.771,3.771,0,0,0,3.426-2.867l.1-.311.329.077a17.619,17.619,0,0,1,5.318,2.189l.291.176-.138.307a3.88,3.88,0,0,0,5.3,5.319l.244-.108.188.212a15.754,15.754,0,0,1,2.241,5.4l0,.268-.281.107a3.91,3.91,0,0,0,.022,7.5l.29.114-.078.318a17.753,17.753,0,0,1-2.148,5.246l-.174.277-.3-.128a4.945,4.945,0,0,0-1.977-.465,3.677,3.677,0,0,0-2.852,1.438,3.766,3.766,0,0,0-.454,4.308l.12.276-.267.182-.238.148a17.879,17.879,0,0,1-4.809,2,.621.621,0,0,1-.224.044.585.585,0,0,1-.542-.374,3.868,3.868,0,0,0-7.314.059l-.051.11-.137.241Zm-8.888-9.076a4.636,4.636,0,0,1,4.317,6.326l.269.129-.179.014a16.974,16.974,0,0,0,4.234,1.693l.125.032.05-.119a4.569,4.569,0,0,1,4.138-2.8h.129a4.576,4.576,0,0,1,4.22,2.8l.051.12.126-.033a17.284,17.284,0,0,0,4.233-1.762l.115-.066-.052-.122a4.6,4.6,0,0,1,6.031-6.015l.121.052.068-.114a16.965,16.965,0,0,0,1.761-4.235l.034-.128-.125-.049a4.634,4.634,0,0,1,.024-8.55l.127-.049-.036-.131a18.811,18.811,0,0,0-1.742-4.231l-.067-.117-.123.053a4.634,4.634,0,0,1-6.086-2.435,4.664,4.664,0,0,1,0-3.638l.053-.122-.115-.067a17.445,17.445,0,0,0-4.233-1.753l-.133-.035-.047.13a4.388,4.388,0,0,1-3.905,2.913,4.558,4.558,0,0,1-.526.031,4.463,4.463,0,0,1-4.176-2.92l-.047-.129-.132.036a17.126,17.126,0,0,0-4.235,1.769l-.115.067.054.123a4.635,4.635,0,0,1-6.033,6.139l-.123-.052-.065.116a17.331,17.331,0,0,0-1.693,4.234l-.033.127.122.049a4.627,4.627,0,0,1,0,8.594l-.124.049.036.129a17.193,17.193,0,0,0,1.786,4.234l.065.111.12-.048A4.6,4.6,0,0,1,128.146,247.692Z" fill="#2a2b60"/><path d="M145.122,221.709l.2.046a17.519,17.519,0,0,1,5.276,2.172l.175.106-.082.182a4.1,4.1,0,0,0,3.514,6.065,3.846,3.846,0,0,0,1.966-.535l.162-.072.087.1a15.58,15.58,0,0,1,2.225,5.339v.164l-.186.07a4.059,4.059,0,0,0,.007,7.769l.184.072-.048.194a17.592,17.592,0,0,1-2.127,5.2l-.107.171-.181-.076a5.117,5.117,0,0,0-2.042-.479,3.821,3.821,0,0,0-2.963,1.488,3.9,3.9,0,0,0-.486,4.456l.077.175-.153.1-.24.149a17.9,17.9,0,0,1-4.8,1.991.43.43,0,0,1-.55-.231l-.016-.046,0-.007a4.016,4.016,0,0,0-5.154-2.4,3.976,3.976,0,0,0-2.416,2.464l-.048.1-.1.175h-.219a17.906,17.906,0,0,1-5.215-2.13l-.173-.106.072-.165a4.059,4.059,0,0,0-1.759-5.466,4.09,4.09,0,0,0-1.853-.447,4.029,4.029,0,0,0-1.886.466l-.184.08-.1-.166a17.658,17.658,0,0,1-2.2-5.216l-.048-.2.183-.072a3.906,3.906,0,0,0,2.87-3.989,3.865,3.865,0,0,0-2.917-3.783l-.19-.069.044-.195a17.681,17.681,0,0,1,2.138-5.267l.106-.175.182.082a5.029,5.029,0,0,0,2.113.526,3.772,3.772,0,0,0,2.744-1.242,3.892,3.892,0,0,0,.635-4.822l-.085-.178.174-.109a17.807,17.807,0,0,1,5.249-2.2l.2-.048.068.187a3.957,3.957,0,0,0,3.881,2.963c.128,0,.258,0,.39-.014a3.914,3.914,0,0,0,3.556-2.958l.064-.193M141,225.257a4.312,4.312,0,0,1-4.035-2.823l-.094-.257-.265.071a17.226,17.226,0,0,0-4.271,1.785l-.231.135.108.244a4.484,4.484,0,0,1-5.837,5.94l-.247-.1-.131.233a17.468,17.468,0,0,0-1.708,4.27l-.064.255.244.1a4.476,4.476,0,0,1,0,8.315l-.249.1.071.258a17.376,17.376,0,0,0,1.8,4.271l.132.223.239-.1a4.485,4.485,0,0,1,5.862,5.791l.28.11-.124.218A17.074,17.074,0,0,0,136.751,256l.25.062.1-.237a4.419,4.419,0,0,1,4-2.712h.132a4.422,4.422,0,0,1,4.081,2.7l.1.241.252-.068a17.407,17.407,0,0,0,4.271-1.776l.229-.133-.1-.244a4.453,4.453,0,0,1,5.835-5.817l.242.1.134-.228a17.081,17.081,0,0,0,1.776-4.272l.068-.258-.248-.1A4.484,4.484,0,0,1,157.89,235l.254-.1-.072-.262a18.914,18.914,0,0,0-1.757-4.264l-.132-.235-.247.106a4.479,4.479,0,0,1-5.888-2.356,4.506,4.506,0,0,1,0-3.521l.1-.244-.23-.133a17.549,17.549,0,0,0-4.27-1.768l-.266-.071-.093.26a4.25,4.25,0,0,1-3.79,2.817,4.439,4.439,0,0,1-.5.029m3.926-3.9-.151.453a3.635,3.635,0,0,1-3.291,2.753c-.126.009-.249.014-.37.014a3.64,3.64,0,0,1-3.6-2.767l-.16-.436-.462.109a18.127,18.127,0,0,0-5.338,2.241l-.4.252.2.419a3.594,3.594,0,0,1-.579,4.483,3.457,3.457,0,0,1-2.529,1.152,4.713,4.713,0,0,1-1.986-.5l-.428-.193-.244.4a18.036,18.036,0,0,0-2.174,5.355l-.1.454.436.159a3.568,3.568,0,0,1,2.72,3.509,3.629,3.629,0,0,1-2.678,3.7l-.428.168.109.453a17.98,17.98,0,0,0,2.241,5.3l.243.386.421-.185a3.759,3.759,0,0,1,5.11,5.036l-.184.42.4.244a18.245,18.245,0,0,0,5.338,2.174h.428l.185-.328.059-.126a3.717,3.717,0,0,1,7.016-.092l.014.04a.732.732,0,0,0,.682.47.747.747,0,0,0,.261-.048,18.1,18.1,0,0,0,4.852-2.015l.243-.151.37-.252-.177-.4a3.61,3.61,0,0,1,.437-4.138,3.516,3.516,0,0,1,2.737-1.385,4.774,4.774,0,0,1,1.921.454l.42.176.243-.386a17.947,17.947,0,0,0,2.166-5.288L159,243l-.428-.168a3.76,3.76,0,0,1-.009-7.21l.378-.143v-.4a15.945,15.945,0,0,0-2.275-5.472l-.26-.294-.361.16a3.753,3.753,0,0,1-5.087-5.129l.194-.428-.4-.243a17.831,17.831,0,0,0-5.364-2.208l-.461-.109Zm-3.926,4.2a4.808,4.808,0,0,0,.534-.031,4.551,4.551,0,0,0,4.038-3.014,17.238,17.238,0,0,1,4.2,1.738,4.783,4.783,0,0,0,6.287,6.27,18.613,18.613,0,0,1,1.728,4.2,4.784,4.784,0,0,0-.025,8.83,16.767,16.767,0,0,1-1.745,4.2,4.649,4.649,0,0,0-5.456,1.385,4.592,4.592,0,0,0-.772,4.827,17.07,17.07,0,0,1-4.2,1.745,4.733,4.733,0,0,0-4.358-2.887H141.1a4.719,4.719,0,0,0-4.273,2.9,16.8,16.8,0,0,1-4.2-1.679l-.025.042a4.783,4.783,0,0,0-6.253-6.178,17.106,17.106,0,0,1-1.771-4.2,4.776,4.776,0,0,0,0-8.872,17.127,17.127,0,0,1,1.679-4.2,4.784,4.784,0,0,0,6.227-6.337,16.934,16.934,0,0,1,4.2-1.754A4.6,4.6,0,0,0,141,225.557Z" fill="#2a2b60"/><path d="M154.829,239.249a4.624,4.624,0,0,1,2.953-4.532,18.613,18.613,0,0,0-1.728-4.2,4.784,4.784,0,0,1-6.287-6.27,17.238,17.238,0,0,0-4.2-1.738,4.551,4.551,0,0,1-4.038,3.014,4.6,4.6,0,0,1-4.85-2.988,16.918,16.918,0,0,0-4.2,1.754,4.784,4.784,0,0,1-6.227,6.337,17.127,17.127,0,0,0-1.679,4.2,4.776,4.776,0,0,1,0,8.872,17.106,17.106,0,0,0,1.771,4.2,4.784,4.784,0,0,1,6.253,6.178l.025-.042a16.8,16.8,0,0,0,4.2,1.679,4.719,4.719,0,0,1,4.273-2.9h.067a4.733,4.733,0,0,1,4.423,2.887,17.07,17.07,0,0,0,4.2-1.745,4.59,4.59,0,0,1,.772-4.827,4.651,4.651,0,0,1,5.456-1.385,16.767,16.767,0,0,0,1.745-4.2A4.624,4.624,0,0,1,154.829,239.249Z" fill="#fcd42d"/><circle cx="141.18" cy="239.111" r="8" fill="#2a2b60"/><circle cx="141.18" cy="239.111" r="6.82" fill="#fff"/></g><path id="_service-worker-text_" data-name="service-worker-text" d="M95.482,271.877a4.774,4.774,0,0,0-1.339-.215,2.472,2.472,0,0,0-1.353.326,1.014,1.014,0,0,0-.507.895,1.181,1.181,0,0,0,.3.84,2.168,2.168,0,0,0,.75.514q.444.186,1.235.437a13.829,13.829,0,0,1,1.6.583,2.761,2.761,0,0,1,1.041.826,2.281,2.281,0,0,1,.43,1.45,2.42,2.42,0,0,1-.451,1.457,2.879,2.879,0,0,1-1.263.965,4.789,4.789,0,0,1-1.866.34,5.436,5.436,0,0,1-2.082-.416,5.638,5.638,0,0,1-1.749-1.111l.6-1.152a5,5,0,0,0,1.561,1.048,4.308,4.308,0,0,0,1.687.368,2.692,2.692,0,0,0,1.533-.382,1.188,1.188,0,0,0,.562-1.034,1.21,1.21,0,0,0-.3-.847,2.178,2.178,0,0,0-.771-.527,13.03,13.03,0,0,0-1.256-.43,13,13,0,0,1-1.582-.569,2.731,2.731,0,0,1-1.034-.819A2.258,2.258,0,0,1,90.8,273a2.289,2.289,0,0,1,.43-1.375,2.714,2.714,0,0,1,1.208-.916,4.736,4.736,0,0,1,1.8-.319,5.836,5.836,0,0,1,1.714.257,5.729,5.729,0,0,1,1.492.687l-.555,1.194A5.562,5.562,0,0,0,95.482,271.877Zm4.282-1.381h6.745V271.7H101.1v3h4.844v1.208H101.1V279h5.579v1.208H99.764Zm15.337,9.716-1.929-3.054c-.222.019-.4.028-.542.028h-2.47v3.026h-1.332V270.5h3.8a4.281,4.281,0,0,1,2.853.854,3,3,0,0,1,1.006,2.422,3.45,3.45,0,0,1-.548,1.985,3.073,3.073,0,0,1-1.575,1.165l2.262,3.29Zm-2.471-4.234a2.942,2.942,0,0,0,1.916-.548,1.972,1.972,0,0,0,.666-1.617,1.9,1.9,0,0,0-.666-1.575,3,3,0,0,0-1.916-.534h-2.47v4.274Zm4.8-5.482h1.429l3.207,8.231,3.206-8.231h1.4l-3.941,9.716h-1.388Zm10.7,0h1.332v9.716h-1.332Zm9.854,1.423a3.735,3.735,0,1,0-1.513,7.141,3.792,3.792,0,0,0,1.5-.313,4.327,4.327,0,0,0,1.305-.853l.805.874a5.426,5.426,0,0,1-1.708,1.131,5.1,5.1,0,0,1-4.511-.25,4.908,4.908,0,0,1-2.484-4.309,4.778,4.778,0,0,1,.674-2.491,4.86,4.86,0,0,1,1.838-1.784,5.167,5.167,0,0,1,2.568-.652,5.236,5.236,0,0,1,1.964.381,4.876,4.876,0,0,1,1.645,1.076l-.791.958A4,4,0,0,0,137.988,271.919Zm3.955-1.423h6.745V271.7h-5.412v3h4.844v1.208h-4.844V279h5.579v1.208h-6.912ZM102.9,287.151h1.388L101,296.867H99.611L97.1,288.845l-2.554,8.022H93.171L89.9,287.151h1.429l2.568,8.286,2.554-8.286h1.332l2.568,8.286Zm9.458.569a4.911,4.911,0,0,1,1.854,1.784,4.747,4.747,0,0,1,.679,2.491,4.817,4.817,0,0,1-.679,2.5,4.928,4.928,0,0,1-1.854,1.805,5.358,5.358,0,0,1-5.149,0,4.915,4.915,0,0,1-1.852-1.805,4.809,4.809,0,0,1-.681-2.5,4.74,4.74,0,0,1,.681-2.491,4.915,4.915,0,0,1,1.845-1.784,5.423,5.423,0,0,1,5.156,0Zm-4.441,1.041a3.812,3.812,0,0,0-1.381,1.353,3.712,3.712,0,0,0,0,3.769,3.834,3.834,0,0,0,1.381,1.367,3.66,3.66,0,0,0,1.881.506,3.586,3.586,0,0,0,1.866-.506,3.81,3.81,0,0,0,1.361-1.367,3.762,3.762,0,0,0,0-3.769,3.787,3.787,0,0,0-1.361-1.353,3.628,3.628,0,0,0-1.866-.5A3.7,3.7,0,0,0,107.918,288.761Zm15.163,8.106-1.929-3.054c-.222.019-.4.028-.541.028H118.14v3.026h-1.332v-9.716h3.8a4.286,4.286,0,0,1,2.852.854,3,3,0,0,1,1.006,2.422,3.441,3.441,0,0,1-.548,1.985,3.08,3.08,0,0,1-1.575,1.166l2.262,3.289Zm-2.47-4.233a2.939,2.939,0,0,0,1.915-.549,1.972,1.972,0,0,0,.666-1.617,1.9,1.9,0,0,0-.666-1.575,3,3,0,0,0-1.915-.534H118.14v4.275Zm14.379,4.233h-1.61l-3.414-4.483-1.791,1.943v2.54h-1.332v-9.716h1.332v5.455l4.969-5.455h1.6l-3.845,4.192Zm1.665-9.716H143.4v1.208h-5.412v3h4.844v1.207h-4.844v3.095h5.579v1.208h-6.912Zm15.337,9.716-1.929-3.054c-.222.019-.4.028-.542.028h-2.47v3.026h-1.332v-9.716h3.8a4.282,4.282,0,0,1,2.852.854,3,3,0,0,1,1.007,2.422,3.448,3.448,0,0,1-.548,1.985,3.078,3.078,0,0,1-1.576,1.166l2.262,3.289Zm-2.471-4.233a2.942,2.942,0,0,0,1.916-.549,1.972,1.972,0,0,0,.666-1.617,1.9,1.9,0,0,0-.666-1.575,3,3,0,0,0-1.916-.534h-2.47v4.275Z" fill="#fcd42d"/><g id="_yellow-nodes_" data-name="yellow-nodes"><circle cx="435.156" cy="174.17" r="3" fill="#fcd42d"/><circle cx="581.156" cy="190.67" r="3" fill="#fcd42d"/><circle cx="662.656" cy="254.67" r="3" fill="#fcd42d"/><circle cx="438.906" cy="322.92" r="3" fill="#fcd42d"/><circle cx="505.906" cy="487.92" r="3" fill="#fcd42d"/></g><g id="_browser-service-worker-arrow_" data-name="browser-service-worker-arrow"><path d="M30.655,276.472v57.139a8.641,8.641,0,0,0,8.641,8.641H89.765a8.642,8.642,0,0,0,8.642-8.641h0V313.472" fill="none" stroke="#13d6d6" stroke-miterlimit="10"/><polygon points="26.952 279.28 30.655 277.707 34.358 279.28 30.655 270.502 26.952 279.28" fill="#13d6d6"/><polygon points="102.11 316.28 98.407 314.707 94.704 316.28 98.407 307.502 102.11 316.28" fill="#13d6d6"/></g></g><g id="gateway" data-name="gateway"><g id="_white-connection_" data-name="white-connection"><path d="M571.354,104.444s-150.5-69-335,23" fill="none" stroke="#fff" stroke-miterlimit="10"/><path d="M476.354,230.944s-95.5-132.5-239.995-103.744" fill="none" stroke="#fff" stroke-miterlimit="10"/><path d="M236,127.2S371.854-9.056,596.354,58.444" fill="none" stroke="#fff" stroke-miterlimit="10"/></g><g id="_white-nodes_" data-name="white-nodes"><circle cx="476.156" cy="231.17" r="3" fill="#fff"/><circle cx="571.104" cy="104.694" r="3" fill="#fff"/><circle cx="596.604" cy="58.194" r="3" fill="#fff"/></g><g id="_gateway-icon_" data-name="gateway-icon"><rect x="228.8" y="105.134" width="14.937" height="39.54" fill="#a0d6de"/><polygon points="201.561 86 201.561 106.012 184.866 106.012 184.866 144.674 201.561 144.674 208.59 144.674 225.285 144.674 225.285 86 201.561 86" fill="#fff"/><rect x="188.381" y="109.527" width="33.39" height="6.151" fill="#a0d6de"/><rect x="205.954" y="99.861" width="15.816" height="6.151" fill="#a0d6de"/><rect x="205.954" y="90.196" width="15.816" height="6.151" fill="#a0d6de"/><rect x="188.381" y="119.192" width="33.39" height="6.151" fill="#a0d6de"/><rect x="232.314" y="109.527" width="7.908" height="6.151" fill="none" stroke="#292960" stroke-miterlimit="10"/><rect x="232.314" y="119.192" width="7.908" height="6.151" fill="none" stroke="#292960" stroke-miterlimit="10"/><rect x="188.381" y="109.527" width="33.39" height="6.151" fill="none" stroke="#292960" stroke-miterlimit="10"/><rect x="205.954" y="99.861" width="15.816" height="6.151" fill="none" stroke="#292960" stroke-miterlimit="10"/><rect x="205.954" y="90.196" width="15.816" height="6.151" fill="none" stroke="#292960" stroke-miterlimit="10"/><rect x="188.381" y="119.192" width="33.39" height="6.151" fill="none" stroke="#292960" stroke-miterlimit="10"/></g><g id="_gateway-text_" data-name="gateway-text"><path d="M188.251,160.907h1.187V164.5a6.228,6.228,0,0,1-3.7,1.284,5.159,5.159,0,0,1-2.583-.663,4.942,4.942,0,0,1-2.527-4.335,4.774,4.774,0,0,1,.684-2.506,4.921,4.921,0,0,1,1.871-1.8,5.337,5.337,0,0,1,2.625-.656,5.644,5.644,0,0,1,1.99.363,5.389,5.389,0,0,1,1.682.991l-.768.978a4.268,4.268,0,0,0-1.348-.845,4.207,4.207,0,0,0-1.556-.3,3.807,3.807,0,0,0-1.927.5,3.729,3.729,0,0,0-1.389,1.368,3.781,3.781,0,0,0,.007,3.805,3.823,3.823,0,0,0,1.4,1.382,3.77,3.77,0,0,0,1.927.509,4.111,4.111,0,0,0,1.25-.2,4.677,4.677,0,0,0,1.179-.565Zm10.988,4.774-1.034-2.373h-5.151l-1.019,2.373h-1.41l4.341-9.773h1.4l4.328,9.773Zm-5.655-3.588h4.1l-2.066-4.747Zm6.339-6.185h7.638v1.229h-3.155v8.544h-1.341v-8.544h-3.142Zm9.174,0h6.785v1.215h-5.445v3.015h4.873v1.215h-4.873v3.114h5.612v1.214H209.1Zm20.873,0h1.4l-3.309,9.773h-1.4l-2.527-8.069-2.57,8.069h-1.381l-3.3-9.773h1.438l2.584,8.335,2.568-8.335h1.341l2.583,8.335Zm9.452,9.773-1.034-2.373h-5.151l-1.019,2.373h-1.41l4.341-9.773h1.4l4.328,9.773Zm-5.655-3.588h4.105l-2.066-4.747ZM249,155.908l-3.658,6.423v3.35H244v-3.294l-3.713-6.479h1.368l3.016,4.984,2.96-4.984Z" fill="#fff"/></g><path id="_http-text_" data-name="http-text" d="M31.013,111.878h1.212v3.938h5.047v-3.938H38.5v8.834H37.272v-3.8H32.225v3.8H31.013Zm8.871,0h6.9v1.111H43.935v7.723H42.724v-7.723h-2.84Zm7.155,0h6.9v1.111H51.091v7.723H49.879v-7.723h-2.84Zm14.254.783a2.75,2.75,0,0,1,.9,2.2,2.915,2.915,0,0,1-.909,2.29,3.686,3.686,0,0,1-2.549.814h-2.2v2.751H55.331v-8.834h3.407A3.783,3.783,0,0,1,61.293,112.661Zm-.864,3.7a1.794,1.794,0,0,0,.606-1.471,1.727,1.727,0,0,0-.606-1.432,2.732,2.732,0,0,0-1.742-.485l-2.145.012v3.874h2.145A2.679,2.679,0,0,0,60.429,116.365Z" fill="#13d6d6"/><g id="_http-gateway-arrow_" data-name="http-gateway-arrow"><path d="M30.786,178.475v-42.4a8.642,8.642,0,0,1,8.641-8.642H164.385" fill="none" stroke="#13d6d6" stroke-miterlimit="10"/><polygon points="34.489 175.666 30.786 177.239 27.083 175.666 30.786 184.444 34.489 175.666" fill="#13d6d6"/><polygon points="161.576 131.135 163.149 127.432 161.576 123.729 170.354 127.432 161.576 131.135" fill="#13d6d6"/></g></g></svg>
