<svg xmlns="http://www.w3.org/2000/svg" viewBox="0 0 319 640"><title>illustration-mobile</title><g id="ipfs-nodes"><g id="_browser_" data-name="browser"><path d="M26.17,101v1.247a4.791,4.791,0,0,0,4.781,4.781H84.727a4.791,4.791,0,0,0,4.781-4.781V101Z" fill="#51b7b7"/><rect x="26.2" y="54.402" width="63.308" height="44.787" fill="#a0d6de"/><path d="M84.727,43.694l-53.776-.04a4.791,4.791,0,0,0-4.781,4.781v4.152H89.508V48.475A4.791,4.791,0,0,0,84.727,43.694ZM35.306,50.471a2.286,2.286,0,1,1,2.286-2.286A2.285,2.285,0,0,1,35.306,50.471Zm7.228,0a2.286,2.286,0,1,1,2.285-2.286A2.285,2.285,0,0,1,42.534,50.471Zm7.227,0a2.286,2.286,0,1,1,2.286-2.286A2.286,2.286,0,0,1,49.761,50.471Z" fill="#51b7b7"/><path d="M51.3,48.185a1.527,1.527,0,0,0-1.527-1.527h-.01A1.537,1.537,0,1,0,51.3,48.2Z" fill="#fdd52f"/><path d="M36.843,48.185a1.527,1.527,0,0,0-1.526-1.527h-.011A1.537,1.537,0,1,0,36.844,48.2Z" fill="#a0d6de"/><path d="M44.071,48.185a1.527,1.527,0,0,0-1.527-1.527h-.01A1.537,1.537,0,1,0,44.071,48.2Z" fill="#fff"/></g><g id="_lines_" data-name="lines"><line x1="272" y1="269" x2="306" y2="316" fill="none" stroke="#13d6d6" stroke-linecap="round" stroke-linejoin="round" opacity="0.2"/><line x1="250.03" y1="357.359" x2="302.077" y2="386.016" fill="none" stroke="#13d6d6" stroke-linecap="round" stroke-linejoin="round" opacity="0.2"/><line x1="270.801" y1="568.148" x2="234.748" y2="517.802" fill="none" stroke="#13d6d6" stroke-linecap="round" stroke-linejoin="round" opacity="0.2"/><line x1="270.747" y1="568.36" x2="294.748" y2="513.802" fill="none" stroke="#13d6d6" stroke-linecap="round" stroke-linejoin="round" opacity="0.2"/><line x1="136.03" y1="495.359" x2="165.34" y2="570.112" fill="none" stroke="#13d6d6" stroke-linecap="round" stroke-linejoin="round" opacity="0.2"/><line x1="72.03" y1="509.359" x2="93.381" y2="569.265" fill="none" stroke="#13d6d6" stroke-linecap="round" stroke-linejoin="round" opacity="0.2"/><line x1="22.655" y1="534.426" x2="93.381" y2="569.265" fill="none" stroke="#13d6d6" stroke-linecap="round" stroke-linejoin="round" opacity="0.2"/><line x1="35.855" y1="609.261" x2="93.381" y2="569.265" fill="none" stroke="#13d6d6" stroke-linecap="round" stroke-linejoin="round" opacity="0.2"/><line x1="136.986" y1="301.268" x2="200.399" y2="320.043" fill="none" stroke="#13d6d6" stroke-linecap="round" stroke-linejoin="round" opacity="0.2"/><line x1="136.986" y1="301.268" x2="163.884" y2="210.161" fill="none" stroke="#13d6d6" stroke-linecap="round" stroke-linejoin="round" opacity="0.2"/><line x1="58.623" y1="435.511" x2="80.53" y2="380.643" fill="none" stroke="#13d6d6" stroke-linecap="round" stroke-linejoin="round" opacity="0.2"/><line x1="136.561" y1="301.658" x2="140.52" y2="367.697" fill="none" stroke="#13d6d6" stroke-linecap="round" stroke-linejoin="round" opacity="0.2"/><line x1="80.53" y1="380.643" x2="140.52" y2="367.697" fill="none" stroke="#13d6d6" stroke-linecap="round" stroke-linejoin="round" opacity="0.2"/><line x1="250.03" y1="357.359" x2="231.419" y2="454.159" fill="none" stroke="#13d6d6" stroke-linecap="round" stroke-linejoin="round" opacity="0.2"/><line x1="136.558" y1="494.387" x2="234.748" y2="517.802" fill="none" stroke="#13d6d6" stroke-linecap="round" stroke-linejoin="round" opacity="0.2"/><line x1="72.665" y1="509.844" x2="136.558" y2="494.387" fill="none" stroke="#13d6d6" stroke-linecap="round" stroke-linejoin="round" opacity="0.2"/><line x1="58.99" y1="436.32" x2="136.558" y2="494.387" fill="none" stroke="#13d6d6" stroke-linecap="round" stroke-linejoin="round" opacity="0.2"/><line x1="250.03" y1="357.359" x2="199.381" y2="392.265" fill="none" stroke="#13d6d6" stroke-linecap="round" stroke-linejoin="round" opacity="0.2"/><line x1="139.855" y1="409.261" x2="231.419" y2="454.159" fill="none" stroke="#13d6d6" stroke-linecap="round" stroke-linejoin="round" opacity="0.2"/><line x1="58.99" y1="436.32" x2="139.855" y2="409.261" fill="none" stroke="#13d6d6" stroke-linecap="round" stroke-linejoin="round" opacity="0.2"/><line x1="140.5" y1="367.5" x2="139.5" y2="409.5" fill="none" stroke="#13d6d6" stroke-linecap="round" stroke-linejoin="round" opacity="0.2"/><line x1="59.502" y1="436.677" x2="72.747" y2="509.36" fill="none" stroke="#13d6d6" stroke-linecap="round" stroke-linejoin="round" opacity="0.2"/><line x1="136.558" y1="494.387" x2="231.419" y2="454.159" fill="none" stroke="#13d6d6" stroke-linecap="round" stroke-linejoin="round" opacity="0.2"/><line x1="200.306" y1="320.11" x2="199.381" y2="392.265" fill="none" stroke="#13d6d6" stroke-linecap="round" stroke-linejoin="round" opacity="0.2"/><line x1="216.306" y1="268.11" x2="200.5" y2="320.5" fill="none" stroke="#13d6d6" stroke-linecap="round" stroke-linejoin="round" opacity="0.2"/><line x1="139.855" y1="409.261" x2="199.381" y2="392.265" fill="none" stroke="#13d6d6" stroke-linecap="round" stroke-linejoin="round" opacity="0.2"/><line x1="272" y1="269" x2="250.077" y2="357.516" fill="none" stroke="#13d6d6" stroke-linecap="round" stroke-linejoin="round" opacity="0.2"/><line x1="271.75" y1="269.25" x2="216" y2="268" fill="none" stroke="#13d6d6" stroke-linecap="round" stroke-linejoin="round" opacity="0.2"/><line x1="215.75" y1="267.75" x2="250.077" y2="357.516" fill="none" stroke="#13d6d6" stroke-linecap="round" stroke-linejoin="round" opacity="0.2"/><line x1="163.577" y1="210.516" x2="215.75" y2="268.25" fill="none" stroke="#13d6d6" stroke-linecap="round" stroke-linejoin="round" opacity="0.2"/></g><g id="_pulse_" data-name="pulse"><g id="_pulse_2" data-name="pulse"><g opacity="0.2"><path d="M208,268a8,8,0,1,1,8,8A8.009,8.009,0,0,1,208,268Zm10,0a2,2,0,1,0-2,2A2,2,0,0,0,218,268Z" fill="#13d6d6"/></g><g opacity="0.2"><path d="M298,316a8,8,0,1,1,8,8A8.009,8.009,0,0,1,298,316Zm10,0a2,2,0,1,0-2,2A2,2,0,0,0,308,316Z" fill="#13d6d6"/></g><g opacity="0.2"><path d="M264,269a8,8,0,1,1,8,8A8.009,8.009,0,0,1,264,269Zm10,0a2,2,0,1,0-2,2A2,2,0,0,0,274,269Z" fill="#13d6d6"/></g><g opacity="0.2"><path d="M294.077,386.015a8,8,0,1,1,8,8A8.009,8.009,0,0,1,294.077,386.015Zm10,0a2,2,0,1,0-2,2A2,2,0,0,0,304.077,386.015Z" fill="#13d6d6"/></g><g opacity="0.2"><path d="M192,320.284a8,8,0,1,1,5.938,7.732h0A8.017,8.017,0,0,1,192,320.284Zm8.516-1.93a2,2,0,0,0-1.031,3.865ZM202,320.287a2,2,0,0,0-1.483-1.932l-1.032,3.864h0a2,2,0,0,0,2.447-1.417A1.994,1.994,0,0,0,202,320.287Z" fill="#13d6d6"/></g><g opacity="0.2"><path d="M131.853,409.258a8,8,0,1,1,5.938,7.732h0A8.017,8.017,0,0,1,131.853,409.258Zm8.517-1.93a2,2,0,0,0-1.032,3.865Zm1.484,1.933a2,2,0,0,0-1.482-1.933l-1.033,3.865h0a2,2,0,0,0,2.515-1.932Z" fill="#13d6d6"/></g><g opacity="0.2"><path d="M50.987,436.334a8.084,8.084,0,0,1,.274-2.079,8,8,0,1,1,5.666,9.794h0a8.007,8.007,0,0,1-5.94-7.715Zm8.519-1.946a2,2,0,1,0,1.215.93,2.01,2.01,0,0,0-1.215-.93Z" fill="#13d6d6"/></g><g opacity="0.2"><path d="M128.557,494.384a8,8,0,1,1,5.938,7.733h0A8.017,8.017,0,0,1,128.557,494.384Zm8.517-1.93a2,2,0,1,0-1.032,3.865Zm1.484,1.934a2,2,0,0,0-1.483-1.933l-1.033,3.864h0a2,2,0,0,0,2.515-1.932Z" fill="#13d6d6"/></g><g opacity="0.2"><path d="M64.664,509.842a8,8,0,1,1,5.937,7.731A7.97,7.97,0,0,1,64.664,509.842Zm8.518-1.931a2,2,0,1,0,1.415,2.45,2.018,2.018,0,0,0-1.415-2.45Z" fill="#13d6d6"/></g><g opacity="0.2"><path d="M262.8,568.161a8,8,0,1,1,15.732,2.052,8,8,0,0,1-15.732-2.052Zm8.52-1.945a2,2,0,1,0,1.415,2.449,2.017,2.017,0,0,0-1.415-2.449Z" fill="#13d6d6"/></g><g opacity="0.2"><path d="M242.027,357.373a8,8,0,1,1,15.732,2.051,8,8,0,0,1-15.732-2.051Zm8.519-1.946a2,2,0,1,0,1.215.931,2.015,2.015,0,0,0-1.215-.931Z" fill="#13d6d6"/></g><g opacity="0.2"><path d="M191.378,392.277a8,8,0,1,1,15.732,2.052,8,8,0,0,1-9.792,5.665h0a8.013,8.013,0,0,1-5.94-7.717Zm8.519-1.945a2,2,0,1,0,1.416,2.45,2.015,2.015,0,0,0-1.416-2.45h0Z" fill="#13d6d6"/></g><g opacity="0.2"><path d="M223.418,454.157a8,8,0,1,1,5.937,7.732h0A8.016,8.016,0,0,1,223.418,454.157Zm8.517-1.931a2,2,0,0,0-1.032,3.865Zm1.484,1.934a2,2,0,0,0-1.483-1.933l-1.033,3.864h0a2,2,0,0,0,2.515-1.932Z" fill="#13d6d6"/></g><g opacity="0.2"><path d="M226.745,517.815a8,8,0,1,1,5.94,7.716h0a8.009,8.009,0,0,1-5.94-7.716Zm8.519-1.946a2,2,0,1,0,1.215.931,2.014,2.014,0,0,0-1.215-.931Z" fill="#13d6d6"/></g><g opacity="0.2"><path d="M156.327,210.765a8,8,0,1,1,8,8A8.009,8.009,0,0,1,156.327,210.765Zm10,0a2,2,0,1,0-2,2A2,2,0,0,0,166.327,210.765Z" fill="#13d6d6"/></g><g opacity="0.2"><path d="M287.161,514.865a8.04,8.04,0,0,1,.346-2.324,7.946,7.946,0,0,1,3.878-4.737h0a7.988,7.988,0,1,1-4.225,7.061Zm7.059-1.773a2,2,0,0,0,1.889,3.526Zm2.944,1.766a2,2,0,0,0-2.943-1.766h0l1.89,3.526a1.992,1.992,0,0,0,1.054-1.76Z" fill="#13d6d6"/></g></g><g id="_pulse_3" data-name="pulse"><g opacity="0.2"><path d="M158.39,565.824a8,8,0,1,1-.949,6.049,8.044,8.044,0,0,1-.227-1.893A7.95,7.95,0,0,1,158.39,565.824Zm8.771,3.7a2.014,2.014,0,1,0,.055.465A1.971,1.971,0,0,0,167.161,569.525Z" fill="#13d6d6"/></g></g><g opacity="0.2"><path d="M14.348,534.6a8,8,0,1,1,5.938,7.732h0A8.014,8.014,0,0,1,14.348,534.6Zm8.516-1.93a2,2,0,0,0-1.032,3.865Zm1.485,1.933a2,2,0,0,0-1.483-1.933l-1.033,3.865h0a2,2,0,0,0,2.516-1.932Z" fill="#13d6d6"/></g><g opacity="0.2"><path d="M27.853,609.258a8,8,0,1,1,5.938,7.732h0A8.017,8.017,0,0,1,27.853,609.258Zm8.517-1.93a2,2,0,0,0-1.032,3.865Zm1.484,1.933a2,2,0,0,0-1.482-1.933l-1.033,3.865h0a2,2,0,0,0,2.515-1.932Z" fill="#13d6d6"/></g><g opacity="0.2"><path d="M85.378,569.277a8,8,0,1,1,15.732,2.052,8,8,0,0,1-9.792,5.665h0a8.013,8.013,0,0,1-5.94-7.717Zm8.519-1.945a2,2,0,1,0,1.416,2.45,2.015,2.015,0,0,0-1.416-2.45h0Z" fill="#13d6d6"/></g><g opacity="0.2"><path d="M128.983,301.282a8.07,8.07,0,0,1,.274-2.078A8,8,0,1,1,134.923,309h0a8.011,8.011,0,0,1-5.94-7.716Zm8.519-1.946a2,2,0,1,0,1.215.931,2.015,2.015,0,0,0-1.215-.931Z" fill="#13d6d6"/></g><g opacity="0.2"><path d="M72.951,381.321a8.07,8.07,0,0,1,.274-2.078,8,8,0,1,1,5.666,9.794h0a8.007,8.007,0,0,1-5.94-7.716Zm8.519-1.946a2,2,0,1,0,1.215.931,2.014,2.014,0,0,0-1.215-.931Z" fill="#13d6d6"/></g><g opacity="0.2"><path d="M131.947,368.284a8.029,8.029,0,0,1,.275-2.078A8,8,0,1,1,137.888,376h0a8.012,8.012,0,0,1-5.941-7.716Zm8.52-1.946a2,2,0,1,0,1.215.931,2.017,2.017,0,0,0-1.215-.931Z" fill="#13d6d6"/></g></g><g id="_nodes_" data-name="nodes"><circle cx="216" cy="268" r="3" fill="#13d6d6"/><circle cx="306" cy="316" r="3" fill="#13d6d6"/><circle cx="272" cy="269" r="3" fill="#13d6d6"/><circle cx="302.077" cy="386.016" r="3" fill="#13d6d6"/><circle cx="200" cy="320.287" r="3" fill="#13d6d6"/><circle cx="139.855" cy="409.261" r="3" fill="#13d6d6"/><circle cx="58.99" cy="436.32" r="3" fill="#13d6d6"/><circle cx="136.558" cy="494.387" r="3" fill="#13d6d6"/><circle cx="72.665" cy="509.844" r="3" fill="#13d6d6"/><circle cx="22.349" cy="534.603" r="3" fill="#13d6d6"/><circle cx="35.855" cy="609.261" r="3" fill="#13d6d6"/><circle cx="93.381" cy="569.265" r="3" fill="#13d6d6"/><circle cx="136.986" cy="301.268" r="3" fill="#13d6d6"/><circle cx="80.954" cy="381.308" r="3" fill="#13d6d6"/><circle cx="139.951" cy="368.27" r="3" fill="#13d6d6"/><circle cx="270.801" cy="568.148" r="3" fill="#13d6d6"/><circle cx="302.077" cy="386.016" r="3" fill="#13d6d6"/><circle cx="250.03" cy="357.359" r="3" fill="#13d6d6"/><circle cx="199.381" cy="392.265" r="3" fill="#13d6d6"/><circle cx="231.419" cy="454.159" r="3" fill="#13d6d6"/><circle cx="234.748" cy="517.802" r="3" fill="#13d6d6"/><circle cx="295.165" cy="514.855" r="3" fill="#13d6d6"/><circle cx="165.217" cy="569.994" r="3" fill="#13d6d6"/><circle cx="164.327" cy="210.766" r="3" fill="#13d6d6"/></g></g><g id="service-worker" data-name="service-worker"><g id="_yellow-conection_" data-name="yellow-conection"><path d="M48,185.048S-25.5,303.5,59.346,436.076" fill="none" stroke="#fcd42d" stroke-miterlimit="10" opacity="0.6"/><path d="M52.566,190.59S152.5,214.5,199.925,320.346" fill="none" stroke="#fcd42d" stroke-miterlimit="10" opacity="0.6"/><path d="M51.422,192.511S50.5,297.5,139.787,368.2" fill="none" stroke="#fcd42d" stroke-miterlimit="10" opacity="0.6"/><path d="M49.316,195.815S11.5,282.5,81.135,380.432" fill="none" stroke="#fcd42d" stroke-miterlimit="10" opacity="0.6"/><path d="M50.46,193.894S100.5,228.5,136.908,301.468" fill="none" stroke="#fcd42d" stroke-miterlimit="10" opacity="0.6"/></g><g id="_service-worker-icon_" data-name="service-worker-icon"><path d="M57.634,165.685,35.845,178.247v25.162l21.789,12.6,21.79-12.6V178.247Z" fill="#2a2b60"/><polygon points="75.965 178.741 57.589 189.362 39.133 178.694 57.634 168.038 75.965 178.741" fill="#e1fafb"/><polygon points="37.795 180.531 56.51 191.475 56.51 212.995 37.795 202.228 37.795 180.531" fill="#fcd42d"/><polygon points="58.759 212.84 58.759 191.423 77.204 180.636 77.204 202.228 58.759 212.84" fill="#9ddde3"/><path d="M85.034,225a18.119,18.119,0,0,1-5.261-2.152l-.283-.175.133-.3a3.91,3.91,0,0,0-1.7-5.255,3.912,3.912,0,0,0-3.62.026l-.293.129L73.838,217a17.8,17.8,0,0,1-2.223-5.259l-.078-.326.306-.121a3.77,3.77,0,0,0,2.774-3.844A3.728,3.728,0,0,0,71.8,203.8l-.314-.114.073-.325a17.819,17.819,0,0,1,2.155-5.31l.175-.29.307.139a4.873,4.873,0,0,0,2.048.511,3.631,3.631,0,0,0,2.637-1.2,3.753,3.753,0,0,0,.607-4.652l-.143-.3.289-.181a18.027,18.027,0,0,1,5.293-2.222l.332-.077.114.311c.712,1.928,1.936,2.864,3.741,2.864.123,0,.25,0,.38-.013a3.773,3.773,0,0,0,3.426-2.866l.1-.312.329.077a17.571,17.571,0,0,1,5.318,2.19l.291.174-.138.307a3.879,3.879,0,0,0,5.3,5.319l.244-.107.188.212a15.746,15.746,0,0,1,2.241,5.4l0,.268-.281.106a3.91,3.91,0,0,0,.022,7.495l.29.116-.078.317a17.8,17.8,0,0,1-2.148,5.245l-.174.277-.3-.128a4.954,4.954,0,0,0-1.977-.463,3.678,3.678,0,0,0-2.852,1.436,3.77,3.77,0,0,0-.454,4.31l.12.275-.267.182-.238.147a17.9,17.9,0,0,1-4.809,2,.62.62,0,0,1-.223.044.585.585,0,0,1-.543-.374,3.893,3.893,0,0,0-3.647-2.579,3.873,3.873,0,0,0-3.667,2.637l-.051.11-.137.241Zm-8.888-9.075a4.636,4.636,0,0,1,4.317,6.325l.269.13-.179.014a16.974,16.974,0,0,0,4.234,1.693l.125.032.05-.12a4.568,4.568,0,0,1,4.138-2.8h.129a4.575,4.575,0,0,1,4.22,2.8l.051.12.126-.034a17.3,17.3,0,0,0,4.233-1.76l.115-.067-.052-.122a4.6,4.6,0,0,1,6.031-6.015l.121.051.068-.113a16.93,16.93,0,0,0,1.761-4.234l.034-.129-.125-.049a4.634,4.634,0,0,1,.024-8.551l.127-.049-.036-.13a18.765,18.765,0,0,0-1.742-4.231l-.067-.117-.124.053a4.629,4.629,0,0,1-6.085-2.436,4.664,4.664,0,0,1-.005-3.638l.053-.122-.115-.066a17.34,17.34,0,0,0-4.234-1.752l-.132-.036-.047.13a4.389,4.389,0,0,1-3.905,2.914,4.786,4.786,0,0,1-.526.03,4.464,4.464,0,0,1-4.176-2.921l-.047-.129-.132.036a17.075,17.075,0,0,0-4.235,1.771l-.115.067.054.122a4.635,4.635,0,0,1-6.033,6.138l-.123-.051-.065.116a17.315,17.315,0,0,0-1.693,4.234l-.033.128.122.049a4.625,4.625,0,0,1,0,8.591l-.124.05.036.129a17.19,17.19,0,0,0,1.786,4.235l.065.111.12-.049A4.619,4.619,0,0,1,76.146,215.927Z" fill="#2a2b60"/><path d="M93.122,189.944l.2.046a17.5,17.5,0,0,1,5.275,2.172l.176.106-.082.182a4.1,4.1,0,0,0,3.515,6.064,3.844,3.844,0,0,0,1.965-.534l.162-.072.087.1a15.611,15.611,0,0,1,2.226,5.34v.164l-.187.07a4.059,4.059,0,0,0,.007,7.769l.184.072-.047.193a17.632,17.632,0,0,1-2.128,5.2l-.108.171-.18-.076a5.1,5.1,0,0,0-2.042-.479,3.821,3.821,0,0,0-2.963,1.488,3.9,3.9,0,0,0-.486,4.455l.077.176-.153.1-.239.148a17.881,17.881,0,0,1-4.806,1.992.42.42,0,0,1-.153.029.43.43,0,0,1-.4-.265l-.016-.044v0a4.016,4.016,0,0,0-5.154-2.395,3.976,3.976,0,0,0-2.416,2.464l-.048.1-.1.175h-.219a17.859,17.859,0,0,1-5.214-2.129l-.173-.107.071-.164a4.059,4.059,0,0,0-1.759-5.466,4.09,4.09,0,0,0-1.853-.447,4.043,4.043,0,0,0-1.886.465l-.184.081-.106-.167a17.694,17.694,0,0,1-2.2-5.215l-.048-.2.183-.072a3.907,3.907,0,0,0,2.871-3.989,3.866,3.866,0,0,0-2.917-3.783l-.19-.069.044-.2a17.686,17.686,0,0,1,2.138-5.267l.106-.175.181.082a5.032,5.032,0,0,0,2.115.525,3.772,3.772,0,0,0,2.743-1.242,3.889,3.889,0,0,0,.635-4.821l-.085-.178.174-.11a17.82,17.82,0,0,1,5.249-2.2l.2-.048.068.187a3.955,3.955,0,0,0,3.881,2.962c.128,0,.258,0,.39-.013a3.915,3.915,0,0,0,3.556-2.958l.064-.193M89,193.492a4.313,4.313,0,0,1-4.035-2.823l-.094-.257-.265.071a17.21,17.21,0,0,0-4.271,1.785l-.23.135.106.244a4.484,4.484,0,0,1-5.837,5.94l-.246-.1-.131.233a17.468,17.468,0,0,0-1.708,4.27l-.064.255.244.1a4.477,4.477,0,0,1,0,8.315l-.249.1.071.258a17.376,17.376,0,0,0,1.8,4.271l.132.222.239-.1a4.485,4.485,0,0,1,5.862,5.791l.281.109-.125.219a17.119,17.119,0,0,0,4.272,1.709l.25.062.1-.238a4.415,4.415,0,0,1,4-2.711h.132a4.426,4.426,0,0,1,4.082,2.7l.1.24.252-.067a17.375,17.375,0,0,0,4.271-1.776l.229-.134-.1-.243a4.455,4.455,0,0,1,5.835-5.818l.242.1.134-.227a17.075,17.075,0,0,0,1.776-4.272l.068-.258-.248-.1a4.484,4.484,0,0,1,.023-8.271l.254-.1-.073-.261a18.891,18.891,0,0,0-1.756-4.265l-.131-.234-.248.106a4.482,4.482,0,0,1-5.888-2.356,4.511,4.511,0,0,1-.006-3.521l.1-.244-.229-.133a17.556,17.556,0,0,0-4.27-1.768l-.266-.071-.093.26A4.7,4.7,0,0,1,89,193.492m3.926-3.9-.151.453a3.634,3.634,0,0,1-3.291,2.753c-.126.009-.249.013-.37.013a3.639,3.639,0,0,1-3.6-2.766l-.16-.436-.462.109a18.127,18.127,0,0,0-5.338,2.241l-.4.252.2.419a3.593,3.593,0,0,1-.579,4.482,3.453,3.453,0,0,1-2.528,1.152,4.715,4.715,0,0,1-1.988-.5l-.427-.193-.244.4a18.025,18.025,0,0,0-2.174,5.355l-.1.453.436.16a3.568,3.568,0,0,1,2.72,3.508,3.63,3.63,0,0,1-2.678,3.7l-.429.168.11.453a18.015,18.015,0,0,0,2.24,5.305l.244.386.421-.185a3.759,3.759,0,0,1,5.11,5.036l-.184.42.395.243a18.218,18.218,0,0,0,5.338,2.174h.428l.185-.327.059-.126a3.717,3.717,0,0,1,7.016-.092l.014.04a.728.728,0,0,0,.943.421,18.063,18.063,0,0,0,4.852-2.014l.243-.151.37-.252-.177-.4a3.61,3.61,0,0,1,.437-4.138,3.513,3.513,0,0,1,2.737-1.385,4.792,4.792,0,0,1,1.921.453l.42.177.243-.386a17.947,17.947,0,0,0,2.166-5.288l.109-.445-.428-.168a3.76,3.76,0,0,1-.009-7.21l.378-.143v-.4a15.943,15.943,0,0,0-2.274-5.472l-.261-.294-.361.159a3.6,3.6,0,0,1-4.457-.612,3.629,3.629,0,0,1-.63-4.516l.193-.428-.4-.244a17.828,17.828,0,0,0-5.364-2.207l-.461-.109ZM89,193.792a5,5,0,0,0,4.572-3.045,17.238,17.238,0,0,1,4.2,1.738,4.784,4.784,0,0,0,6.287,6.27,18.625,18.625,0,0,1,1.728,4.2,4.784,4.784,0,0,0-.025,8.83,16.758,16.758,0,0,1-1.745,4.2,4.649,4.649,0,0,0-5.456,1.385,4.589,4.589,0,0,0-.772,4.826,17.035,17.035,0,0,1-4.2,1.746,4.736,4.736,0,0,0-4.358-2.888H89.1a4.717,4.717,0,0,0-4.273,2.9,16.8,16.8,0,0,1-4.2-1.679l-.024.042a4.783,4.783,0,0,0-6.254-6.178,17.113,17.113,0,0,1-1.771-4.2,4.776,4.776,0,0,0,0-8.872,17.157,17.157,0,0,1,1.678-4.2,4.784,4.784,0,0,0,6.228-6.337,16.959,16.959,0,0,1,4.2-1.755A4.6,4.6,0,0,0,89,193.792Z" fill="#2a2b60"/><path d="M102.829,207.484a4.625,4.625,0,0,1,2.953-4.533,18.625,18.625,0,0,0-1.728-4.2,4.784,4.784,0,0,1-6.287-6.27,17.238,17.238,0,0,0-4.2-1.738,4.549,4.549,0,0,1-4.038,3.013,4.6,4.6,0,0,1-4.85-2.988,16.959,16.959,0,0,0-4.2,1.755,4.784,4.784,0,0,1-6.227,6.337,17.112,17.112,0,0,0-1.679,4.2,4.775,4.775,0,0,1,0,8.871,17.1,17.1,0,0,0,1.771,4.2,4.784,4.784,0,0,1,6.253,6.178l.025-.042a16.8,16.8,0,0,0,4.2,1.679,4.717,4.717,0,0,1,4.273-2.9h.067a4.733,4.733,0,0,1,4.423,2.887,17.035,17.035,0,0,0,4.2-1.746,4.589,4.589,0,0,1,.772-4.826,4.651,4.651,0,0,1,5.456-1.385,16.758,16.758,0,0,0,1.745-4.2A4.621,4.621,0,0,1,102.829,207.484Z" fill="#fcd42d"/><circle cx="89.18" cy="207.345" r="8" fill="#2a2b60"/><circle cx="89.18" cy="207.345" r="6.82" fill="#fff"/></g><path id="_service-worker-text_" data-name="service-worker-text" d="M40.482,240.112a4.738,4.738,0,0,0-1.339-.215,2.472,2.472,0,0,0-1.353.326,1.014,1.014,0,0,0-.507.895,1.182,1.182,0,0,0,.3.84,2.182,2.182,0,0,0,.75.514q.444.186,1.235.437a14.041,14.041,0,0,1,1.6.582,2.78,2.78,0,0,1,1.041.826,2.284,2.284,0,0,1,.43,1.451,2.42,2.42,0,0,1-.451,1.457,2.887,2.887,0,0,1-1.263.965,4.807,4.807,0,0,1-1.866.34,5.436,5.436,0,0,1-2.082-.416A5.638,5.638,0,0,1,35.229,247l.6-1.152a5,5,0,0,0,1.561,1.048,4.308,4.308,0,0,0,1.687.368,2.692,2.692,0,0,0,1.533-.382,1.188,1.188,0,0,0,.562-1.034,1.208,1.208,0,0,0-.3-.847,2.165,2.165,0,0,0-.771-.527,12.759,12.759,0,0,0-1.256-.43,12.811,12.811,0,0,1-1.582-.57,2.718,2.718,0,0,1-1.034-.818,2.259,2.259,0,0,1-.423-1.43,2.288,2.288,0,0,1,.43-1.374,2.714,2.714,0,0,1,1.208-.916,4.717,4.717,0,0,1,1.8-.319,5.8,5.8,0,0,1,1.714.257,5.729,5.729,0,0,1,1.492.687l-.555,1.193A5.594,5.594,0,0,0,40.482,240.112Zm4.282-1.381h6.745v1.207H46.1v3h4.844v1.208H46.1v3.095h5.579v1.207H44.764ZM60.1,248.446l-1.929-3.053c-.222.019-.4.028-.542.028H55.16v3.025H53.828v-9.715h3.8a4.281,4.281,0,0,1,2.853.854,3,3,0,0,1,1.006,2.421,3.446,3.446,0,0,1-.548,1.985,3.069,3.069,0,0,1-1.575,1.166l2.262,3.289Zm-2.471-4.233a2.942,2.942,0,0,0,1.916-.548,1.973,1.973,0,0,0,.666-1.617,1.9,1.9,0,0,0-.666-1.575,3,3,0,0,0-1.916-.535H55.16v4.275Zm4.8-5.482h1.429l3.207,8.231,3.206-8.231h1.4l-3.941,9.715H66.347Zm10.7,0h1.332v9.715H73.134Zm9.854,1.423a3.735,3.735,0,1,0-1.513,7.141,3.809,3.809,0,0,0,1.5-.313,4.327,4.327,0,0,0,1.3-.853l.805.874a5.426,5.426,0,0,1-1.708,1.131,5.1,5.1,0,0,1-4.511-.25,4.908,4.908,0,0,1-2.484-4.309,4.784,4.784,0,0,1,.674-2.492,4.858,4.858,0,0,1,1.838-1.783,5.167,5.167,0,0,1,2.568-.653,5.237,5.237,0,0,1,1.964.382,4.876,4.876,0,0,1,1.645,1.076l-.791.957A4.014,4.014,0,0,0,82.988,240.154Zm3.955-1.423h6.745v1.207H88.276v3H93.12v1.208H88.276v3.095h5.579v1.207H86.943ZM47.9,255.386h1.388L46,265.1H44.611L42.1,257.08,39.545,265.1H38.171L34.9,255.386h1.429l2.568,8.286,2.554-8.286h1.332l2.568,8.286Zm9.458.569a4.911,4.911,0,0,1,1.854,1.784,4.745,4.745,0,0,1,.679,2.491,4.817,4.817,0,0,1-.679,2.5,4.918,4.918,0,0,1-1.854,1.8,5.351,5.351,0,0,1-5.149,0,4.906,4.906,0,0,1-1.852-1.8,4.809,4.809,0,0,1-.681-2.5,4.737,4.737,0,0,1,.681-2.491,4.915,4.915,0,0,1,1.845-1.784,5.423,5.423,0,0,1,5.156,0ZM52.918,257a3.8,3.8,0,0,0-1.381,1.353,3.583,3.583,0,0,0-.514,1.881,3.621,3.621,0,0,0,.514,1.888,3.834,3.834,0,0,0,1.381,1.367,3.66,3.66,0,0,0,1.881.506,3.586,3.586,0,0,0,1.866-.506,3.81,3.81,0,0,0,1.361-1.367,3.661,3.661,0,0,0,.506-1.888,3.623,3.623,0,0,0-.506-1.881A3.78,3.78,0,0,0,56.665,257a3.629,3.629,0,0,0-1.866-.5A3.7,3.7,0,0,0,52.918,257ZM68.081,265.1l-1.929-3.054c-.222.019-.4.028-.541.028H63.14V265.1H61.808v-9.716h3.8a4.286,4.286,0,0,1,2.852.854,3,3,0,0,1,1.006,2.422,3.441,3.441,0,0,1-.548,1.985,3.073,3.073,0,0,1-1.575,1.165l2.262,3.29Zm-2.47-4.234a2.939,2.939,0,0,0,1.915-.548,1.972,1.972,0,0,0,.666-1.617,1.9,1.9,0,0,0-.666-1.575,3,3,0,0,0-1.915-.534H63.14v4.274ZM79.99,265.1H78.38l-3.414-4.483-1.791,1.943v2.54H71.843v-9.716h1.332v5.455l4.969-5.455h1.6L75.9,259.578Zm1.665-9.716H88.4v1.208H82.988v3h4.844V260.8H82.988v3.1h5.579V265.1H81.655ZM96.992,265.1l-1.929-3.054c-.222.019-.4.028-.542.028h-2.47V265.1H90.719v-9.716h3.8a4.282,4.282,0,0,1,2.852.854,3,3,0,0,1,1.007,2.422,3.448,3.448,0,0,1-.548,1.985,3.071,3.071,0,0,1-1.576,1.165l2.262,3.29Zm-2.471-4.234a2.942,2.942,0,0,0,1.916-.548A1.972,1.972,0,0,0,97.1,258.7a1.9,1.9,0,0,0-.666-1.575,3,3,0,0,0-1.916-.534h-2.47v4.274Z" fill="#fcd42d"/><g id="_yellow-nodes_" data-name="yellow-nodes"><circle cx="137" cy="301" r="3" fill="#fcd42d"/><circle cx="200" cy="320" r="3" fill="#fcd42d"/><circle cx="139.787" cy="368.195" r="3" fill="#fcd42d"/><circle cx="81" cy="381" r="3" fill="#fcd42d"/><circle cx="59" cy="436" r="3" fill="#fcd42d"/></g><g id="_browser-service-worker-arrow_" data-name="browser-service-worker-arrow"><path d="M58.294,120.363V157.5" fill="none" stroke="#13d6d6" stroke-miterlimit="10"/><polygon points="54.591 123.171 58.294 121.598 61.997 123.171 58.294 114.393 54.591 123.171" fill="#13d6d6"/><polygon points="61.749 152.393 58.046 153.966 54.343 152.393 58.046 161.171 61.749 152.393" fill="#13d6d6"/></g></g><g id="gateway" data-name="gateway"><g id="_white-connection_" data-name="white-connection"><path d="M216.266,268.713s61.234-81.213,37-183" fill="none" stroke="#fff" stroke-miterlimit="10"/><path d="M164.226,210.2S233.5,169.5,253.51,85.718" fill="none" stroke="#fff" stroke-miterlimit="10"/><path d="M253.507,85.357S318.5,155.5,271.75,268.75" fill="none" stroke="#fff" stroke-miterlimit="10"/></g><g id="_white-nodes_" data-name="white-nodes"><circle cx="164" cy="210" r="3" fill="#fff"/><circle cx="216.016" cy="268.463" r="3" fill="#fff"/><circle cx="272" cy="269" r="3" fill="#fff"/></g><g id="_gateway-icon_" data-name="gateway-icon"><rect x="246.308" y="63.287" width="14.937" height="39.54" fill="#a0d6de"/><polygon points="219.069 44.154 219.069 64.166 202.374 64.166 202.374 102.828 219.069 102.828 226.098 102.828 242.793 102.828 242.793 44.154 219.069 44.154" fill="#fff"/><rect x="205.889" y="67.681" width="33.39" height="6.151" fill="#a0d6de"/><rect x="223.462" y="58.015" width="15.816" height="6.151" fill="#a0d6de"/><rect x="223.462" y="48.35" width="15.816" height="6.151" fill="#a0d6de"/><rect x="205.889" y="77.346" width="33.39" height="6.151" fill="#a0d6de"/><rect x="249.823" y="67.681" width="7.908" height="6.151" fill="none" stroke="#292960" stroke-miterlimit="10"/><rect x="249.823" y="77.346" width="7.908" height="6.151" fill="none" stroke="#292960" stroke-miterlimit="10"/><rect x="205.889" y="67.681" width="33.39" height="6.151" fill="none" stroke="#292960" stroke-miterlimit="10"/><rect x="223.462" y="58.015" width="15.816" height="6.151" fill="none" stroke="#292960" stroke-miterlimit="10"/><rect x="223.462" y="48.35" width="15.816" height="6.151" fill="none" stroke="#292960" stroke-miterlimit="10"/><rect x="205.889" y="77.346" width="33.39" height="6.151" fill="none" stroke="#292960" stroke-miterlimit="10"/></g><g id="_gateway-text_" data-name="gateway-text"><path d="M205.759,119.06h1.187v3.588a6.221,6.221,0,0,1-3.7,1.285,5.159,5.159,0,0,1-2.583-.663,4.945,4.945,0,0,1-2.527-4.336,4.774,4.774,0,0,1,.684-2.506,4.926,4.926,0,0,1,1.871-1.794,5.337,5.337,0,0,1,2.625-.656,5.64,5.64,0,0,1,1.99.363,5.37,5.37,0,0,1,1.682.991l-.768.977a4.248,4.248,0,0,0-1.348-.844,4.2,4.2,0,0,0-1.556-.3,3.81,3.81,0,0,0-1.927.5A3.734,3.734,0,0,0,200,117.035a3.781,3.781,0,0,0,.007,3.805,3.831,3.831,0,0,0,3.323,1.892,4.106,4.106,0,0,0,1.25-.2,4.68,4.68,0,0,0,1.179-.566Zm10.988,4.775-1.033-2.374h-5.152l-1.019,2.374h-1.41l4.341-9.773h1.4l4.328,9.773Zm-5.654-3.588h4.1l-2.066-4.747Zm6.338-6.185h7.638v1.229h-3.155v8.544h-1.341v-8.544h-3.142Zm9.174,0h6.785v1.215h-5.445v3.015h4.873v1.215h-4.873v3.113h5.612v1.215h-6.952Zm20.873,0h1.4l-3.309,9.773h-1.4l-2.527-8.07-2.569,8.07h-1.382l-3.3-9.773h1.438l2.584,8.335,2.568-8.335h1.341l2.583,8.335Zm9.452,9.773-1.033-2.374h-5.152l-1.019,2.374h-1.41l4.341-9.773h1.4l4.328,9.773Zm-5.654-3.588h4.1l-2.066-4.747Zm15.232-6.185-3.658,6.422v3.351h-1.341V120.54l-3.713-6.478h1.368l3.016,4.984,2.96-4.984Z" fill="#fff"/></g><path id="_http-text_" data-name="http-text" d="M131.292,70.032H132.5V73.97h5.048V70.032h1.224v8.834h-1.224v-3.8H132.5v3.8h-1.212Zm8.871,0h6.9v1.111h-2.852v7.723H143V71.143h-2.84Zm7.156,0h6.9v1.111H151.37v7.723h-1.211V71.143h-2.84Zm14.254.783a2.751,2.751,0,0,1,.9,2.2,2.915,2.915,0,0,1-.909,2.29,3.685,3.685,0,0,1-2.549.814h-2.195v2.751H155.61V70.032h3.407A3.782,3.782,0,0,1,161.573,70.815Zm-.865,3.7a1.792,1.792,0,0,0,.606-1.47,1.726,1.726,0,0,0-.606-1.432,2.723,2.723,0,0,0-1.741-.486l-2.145.013v3.874h2.145A2.67,2.67,0,0,0,160.708,74.518Z" fill="#13d6d6"/><g id="_http-gateway-arrow_" data-name="http-gateway-arrow"><path d="M108.936,85.586H186" fill="none" stroke="#13d6d6" stroke-miterlimit="10"/><polygon points="112.683 88.912 111.11 85.209 112.683 81.506 103.905 85.209 112.683 88.912" fill="#13d6d6"/><polygon points="181.084 89.289 182.657 85.586 181.084 81.883 189.862 85.586 181.084 89.289" fill="#13d6d6"/></g></g></svg>
