<svg id="play-icon" xmlns="http://www.w3.org/2000/svg" viewBox="0 0 72 72"><defs><style>.cls-1{fill:#fff;}</style></defs><title>play-icon-white</title><path id="_outside-border_" data-name="&lt;outside-border&gt;" d="M36,0A36,36,0,1,0,72,36,35.977,35.977,0,0,0,36,0Zm0,68.7A32.7,32.7,0,1,1,68.7,36,32.777,32.777,0,0,1,36,68.7Z"/><path id="_line-white_" data-name="&lt;line-white&gt;" class="cls-1" d="M36,3.3A32.7,32.7,0,1,0,68.7,36,32.777,32.777,0,0,0,36,3.3Zm0,62.5A29.8,29.8,0,1,1,65.8,36,29.875,29.875,0,0,1,36,65.8Z"/><path id="_circle-black_" data-name="&lt;circle-black&gt;" d="M36,6.2A29.8,29.8,0,1,0,65.8,36,29.875,29.875,0,0,0,36,6.2Zm-8,42V24L47.2,36.1Z"/><polygon id="_triangle_" data-name="&lt;triangle&gt;" class="cls-1" points="28 48.2 47.2 36.1 28 24 28 48.2"/></svg>