<?xml version="1.0" standalone="no"?>
<!DOCTYPE svg PUBLIC "-//W3C//DTD SVG 20010904//EN"
 "http://www.w3.org/TR/2001/REC-SVG-20010904/DTD/svg10.dtd">
<svg version="1.0" xmlns="http://www.w3.org/2000/svg"
 width="1024.000000pt" height="1024.000000pt" viewBox="0 0 1024.000000 1024.000000"
 preserveAspectRatio="xMidYMid meet">
<metadata>
Created by potrace 1.11, written by Peter Selinger 2001-2013
</metadata>
<g transform="translate(0.000000,1024.000000) scale(0.100000,-0.100000)"
fill="#000000" stroke="none">
<path d="M4825 10066 c-154 -89 -541 -313 -860 -498 -536 -309 -1707 -987
-2435 -1408 -168 -97 -425 -246 -572 -331 l-268 -154 3 -2559 2 -2559 570
-330 c686 -397 2315 -1338 3208 -1854 l647 -374 603 347 c757 437 2174 1254
3110 1794 l717 415 -2 2564 -3 2564 -955 551 c-525 303 -1403 810 -1950 1125
-547 316 -1111 641 -1252 723 -142 81 -263 148 -270 147 -7 0 -139 -74 -293
-163z m-89 -496 c38 -21 105 -51 149 -67 73 -25 93 -27 225 -28 107 0 161 4
207 17 65 18 163 62 224 100 l36 22 849 -490 c467 -270 1188 -686 1602 -925
l752 -434 -2 -89 -3 -89 -505 -292 c-278 -160 -998 -576 -1600 -924 -1080
-624 -1095 -632 -1120 -616 -55 35 -158 84 -209 99 -201 59 -434 31 -613 -75
l-68 -40 -1382 797 c-761 439 -1482 855 -1603 925 l-220 127 -3 88 -2 89 237
136 c425 244 1935 1115 2453 1415 278 161 510 293 516 293 6 1 42 -17 80 -39z
m4424 -2535 c32 -19 63 -35 69 -35 8 0 11 -494 11 -1858 l0 -1858 -37 -18
c-112 -53 -243 -176 -313 -294 -70 -119 -115 -289 -109 -417 2 -31 -2 -59 -7
-64 -5 -5 -605 -353 -1334 -774 -729 -420 -1446 -834 -1593 -920 l-268 -155
-56 34 c-31 19 -65 36 -75 40 -17 5 -18 70 -18 1852 l0 1847 65 34 c78 40 190
141 250 226 88 123 135 265 140 425 l3 105 1598 932 c880 513 1603 933 1608
933 4 0 34 -16 66 -35z m-7810 -95 c107 -62 483 -279 835 -483 352 -203 784
-453 960 -555 176 -102 464 -268 640 -370 176 -102 375 -217 441 -255 l121
-70 6 -111 c14 -277 144 -500 377 -641 32 -19 63 -35 69 -35 8 0 11 -494 11
-1857 l-1 -1858 -74 -41 -74 -41 -433 249 c-238 138 -626 362 -863 498 -236
136 -763 439 -1170 674 l-739 426 -2 98 c-2 141 -40 272 -115 399 -45 75 -171
199 -245 242 -32 19 -69 40 -81 48 l-23 13 0 1850 0 1850 48 24 c26 14 60 34
76 45 17 11 32 18 35 17 3 -2 94 -54 201 -116z"/>
</g>
</svg>
