<svg id="Layer_1" data-name="Layer 1" xmlns="http://www.w3.org/2000/svg" viewBox="0 0 599.998 583.111"><title>internet-archive</title><g id="A"><path d="M146.564,60.034l-6.583-18.256H117.6l-6.583,18.256h-5.441L123.042,12.2a31,31,0,0,0,1.492-5.178c0-3.687-4.038-3.687-6.758-4.125V.965h16.5l21.416,59.068h-9.128Zm-18.081-48.01-9.391,25.629h19.4Z"/><path d="M221.758,60.034l-15.535-27.3h-5.441v27.3h-9.655V12.9c0-8.426,0-8.776-8.338-10V.965h22.557c10.62,0,23.785,2.282,23.785,15.71,0,8.865-5.09,13.166-13.429,14.482l16.15,28.876H221.758ZM206.662,5.09c-6.319,0-5.88,2.37-5.88,7.9V28.612h5c7.636,0,13.692-2.809,13.692-11.41C219.476,8.513,215,5.09,206.662,5.09Z"/><path d="M287.723,60.911c-20.187,0-25.892-13.077-25.892-31.246C261.831,12.726,267.448.7,286.319.7a56.378,56.378,0,0,1,17.554,2.633l.526,14.658h-2.545a13.007,13.007,0,0,0-1.843-5.354A14.58,14.58,0,0,0,287.2,4.914c-13.253,0-15.008,14.57-15.008,24.751,0,10.883,3.335,26.331,17.027,26.331,5.793,0,10.621-1.141,15.36-4.477v6.056A39.6,39.6,0,0,1,287.723,60.911Z"/><path d="M376.778,60.034v-28.7H352.906v28.7h-9.655V12.551c0-7.636-1.4-7.812-8.776-8.6V2.019L352.906,0V27.208h23.872V.965h9.655V60.033h-9.655Z"/><path d="M420.354,60.034V57.84c6.583,0,7.461-1.755,7.461-8.163V11.937c0-6.407-.878-8.163-7.461-8.163V1.58h24.575V3.774c-6.582,0-7.46,1.843-7.46,8.163v37.74c0,6.32.878,8.163,7.46,8.163v2.194Z"/><path d="M509.035,60.034H501.4L484.2,12.2c-2.633-7.373-3.071-7.9-10.619-9.3V.965H490.6l17.2,48.1h.175L524.746.965h5.705Z"/><path d="M599.734,60.034h-35.02V12.9c0-8.426-.088-8.688-8.339-10V.965h42.042l.264,12.99h-2.458c0-6.583-3.247-8.865-9.479-8.865H579.9c-4.037,0-5.529.088-5.529,4.564V27.12h10.62c5,0,6.407-2.282,7.2-6.758h2.457V38.794h-2.457c0-4.916-2.106-7.548-7.2-7.548h-10.62V50.818c0,4.828,1.054,5.091,5.529,5.091h9.743c5.968,0,7.46-2.984,7.9-8.6H600Z"/><rect x="139.201" y="558.561" width="423.263" height="21.705"/><rect x="155.897" y="516.818" width="390.704" height="30.055"/><rect x="153.393" y="174.535" width="388.617" height="41.742"/><polygon points="347.701 101.486 144.21 149.072 155.897 162.012 347.701 162.012 539.506 162.012 551.193 149.072 347.701 101.486"/><path d="M59.068,583.111H56.874c0-6.582-1.755-7.46-8.163-7.46H10.971c-6.407,0-8.162.878-8.162,7.46H.614V558.536H2.808c0,6.583,1.843,7.461,8.162,7.461H48.711c6.319,0,8.163-.878,8.163-7.461h2.194Z"/><path d="M59.068,486.655,9.127,515.619v.176H59.068v5.529H11.234c-8.25,0-7.9,1.316-9.3,8.776H0V511.581l47.746-27.648v-.175H0v-5.529H59.068Z"/><path d="M12.989,399.853c-6.846,0-8.864,2.984-8.864,9.567v5.968H59.068v9.655H4.125V431.1c0,6.67,1.931,8.952,8.6,9.479v2.458L0,442.685V397.747l12.989-.351Z"/><path d="M59.068,327.093v35.021H11.936c-8.426,0-8.688.087-10,8.338H0V328.41l12.989-.263V330.6c-6.583,0-8.864,3.248-8.864,9.479v6.846c0,4.037.088,5.529,4.564,5.529H26.155v-10.62c0-5-2.282-6.406-6.758-7.2v-2.457H37.829v2.457c-4.915,0-7.548,2.106-7.548,7.2v10.62H49.853c4.828,0,5.091-1.053,5.091-5.529v-9.742c0-5.969-2.984-7.46-8.6-7.9v-2.457Z"/><path d="M59.068,256.44l-27.3,15.535v5.442h27.3v9.654H11.936c-8.426,0-8.776,0-10,8.338H0V272.853c0-10.62,2.282-23.786,15.71-23.786,8.864,0,13.166,5.091,14.481,13.429l28.876-16.149V256.44Zm-54.943,15.1c0,6.32,2.37,5.881,7.9,5.881H27.647v-5c0-7.636-2.809-13.692-11.41-13.692C7.548,258.722,4.125,263.2,4.125,271.536Z"/><path d="M59.068,173.938,9.127,202.9v.176H59.068v5.529H11.234c-8.25,0-7.9,1.316-9.3,8.777H0V198.865l47.746-27.647v-.175H0v-5.53H59.068Z"/><path d="M59.068,87.662v35.021H11.936c-8.426,0-8.688.087-10,8.337H0V88.979l12.989-.263v2.458c-6.583,0-8.864,3.247-8.864,9.479V107.5c0,4.037.088,5.529,4.564,5.529H26.155v-10.62c0-5-2.282-6.407-6.758-7.2V92.753H37.829v2.458c-4.915,0-7.548,2.106-7.548,7.2v10.62H49.853c4.828,0,5.091-1.053,5.091-5.529V97.756c0-5.968-2.984-7.46-8.6-7.9V87.4Z"/><path d="M12.989,12.182c-6.846,0-8.864,2.984-8.864,9.567v5.969H59.068v9.654H4.125v6.056c0,6.671,1.931,8.953,8.6,9.479v2.458L0,55.013V10.075l12.989-.351Z"/><path d="M209.446,348.42q-.5-30.75-1.669-61.487c-.756-19.3-2-38.585-2.939-57.881-.081-1.666-.787-2.026-2.169-2.328a81.268,81.268,0,0,0-34.326,0c-1.382.3-2.088.662-2.169,2.328-.939,19.3-2.183,38.579-2.939,57.881q-1.2,30.729-1.669,61.487c-.237,14.528-.09,29.067.14,43.6.254,16.121.612,32.246,1.265,48.355.7,17.288,1.782,34.562,2.731,51.839.182,3.311.521,6.613.78,9.831a79.32,79.32,0,0,0,19.025,2.7,79.327,79.327,0,0,0,19.025-2.7c.259-3.218.6-6.521.779-9.831.949-17.277,2.031-34.551,2.731-51.839.653-16.109,1.011-32.234,1.265-48.355C209.536,377.487,209.684,362.948,209.446,348.42Z"/><path d="M315.257,348.42q-.5-30.75-1.67-61.487c-.757-19.3-2-38.585-2.939-57.881-.081-1.666-.786-2.026-2.169-2.328a81.263,81.263,0,0,0-34.325,0c-1.382.3-2.088.662-2.169,2.328-.938,19.3-2.183,38.579-2.939,57.881q-1.2,30.729-1.669,61.487c-.237,14.528-.09,29.067.139,43.6.255,16.121.612,32.246,1.265,48.355.7,17.288,1.782,34.562,2.731,51.839.182,3.311.521,6.613.779,9.831a79.334,79.334,0,0,0,19.025,2.7,79.327,79.327,0,0,0,19.025-2.7c.258-3.218.6-6.521.779-9.831.948-17.277,2.03-34.551,2.73-51.839.653-16.109,1.011-32.234,1.266-48.355C315.347,377.487,315.494,362.948,315.257,348.42Z"/><path d="M437.972,348.42q-.5-30.75-1.67-61.487c-.756-19.3-2-38.585-2.938-57.881-.082-1.666-.787-2.026-2.17-2.328a81.263,81.263,0,0,0-34.325,0c-1.382.3-2.088.662-2.169,2.328-.938,19.3-2.183,38.579-2.938,57.881q-1.206,30.729-1.67,61.487c-.237,14.528-.09,29.067.14,43.6.255,16.121.612,32.246,1.265,48.355.7,17.288,1.782,34.562,2.731,51.839.183,3.311.521,6.613.779,9.831a68.427,68.427,0,0,0,38.05,0c.258-3.218.6-6.521.779-9.831.949-17.277,2.03-34.551,2.731-51.839.652-16.109,1.01-32.234,1.265-48.355C438.062,377.487,438.209,362.948,437.972,348.42Z"/><path d="M541.277,348.42q-.5-30.75-1.669-61.487c-.757-19.3-2-38.585-2.939-57.881-.082-1.666-.787-2.026-2.17-2.328a81.259,81.259,0,0,0-34.324,0c-1.383.3-2.088.662-2.169,2.328-.939,19.3-2.184,38.579-2.939,57.881q-1.2,30.729-1.67,61.487c-.237,14.528-.09,29.067.14,43.6.255,16.121.612,32.246,1.266,48.355.7,17.288,1.782,34.562,2.73,51.839.183,3.311.521,6.613.779,9.831a68.427,68.427,0,0,0,38.05,0c.259-3.218.6-6.521.779-9.831.949-17.277,2.031-34.551,2.731-51.839.653-16.109,1.01-32.234,1.265-48.355C541.367,377.487,541.515,362.948,541.277,348.42Z"/></g></svg>