<svg id="dia_svg__Capa_1" xmlns="http://www.w3.org/2000/svg" viewBox="0 0 13.1 15"><g id="dia_svg__XMLID_37_"><path id="dia_svg__XMLID_29_" class="dia_svg__st0" d="M.1 1.5l.2.4h12.3l.3-.4L6.5 0z"/><path id="dia_svg__XMLID_23_" class="dia_svg__st0" d="M.4 2.5h12.2v1.1H.4z"/></g><path id="dia_svg__XMLID_30_" class="dia_svg__st0" d="M1 4.2h1l.2.1s.2 2.8.2 3.7c0 .9-.1 4.5-.1 4.5H1l-.3-.1S.5 9.5.5 8s.2-3.7.2-3.7l.3-.1z"/><path id="dia_svg__XMLID_32_" class="dia_svg__st0" d="M11 4.2h1.1l.2.1s.2 2.8.2 3.7c0 .9-.1 4.5-.1 4.5l-.3.1h-1l-.3-.1s-.2-2.9-.2-4.4.2-3.7.2-3.7l.2-.2z"/><path id="dia_svg__XMLID_34_" class="dia_svg__st0" d="M4.3 4.2h1l.2.1s.2 2.8.2 3.7c0 .9-.1 4.5-.1 4.5l-.3.1h-.9l-.3-.1s-.2-2.9-.2-4.4.2-3.7.2-3.7l.2-.2z"/><path id="dia_svg__XMLID_33_" class="dia_svg__st0" d="M7.7 4.2H9s.2 2.8.2 3.7c0 .9-.1 4.5-.1 4.5l-.3.1h-1l-.3-.1S7.3 9.5 7.3 8s.2-3.7.2-3.7l.2-.1z"/><g id="dia_svg__XMLID_38_"><path id="dia_svg__XMLID_31_" class="dia_svg__st0" d="M.4 13.1h12.3v.6H.4z"/><path id="dia_svg__XMLID_35_" class="dia_svg__st0" d="M0 14.3h13.1v.7H0z"/></g></svg>
