<svg data-name="Layer 1" xmlns="http://www.w3.org/2000/svg" viewBox="0 0 526.599 170.911"><path d="M106.142 84.6V47.093h4.385l-3.983-6.9a5.854 5.854 0 1 0-5.889-9.689L66.9 11.018l2.5-3.9-8.273-.385a5.851 5.851 0 1 0-11.378.847l-.307.177-7.817.805 1.892 2.616-33.48 19.329a5.851 5.851 0 1 0-5.537 9.78L.164 47.8h4.385v36.8A5.851 5.851 0 1 0 9.339 95l4.009 6.944 2.242-3.883 35.74 18.4a5.827 5.827 0 0 0-.029 4.6l-6.749 3.9 3.763 2.172-22.15 32.831a5.854 5.854 0 1 0 2.8 6.544l6.77 3.909v-4.047h44.179a5.861 5.861 0 1 0-.152-2.611H35.739v-4.722l-6.948 4.011a5.889 5.889 0 0 0-.747-1.4l22.438-33.259 3.926 2.266v-6.467a5.851 5.851 0 0 0 7.892-7.098l33.847-19.107 2.285 3.958 3.719-6.442a5.851 5.851 0 1 0 3.991-10.9zM85.53 161.473a3.244 3.244 0 1 1-3.244 3.244 3.247 3.247 0 0 1 3.244-3.244zM23.3 168.3a3.244 3.244 0 1 1 3.244-3.244A3.247 3.247 0 0 1 23.3 168.3zm3.547-7.891a2.127 2.127 0 0 1 .927.879 5.845 5.845 0 0 0-.925-.879zM108.081 34.6a3.244 3.244 0 1 1-3.244-3.244 3.247 3.247 0 0 1 3.244 3.244zM55.346 2.61A3.244 3.244 0 1 1 52.1 5.854a3.247 3.247 0 0 1 3.246-3.244zM45.056 13.3l3.244 4.481 3.321-7.417a5.832 5.832 0 0 0 8.012-.53l.12.069 3.506 6.797 2.23-3.478 33.8 19.515a5.838 5.838 0 0 0 3.838 7.462l-3.982 6.9h4.385V84.6a5.86 5.86 0 0 0-3.19 1.957L17.275 40.213l2.309-4h-8.106a5.758 5.758 0 0 0-.077-3.479zM2.611 34.6a3.244 3.244 0 1 1 3.244 3.244A3.247 3.247 0 0 1 2.611 34.6zm0 55.707a3.244 3.244 0 1 1 6.2 1.327l-.058-.034c-.008.075-.035.145-.049.219A3.233 3.233 0 0 1 2.611 90.3zM56.7 122.03a3.244 3.244 0 1 1 3.244-3.244 3.247 3.247 0 0 1-3.244 3.244zm4.3-7.2a5.826 5.826 0 0 0-8.088-.5L16.9 95.793l2.141-3.709H11.43A5.843 5.843 0 0 0 7.16 84.6V47.8h4.384l-4.339-7.513a5.824 5.824 0 0 0 2.512-1.3l.129.073 4.048 7.011 2.076-3.6 83.192 46.416a5.743 5.743 0 0 0 .1 3.2h-6.52l2.1 3.636zm43.84-21.282a3.244 3.244 0 1 1 3.244-3.244 3.247 3.247 0 0 1-3.247 3.242z" fill="#5bc9e3"/><path d="M137.957 97.929h27.374c13.687 0 21.348 9.4 21.348 20.53s-7.865 20.531-21.348 20.531h-18.9v27.067h-8.478V97.929zm26.353 7.559h-17.875v25.944h17.875c8.069 0 13.585-5.312 13.585-12.973s-5.516-12.971-13.585-12.971zm53.423 10.01c14.913 0 23.7 11.645 23.7 26.455v1.94h-39.94c.613 9.295 7.15 17.058 17.772 17.058a21.565 21.565 0 0 0 15.219-6.23l3.677 5c-4.9 4.9-11.542 7.559-19.611 7.559-14.606 0-25.127-10.521-25.127-25.944 0-14.3 10.215-25.843 24.31-25.843zm-16.24 22.778h32.379c-.1-7.354-5.005-16.445-16.241-16.445-10.52 0-15.73 8.886-16.138 16.445zm73.748-22.776c14.913 0 23.7 11.645 23.7 26.455v1.94H259c.613 9.295 7.15 17.058 17.772 17.058a21.565 21.565 0 0 0 15.219-6.23l3.677 5c-4.9 4.9-11.542 7.559-19.611 7.559-14.606 0-25.127-10.521-25.127-25.944 0-14.3 10.216-25.843 24.311-25.843zM259 138.276h32.38c-.1-7.354-5-16.445-16.241-16.445-10.52 0-15.73 8.886-16.139 16.445zm52.3-21.553h7.661v7.968c3.983-5.21 9.7-8.989 16.445-8.989v7.865a13.51 13.51 0 0 0-3.064-.307c-4.7 0-11.134 3.882-13.381 7.865v34.933H311.3zm35.035-18.794h23.595c12.666 0 19.917 8.887 19.917 19.3s-7.456 19.3-19.917 19.3H349.6v29.52h-3.269v-68.12zm23.493 3.065H349.6v32.481h20.225c10.01 0 16.445-6.844 16.445-16.241s-6.433-16.24-16.443-16.24zm62.821 59.038c-4.6 5-10.112 7.252-17.058 7.252-8.682 0-17.262-5.924-17.262-16.444s8.477-16.44 17.261-16.44c6.946 0 12.461 2.247 17.058 7.252v-11.14c0-7.967-6.333-12.257-13.892-12.257-6.435 0-11.236 2.247-15.832 7.763l-2.349-2.043c4.8-5.617 9.908-8.478 18.181-8.478 9.7 0 16.956 4.9 16.956 14.913v35.647h-3.064zm0-15.321c-3.779-5.005-9.806-7.559-16.241-7.559-8.989 0-14.708 6.026-14.708 13.688s5.72 13.687 14.708 13.687c6.435 0 12.461-2.554 16.241-7.559v-12.257zm57.814 13.074a21.769 21.769 0 0 1-17.772 9.5c-13.279 0-22.063-10.214-22.063-25.842 0-15.525 8.784-25.944 22.063-25.944a21.582 21.582 0 0 1 17.772 9.7V97.93h3.064v68.129h-3.064v-8.274zm0-29.52a21.635 21.635 0 0 0-17.772-10.01c-12.053 0-18.692 10.214-18.692 23.187s6.64 23.084 18.692 23.084c7.661 0 14.708-4.6 17.772-9.806z" fill="#353535"/><path d="M525.549 114.951a5.69 5.69 0 0 0 .714-1.578 9.027 9.027 0 0 0 .279-1.574c.025-.28.052-.61.057-.93a.1.1 0 0 0-.106-.109c-.3-.012-.6-.012-.9 0a.109.109 0 0 0-.1.108c-.009.083-.014.166-.019.248s-.009.137-.015.2a4.292 4.292 0 0 1-.2.993 1.231 1.231 0 0 1-.93.817 1.294 1.294 0 0 1-1.208-.362 3.518 3.518 0 0 1-.574-.873 10.158 10.158 0 0 1-.653-2 .627.627 0 0 1 .012-.316q.581-2.16 1.06-4.344.433-1.938.873-3.875l.8-3.575a.267.267 0 0 0 0-.109c-.012-.045-.023-.091-.161-.091h-3.158c-.146 0-.174.024-.206.168l-.761 3.415-.37 1.058-.533-1.154c-.046-.106-.09-.207-.136-.307a9.578 9.578 0 0 0-1.3-2.163 4.234 4.234 0 0 0-1.636-1.228 4.613 4.613 0 0 0-1.8-.361 5.147 5.147 0 0 0-.9.081 6.494 6.494 0 0 0-3.34 1.685 7.825 7.825 0 0 0-2.1 3.438 13.71 13.71 0 0 0-.623 3.939 16.934 16.934 0 0 0 .238 3.35 9.9 9.9 0 0 0 1.222 3.438 6.751 6.751 0 0 0 1.517 1.769 6.468 6.468 0 0 0 3.372 1.419 6.943 6.943 0 0 0 2.4-.171 5.948 5.948 0 0 0 1.805-.746 6.61 6.61 0 0 0 1.685-1.531c.091-.116.18-.234.271-.355l.6-.792.293.717-.409.167.418-.145.026.066a7.483 7.483 0 0 0 .666 1.464 3.266 3.266 0 0 0 .974 1.072 1.856 1.856 0 0 0 2.116-.083 3.279 3.279 0 0 0 .734-.844zm-6.451-7.819c-.108.4-.2.8-.3 1.2-.09.376-.181.752-.28 1.126a12.579 12.579 0 0 1-.855 2.391 5.339 5.339 0 0 1-1.154 1.625 2.512 2.512 0 0 1-1.739.711h-.127a2.489 2.489 0 0 1-2.184-1.266 5.893 5.893 0 0 1-.733-1.835 13.814 13.814 0 0 1-.336-2.252 27.2 27.2 0 0 1-.053-3.008 18.216 18.216 0 0 1 .368-3.309 7.112 7.112 0 0 1 .627-1.82 3.352 3.352 0 0 1 1.023-1.237 2.485 2.485 0 0 1 1.513-.468 1.416 1.416 0 0 1 .827.319 3.507 3.507 0 0 1 .717.737 11.651 11.651 0 0 1 1.263 2.247 38.6 38.6 0 0 1 1.4 3.756 1.8 1.8 0 0 1 .025 1.08z" fill="#5bc9e3"/></svg>