<svg xmlns="http://www.w3.org/2000/svg" viewBox="0 0 157.03 167.35"><defs><style>.browser_svg__cls-2{fill:#51b7b7}.browser_svg__cls-3{fill:#2a2b60}.browser_svg__cls-4{fill:#159a96}.browser_svg__cls-5{fill:#fff}.browser_svg__cls-6{fill:#fdd52f}.browser_svg__cls-7{fill:#c4a212}</style></defs><g id="first_group"><path id="browser_svg___g_" data-name="&lt;g&gt;" d="M151.26 113.81V53.54A20.24 20.24 0 0 0 141.12 36L88.61 5.79a20.25 20.25 0 0 0-20.18 0L15.91 36A20.24 20.24 0 0 0 5.77 53.54v60.27a20.27 20.27 0 0 0 10.14 17.55l52.52 30.2a20.25 20.25 0 0 0 20.18 0l52.51-30.2a20.27 20.27 0 0 0 10.14-17.55z" fill="#a0d6de" opacity=".2"/><g id="browser_svg__icon"><path class="browser_svg__cls-2" d="M89.76 109.69V69.58c0-3.42-2.29-6.21-5.08-6.21H27.13c-2.79 0-5.07 2.79-5.07 6.21v40.11"/><path class="browser_svg__cls-3" d="M90.44 109.69h-1.36V69.58c0-3-2-5.53-4.4-5.53H27.13c-2.42 0-4.39 2.48-4.39 5.53v40.11h-1.36V69.58c0-3.8 2.58-6.89 5.75-6.89h57.55c3.17 0 5.76 3.09 5.76 6.89z"/><path class="browser_svg__cls-4" d="M18.49 109.69v2.67c0 2.45 2.53 4.45 5.62 4.45h63.6c3.08 0 5.61-2 5.61-4.45v-2.67z"/><path class="browser_svg__cls-3" d="M87.71 117.49h-63.6c-3.47 0-6.3-2.3-6.3-5.13V109H94v3.35c0 2.84-2.82 5.14-6.29 5.14zm-68.54-7.12v2c0 2.08 2.22 3.77 4.94 3.77h63.6c2.72 0 4.93-1.69 4.93-3.77v-2z"/><rect class="browser_svg__cls-5" x="54.13" y="66.04" width="2.67" height=".89" rx=".31" ry=".31"/><rect class="browser_svg__cls-3" x="53.67" y="65.59" width="3.58" height="1.8" rx=".74" ry=".74"/><rect class="browser_svg__cls-5" x="52.34" y="113.25" width="7.13" height=".89" rx=".31" ry=".31"/><rect class="browser_svg__cls-3" x="51.89" y="112.8" width="8.03" height="1.8" rx=".74" ry=".74"/><path class="browser_svg__cls-6" d="M85.75 69.16H26.07v36.52h59.68V69.16z"/><path class="browser_svg__cls-3" d="M86.09 106H25.73V68.82h60.36zm-59.68-.68h59V69.5h-59zM119.55 48.81h1.36v51.84h-1.36z"/><rect class="browser_svg__cls-2" x="106.33" y="40.24" width="27.8" height="50.02" rx="3.65" ry="3.65"/><path class="browser_svg__cls-3" d="M130.82 90.94h-21.19a4 4 0 0 1-4-4v-43.4a4 4 0 0 1 4-4h21.19a4 4 0 0 1 4 4V87a4 4 0 0 1-4 3.94zm-21.19-50a2.63 2.63 0 0 0-2.63 2.6V87a2.63 2.63 0 0 0 2.62 2.63h21.19a2.63 2.63 0 0 0 2.64-2.63V43.54a2.63 2.63 0 0 0-2.63-2.62z"/><path class="browser_svg__cls-4" d="M114.94 44.8h15.86v3.49h-21.14V44.8h5.28z"/><path class="browser_svg__cls-3" d="M131.14 48.63h-21.82v-4.17h21.82zM110 48h20.46v-2.87H110z"/><circle class="browser_svg__cls-6" cx="120.23" cy="85.26" r="1.27"/><path class="browser_svg__cls-3" d="M120.23 86.88a1.62 1.62 0 1 1 0-3.23 1.62 1.62 0 0 1 0 3.23zm0-2.55a.94.94 0 1 0 .93.93.94.94 0 0 0-.93-.93z"/><circle class="browser_svg__cls-6" cx="120.23" cy="78.84" r="3.45"/><path class="browser_svg__cls-3" d="M120.23 82.63a3.79 3.79 0 1 1 3.77-3.79 3.79 3.79 0 0 1-3.77 3.79zm0-6.9a3.11 3.11 0 1 0 3.1 3.11 3.11 3.11 0 0 0-3.1-3.11z"/><path class="browser_svg__cls-4" d="M112.82 51.59h17.98v3.5h-21.14v-3.5h3.16z"/><path class="browser_svg__cls-3" d="M131.14 55.43h-21.82v-4.18h21.82zM110 54.75h20.46v-2.82H110z"/><path class="browser_svg__cls-4" d="M129.43 61.89h1.37v-3.5h-21.14v3.5h19.77z"/><path class="browser_svg__cls-3" d="M131.14 62.23h-21.82v-4.18h21.82zM110 61.55h20.46v-2.82H110zM135.85 101.33h-42V100h42a3.17 3.17 0 0 0 3.15-3.19V81.5h1.36v15.31a4.53 4.53 0 0 1-4.51 4.52z"/><circle class="browser_svg__cls-6" cx="120.23" cy="100.23" r="2.12"/><path class="browser_svg__cls-3" d="M120.23 102.69a2.47 2.47 0 1 1 2.46-2.46 2.47 2.47 0 0 1-2.46 2.46zm0-4.25a1.79 1.79 0 1 0 1.78 1.79 1.79 1.79 0 0 0-1.78-1.79z"/><path class="browser_svg__cls-2" d="M118.79 90.26v2.18a1.44 1.44 0 0 0 2.87 0v-2.18z"/><path class="browser_svg__cls-3" d="M120.23 94.55a2.12 2.12 0 0 1-2.12-2.11v-2.86h4.23v2.86a2.12 2.12 0 0 1-2.11 2.11zm-.76-3.61v1.5a.76.76 0 0 0 1.51 0v-1.5zM22.06 103h-1.15a6.43 6.43 0 0 1-6.43-6.43V51.28a6.69 6.69 0 0 1 6.68-6.69h3.06V46h-3.06a5.33 5.33 0 0 0-5.32 5.33V96.6a5.07 5.07 0 0 0 5.07 5.07h1.15z"/><circle class="browser_svg__cls-2" cx="26.78" cy="45.81" r="2.17"/><path class="browser_svg__cls-3" d="M26.78 48.66a2.85 2.85 0 1 1 2.85-2.85 2.86 2.86 0 0 1-2.85 2.85zm0-4.35a1.5 1.5 0 1 0 1.5 1.5 1.5 1.5 0 0 0-1.5-1.5z"/><circle class="browser_svg__cls-2" cx="139.7" cy="81.5" r="2.17"/><path class="browser_svg__cls-3" d="M139.7 84.35a2.86 2.86 0 1 1 2.85-2.85 2.86 2.86 0 0 1-2.85 2.85zm0-4.35a1.5 1.5 0 1 0 1.49 1.5 1.5 1.5 0 0 0-1.49-1.5z"/><rect class="browser_svg__cls-2" x="76.35" y="82.45" width="24.53" height="44.66" rx="5" ry="5"/><path class="browser_svg__cls-3" d="M96.36 127.79H80.88a5.21 5.21 0 0 1-5.21-5.2V87a5.22 5.22 0 0 1 5.21-5.21h15.48a5.21 5.21 0 0 1 5.2 5.21v35.61a5.2 5.2 0 0 1-5.2 5.18zM80.88 83.13A3.86 3.86 0 0 0 77 87v35.61a3.86 3.86 0 0 0 3.85 3.85h15.51a3.86 3.86 0 0 0 3.85-3.85V87a3.86 3.86 0 0 0-3.85-3.85z"/><path class="browser_svg__cls-6" d="M98.37 93.77v25.8H79.5V88.11h18.87v5.66z"/><path class="browser_svg__cls-3" d="M98.71 119.91H79.16V87.77h19.55zm-18.87-.68H98V88.45H79.84z"/><circle class="browser_svg__cls-4" cx="88.3" cy="122.71" r="1.57"/><path class="browser_svg__cls-3" d="M88.3 124.62a1.91 1.91 0 1 1 1.92-1.91 1.91 1.91 0 0 1-1.92 1.91zm0-3.14a1.23 1.23 0 1 0 1.24 1.23 1.23 1.23 0 0 0-1.24-1.23z"/><rect class="browser_svg__cls-5" x="85.79" y="84.97" width="5.66" height=".63" rx=".31" ry=".31"/><path class="browser_svg__cls-3" d="M91.14 86.05h-5a.77.77 0 0 1 0-1.54h5a.77.77 0 0 1 0 1.54z"/><path class="browser_svg__cls-7" d="M38.88 99.3l2-1.18a6.28 6.28 0 0 0 .42.56 2.62 2.62 0 0 0 2.88.83 1.14 1.14 0 0 0 .83-.8 1.07 1.07 0 0 0-.41-1.23 6.1 6.1 0 0 0-.93-.54c-.55-.26-1.11-.48-1.66-.74a4.67 4.67 0 0 1-1.57-1.2 3.28 3.28 0 0 1-.79-2 3.5 3.5 0 0 1 .35-1.78 3.1 3.1 0 0 1 1.74-1.56 4.62 4.62 0 0 1 3.41 0 3.6 3.6 0 0 1 1.77 1.69l-2 1.25-.19-.29a1.6 1.6 0 0 0-1-.73 1.68 1.68 0 0 0-.89 0 1.08 1.08 0 0 0-.47 1.8 3.23 3.23 0 0 0 .72.48c.47.23 1 .43 1.43.64a8.09 8.09 0 0 1 1.78 1 3.26 3.26 0 0 1 1.26 2.57 3.51 3.51 0 0 1-.32 1.75 3.34 3.34 0 0 1-2 1.7 5.81 5.81 0 0 1-2.52.23 4.94 4.94 0 0 1-2.4-.86 4.4 4.4 0 0 1-1.44-1.59zM35 89.52h2.51V98a4.78 4.78 0 0 1-.28 1.76 2.93 2.93 0 0 1-1.85 1.83 4.71 4.71 0 0 1-3.5-.12 3.75 3.75 0 0 1-1.88-1.9l2-1.24.08.13c.11.18.22.36.34.53a1.5 1.5 0 0 0 1.76.56 1 1 0 0 0 .73-.94A3.67 3.67 0 0 0 35 98v-8.48z"/></g></g></svg>
