<svg xmlns="http://www.w3.org/2000/svg" viewBox="0 0 640.69 760.4">
  <g id="peer">
    <path id="back" d="M633.65 537.45V222.94a41 41 0 0 0-20.46-35.45L340.81 30.24a40.94 40.94 0 0 0-40.93 0L27.5 187.49A41 41 0 0 0 7 222.94v314.51a41 41 0 0 0 20.5 35.46l272.38 157.25a40.94 40.94 0 0 0 40.93 0l272.38-157.25a41 41 0 0 0 20.46-35.46z" fill="#f6f7fd"/>
    <path id="border" class="cls-2" d="M610.23 533.4V226.61a8.88 8.88 0 1 0-7-15.63L328.41 57.74a8.78 8.78 0 0 0 .62-3.25 8.89 8.89 0 1 0-17.3 2.85L37 210.55a8.88 8.88 0 1 0-7.81 15.74v307.2a9 9 0 1 0 9.29 14.73l270.83 154.2a9 9 0 1 0 17.34 3.37 8.8 8.8 0 0 0-.54-3l275.72-155.1a8.88 8.88 0 1 0 8.38-14.25zm4.5-315.55a5.89 5.89 0 1 1-5.89-5.89 5.9 5.9 0 0 1 5.89 5.89zM320.14 48.61a5.89 5.89 0 1 1-5.89 5.88 5.89 5.89 0 0 1 5.89-5.88zM26.08 217.85a5.89 5.89 0 1 1 5.92 5.88 5.89 5.89 0 0 1-5.92-5.88zM32 548.06a6 6 0 1 1 6-6 6 6 0 0 1-6 6zm285.67 163.73a6 6 0 1 1 6-6 6 6 0 0 1-6 6zm7-11.65a9 9 0 0 0-13.76-.27L40.18 545.72a9 9 0 0 0-8-12.65V226.72a8.89 8.89 0 0 0 8.64-8.87 8.79 8.79 0 0 0-1.62-5.1L313.16 60a8.86 8.86 0 0 0 13.69.32l274.36 153a8.77 8.77 0 0 0-1.26 4.54 8.89 8.89 0 0 0 7.28 8.73v306.84a8.87 8.87 0 0 0-6.81 11.57zm284.17-152.08a5.89 5.89 0 0 1-5.7-4.44s0-.11.05-.17h-.08a5.83 5.83 0 0 1-.16-1.33 5.89 5.89 0 1 1 5.89 5.89z"/>
    <g id="icon">
      <path class="cls-2" d="M184.83 267.87a22.26 22.26 0 1 1 22.26-22.26 22.28 22.28 0 0 1-22.26 22.26zm0-41.52a19.26 19.26 0 1 0 19.26 19.26 19.28 19.28 0 0 0-19.26-19.26z"/>
      <path class="cls-2" d="M185.44 495.53a1.5 1.5 0 0 1-1.5-1.5v-225.7a1.5 1.5 0 0 1 3 0V494a1.5 1.5 0 0 1-1.5 1.53zM435.11 516.29H206.2a1.5 1.5 0 0 1 0-3h228.91a1.5 1.5 0 0 1 0 3zM455.86 495.53a1.5 1.5 0 0 1-1.5-1.5V267a1.5 1.5 0 0 1 3 0v227a1.5 1.5 0 0 1-1.5 1.53zM213.82 245.86h-6a1.5 1.5 0 0 1 0-3h6a1.5 1.5 0 0 1 0 3zM414.88 245.86h-12.57a1.5 1.5 0 0 1 0-3h12.57a1.5 1.5 0 0 1 0 3zm-25.13 0h-12.57a1.5 1.5 0 1 1 0-3h12.57a1.5 1.5 0 0 1 0 3zm-25.14 0h-12.56a1.5 1.5 0 0 1 0-3h12.56a1.5 1.5 0 0 1 0 3zm-25.13 0h-12.56a1.5 1.5 0 1 1 0-3h12.56a1.5 1.5 0 0 1 0 3zm-25.13 0h-12.57a1.5 1.5 0 0 1 0-3h12.57a1.5 1.5 0 0 1 0 3zm-25.13 0h-12.57a1.5 1.5 0 0 1 0-3h12.57a1.5 1.5 0 0 1 0 3zm-25.13 0h-12.57a1.5 1.5 0 1 1 0-3h12.57a1.5 1.5 0 0 1 0 3zm-25.14 0h-12.56a1.5 1.5 0 0 1 0-3H239a1.5 1.5 0 0 1 0 3zM433.44 245.86h-6a1.5 1.5 0 1 1 0-3h6a1.5 1.5 0 0 1 0 3z"/>
      <path class="cls-2" d="M185.44 537.05a22.26 22.26 0 1 1 22.26-22.26 22.28 22.28 0 0 1-22.26 22.26zm0-41.52a19.26 19.26 0 1 0 19.26 19.26 19.28 19.28 0 0 0-19.26-19.26zM455.86 268.48a22.26 22.26 0 1 1 22.26-22.26 22.28 22.28 0 0 1-22.26 22.26zm0-41.52a19.26 19.26 0 1 0 19.26 19.26A19.27 19.27 0 0 0 455.86 227zM455.86 537.05a22.26 22.26 0 1 1 22.26-22.26 22.28 22.28 0 0 1-22.26 22.26zm0-41.52a19.26 19.26 0 1 0 19.26 19.26 19.27 19.27 0 0 0-19.26-19.26z"/>
      <circle class="cls-2" cx="184.83" cy="245.61" r="9.93"/>
    </g>
  </g>
</svg>
