<svg id="ipld" xmlns="http://www.w3.org/2000/svg" viewBox="0 0 640.69 760.4">
  <g id="ipld">
      <path id="back" d="M633.65 537.45V222.94a41 41 0 0 0-20.46-35.45L340.81 30.24a40.94 40.94 0 0 0-40.93 0L27.5 187.49A41 41 0 0 0 7 222.94v314.51a41 41 0 0 0 20.5 35.46l272.38 157.25a40.94 40.94 0 0 0 40.93 0l272.38-157.25a41 41 0 0 0 20.46-35.46z" fill="#f6f7fd"/>
      <path class="cls-2" d="M610.23 533.4V226.61a8.88 8.88 0 1 0-7-15.63L328.41 57.74a8.78 8.78 0 0 0 .62-3.25 8.89 8.89 0 1 0-17.3 2.85L37 210.55a8.88 8.88 0 1 0-7.81 15.74v307.2a9 9 0 1 0 9.29 14.73l270.83 154.2a9 9 0 1 0 17.34 3.37 8.8 8.8 0 0 0-.54-3l275.72-155.1a8.88 8.88 0 1 0 8.38-14.25zm4.5-315.55a5.89 5.89 0 1 1-5.89-5.89 5.9 5.9 0 0 1 5.89 5.89zM320.14 48.61a5.89 5.89 0 1 1-5.89 5.88 5.89 5.89 0 0 1 5.89-5.88zM26.08 217.85a5.89 5.89 0 1 1 5.92 5.88 5.89 5.89 0 0 1-5.92-5.88zM32 548.06a6 6 0 1 1 6-6 6 6 0 0 1-6 6zm285.67 163.73a6 6 0 1 1 6-6 6 6 0 0 1-6 6zm7-11.65a9 9 0 0 0-13.76-.27L40.18 545.72a9 9 0 0 0-8-12.65V226.72a8.89 8.89 0 0 0 8.64-8.87 8.79 8.79 0 0 0-1.62-5.1L313.16 60a8.86 8.86 0 0 0 13.69.32l274.36 153a8.77 8.77 0 0 0-1.26 4.54 8.89 8.89 0 0 0 7.28 8.73v306.84a8.87 8.87 0 0 0-6.81 11.57zm284.17-152.08a5.89 5.89 0 0 1-5.7-4.44s0-.11.05-.17h-.08a5.83 5.83 0 0 1-.16-1.33 5.89 5.89 0 1 1 5.89 5.89z"/>
      <g id="icon">
        <path class="cls-2" d="M447.77 368.24h-3v12.85l-.47.3-60.44 38.18v-81.13l16.89-10.67v-14.72h-3v13.05l-.46.3-75.62 47.76v-40.24l34.94-22.07V284h-3v26.18l-31.93 20.16v-86.58h-3v65.61l-32.91-20.79v-17.43h-3v19.1l35.93 22.69v85.72l-34.71-19v-33.83h-3V378l-49.72-27.26v-28.56h-3v30.2l13.7 7.53v57.75l-45.5-24.81V379h-3v15.29l125.29 68.62v82.8h3v-83.28l126.13-79.68zm-129.14 91.28l-74.54-40.64v-57.74l74.54 41zm62.2-38l-.47.3-58.72 37.09v-81.18l.47-.29 58.72-37.1z"/>
        <path class="cls-2" d="M445.26 368.81a14.38 14.38 0 0 1-10.18-24.55 14.39 14.39 0 1 1 10.18 24.55zm-8.06-22.43a11.39 11.39 0 1 0 16.11 0 11.41 11.41 0 0 0-16.11 0zM399 314.26a14.38 14.38 0 0 1-10.18-24.55A14.39 14.39 0 1 1 399 314.26zm-8.06-22.43a11.39 11.39 0 1 0 16.11 0 11.4 11.4 0 0 0-16.11 0zM355.42 285.66a14.39 14.39 0 0 1-10.18-24.56 14.39 14.39 0 1 1 10.18 24.56zm-8.06-22.44a11.38 11.38 0 1 0 8.06-3.34 11.41 11.41 0 0 0-8.06 3.34zM320.56 243.43a14.39 14.39 0 0 1-10.18-24.56 14.39 14.39 0 1 1 10.18 24.56zm0-25.77a11.31 11.31 0 0 0-8.06 3.34 11.41 11.41 0 1 0 8.06-3.33zM284.63 272.77a14.39 14.39 0 0 1-10.17-24.56 14.39 14.39 0 1 1 10.17 24.56zm0-25.77a11.31 11.31 0 0 0-8.05 3.33 11.41 11.41 0 1 0 8.05-3.33zM282.93 347.25a14.38 14.38 0 0 1-10.17-24.56 14.39 14.39 0 1 1 10.17 24.56zm0-25.77a11.31 11.31 0 0 0-8.05 3.33 11.4 11.4 0 1 0 8.05-3.33zM230 324.35a14.39 14.39 0 0 1-10.17-24.56A14.39 14.39 0 1 1 230 324.35zm-8-22.43a11.39 11.39 0 1 0 16.11 0 11.4 11.4 0 0 0-16.11 0zM195.43 380.68a14.39 14.39 0 0 1-10.17-24.56 14.39 14.39 0 1 1 10.17 24.56zm-8.05-22.43a11.39 11.39 0 1 0 16.11 0 11.4 11.4 0 0 0-16.11 0z"/>
      </g>
  </g>
</svg>
