<svg xmlns="http://www.w3.org/2000/svg" viewBox="0 0 640.69 760.4">
  <g id="web">
    <path id="back" d="M633.65 537.45V222.94a41 41 0 0 0-20.46-35.45L340.81 30.24a40.94 40.94 0 0 0-40.93 0L27.5 187.49A41 41 0 0 0 7 222.94v314.51a41 41 0 0 0 20.5 35.46l272.38 157.25a40.94 40.94 0 0 0 40.93 0l272.38-157.25a41 41 0 0 0 20.46-35.46z" fill="#f6f7fd"/>
    <path id="border" class="cls-2" d="M610.23 533.4V226.61a8.88 8.88 0 1 0-7-15.63L328.41 57.74a8.78 8.78 0 0 0 .62-3.25 8.89 8.89 0 1 0-17.3 2.85L37 210.55a8.88 8.88 0 1 0-7.81 15.74v307.2a9 9 0 1 0 9.29 14.73l270.83 154.2a9 9 0 1 0 17.34 3.37 8.8 8.8 0 0 0-.54-3l275.72-155.1a8.88 8.88 0 1 0 8.38-14.25zm4.5-315.55a5.89 5.89 0 1 1-5.89-5.89 5.9 5.9 0 0 1 5.89 5.89zM320.14 48.61a5.89 5.89 0 1 1-5.89 5.88 5.89 5.89 0 0 1 5.89-5.88zM26.08 217.85a5.89 5.89 0 1 1 5.92 5.88 5.89 5.89 0 0 1-5.92-5.88zM32 548.06a6 6 0 1 1 6-6 6 6 0 0 1-6 6zm285.67 163.73a6 6 0 1 1 6-6 6 6 0 0 1-6 6zm7-11.65a9 9 0 0 0-13.76-.27L40.18 545.72a9 9 0 0 0-8-12.65V226.72a8.89 8.89 0 0 0 8.64-8.87 8.79 8.79 0 0 0-1.62-5.1L313.16 60a8.86 8.86 0 0 0 13.69.32l274.36 153a8.77 8.77 0 0 0-1.26 4.54 8.89 8.89 0 0 0 7.28 8.73v306.84a8.87 8.87 0 0 0-6.81 11.57zm284.17-152.08a5.89 5.89 0 0 1-5.7-4.44s0-.11.05-.17h-.08a5.83 5.83 0 0 1-.16-1.33 5.89 5.89 0 1 1 5.89 5.89z"/>
    <g id="icon">
      <path class="cls-2" d="M320.35 543.05c-89.8 0-162.86-73-162.86-162.85s73.06-162.85 162.86-162.85S483.2 290.4 483.2 380.2s-73.06 162.85-162.85 162.85zm0-322.7c-88.15 0-159.86 71.71-159.86 159.85s71.71 159.85 159.86 159.85S480.2 468.34 480.2 380.2s-71.71-159.85-159.85-159.85z"/>
      <path class="cls-2" d="M320.35 543.05c-11.26 0-22.15-4.38-32.38-13-9.76-8.26-18.51-20-26-35.06-15.34-30.67-23.79-71.43-23.79-114.76s8.45-84.09 23.79-114.77c7.5-15 16.25-26.79 26-35.05 10.23-8.65 21.12-13 32.38-13s22.14 4.38 32.37 13c9.76 8.26 18.51 20.05 26 35.05 15.34 30.68 23.79 71.44 23.79 114.77s-8.44 84.06-23.78 114.77c-7.5 15-16.25 26.8-26 35.06-10.24 8.61-21.13 12.99-32.38 12.99zm0-322.7c-43.66 0-79.18 71.71-79.18 159.85s35.52 159.85 79.18 159.85 79.17-71.71 79.17-159.85S364 220.35 320.35 220.35z"/>
      <path class="cls-2" d="M198.62 485.26l-1.62-2.54c30.7-19.11 76.14-30.07 124.69-30.07 47.79 0 92.79 10.68 123.45 29.3l-1.56 2.56c-30.2-18.34-74.63-28.86-121.89-28.86-47.97 0-92.84 10.8-123.07 29.61zM319.73 307.75c-48.08 0-93.36-10.68-124.21-29.3l1.55-2.57c30.4 18.35 75.11 28.87 122.66 28.87 48.3 0 93.45-10.8 123.87-29.61l1.58 2.55c-30.89 19.1-76.61 30.06-125.45 30.06zM158.99 378.7H481.7v3H158.99z"/>
      <path class="cls-2" d="M318.85 218.85h3v322.71h-3z"/>
    </g>
  </g>
</svg>
