<svg xmlns="http://www.w3.org/2000/svg" viewBox="0 0 640.69 760.4">
  <g id="browser">
    <path id="back" d="M641.25 544.22V229.71a40.94 40.94 0 0 0-20.47-35.45L348.41 37a41 41 0 0 0-40.94 0L35.1 194.26a40.92 40.92 0 0 0-20.47 35.45v314.51a40.93 40.93 0 0 0 20.47 35.45l272.37 157.26a41 41 0 0 0 40.94 0l272.37-157.26a41 41 0 0 0 20.47-35.45z" fill="#f6f7fd"/>
    <path id="border" class="cls-2" d="M617.82 540.17V233.38a8.88 8.88 0 0 0-1.39-17.66 8.81 8.81 0 0 0-5.64 2L336 64.5a8.73 8.73 0 0 0 .62-3.24 8.89 8.89 0 1 0-17.3 2.85l-274.7 153.2a8.89 8.89 0 1 0-7.82 15.75v307.2A9 9 0 1 0 46.1 555l270.83 154.2a8.8 8.8 0 0 0-.66 3.37 9 9 0 1 0 17.46-3l275.71-155.16a8.88 8.88 0 1 0 8.38-14.24zm4.5-315.56a5.89 5.89 0 1 1-5.89-5.89 5.89 5.89 0 0 1 5.89 5.89zM327.73 55.37a5.89 5.89 0 1 1-5.88 5.89 5.89 5.89 0 0 1 5.88-5.89zM33.67 224.61a5.89 5.89 0 1 1 5.89 5.89 5.89 5.89 0 0 1-5.89-5.89zm5.89 330.21a6 6 0 1 1 6-6 6 6 0 0 1-6 6zm285.71 163.74a6 6 0 1 1 6-6 6 6 0 0 1-6 6zm7-11.66a9 9 0 0 0-13.75-.27L47.77 552.49a9 9 0 0 0-8-12.66V233.49a8.88 8.88 0 0 0 7-14L320.76 66.74a8.85 8.85 0 0 0 13.69.33l274.35 153a8.85 8.85 0 0 0 6 13.26V540.2a8.9 8.9 0 0 0-7.28 8.73 8.59 8.59 0 0 0 .48 2.84zm284.16-152.08a5.9 5.9 0 0 1-5.7-4.43 1.27 1.27 0 0 1 .06-.18h-.09a5.89 5.89 0 1 1 11.62-1.33 5.89 5.89 0 0 1-5.89 5.94z"/>
    <g id="icon">
      <path class="cls-2" d="M494.66 546.8H161.22a14.46 14.46 0 0 1-14.44-14.44V241.57a14.46 14.46 0 0 1 14.44-14.44h333.44a14.46 14.46 0 0 1 14.44 14.44v290.79a14.46 14.46 0 0 1-14.44 14.44zM161.22 230.13a11.45 11.45 0 0 0-11.44 11.44v290.79a11.45 11.45 0 0 0 11.44 11.44h333.44a11.45 11.45 0 0 0 11.44-11.44V241.57a11.45 11.45 0 0 0-11.44-11.44z"/>
      <path class="cls-2" d="M148.28 271.69H507.6v3H148.28zM174.17 262.59a10.68 10.68 0 1 1 10.68-10.68 10.69 10.69 0 0 1-10.68 10.68zm0-18.35a7.68 7.68 0 1 0 7.68 7.67 7.68 7.68 0 0 0-7.68-7.67zM204.11 262.18a10.68 10.68 0 1 1 10.67-10.68 10.69 10.69 0 0 1-10.67 10.68zm0-18.35a7.68 7.68 0 1 0 7.67 7.67 7.68 7.68 0 0 0-7.67-7.67zM234 263a10.68 10.68 0 1 1 10.67-10.67A10.69 10.69 0 0 1 234 263zm0-18.35a7.68 7.68 0 1 0 7.67 7.68 7.69 7.69 0 0 0-7.67-7.68zM483.41 366.09H172.47v-65h310.94zm-307.94-3h304.94v-59H175.47zM484.21 513.09H338.73v-128h145.48zm-142.48-3h139.48v-122H341.73zM319.56 513.09H172.47v-128h147.09zm-144.09-3h141.09v-122H175.47z"/>
    </g>
  </g>
</svg>
