<svg xmlns="http://www.w3.org/2000/svg" viewBox="0 0 640.69 760.4">
  <g id="stack">
    <path id="back" d="M633.65 537.45V222.94a41 41 0 0 0-20.46-35.45L340.81 30.24a40.94 40.94 0 0 0-40.93 0L27.5 187.49A41 41 0 0 0 7 222.94v314.51a41 41 0 0 0 20.5 35.46l272.38 157.25a40.94 40.94 0 0 0 40.93 0l272.38-157.25a41 41 0 0 0 20.46-35.46z" fill="#f6f7fd"/>
    <path id="border" class="cls-2" d="M610.23 533.4V226.61a8.88 8.88 0 1 0-7-15.63L328.41 57.74a8.78 8.78 0 0 0 .62-3.25 8.89 8.89 0 1 0-17.3 2.85L37 210.55a8.88 8.88 0 1 0-7.81 15.74v307.2a9 9 0 1 0 9.29 14.73l270.83 154.2a9 9 0 1 0 17.34 3.37 8.8 8.8 0 0 0-.54-3l275.72-155.1a8.88 8.88 0 1 0 8.38-14.25zm4.5-315.55a5.89 5.89 0 1 1-5.89-5.89 5.9 5.9 0 0 1 5.89 5.89zM320.14 48.61a5.89 5.89 0 1 1-5.89 5.88 5.89 5.89 0 0 1 5.89-5.88zM26.08 217.85a5.89 5.89 0 1 1 5.92 5.88 5.89 5.89 0 0 1-5.92-5.88zM32 548.06a6 6 0 1 1 6-6 6 6 0 0 1-6 6zm285.67 163.73a6 6 0 1 1 6-6 6 6 0 0 1-6 6zm7-11.65a9 9 0 0 0-13.76-.27L40.18 545.72a9 9 0 0 0-8-12.65V226.72a8.89 8.89 0 0 0 8.64-8.87 8.79 8.79 0 0 0-1.62-5.1L313.16 60a8.86 8.86 0 0 0 13.69.32l274.36 153a8.77 8.77 0 0 0-1.26 4.54 8.89 8.89 0 0 0 7.28 8.73v306.84a8.87 8.87 0 0 0-6.81 11.57zm284.17-152.08a5.89 5.89 0 0 1-5.7-4.44s0-.11.05-.17h-.08a5.83 5.83 0 0 1-.16-1.33 5.89 5.89 0 1 1 5.89 5.89z"/>
    <g id="icon">
      <path class="cls-2" d="M320.66 353a20.06 20.06 0 0 1-7.5-1.5q-61.8-24.8-123.61-49.5l-36.45-14.59a3.75 3.75 0 0 0-.47-.17 5 5 0 0 1-1.73-.85 22.2 22.2 0 0 1-1.94-1.94l-.71-.75-1.07-1.11 1.14-1c.23-.21.45-.45.67-.69a7 7 0 0 1 2.23-1.78c8.67-3.83 17.51-7.66 26.07-11.37l24-10.4q55.31-24 110.64-47.88a50.12 50.12 0 0 1 5.6-1.92c.82-.24 1.62-.48 2.4-.73l.43-.14.44.12c.82.23 1.61.42 2.36.6a28.75 28.75 0 0 1 4.56 1.38c55.58 24 109.89 47.55 161.43 69.94a9.57 9.57 0 0 1 2.8 2.13c.31.31.63.62 1 .9l1.38 1.17-1.45 1.08c-.34.27-.66.57-1 .87a9.44 9.44 0 0 1-2.85 2.06c-41.48 16.66-83.67 33.55-124.48 49.89l-36.63 14.67a19.55 19.55 0 0 1-7.26 1.51zM151.4 282.68a16.08 16.08 0 0 0 1.45 1.42 2.77 2.77 0 0 0 .71.29l.65.23 36.46 14.58 123.6 49.46a16.12 16.12 0 0 0 12.55.06l36.64-14.67c40.8-16.33 83-33.23 124.47-49.88a6.78 6.78 0 0 0 1.79-1.34 6.69 6.69 0 0 0-1.77-1.4c-51.53-22.38-105.84-45.91-161.42-69.93a24.38 24.38 0 0 0-4.08-1.22l-2-.51-2 .62a46 46 0 0 0-5.27 1.79q-55.33 23.91-110.64 47.89l-24 10.4c-8.55 3.7-17.39 7.52-26 11.35a3.93 3.93 0 0 0-1.14.86z"/>
      <path class="cls-2" d="M320 418.53l-.38-.1q-1.14-.29-2.22-.51a29.6 29.6 0 0 1-4.57-1.27C256.09 394 203.38 372.88 151.7 352.14a9.77 9.77 0 0 1-2.87-2c-.33-.29-.65-.59-1-.86l-1.44-1.13 1.39-1.19c.32-.28.64-.59 1-.9a9.29 9.29 0 0 1 2.79-2.14c18.19-8 39.64-17.35 60.87-26.38l1.17 2.76c-21.21 9-42.66 18.39-60.84 26.36A6.75 6.75 0 0 0 151 348a7 7 0 0 0 1.82 1.33C204.49 370.1 257.21 391.2 314 413.86a27.27 27.27 0 0 0 4.11 1.13c.63.14 1.28.28 1.94.44.62-.16 1.25-.3 1.88-.44a30.92 30.92 0 0 0 4.58-1.28C381 392 435 370.36 486.92 349.52a8.7 8.7 0 0 0 2.14-1.48 7.85 7.85 0 0 0-2-1.54c-17.9-7.84-39-17.07-60.12-26l1.17-2.76c21.1 9 42.25 18.2 60.16 26.05a10.74 10.74 0 0 1 3 2.22c.35.33.69.66 1.05 1l1.49 1.22-1.55 1.15c-.38.28-.75.59-1.12.91a11.31 11.31 0 0 1-3.1 2.08 86186.13 86186.13 0 0 1-160.44 64.2 33.5 33.5 0 0 1-5 1.42c-.73.16-1.45.32-2.16.51z"/>
      <path class="cls-2" d="M320.53 486.16l-.39-.09c-.81-.2-1.59-.35-2.34-.51a26.34 26.34 0 0 1-4.62-1.23c-57.18-22.81-110-43.95-161.53-64.62a9 9 0 0 1-2.83-2.12c-.31-.31-.62-.62-.95-.9l-1.38-1.17 1.41-1.14c.34-.27.66-.58 1-.88a10.19 10.19 0 0 1 2.82-2.07c18-7.88 39.3-17.17 60.87-26.35l1.17 2.76c-21.56 9.16-42.86 18.46-60.85 26.34a7.22 7.22 0 0 0-1.85 1.4 6 6 0 0 0 1.71 1.35 84550.95 84550.95 0 0 0 161.52 64.62 23.59 23.59 0 0 0 4.11 1.07l2.05.44 2.1-.59a50.07 50.07 0 0 0 5.34-1.68c45.29-18.06 91.32-36.47 135.83-54.28l12-4.81c4.24-1.69 8.62-3.44 12.86-5.28a2.74 2.74 0 0 0 1-.92 12.69 12.69 0 0 0-1.18-.93 7 7 0 0 0-1.42-.67l-.77-.31-14.41-6.24c-14.53-6.28-29.54-12.77-44.28-19.22l1.2-2.75c14.73 6.45 29.75 12.94 44.27 19.22l14.41 6.23.66.27a8.85 8.85 0 0 1 2.09 1c1.51 1.08 2.84 2.17 2.55 3.58a5.3 5.3 0 0 1-2.93 3.45c-4.28 1.86-8.68 3.62-12.93 5.32l-12 4.81c-44.52 17.8-90.55 36.21-135.84 54.28a54.26 54.26 0 0 1-5.66 1.78c-.82.23-1.63.45-2.42.69z"/>
      <path class="cls-2" d="M320.53 553.76l-.39-.09c-.81-.2-1.59-.35-2.34-.51a26.81 26.81 0 0 1-4.62-1.23c-57-22.72-109.79-43.86-161.53-64.62a9.07 9.07 0 0 1-2.83-2.12c-.31-.31-.62-.62-.94-.9l-1.39-1.17 1.41-1.12c.34-.27.66-.58 1-.88a10.19 10.19 0 0 1 2.82-2.07c18-7.88 39.32-17.18 60.87-26.35l1.17 2.76c-21.53 9.17-42.84 18.46-60.84 26.34a7.22 7.22 0 0 0-1.85 1.4 6 6 0 0 0 1.71 1.35c51.73 20.76 104.56 41.89 161.52 64.62a23.83 23.83 0 0 0 4.11 1.07l2.05.44 2.1-.59a50.07 50.07 0 0 0 5.34-1.68c45.26-18 91.26-36.45 135.75-54.24l12.15-4.86c4.22-1.69 8.6-3.43 12.83-5.27a2.74 2.74 0 0 0 1-.92 12.69 12.69 0 0 0-1.18-.93 7.53 7.53 0 0 0-1.42-.68l-.77-.3-14.45-6.26c-14.51-6.27-29.52-12.76-44.24-19.21l1.2-2.74c14.72 6.44 29.72 12.93 44.23 19.2l14.45 6.25.66.27a8.85 8.85 0 0 1 2.09 1c1.51 1.08 2.84 2.17 2.55 3.58a5.32 5.32 0 0 1-2.93 3.45c-4.27 1.86-8.66 3.61-12.91 5.31l-12.15 4.85c-44.48 17.79-90.49 36.19-135.75 54.25a54.26 54.26 0 0 1-5.66 1.78c-.82.23-1.63.45-2.42.69z"/>
    </g>
  </g>
</svg>
