<svg xmlns="http://www.w3.org/2000/svg" viewBox="0 0 157.03 167.35"><defs><style>.ipfs_svg__cls-13{fill:#a0d6de}.ipfs_svg__cls-3{fill:#fdd52f}.ipfs_svg__cls-4{fill:#2a2b60}.ipfs_svg__cls-5{fill:#51b7b7}.ipfs_svg__cls-6{fill:#24b2ab}.ipfs_svg__cls-9{fill:#159a96}.ipfs_svg__cls-12{fill:#80cacb}.ipfs_svg__cls-14{fill:#18a096}</style><clipPath id="ipfs_svg__clip-path"><path d="M40.63 60.36L76 80.77l35.35-20.41L76 39.94z" fill="none"/></clipPath></defs><g id="first_group"><path id="ipfs_svg___g_" data-name="&lt;g&gt;" d="M151.26 113.81V53.54A20.24 20.24 0 0 0 141.12 36L88.61 5.79a20.25 20.25 0 0 0-20.18 0L15.91 36A20.24 20.24 0 0 0 5.77 53.54v60.27a20.27 20.27 0 0 0 10.14 17.55l52.52 30.2a20.25 20.25 0 0 0 20.18 0l52.51-30.2a20.27 20.27 0 0 0 10.14-17.55z" opacity=".2" fill="#a0d6de"/><path class="ipfs_svg__cls-3" d="M93.72 128.62a8.1 8.1 0 1 0 8.11 8.1 8.1 8.1 0 0 0-8.11-8.1zm2.5 12.38h-5l-2.49-4.32 2.49-4.31h5l2.49 4.31z"/><path class="ipfs_svg__cls-4" d="M93.72 145.35a8.63 8.63 0 1 1 8.63-8.63 8.64 8.64 0 0 1-8.63 8.63zm0-16.2a7.58 7.58 0 1 0 7.58 7.57 7.58 7.58 0 0 0-7.58-7.57zm2.8 12.41h-5.59l-2.8-4.84 2.8-4.84h5.59l2.8 4.84zm-5-1.05h4.37l2.19-3.79-2.19-3.79h-4.35l-2.19 3.79z"/><path class="ipfs_svg__cls-5" d="M76 128.09l41-23.66V57.11L76 80.77z"/><path class="ipfs_svg__cls-3" d="M76 128.09V80.77L35 57.11v47.32z"/><path class="ipfs_svg__cls-6" d="M35 57.11l41 23.66 41-23.66-41-23.67z"/><path d="M112.76 62.63L83 80a7.08 7.08 0 0 1-4.22 7.3v34.12a7 7 0 0 1 1.37.8L109.93 105a7.1 7.1 0 0 1 4.21-7.3V63.43a6.46 6.46 0 0 1-1.37-.8z" fill="#469fa3"/><path d="M39.23 62.82a6.79 6.79 0 0 1-1.38.8v34.31a7.1 7.1 0 0 1 4.21 7.3l29.72 17.16a7 7 0 0 1 1.37-.8V87.28A7.1 7.1 0 0 1 68.94 80L39.23 62.82z" fill="#dab41a"/><path class="ipfs_svg__cls-9" d="M75.99 33.44v47.33l41-23.66-41-23.67z"/><path class="ipfs_svg__cls-4" d="M76 129a.87.87 0 0 1-.44-.11l-41-23.67a.87.87 0 0 1-.44-.76V57.22a.31.31 0 0 1 0-.1.9.9 0 0 1 .43-.78l41-23.66a.87.87 0 0 1 .88 0l40.9 23.61a.89.89 0 0 1 .54.82v47.32a.87.87 0 0 1-.44.76l-41 23.67a.82.82 0 0 1-.43.14zm-40.1-25L76 127.07l40.1-23.15v-46.3L76 34.46 35.9 57.61z"/><g clip-path="url(#ipfs_svg__clip-path)"><path d="M40.63 60.36L76 80.77l35.35-20.41L76 39.94z" fill="#105b5b"/><path class="ipfs_svg__cls-12" d="M76 81.38l-31.24-18 13.08-7.71a7.21 7.21 0 0 1 7.2 0l27.79 16zM46.82 63.32L76 80.16l14.72-8.5-26.23-15.13a6.14 6.14 0 0 0-6.15 0z"/><path class="ipfs_svg__cls-13" d="M90.39 67.54l-.39-.35c.12-.15 3.77-2.33 10.85-6.47l.32-3.75.12-.06L111.54 51l.26.45-10.13 5.86-.32 3.69-.12.07C97 63.56 90.7 67.29 90.39 67.54zM80 62.05l-.26-.46 4.17-2.37.48-3.57.12-.06c4.49-2.53 16.23-9.18 16.65-9.5l.38.37s-.18.23-16.66 9.52l-.48 3.57z"/><path class="ipfs_svg__cls-13" d="M85.35 64.77l-.27-.45 10.65-6.48 5.36-.82 14.07-8.14.26.46-14.2 8.2-5.36.81-10.51 6.42zM89 59.56l-.4-.34a28.18 28.18 0 0 1 3.23-1.92l.48-3.57 10.21-5.55.26.46-10 5.43-.48 3.56-.11.07c-1.38.79-2.99 1.71-3.19 1.86z"/><path class="ipfs_svg__cls-13" d="M88.12 60.77a1 1 0 1 1 1-1 1 1 0 0 1-1 1zm0-1.45a.47.47 0 0 0-.47.46.47.47 0 1 0 .47-.46zM104.28 61.32v-.53c.18 0 1.41-.77 2.5-1.44l.13-.08 2.32 1.33 7.62-4.6.27.46-7.94 4.74-2.32-1.33c-2.33 1.44-2.5 1.44-2.58 1.45z"/><path class="ipfs_svg__cls-13" d="M103.86 62.64a1 1 0 1 1 1-1 1 1 0 0 1-1 1zm0-1.57a.53.53 0 0 0-.52.52.52.52 0 0 0 .52.52.52.52 0 0 0 .52-.52.52.52 0 0 0-.52-.52zM70.28 55.74l-.27-.45 2.88-1.73 5.36-.82 14.07-8.14.26.45-14.2 8.2-5.36.82-2.74 1.67zM75.86 58.71l-.26-.46 8.79-4.88 2.35-3.65 8.13-5.12.28.45-8.08 5.09-2.37 3.66-8.84 4.91zM65.31 51.87l-.4-.34a28.18 28.18 0 0 1 3.23-1.92l.48-3.61 10.21-5.55.25.46-10 5.42-.48 3.57-.12.06c-1.39.83-3 1.76-3.17 1.91z"/><path class="ipfs_svg__cls-13" d="M64.4 53.08a1 1 0 1 1 1-1 1 1 0 0 1-1 1zm0-1.45a.46.46 0 1 0 .46.46.47.47 0 0 0-.46-.46zM72.48 49.85l-.26-.46 10.95-6.14.26.46-10.95 6.14z"/><path class="ipfs_svg__cls-13" d="M71.84 50.82a1 1 0 1 1 1-1 1 1 0 0 1-1 1zm0-1.45a.46.46 0 0 0-.46.46.45.45 0 0 0 .46.46.46.46 0 0 0 .46-.46.47.47 0 0 0-.46-.46z"/><rect class="ipfs_svg__cls-12" x="53.04" y="56.09" width="7.24" height="1.65" rx=".7" ry=".7" transform="rotate(30 56.67 56.915)"/><rect class="ipfs_svg__cls-12" x="49.48" y="58.32" width="7.24" height="1.65" rx=".7" ry=".7" transform="rotate(30 53.11 59.15)"/><rect class="ipfs_svg__cls-12" x="45.4" y="60.89" width="7.24" height="1.65" rx=".7" ry=".7" transform="rotate(30 49.02 61.725)"/><rect class="ipfs_svg__cls-12" x="64.04" y="56.57" width="7.24" height="1.65" rx=".7" ry=".7" transform="rotate(150 67.657 57.4)"/><rect class="ipfs_svg__cls-12" x="68.97" y="59.46" width="7.24" height="1.65" rx=".7" ry=".7" transform="rotate(150 72.59 60.291)"/><rect class="ipfs_svg__cls-12" x="73.9" y="62.35" width="7.24" height="1.65" rx=".7" ry=".7" transform="rotate(150 77.524 63.178)"/><rect class="ipfs_svg__cls-12" x="78.84" y="65.24" width="7.24" height="1.65" rx=".7" ry=".7" transform="rotate(150 82.457 66.065)"/><rect class="ipfs_svg__cls-12" x="83.77" y="68.13" width="7.24" height="1.65" rx=".7" ry=".7" transform="rotate(150 87.39 68.957)"/><path class="ipfs_svg__cls-6" d="M45.77 63.32l12.31-7.25a6.68 6.68 0 0 1 6.67 0l27 15.59L76 80.77z"/><path class="ipfs_svg__cls-12" d="M52.89 67.89l7.94-4.68a4.31 4.31 0 0 1 4.31 0l20.64 11.88L75.6 81z"/><rect class="ipfs_svg__cls-14" x="80.41" y="69.44" width="3.59" height="1.13" rx=".48" ry=".48" transform="rotate(150 82.21 70.007)"/><rect class="ipfs_svg__cls-14" x="75.23" y="66.47" width="3.59" height="1.13" rx=".48" ry=".48" transform="rotate(150 77.022 67.03)"/><rect class="ipfs_svg__cls-14" x="77.82" y="67.95" width="3.59" height="1.13" rx=".48" ry=".48" transform="rotate(150 79.619 68.52)"/><rect class="ipfs_svg__cls-14" x="83" y="70.93" width="3.59" height="1.13" rx=".48" ry=".48" transform="rotate(150 84.802 71.495)"/><rect class="ipfs_svg__cls-14" x="72.63" y="64.98" width="3.59" height="1.13" rx=".48" ry=".48" transform="rotate(150 74.43 65.543)"/><rect class="ipfs_svg__cls-14" x="70.04" y="63.49" width="3.59" height="1.13" rx=".48" ry=".48" transform="rotate(150 71.838 64.056)"/><rect class="ipfs_svg__cls-14" x="67.45" y="62" width="3.59" height="1.13" rx=".48" ry=".48" transform="rotate(150 69.248 62.563)"/><rect class="ipfs_svg__cls-14" x="64.86" y="60.51" width="3.59" height="1.13" rx=".48" ry=".48" transform="rotate(150 66.656 61.075)"/><rect class="ipfs_svg__cls-14" x="50.29" y="64" width="3.59" height="1.13" rx=".48" ry=".48" transform="rotate(30 52.08 64.565)"/><rect class="ipfs_svg__cls-14" x="62.26" y="59.02" width="3.59" height="1.13" rx=".48" ry=".48" transform="rotate(150 64.06 59.586)"/><rect class="ipfs_svg__cls-14" x="52.47" y="62.61" width="3.59" height="1.13" rx=".48" ry=".48" transform="rotate(30 54.269 63.179)"/><rect class="ipfs_svg__cls-14" x="54.68" y="61.18" width="3.59" height="1.13" rx=".48" ry=".48" transform="rotate(30 56.485 61.745)"/><rect class="ipfs_svg__cls-14" x="56.5" y="59.79" width="3.59" height="1.13" rx=".48" ry=".48" transform="rotate(30 58.293 60.36)"/></g><path class="ipfs_svg__cls-9" d="M123.72 104.74c-.06-2.52 1.31-4.12 3.59-5a19 19 0 0 0-2.55-6.18 4.93 4.93 0 0 1-6-.85c-1.78-1.76-1.92-3.85-.88-6.09a20.59 20.59 0 0 0-6.21-2.56 4.92 4.92 0 0 1-4.47 3.7c-2.69.2-4.44-1.19-5.36-3.68a21.05 21.05 0 0 0-6.18 2.59c1 2.22.92 4.3-.81 6s-3.84 2-6.09.92a20.8 20.8 0 0 0-2.52 6.19 5 5 0 0 1 3.66 4.76c.06 2.48-1.28 4.11-3.59 5a20.78 20.78 0 0 0 2.59 6.14 5.11 5.11 0 0 1 6.93 6.84 21 21 0 0 0 6.17 2.58l.08-.15a5.06 5.06 0 0 1 9.53-.12c.09.23.19.23.39.18a21.11 21.11 0 0 0 5.62-2.32l.26-.18a4.94 4.94 0 0 1 .62-5.59c1.72-2 3.88-2.3 6.28-1.28a20.56 20.56 0 0 0 2.56-6.14 5 5 0 0 1-3.62-4.76zm-17 3.44a3.61 3.61 0 1 1 3.61-3.5 3.61 3.61 0 0 1-3.56 3.5z"/><path class="ipfs_svg__cls-4" d="M102.35 125.75h-.51a21.73 21.73 0 0 1-6.36-2.59l-.47-.29.22-.5a4.48 4.48 0 0 0-6.09-6l-.5.22-.29-.46a21.43 21.43 0 0 1-2.67-6.32l-.13-.54.51-.2c2.2-.85 3.24-2.29 3.19-4.41s-1.11-3.39-3.24-4.18l-.52-.19.12-.54a21.47 21.47 0 0 1 2.59-6.38l.29-.48.51.23c2.14 1 3.9.73 5.38-.78s1.69-3.23.69-5.34l-.24-.5.48-.3a21.61 21.61 0 0 1 6.36-2.67l.55-.13.19.52c.88 2.38 2.43 3.44 4.73 3.28a4.33 4.33 0 0 0 3.92-3.28l.18-.54.55.13a21.21 21.21 0 0 1 6.39 2.63l.48.29-.23.51c-1 2.14-.74 3.9.75 5.38a4.29 4.29 0 0 0 5.31.73l.43-.19.31.35a19 19 0 0 1 2.71 6.52v.48l-.45.17c-2.19.85-3.24 2.29-3.2 4.41a4.35 4.35 0 0 0 3.21 4.18l.51.2-.13.53a21.39 21.39 0 0 1-2.58 6.3l-.29.46-.5-.21c-2.27-1-4.09-.6-5.55 1.11a4.3 4.3 0 0 0-.52 4.93l.21.48-.44.3-.29.18a21.55 21.55 0 0 1-5.78 2.4.87.87 0 0 1-1.14-.55 4.43 4.43 0 0 0-8.36.11l-.07.15zm-5.76-3.44a20 20 0 0 0 5 2 5.62 5.62 0 0 1 5.09-3.45h.08a5.64 5.64 0 0 1 5.27 3.44 20.37 20.37 0 0 0 5-2.08 5.47 5.47 0 0 1 .92-5.75 5.54 5.54 0 0 1 6.5-1.65 20 20 0 0 0 2.08-5 5.51 5.51 0 0 1-3.49-5.12 5.51 5.51 0 0 1 3.52-5.4 22.17 22.17 0 0 0-2.06-5 5.7 5.7 0 0 1-7.49-7.47 20.53 20.53 0 0 0-5-2.07 5.42 5.42 0 0 1-4.81 3.59 5.48 5.48 0 0 1-5.78-3.56 20.17 20.17 0 0 0-5 2.09A5.7 5.7 0 0 1 89 94.43a20.44 20.44 0 0 0-2 5A5.69 5.69 0 0 1 87 110a20.38 20.38 0 0 0 2.11 5 5.7 5.7 0 0 1 7.45 7.36zm10.18-13.5a4.25 4.25 0 0 1-4.23-4.26 4.18 4.18 0 0 1 1.26-3 4.23 4.23 0 0 1 3-1.23 4.24 4.24 0 0 1 0 8.47zm0-7.21a3 3 0 0 0-2.11.86 3 3 0 0 0-.88 2.1 3 3 0 0 0 6 .11 3 3 0 0 0-2.94-3.07z"/><path class="ipfs_svg__cls-5" d="M119.67 101.29a13.31 13.31 0 1 0-9.61 16.19 13.3 13.3 0 0 0 9.61-16.19zm-10.28 13.59a10.63 10.63 0 1 1 7.68-12.88 10.63 10.63 0 0 1-7.68 12.88z"/><path class="ipfs_svg__cls-4" d="M106.75 118.21a13.63 13.63 0 1 1 13.23-17 13.63 13.63 0 0 1-9.85 16.56 13.45 13.45 0 0 1-3.38.44zm0-26.64a13.24 13.24 0 0 0-3.23.41 13 13 0 1 0 15.81 9.39 13 13 0 0 0-12.58-9.8zm0 24A10.95 10.95 0 0 1 104.07 94a11 11 0 0 1 13.31 7.91 11 11 0 0 1-7.91 13.31 10.92 10.92 0 0 1-2.7.31zm0-21.27a10.15 10.15 0 0 0-2.56.32 10.28 10.28 0 1 0 2.56-.32z"/><circle cx="106.77" cy="104.58" r="6.03" fill="#fff"/><path class="ipfs_svg__cls-4" d="M106.77 111a6.46 6.46 0 1 1 6.46-6.45 6.45 6.45 0 0 1-6.46 6.45zm0-12.07a5.62 5.62 0 1 0 5.62 5.62 5.62 5.62 0 0 0-5.62-5.55z"/></g></svg>
