<svg xmlns="http://www.w3.org/2000/svg" viewBox="0 0 157.03 167.35"><defs><style>.ipfs_svg__cls-8{fill:#2a2b60}.ipfs_svg__cls-9{fill:#51b7b7}.ipfs_svg__cls-10{fill:#fdd52f}.ipfs_svg__cls-11{fill:#dab41a}</style></defs><g id="ipfs_svg__IPFS"><path d="M151.26 113.81V53.54A20.24 20.24 0 0 0 141.12 36L88.61 5.79a20.25 20.25 0 0 0-20.18 0L15.91 36A20.24 20.24 0 0 0 5.77 53.54v60.27a20.27 20.27 0 0 0 10.14 17.55l52.52 30.2a20.25 20.25 0 0 0 20.18 0l52.51-30.2a20.27 20.27 0 0 0 10.14-17.55z" fill="#a0d6de" opacity=".2"/><path d="M79.62 115.59l34.86-20.13V55.22L79.62 75.34z" fill="#35777a"/><path d="M79.62 115.59V75.34L44.77 55.22v40.24z" fill="#44989d"/><path d="M44.76 55.22l34.85 20.12 34.86-20.12-34.86-20.13z" fill="#408a8e"/><path d="M76 40L50.75 54.54a6.09 6.09 0 0 1 0 1.35L76 70.48a6 6 0 0 1 7.17 0l25.27-14.59a6.09 6.09 0 0 1 0-1.35L83.19 40A6 6 0 0 1 76 40z" fill="#52b9bd"/><path d="M110.89 59.92l-25.3 14.75A6 6 0 0 1 82 80.88v29a5.63 5.63 0 0 1 1.17.67L108.47 96a6 6 0 0 1 3.59-6.21v-29.2a5.91 5.91 0 0 1-1.17-.67z" fill="#469fa3"/><path d="M48.35 60.08a6.2 6.2 0 0 1-1.17.67v29.18a6 6 0 0 1 3.58 6.21L76 110.73a6.2 6.2 0 0 1 1.17-.67V80.88a6 6 0 0 1-3.58-6.21L48.35 60.08z" fill="#65c2ca"/><path class="ipfs_svg__cls-8" d="M79.62 116.34a.72.72 0 0 1-.37-.11L44.4 96.11a.73.73 0 0 1-.38-.65V55.23a.73.73 0 0 1 .36-.66l34.86-20.13a.77.77 0 0 1 .75 0l34.78 20.08a.76.76 0 0 1 .46.7v40.24a.73.73 0 0 1-.38.65L80 116.23a.76.76 0 0 1-.38.11zM45.52 95l34.1 19.69L113.73 95V55.66L79.61 36 45.52 55.64z"/><rect class="ipfs_svg__cls-9" x="112.15" y="65.32" width="5.04" height="54.45" rx="1.77" ry="1.77" transform="rotate(10.47 114.628 92.513)"/><path class="ipfs_svg__cls-8" d="M110.78 120.23a2.49 2.49 0 0 1-.46 0l-1.48-.27a2.51 2.51 0 0 1-2-2.93l9.25-50.07a2.53 2.53 0 0 1 2.93-2l1.48.28a2.53 2.53 0 0 1 2 2.93l-9.25 50.06a2.52 2.52 0 0 1-1.05 1.62 2.55 2.55 0 0 1-1.42.38zm7.77-53.88a1 1 0 0 0-1 .84l-9.25 50.06a1 1 0 0 0 .82 1.18l1.48.28a1 1 0 0 0 1.18-.82L121 67.83a1 1 0 0 0-.81-1.19l-1.48-.27z"/><path class="ipfs_svg__cls-10" d="M105.84 104.24l-4.3 23.29c-.66 3.56 1.09 7.2 4.28 8.26 3.81 1.26 7.8-1.49 8.57-5.68l4.34-23.49z"/><path class="ipfs_svg__cls-8" d="M107.73 136.85a6.85 6.85 0 0 1-2.14-.35c-3.48-1.15-5.54-5.07-4.79-9.1l4.44-24 14.36 2.6-4.47 24.22a8.19 8.19 0 0 1-3.84 5.61 7 7 0 0 1-3.56 1.02zm-1.29-31.74l-4.17 22.56c-.61 3.3 1 6.49 3.79 7.41a5.36 5.36 0 0 0 4.47-.52 6.7 6.7 0 0 0 3.12-4.59l4.21-22.75z"/><path class="ipfs_svg__cls-9" d="M117.01 64.26l5.64 1.04.07 11.29-2.68 1.56-4.96-.92-2.17-2.45 4.1-10.52z"/><path class="ipfs_svg__cls-8" d="M120.18 78.94l-5.49-1-2.65-3 4.49-11.53 6.87 1.27.07 12.32zm-4.71-2.4l4.43.82 2.07-1.2-.07-10.23-4.42-.82-3.71 9.52z"/><rect class="ipfs_svg__cls-11" x="105.82" y="108.27" width="3.02" height="20.17" rx="1.06" ry="1.06" transform="matrix(.98 .18 -.18 .98 23.29 -17.53)"/><path class="ipfs_svg__cls-8" d="M106.14 128.74a1.1 1.1 0 0 1-.26 0l-.89-.16a1.45 1.45 0 0 1-1.15-1.68l3.28-17.74a1.44 1.44 0 0 1 1.67-1.15l.89.16a1.47 1.47 0 0 1 .92.6 1.43 1.43 0 0 1 .23 1.08l-3.28 17.74a1.43 1.43 0 0 1-1.41 1.15zm2.39-20a.69.69 0 0 0-.68.56l-3.27 17.7a.68.68 0 0 0 .54.8l.89.16a.68.68 0 0 0 .8-.55l3.28-17.74a.71.71 0 0 0-.11-.51.67.67 0 0 0-.44-.29l-.89-.16z"/><rect class="ipfs_svg__cls-11" x="110.66" y="109.17" width="3.02" height="20.17" rx="1.06" ry="1.06" transform="rotate(10.47 112.176 119.206)"/><path class="ipfs_svg__cls-8" d="M111 129.64h-.27l-.88-.16a1.39 1.39 0 0 1-.92-.6 1.41 1.41 0 0 1-.23-1.07L112 110a1.46 1.46 0 0 1 1.68-1.15l.89.17a1.44 1.44 0 0 1 1.15 1.67l-3.28 17.74a1.44 1.44 0 0 1-1.44 1.21zm2.39-20a.69.69 0 0 0-.68.56l-3.28 17.74a.74.74 0 0 0 .11.52.68.68 0 0 0 .44.28l.89.17a.69.69 0 0 0 .8-.55l3.28-17.75a.71.71 0 0 0-.11-.51.68.68 0 0 0-.44-.28l-.89-.17z"/><path class="ipfs_svg__cls-10" d="M68.47 115.66a7.68 7.68 0 1 0 7.68 7.68 7.68 7.68 0 0 0-7.68-7.68zm2.36 11.77h-4.72l-2.37-4.09 2.37-4.09h4.72l2.36 4.09z"/><path class="ipfs_svg__cls-8" d="M68.47 131.52a8.18 8.18 0 1 1 8.18-8.18 8.19 8.19 0 0 1-8.18 8.18zm0-15.36a7.18 7.18 0 1 0 7.18 7.18 7.19 7.19 0 0 0-7.18-7.18zm2.65 11.77h-5.3l-2.65-4.59 2.65-4.59h5.3l2.65 4.59zm-4.73-1h4.15l2.08-3.59-2.08-3.59h-4.15l-2.07 3.59z"/><path d="M62.65 93.56c-.06-3 1.57-4.91 4.29-6a22.31 22.31 0 0 0-3-7.36c-2.62 1.23-5.1 1-7.18-1s-2.33-4.58-1.1-7.2a24.52 24.52 0 0 0-7.39-3c-.9 2.59-2.62 4.21-5.33 4.41-3.22.24-5.3-1.42-6.4-4.39A25.34 25.34 0 0 0 29.17 72c1.26 2.65 1.09 5.13-1 7.22s-4.58 2.32-7.26 1.09a24.56 24.56 0 0 0-3 7.39c2.68 1 4.29 2.82 4.36 5.67s-1.53 4.9-4.28 6a24.74 24.74 0 0 0 3.09 7.32c2.6-1.16 5-1 7.08 1s2.34 4.49 1.18 7.14a25.25 25.25 0 0 0 7.36 3l.09-.18a6 6 0 0 1 11.37-.13c.11.27.23.26.47.2a24.7 24.7 0 0 0 6.7-2.77l.31-.2c-1.06-2.41-1-4.69.74-6.68 2.05-2.38 4.62-2.73 7.49-1.52A24.7 24.7 0 0 0 67 99.23c-2.69-1.01-4.29-2.82-4.35-5.67zm-20.21 4.11a4.3 4.3 0 1 1 4.31-4.18 4.31 4.31 0 0 1-4.31 4.18z" fill="#159a96"/><path class="ipfs_svg__cls-8" d="M37.17 118.62l-.6-.05a25.87 25.87 0 0 1-7.57-3.09l-.56-.34.26-.6c1.1-2.51.76-4.57-1-6.3s-3.78-2-6.24-.88l-.6.27-.34-.56a25.3 25.3 0 0 1-3.19-7.54l-.16-.64.62-.23c2.62-1 3.86-2.74 3.8-5.26s-1.32-4.05-3.87-5l-.62-.23.14-.64a25.63 25.63 0 0 1 3.1-7.61l.34-.57.61.28c2.55 1.17 4.65.87 6.42-.93s2-3.86.82-6.38l-.28-.6.56-.35a25.79 25.79 0 0 1 7.59-3.19L37 68l.23.62c1 2.83 2.9 4.1 5.64 3.91 2.27-.17 3.84-1.49 4.68-3.92l.22-.64.66.16a25.58 25.58 0 0 1 7.62 3.14l.56.35-.28.6c-1.17 2.56-.88 4.66.9 6.42s3.85 2 6.34.87l.51-.23.37.42a22.67 22.67 0 0 1 3.23 7.78l.06.57-.53.2c-2.62 1-3.87 2.74-3.82 5.26.05 2.39 1.3 4 3.82 5l.61.24-.15.64a25.6 25.6 0 0 1-3.13 7.61l-.34.55-.59-.25c-2.71-1.16-4.88-.73-6.63 1.31-1.43 1.67-1.64 3.59-.62 5.88l.25.58-.52.35-.35.23a25.45 25.45 0 0 1-6.9 2.85 1 1 0 0 1-1.35-.65 5.28 5.28 0 0 0-10 .12 1.42 1.42 0 0 1-.08.18zm-6.86-4.1a24 24 0 0 0 6 2.44 6.72 6.72 0 0 1 6.07-4.12h.09a6.72 6.72 0 0 1 6.29 4.09 24.47 24.47 0 0 0 6-2.47 6.8 6.8 0 0 1 8.84-8.82 24.28 24.28 0 0 0 2.49-6 6.57 6.57 0 0 1-4.17-6.1 6.58 6.58 0 0 1 4.2-6.45 26.22 26.22 0 0 0-2.46-6 6.79 6.79 0 0 1-8.92-8.9 24.07 24.07 0 0 0-6-2.48A6.47 6.47 0 0 1 43 74.06a6.55 6.55 0 0 1-6.9-4.25 24.63 24.63 0 0 0-6 2.5 6.52 6.52 0 0 1-1.38 7.45 6.54 6.54 0 0 1-7.49 1.5 24.22 24.22 0 0 0-2.43 6 6.78 6.78 0 0 1 .09 12.53 23.74 23.74 0 0 0 2.51 5.95 6.8 6.8 0 0 1 8.89 8.78zm12.13-16.1a5.07 5.07 0 0 1-5-5.08 5 5 0 0 1 1.5-3.56 5 5 0 0 1 3.57-1.46 5.05 5.05 0 0 1-.06 10.1zm0-8.6A3.54 3.54 0 1 0 45 90.9a3.55 3.55 0 0 0-2.55-1.08z"/><path class="ipfs_svg__cls-9" d="M57.83 89.45a15.88 15.88 0 1 0-11.47 19.31 15.87 15.87 0 0 0 11.47-19.31zm-12.26 16.21a12.68 12.68 0 1 1 9.16-15.42 12.68 12.68 0 0 1-9.16 15.42z"/><path class="ipfs_svg__cls-8" d="M42.42 109.63A16.25 16.25 0 1 1 58.2 89.36a16.29 16.29 0 0 1-15.78 20.27zm0-31.77a15.86 15.86 0 0 0-3.85.48 15.5 15.5 0 1 0 18.85 11.2 15.53 15.53 0 0 0-15-11.68zm0 28.57a13.06 13.06 0 0 1-3.23-25.71A13.05 13.05 0 1 1 45.67 106a13.29 13.29 0 0 1-3.22.43zm0-25.37a12.76 12.76 0 0 0-3.06.38 12.31 12.31 0 1 0 9.32 1.35 12.19 12.19 0 0 0-6.21-1.73z"/><circle cx="42.44" cy="93.37" r="7.2" fill="#fff"/><path class="ipfs_svg__cls-8" d="M42.44 101.06a7.7 7.7 0 1 1 7.7-7.69 7.7 7.7 0 0 1-7.7 7.69zm0-14.39a6.7 6.7 0 1 0 6.7 6.7 6.7 6.7 0 0 0-6.7-6.7z"/></g></svg>