<svg xmlns="http://www.w3.org/2000/svg" viewBox="0 0 157.03 167.35"><defs><style>.ipld_svg__cls-6{fill:#a0d6de}.ipld_svg__cls-2{fill:#2a2b60}.ipld_svg__cls-3{fill:#51b7b7}.ipld_svg__cls-4{fill:#fdd52f}.ipld_svg__cls-5{fill:#50bdc6}.ipld_svg__cls-7{fill:#482c2a}</style></defs><g id="ipld_svg__IPLD"><path d="M151.26 113.81V53.54A20.24 20.24 0 0 0 141.12 36L88.61 5.79a20.25 20.25 0 0 0-20.18 0L15.91 36A20.24 20.24 0 0 0 5.77 53.54v60.27a20.27 20.27 0 0 0 10.14 17.55l52.52 30.2a20.25 20.25 0 0 0 20.18 0l52.51-30.2a20.27 20.27 0 0 0 10.14-17.55z" opacity=".2" fill="#a0d6de"/><path class="ipld_svg__cls-2" d="M89.91 115.02h1.5v9.83h-1.5z"/><path class="ipld_svg__cls-2" d="M121.61 129.34H59.27a6.6 6.6 0 0 1-6.59-6.6v-42h1.5v42a5.11 5.11 0 0 0 5.09 5.1h62.34a5.19 5.19 0 0 0 5.18-5.18V99.07h1.5v23.59a6.69 6.69 0 0 1-6.68 6.68z"/><circle class="ipld_svg__cls-3" cx="90.66" cy="127.93" r="3.27"/><path class="ipld_svg__cls-2" d="M90.66 132a4 4 0 1 1 4-4 4 4 0 0 1-4 4zm0-6.55a2.53 2.53 0 1 0 2.52 2.52 2.52 2.52 0 0 0-2.52-2.56z"/><path class="ipld_svg__cls-4" d="M88.41 109.46v3.35a2.21 2.21 0 1 0 4.42 0v-3.35z"/><path class="ipld_svg__cls-2" d="M90.62 115.77a3 3 0 0 1-3-3v-4.1h5.92v4.1a3 3 0 0 1-2.92 3zm-1.46-5.56v2.6a1.46 1.46 0 1 0 2.92 0v-2.6z"/><path class="ipld_svg__cls-5" d="M116 88c0-4.08-11.38-7.39-25.42-7.39S65.2 84 65.2 88v14c0 4.08 11.38 7.38 25.42 7.38S116 106.05 116 102V88z"/><path class="ipld_svg__cls-2" d="M90.62 110.1c-12.69 0-26.17-2.85-26.17-8.13V88c0-5.29 13.48-8.14 26.17-8.14s26.17 2.85 26.17 8.14v14c0 5.25-13.49 8.1-26.17 8.1zm0-28.7C76.08 81.4 66 84.9 66 88v14c0 3.14 10.13 6.63 24.67 6.63s24.67-3.49 24.67-6.63V88c-.05-3.1-10.19-6.6-24.72-6.6z"/><ellipse class="ipld_svg__cls-6" cx="90.62" cy="88.04" rx="25.42" ry="7.38"/><path class="ipld_svg__cls-2" d="M90.62 95.92C77.88 95.92 64.7 93 64.7 88s13.18-7.89 25.92-7.89 25.92 2.99 25.92 7.89-13.18 7.92-25.92 7.92zm0-14.77c-14.91 0-24.92 3.56-24.92 6.85s10 6.88 24.92 6.88 24.92-3.56 24.92-6.88-10.02-6.85-24.92-6.85z"/><path class="ipld_svg__cls-5" d="M116 67.74c0-4.08-11.38-7.38-25.42-7.38s-25.38 3.3-25.38 7.38v13.93c0 4.08 11.38 7.38 25.42 7.38S116 85.75 116 81.67V67.74z"/><path class="ipld_svg__cls-2" d="M90.62 89.8c-12.69 0-26.17-2.85-26.17-8.13V67.74c0-5.28 13.48-8.13 26.17-8.13s26.17 2.85 26.17 8.13v13.93c0 5.33-13.49 8.13-26.17 8.13zm0-28.69C76.08 61.11 66 64.6 66 67.74v13.93c0 3.14 10.13 6.63 24.67 6.63s24.67-3.49 24.67-6.63V67.74c-.05-3.14-10.19-6.63-24.72-6.63z"/><path class="ipld_svg__cls-6" d="M105.38 73.75a74.61 74.61 0 0 1-14.76 1.37c-14 0-25.42-3.3-25.42-7.38s11.38-7.38 25.42-7.38S116 63.66 116 67.74c0 1.53-1.61 3-4.35 4.13"/><path class="ipld_svg__cls-2" d="M90.62 75.62c-12.74 0-25.92-3-25.92-7.88s13.18-7.88 25.92-7.88 25.92 2.94 25.92 7.88c0 1.69-1.61 3.28-4.65 4.58l-.39-.91c2.6-1.12 4-2.43 4-3.67 0-3.33-10-6.88-24.92-6.88S65.7 64.41 65.7 67.74s10 6.88 24.92 6.88a73.93 73.93 0 0 0 14.66-1.36l.2 1a75.12 75.12 0 0 1-14.86 1.36z"/><path class="ipld_svg__cls-7" d="M107.72 73.57a.37.37 0 0 1-.1-.73l.62-.17a.37.37 0 0 1 .2.72l-.62.17z"/><path class="ipld_svg__cls-5" d="M116 48.71c0-4.08-11.38-7.38-25.42-7.38s-25.38 3.3-25.38 7.38v13.93c0 4.08 11.38 7.36 25.42 7.36S116 66.72 116 62.64V48.71z"/><path class="ipld_svg__cls-2" d="M90.62 70.77c-12.69 0-26.17-2.85-26.17-8.13V48.71c0-5.28 13.48-8.13 26.17-8.13s26.17 2.85 26.17 8.13v13.93c0 5.28-13.49 8.13-26.17 8.13zm0-28.69C76.08 42.08 66 45.57 66 48.71v13.93c0 3.14 10.13 6.63 24.67 6.63s24.67-3.49 24.67-6.63V48.71c-.05-3.14-10.19-6.63-24.72-6.63z"/><path class="ipld_svg__cls-6" d="M68.48 52.34c-2.09-1.07-3.28-2.34-3.28-3.63 0-4.08 11.38-7.38 25.42-7.38S116 44.63 116 48.71s-11.38 7.38-25.42 7.38A68.09 68.09 0 0 1 73 54"/><path class="ipld_svg__cls-2" d="M90.62 56.59a68.8 68.8 0 0 1-17.75-2.08l.27-1a67.61 67.61 0 0 0 17.48 2c14.9 0 24.92-3.56 24.92-6.88s-10-6.88-24.92-6.88-24.92 3.63-24.92 6.96c0 1.36 1.64 2.48 3 3.19l-.46.88c-2.36-1.21-3.55-2.58-3.55-4.07 0-4.94 13.18-7.88 25.92-7.88s25.92 2.94 25.92 7.88-13.17 7.88-25.91 7.88z"/><path class="ipld_svg__cls-7" d="M89.9 63.28a.25.25 0 0 1-.12 0l-.39-.13a.38.38 0 0 1-.23-.48.39.39 0 0 1 .48-.23l.37.13a.37.37 0 0 1 .24.47.37.37 0 0 1-.35.24z"/><circle class="ipld_svg__cls-4" cx="127.54" cy="99.07" r="3.99"/><path class="ipld_svg__cls-2" d="M127.54 103.81a4.74 4.74 0 1 1 4.73-4.74 4.74 4.74 0 0 1-4.73 4.74zm0-8a3.24 3.24 0 1 0 3.23 3.24 3.25 3.25 0 0 0-3.23-3.22z"/><path class="ipld_svg__cls-3" d="M81.01 68.69L53.26 52.66 25.5 68.69h.01v32.04l27.76 16.03 27.75-16.03V68.69h-.01z"/><path class="ipld_svg__cls-2" d="M53.27 117.51a.86.86 0 0 1-.38-.1l-27.75-16a.75.75 0 0 1-.38-.65v-32a.76.76 0 0 1 .37-.65L52.88 52a.77.77 0 0 1 .75 0l27.69 16a.73.73 0 0 1 .45.68v32.05a.74.74 0 0 1-.37.65l-27.76 16a.79.79 0 0 1-.37.13zm-27-17.21l27 15.59 27-15.59V69.12l-27-15.59-27 15.58z"/><path d="M76.41 96.38V73a1.37 1.37 0 0 0-.41-2.74 1.34 1.34 0 0 0-.87.31L54.57 58.62a1.36 1.36 0 0 0 0-.2 1.38 1.38 0 0 0-2.76 0 1.64 1.64 0 0 0 0 .23l-20.5 11.9a1.36 1.36 0 0 0-.84-.29 1.38 1.38 0 0 0-1.38 1.38 1.36 1.36 0 0 0 .93 1.29V96.4a1.36 1.36 0 0 0-.93 1.3 1.37 1.37 0 0 0 2.1 1.17l20.58 11.93a1.23 1.23 0 0 0 0 .19 1.38 1.38 0 0 0 2.76 0v-.07l20.74-12.06a1.46 1.46 0 0 0 .75.22 1.38 1.38 0 0 0 .39-2.7zm-23.87-5.66v7.34l-9.82-5.36v-7.38zm1.06 7.2V87.29l7.67-4.85v10.64zm0 11.78V99.17L71.29 88v-2.53a1.66 1.66 0 1 0-1.06 0v1.94l-7.91 5V81.78l2.37-1.5v-2.52a1.66 1.66 0 1 0-1 0v1.94L53.6 86v-4.9l4.9-3.09v-4.53a1.66 1.66 0 1 0-1.06 0v4L53.6 79.9V67.55a1.66 1.66 0 1 0-1.06 0V77l-4-2.51V71.7a1.66 1.66 0 1 0-1.06 0V75l5 3.18v11.34l-4.18-2.33v-4.91a1.66 1.66 0 1 0-1 0v4.34l-6.34-3.48v-3.91a1.66 1.66 0 1 0-1.06 0v4.51l1.93 1.06v7.38L36 89.05v-1.94a1.66 1.66 0 1 0-1.05 0v2.52l17.57 9.62v10.5a1.31 1.31 0 0 0-.44.33l-20.32-11.8a1.44 1.44 0 0 0 .13-.58 1.37 1.37 0 0 0-1-1.34V73a1.37 1.37 0 0 0 1-1.33 1.33 1.33 0 0 0-.08-.45l20.38-11.86a1.41 1.41 0 0 0 1 .44 1.36 1.36 0 0 0 1-.47l20.52 11.88a1.25 1.25 0 0 0-.07.43 1.36 1.36 0 0 0 1 1.31v23.43a1.38 1.38 0 0 0-1 1.32 1.42 1.42 0 0 0 .11.55l-20.52 11.92a1.4 1.4 0 0 0-.63-.47z" fill="#fff"/></g></svg>