<svg xmlns="http://www.w3.org/2000/svg" viewBox="0 0 157.03 167.35"><defs><style>.ipld_svg__cls-6{fill:#a0d6de}.ipld_svg__cls-2{fill:#2a2b60}.ipld_svg__cls-3{fill:#fdd52f}.ipld_svg__cls-4{fill:#51b7b7}.ipld_svg__cls-5{fill:#50bdc6}</style></defs><g id="first_group"><path id="ipld_svg___g_" data-name="&lt;g&gt;" d="M151.26 113.81V53.54A20.24 20.24 0 0 0 141.12 36L88.61 5.79a20.25 20.25 0 0 0-20.18 0L15.91 36A20.24 20.24 0 0 0 5.77 53.54v60.27a20.27 20.27 0 0 0 10.14 17.55l52.52 30.2a20.25 20.25 0 0 0 20.18 0l52.51-30.2a20.27 20.27 0 0 0 10.14-17.55z" opacity=".2" fill="#a0d6de"/><path class="ipld_svg__cls-2" d="M26.21 119.43h-1.5v-8.38a4.79 4.79 0 0 1 4.78-4.78H58v1.5H29.49a3.28 3.28 0 0 0-3.28 3.28z"/><circle class="ipld_svg__cls-3" cx="25.46" cy="121.5" r="3.87"/><path class="ipld_svg__cls-2" d="M25.46 126.12a4.62 4.62 0 1 1 4.62-4.62 4.62 4.62 0 0 1-4.62 4.62zm0-7.73a3.12 3.12 0 1 0 3.12 3.11 3.12 3.12 0 0 0-3.12-3.11zM84.06 116.2h1.5v9.54h-1.5z"/><path class="ipld_svg__cls-2" d="M114.85 130.11H54.36a6.43 6.43 0 0 1-6.42-6.42V82.9h1.5v40.79a4.93 4.93 0 0 0 4.92 4.92h60.49a5 5 0 0 0 5-5v-22.89h1.5v22.89a6.51 6.51 0 0 1-6.5 6.5z"/><circle class="ipld_svg__cls-4" cx="84.81" cy="128.72" r="3.18"/><path class="ipld_svg__cls-2" d="M84.81 132.65a3.93 3.93 0 1 1 3.93-3.93 3.93 3.93 0 0 1-3.93 3.93zm0-6.35a2.43 2.43 0 1 0 2.43 2.42 2.43 2.43 0 0 0-2.43-2.42z"/><path class="ipld_svg__cls-3" d="M82.63 110.8v3.25a2.15 2.15 0 1 0 4.29 0v-3.25z"/><path class="ipld_svg__cls-2" d="M84.77 117a2.9 2.9 0 0 1-2.89-2.9v-4h5.79v4a2.9 2.9 0 0 1-2.9 2.9zm-1.39-5.4v2.5a1.4 1.4 0 1 0 2.79 0v-2.5z"/><path class="ipld_svg__cls-5" d="M109.44 90c0-4-11-7.17-24.67-7.17S60.11 86.05 60.11 90v13.52c0 4 11 7.16 24.66 7.16s24.67-3.2 24.67-7.16V90z"/><path class="ipld_svg__cls-2" d="M84.77 111.44c-12.32 0-25.41-2.77-25.41-7.91V90c0-5.14 13.09-7.92 25.41-7.92s25.42 2.78 25.42 7.92v13.52c0 5.15-13.09 7.92-25.42 7.92zm0-27.85C70.68 83.59 60.86 87 60.86 90v13.52c0 3 9.82 6.41 23.91 6.41s23.92-3.38 23.92-6.41V90c0-3-9.82-6.41-23.92-6.41z"/><ellipse class="ipld_svg__cls-6" cx="84.77" cy="90.01" rx="24.67" ry="7.16"/><path class="ipld_svg__cls-2" d="M84.77 97.67c-12.37 0-25.16-2.86-25.16-7.66s12.79-7.67 25.16-7.67 25.17 2.87 25.17 7.67-12.8 7.66-25.17 7.66zm0-14.33c-14.45 0-24.16 3.45-24.16 6.67s9.71 6.66 24.16 6.66 24.17-3.44 24.17-6.66-9.71-6.67-24.17-6.67z"/><path class="ipld_svg__cls-5" d="M109.44 70.31c0-4-11-7.16-24.67-7.16s-24.66 3.2-24.66 7.16v13.52c0 4 11 7.17 24.66 7.17s24.67-3.21 24.67-7.17V70.31z"/><path class="ipld_svg__cls-2" d="M84.77 91.75c-12.32 0-25.41-2.78-25.41-7.92V70.31c0-5.14 13.09-7.91 25.41-7.91s25.42 2.77 25.42 7.91v13.52c0 5.17-13.09 7.92-25.42 7.92zm0-27.85c-14.09 0-23.91 3.38-23.91 6.41v13.52c0 3 9.82 6.42 23.91 6.42s23.92-3.39 23.92-6.42V70.31c0-3.03-9.82-6.41-23.92-6.41z"/><path class="ipld_svg__cls-6" d="M99.1 76.14a72 72 0 0 1-14.33 1.33c-13.62 0-24.66-3.2-24.66-7.16s11-7.16 24.66-7.16 24.67 3.2 24.67 7.16c0 1.48-1.55 2.86-4.21 4"/><path class="ipld_svg__cls-2" d="M84.77 78c-12.37 0-25.16-2.87-25.16-7.67s12.79-7.66 25.16-7.66 25.17 2.86 25.17 7.66c0 1.65-1.56 3.2-4.51 4.47l-.4-.92c2.52-1.09 3.91-2.35 3.91-3.55 0-3.22-9.71-6.66-24.17-6.66s-24.16 3.44-24.16 6.66S70.32 77 84.77 77A71.14 71.14 0 0 0 99 75.65l.2 1A72.4 72.4 0 0 1 84.77 78z"/><path class="ipld_svg__cls-5" d="M109.44 51.84c0-4-11-7.16-24.67-7.16s-24.66 3.21-24.66 7.16v13.53c0 3.95 11 7.16 24.66 7.16s24.67-3.21 24.67-7.16V51.85z"/><path class="ipld_svg__cls-2" d="M84.77 73.28c-12.32 0-25.41-2.77-25.41-7.91V51.84c0-5.14 13.09-7.91 25.41-7.91s25.42 2.77 25.42 7.91v13.53c0 5.14-13.09 7.91-25.42 7.91zm0-27.85c-14.09 0-23.91 3.38-23.91 6.41v13.53c0 3 9.82 6.41 23.91 6.41s23.92-3.38 23.92-6.41V51.84c0-3.03-9.82-6.41-23.92-6.41z"/><path class="ipld_svg__cls-6" d="M63.29 55.37c-2-1-3.18-2.24-3.18-3.53 0-4 11-7.16 24.66-7.16s24.67 3.21 24.67 7.16S98.4 59 84.77 59a66.17 66.17 0 0 1-17.09-2"/><path class="ipld_svg__cls-2" d="M84.77 59.51a66.77 66.77 0 0 1-17.22-2l.27-1a65.58 65.58 0 0 0 17 2c14.46 0 24.17-3.45 24.17-6.67s-9.71-6.66-24.17-6.66-24.16 3.45-24.16 6.66c0 1.31 1.58 2.4 2.91 3.08l-.46.89c-2.29-1.17-3.45-2.51-3.45-4 0-4.79 12.79-7.66 25.16-7.66s25.17 2.87 25.17 7.66-12.85 7.7-25.22 7.7z"/><circle class="ipld_svg__cls-3" cx="120.6" cy="100.72" r="3.87"/><path class="ipld_svg__cls-2" d="M120.6 105.33a4.62 4.62 0 1 1 4.62-4.61 4.62 4.62 0 0 1-4.62 4.61zm0-7.73a3.12 3.12 0 1 0 3.12 3.12 3.12 3.12 0 0 0-3.12-3.12z"/><path class="ipld_svg__cls-4" d="M75.46 71.23L48.52 55.68 21.59 71.23h.01v31.1l26.93 15.55 26.94-15.55v-31.1h-.01z"/><path class="ipld_svg__cls-2" d="M48.53 118.63a.69.69 0 0 1-.37-.1L21.22 103a.74.74 0 0 1-.37-.65v-31-.08a.77.77 0 0 1 .37-.66L48.15 55a.77.77 0 0 1 .75 0l26.86 15.54a.76.76 0 0 1 .46.69v31.1a.75.75 0 0 1-.38.65l-26.93 15.55a.75.75 0 0 1-.38.1zM22.35 101.9L48.53 117l26.19-15.1V71.67l-26.2-15.12-26.17 15.11z"/><path d="M71 98.11V75.37a1.34 1.34 0 0 0-.38-2.62 1.32 1.32 0 0 0-.84.31l-20-11.6a1.11 1.11 0 0 0 0-.19 1.34 1.34 0 0 0-2.68 0 1.5 1.5 0 0 0 0 .22L27.26 73a1.27 1.27 0 0 0-.81-.29 1.34 1.34 0 0 0-.44 2.6v22.81a1.34 1.34 0 0 0 .44 2.6 1.27 1.27 0 0 0 .69-.2l19.94 11.58a1.11 1.11 0 0 0 0 .19 1.34 1.34 0 1 0 2.68 0v-.08l20.16-11.7a1.33 1.33 0 1 0 1.1-2.4zm-23.16-5.5v7.12l-9.54-5.2v-7.16zm1 7V89.28l7.44-4.7V94.9zm0 11.43v-10.23L66 90v-2.48a1.61 1.61 0 1 0-1 0v1.88l-7.67 4.85V83.93l2.3-1.45V80a1.62 1.62 0 0 0 1.09-1.53 1.61 1.61 0 0 0-3.21 0A1.62 1.62 0 0 0 58.59 80v1.88l-9.74 6.15v-4.71l4.75-3v-4.43a1.61 1.61 0 1 0-1 0v3.86l-3.73 2.36v-12a1.61 1.61 0 1 0-1 0v9.12L44 76.81v-2.65a1.61 1.61 0 1 0-1 0v3.21l4.89 3.09v11l-4.12-2.26v-4.78a1.6 1.6 0 1 0-1 0v4.21l-6.15-3.37v-3.8a1.61 1.61 0 1 0-1 0v4.38l1.87 1V94l-5.69-3v-1.89a1.61 1.61 0 1 0-1 0v2.44l17.06 9.34v10.19a1.38 1.38 0 0 0-.43.32L27.66 100a1.4 1.4 0 0 0 .13-.57 1.33 1.33 0 0 0-1-1.29V75.39a1.34 1.34 0 0 0 1-1.3 1.26 1.26 0 0 0-.08-.43l19.78-11.48a1.33 1.33 0 0 0 1 .43 1.32 1.32 0 0 0 1-.46l19.85 11.53a1.14 1.14 0 0 0-.07.41 1.32 1.32 0 0 0 1 1.28V98.1a1.34 1.34 0 0 0-.85 1.82l-19.96 11.57a1.28 1.28 0 0 0-.61-.49z" fill="#fff"/><path class="ipld_svg__cls-2" d="M121.35 96.85h-1.5V89.9a5.11 5.11 0 0 1 5.15-5.11h.88v1.5H125a3.61 3.61 0 0 0-3.61 3.61zM131 84.79a.27.27 0 0 1-.12 0l-5.13-3a.25.25 0 0 1 .25-.43l5 2.89 5-2.89a.25.25 0 0 1 .25.43l-5.13 3a.28.28 0 0 1-.12 0z"/><path class="ipld_svg__cls-2" d="M131 90.75a.25.25 0 0 1-.25-.25v-6a.26.26 0 0 1 .25-.25.25.25 0 0 1 .25.25v6a.25.25 0 0 1-.25.25z"/><path class="ipld_svg__cls-2" d="M131 91.37L125.09 88v-6.81l5.88-3.4 5.88 3.4V88zm-4.38-4.26l4.38 2.53 4.38-2.53v-5.06L131 79.52l-4.38 2.53zM135.41 69.28a.28.28 0 0 1-.13 0l-5.13-3a.25.25 0 0 1 .25-.43l5 2.89 5-2.89a.25.25 0 0 1 .25.43l-5.13 3a.27.27 0 0 1-.11 0z"/><path class="ipld_svg__cls-2" d="M135.41 75.24a.25.25 0 0 1-.25-.25V69a.25.25 0 0 1 .5 0v6a.25.25 0 0 1-.25.24z"/><path class="ipld_svg__cls-2" d="M135.41 75.86l-5.88-3.4v-6.79l5.88-3.39 5.88 3.39v6.79zM131 71.6l4.38 2.52 4.38-2.52v-5.06L135.41 64 131 66.54zM123.22 57.16h-.12l-5.13-3a.25.25 0 0 1-.09-.34.26.26 0 0 1 .34-.1l5 2.89 5-2.89a.26.26 0 0 1 .34.1.25.25 0 0 1-.09.34l-5.13 3a.28.28 0 0 1-.12 0z"/><path class="ipld_svg__cls-2" d="M123.22 63.12a.25.25 0 0 1-.25-.25v-6a.25.25 0 0 1 .5 0v6a.25.25 0 0 1-.25.25z"/><path class="ipld_svg__cls-2" d="M123.22 63.73l-5.88-3.39v-6.79l5.88-3.39 5.88 3.39v6.79zm-4.38-4.26l4.38 2.53 4.38-2.53v-5l-4.38-2.53-4.38 2.53z"/><circle class="ipld_svg__cls-2" cx="128.27" cy="62.06" r=".53"/><circle class="ipld_svg__cls-2" cx="129.58" cy="62.85" r=".53"/><circle class="ipld_svg__cls-2" cx="130.9" cy="63.68" r=".53"/><circle class="ipld_svg__cls-2" cx="137.67" cy="77.03" r=".53"/><circle class="ipld_svg__cls-2" cx="136.36" cy="77.83" r=".53"/><path class="ipld_svg__cls-2" d="M134.52 78.65a.52.52 0 0 0 .52.53.53.53 0 0 0 0-1.06.52.52 0 0 0-.52.53z"/></g></svg>
