<svg id="libp2p_svg__libp2p" xmlns="http://www.w3.org/2000/svg" viewBox="0 0 157.03 167.35"><defs><style>.libp2p_svg__cls-27{fill:#a0d6de}.libp2p_svg__cls-2{fill:#2a2b60}.libp2p_svg__cls-3{fill:#fdd52f}.libp2p_svg__cls-6{fill:#c4c700}.libp2p_svg__cls-7{fill:#a7a81d}.libp2p_svg__cls-8{fill:#9f9d23}.libp2p_svg__cls-9{fill:#cd225d}.libp2p_svg__cls-10{fill:#a71846}.libp2p_svg__cls-11{fill:#b91f4e}.libp2p_svg__cls-12{fill:#f9c33e}.libp2p_svg__cls-13{fill:#d1d600}.libp2p_svg__cls-14{fill:#cacf00}.libp2p_svg__cls-15{fill:#c0bd07}.libp2p_svg__cls-16{fill:#69c4ce}.libp2p_svg__cls-17{fill:#c5e5eb}.libp2p_svg__cls-21{fill:#6dc3bf}.libp2p_svg__cls-25{fill:#159a96}.libp2p_svg__cls-26{fill:#fcd57d}.libp2p_svg__cls-28{fill:#fff}</style></defs><path d="M151.26 113.81V53.54A20.24 20.24 0 0 0 141.12 36L88.61 5.79a20.25 20.25 0 0 0-20.18 0L15.91 36A20.24 20.24 0 0 0 5.77 53.54v60.27a20.27 20.27 0 0 0 10.14 17.55l52.52 30.2a20.25 20.25 0 0 0 20.18 0l52.51-30.2a20.27 20.27 0 0 0 10.14-17.55z" opacity=".2" fill="#a0d6de"/><path class="libp2p_svg__cls-2" d="M52.26 90.41h-1.5V61.07a3.41 3.41 0 0 0-3.41-3.4h-8.63v-1.5h8.63a4.91 4.91 0 0 1 4.91 4.9z"/><circle class="libp2p_svg__cls-3" cx="36.58" cy="56.92" r="3.99"/><path class="libp2p_svg__cls-2" d="M36.58 61.65a4.74 4.74 0 1 1 4.74-4.73 4.73 4.73 0 0 1-4.74 4.73zm0-8a3.24 3.24 0 1 0 3.24 3.24 3.24 3.24 0 0 0-3.24-3.21zM83.72 112.67h1.5v9.83h-1.5z"/><path class="libp2p_svg__cls-2" d="M115.42 127H53.08a6.6 6.6 0 0 1-6.59-6.59v-42H48v42a5.1 5.1 0 0 0 5.09 5.09h62.34a5.18 5.18 0 0 0 5.18-5.17V96.72h1.5v23.59a6.68 6.68 0 0 1-6.69 6.69z"/><circle cx="84.47" cy="125.58" r="3.27" fill="#51b7b7"/><path class="libp2p_svg__cls-2" d="M84.47 129.6a4 4 0 1 1 4-4 4 4 0 0 1-4 4zm0-6.54a2.52 2.52 0 1 0 2.53 2.52 2.53 2.53 0 0 0-2.53-2.52z"/><path class="libp2p_svg__cls-3" d="M82.22 107.1v3.36a2.21 2.21 0 0 0 4.42 0v-3.36z"/><path class="libp2p_svg__cls-2" d="M84.43 113.42a3 3 0 0 1-3-3v-4.11h5.92v4.11a3 3 0 0 1-2.92 3zM83 107.85v2.61a1.46 1.46 0 0 0 2.92 0v-2.61z"/><path d="M101.53 71.22a.36.36 0 0 1-.36-.28.37.37 0 0 1 .26-.46l.62-.16a.37.37 0 0 1 .46.26.38.38 0 0 1-.26.46l-.62.17z" fill="#482c2a"/><circle class="libp2p_svg__cls-3" cx="121.35" cy="96.72" r="3.99"/><path class="libp2p_svg__cls-2" d="M121.35 101.45a4.74 4.74 0 1 1 4.73-4.73 4.74 4.74 0 0 1-4.73 4.73zm0-8a3.24 3.24 0 1 0 3.23 3.24 3.24 3.24 0 0 0-3.23-3.21z"/><path class="libp2p_svg__cls-6" d="M85.01 74.77l.08-.05 10.05-5.6L85 63.41l-10.13 5.65L85 74.77h.01z"/><path class="libp2p_svg__cls-7" d="M85 86.12V74.77l-10.13-5.71v11.35h.01L85 86.12z"/><path class="libp2p_svg__cls-8" d="M95.14 69.12l-10.05 5.6-.08.05H85v11.35h.01l10.13-5.64V69.12z"/><path class="libp2p_svg__cls-9" d="M95.14 80.48l.09-.05 10.04-5.6-10.13-5.71-10.13 5.65 10.13 5.71z"/><path class="libp2p_svg__cls-10" d="M95.14 91.83V80.48l-10.13-5.71v11.35l10.13 5.71z"/><path class="libp2p_svg__cls-11" d="M105.27 74.83l-10.05 5.6-.08.05v11.35l10.13-5.64V74.83z"/><path class="libp2p_svg__cls-12" d="M105.27 86.19l.09-.05 10.04-5.59-10.13-5.71-10.13 5.64 10.13 5.71z"/><path class="libp2p_svg__cls-2" d="M105.27 86.44a.22.22 0 0 1-.13 0L95 80.7a.26.26 0 0 1-.13-.22.25.25 0 0 1 .13-.22l10.13-5.64a.28.28 0 0 1 .25 0l10.13 5.71a.26.26 0 0 1 .12.22.24.24 0 0 1-.12.21l-10.11 5.65a.28.28 0 0 1-.13.03zm-9.62-6l9.63 5.42 9.61-5.35-9.62-5.43z"/><path class="libp2p_svg__cls-12" d="M105.27 97.54V86.19l-10.13-5.71v11.35l10.13 5.71z"/><path class="libp2p_svg__cls-2" d="M105.27 97.79a.27.27 0 0 1-.12 0L95 92.05a.25.25 0 0 1-.13-.22V80.48a.25.25 0 0 1 .37-.22L105.4 86a.27.27 0 0 1 .12.22v11.32a.24.24 0 0 1-.12.22.28.28 0 0 1-.13.03zm-9.88-6.1l9.61 5.43V86.34l-9.63-5.43z"/><path class="libp2p_svg__cls-12" d="M115.41 80.55l-10.05 5.59-.09.05v11.35h.01v.01l10.13-5.65V80.55z"/><path class="libp2p_svg__cls-2" d="M105.28 97.8h-.08a.25.25 0 0 1-.18-.24V86.19a.27.27 0 0 1 .08-.18h.05l10.13-5.64a.28.28 0 0 1 .25 0 .25.25 0 0 1 .12.22V91.9a.25.25 0 0 1-.13.22l-10.12 5.64a.28.28 0 0 1-.12.04zm.24-11.46v10.78l9.64-5.36V81z"/><path class="libp2p_svg__cls-13" d="M74.88 80.41l.08-.05L85 74.77l-10.13-5.71-10.13 5.64 10.13 5.71h.01z"/><path class="libp2p_svg__cls-14" d="M74.87 91.76V80.41L64.74 74.7v11.35l.01.01 10.12 5.7z"/><path class="libp2p_svg__cls-15" d="M85.01 74.77l-10.05 5.59-.08.05h-.01v11.35l.01.01 10.13-5.65V74.77z"/><path class="libp2p_svg__cls-9" d="M85.01 86.12l.08-.05 10.05-5.59-10.13-5.71-10.13 5.64 10.13 5.71z"/><path class="libp2p_svg__cls-10" d="M85.01 97.47V86.12l-10.13-5.71h-.01v11.35l.01.01 10.13 5.7z"/><path class="libp2p_svg__cls-11" d="M95.14 80.48l-10.05 5.59-.08.05v11.35l10.13-5.64V80.48z"/><path class="libp2p_svg__cls-16" d="M95.14 91.83l.09-.05 10.04-5.59-10.13-5.71-10.13 5.64 10.13 5.71z"/><path class="libp2p_svg__cls-2" d="M95.14 92.08A.22.22 0 0 1 95 92l-10.12-5.7a.25.25 0 0 1-.13-.22.26.26 0 0 1 .13-.22L95 80.26a.25.25 0 0 1 .24 0L105.4 86a.26.26 0 0 1 0 .44l-10.13 5.61a.28.28 0 0 1-.13.03zm-9.62-6l9.62 5.43 9.62-5.36-9.62-5.43z"/><path class="libp2p_svg__cls-16" d="M95.14 103.19V91.83l-10.13-5.71v11.36l10.13 5.71z"/><path class="libp2p_svg__cls-2" d="M95.14 103.44a.19.19 0 0 1-.12 0L84.89 97.7a.28.28 0 0 1-.13-.23V86.12a.22.22 0 0 1 .12-.21.25.25 0 0 1 .25 0l10.13 5.72a.23.23 0 0 1 .13.21v11.36a.24.24 0 0 1-.12.21.28.28 0 0 1-.13.03zm-9.88-6.11l9.63 5.43V92l-9.63-5.43z"/><path class="libp2p_svg__cls-16" d="M105.28 86.19l-10.05 5.59-.09.05v11.36l10.14-5.65V86.19z"/><path class="libp2p_svg__cls-2" d="M95.14 103.44h-.11a.26.26 0 0 1-.14-.22V91.83a.26.26 0 0 1 .07-.17h.06l.08-.05L105.15 86a.28.28 0 0 1 .25 0 .26.26 0 0 1 .13.22v11.32a.25.25 0 0 1-.13.22l-10.13 5.65a.28.28 0 0 1-.13.03zM95.39 92v10.78L105 97.4V86.62z"/><path class="libp2p_svg__cls-17" d="M64.74 86.05l.09-.05 10.04-5.59-10.13-5.71-10.13 5.64 10.13 5.71z"/><path class="libp2p_svg__cls-2" d="M64.74 86.3a.27.27 0 0 1-.12 0l-10.13-5.74a.25.25 0 0 1-.13-.22.26.26 0 0 1 .13-.22l10.13-5.64a.25.25 0 0 1 .24 0L75 80.19a.26.26 0 0 1 0 .44l-10.13 5.64a.28.28 0 0 1-.13.03zm0-.25zm-9.62-5.71l9.62 5.43 9.62-5.36L64.74 75z"/><path class="libp2p_svg__cls-17" d="M64.74 97.41V86.05l-10.13-5.71V91.7l10.13 5.71z"/><path class="libp2p_svg__cls-2" d="M64.74 97.66a.19.19 0 0 1-.12 0l-10.13-5.7a.26.26 0 0 1-.13-.22v-11.4a.24.24 0 0 1 .12-.21.23.23 0 0 1 .25 0l10.14 5.71a.24.24 0 0 1 .12.21v11.36a.22.22 0 0 1-.12.21.28.28 0 0 1-.13.04zm-9.88-6.11L64.49 97V86.2l-9.63-5.43z"/><path class="libp2p_svg__cls-17" d="M74.88 80.41L64.83 86l-.09.05v11.36h.01l10.13-5.64V80.41z"/><path class="libp2p_svg__cls-2" d="M64.74 97.66a.2.2 0 0 1-.16-.07.24.24 0 0 1-.09-.18V86.05a.26.26 0 0 1 .14-.22h.08l10-5.6a.28.28 0 0 1 .25 0 .26.26 0 0 1 .13.22v11.31A.25.25 0 0 1 75 92l-10.13 5.63a.28.28 0 0 1-.13.03zM65 86.2V97l9.64-5.36v-10.8z"/><path class="libp2p_svg__cls-17" d="M74.88 91.76l.08-.04 10.05-5.6-10.13-5.71-10.14 5.64 10.14 5.71z"/><path class="libp2p_svg__cls-2" d="M74.88 92a.28.28 0 0 1-.13 0l-10.13-5.73a.25.25 0 0 1-.13-.22.26.26 0 0 1 .13-.22l10.13-5.64a.28.28 0 0 1 .25 0l10.13 5.71a.25.25 0 0 1 .13.22.26.26 0 0 1-.13.22L75 92a.27.27 0 0 1-.12 0zm0-.25zm-9.62-5.71l9.62 5.43 9.62-5.36-9.62-5.41z"/><path class="libp2p_svg__cls-17" d="M74.88 103.12V91.76l-10.14-5.71v11.36h.01l10.13 5.71z"/><path class="libp2p_svg__cls-2" d="M74.88 103.37a.33.33 0 0 1-.14 0l-10.12-5.7a.29.29 0 0 1-.13-.22v-11.4a.23.23 0 0 1 .13-.21.23.23 0 0 1 .25 0L75 91.55a.23.23 0 0 1 .13.21v11.36a.25.25 0 0 1-.16.23zM65 97.26l9.64 5.43V91.91L65 86.48z"/><path class="libp2p_svg__cls-17" d="M85.01 86.12l-10.05 5.6-.08.04v11.36l10.13-5.65V86.12z"/><path class="libp2p_svg__cls-2" d="M74.88 103.37a.29.29 0 0 1-.18-.07.26.26 0 0 1-.07-.18V91.76a.22.22 0 0 1 .07-.17h.14l10-5.6a.27.27 0 0 1 .3 0 .29.29 0 0 1 .07.18v11.3a.25.25 0 0 1-.13.22L75 103.34a.27.27 0 0 1-.12.03zm.25-11.46v10.78l9.63-5.36V86.55z"/><path class="libp2p_svg__cls-16" d="M85.01 97.47l.09-.04 10.04-5.6-10.13-5.71-10.13 5.64 10.13 5.71z"/><path class="libp2p_svg__cls-2" d="M85 97.73a.28.28 0 0 1-.13 0L74.75 92a.26.26 0 0 1-.12-.22.23.23 0 0 1 .13-.21l10.13-5.67a.26.26 0 0 1 .24 0l10.13 5.71a.26.26 0 0 1 .13.22.25.25 0 0 1-.13.22l-10.13 5.64a.17.17 0 0 1-.13.04zm-9.62-6L85 97.19l9.62-5.36L85 86.41z"/><path class="libp2p_svg__cls-16" d="M85.01 108.83V97.48l-10.13-5.71v11.35l10.13 5.71z"/><path class="libp2p_svg__cls-2" d="M85 109.08a.2.2 0 0 1-.13 0l-10.12-5.7a.21.21 0 0 1-.13-.22v-11.4a.24.24 0 0 1 .12-.21.25.25 0 0 1 .25 0l10.13 5.71a.25.25 0 0 1 .13.22v11.35a.25.25 0 0 1-.15.23zM75.13 103l9.63 5.43V97.62l-9.63-5.43z"/><path class="libp2p_svg__cls-16" d="M95.14 91.83l-10.04 5.6-.09.04v11.36l10.13-5.64V91.83z"/><path class="libp2p_svg__cls-2" d="M85 109.08a.25.25 0 0 1-.14 0 .26.26 0 0 1-.11-.21V97.48a.24.24 0 0 1 .13-.22l.09-.05 10-5.6a.25.25 0 0 1 .25 0 .22.22 0 0 1 .12.21v11.36a.27.27 0 0 1-.12.22l-10.14 5.64a.24.24 0 0 1-.08.04zm.25-11.46v10.79l9.64-5.41V92.26z"/><path class="libp2p_svg__cls-6" d="M85.01 62.31l.09-.05 10.04-5.59-10.12-5.71-10.14 5.63 10.13 5.72z"/><path class="libp2p_svg__cls-7" d="M85 73.66l.01-11.35-10.13-5.71-.01 11.35h.01L85 73.66z"/><path class="libp2p_svg__cls-8" d="M95.14 56.67L85.1 62.26l-.09.05L85 73.66l.01.01 10.13-5.64V56.67z"/><path fill="#ea4a91" d="M95.14 68.03l.09-.05 10.05-5.6-10.13-5.71-10.14 5.64 10.13 5.72z"/><path fill="#cf0d5f" d="M95.14 79.38V68.03l-10.13-5.72v11.36l10.13 5.71z"/><path fill="#e4005f" d="M105.28 62.39l-10.05 5.59-.09.05v11.35l10.13-5.64.01-11.35z"/><path class="libp2p_svg__cls-21" d="M105.27 73.74l.09-.05 10.05-5.59-10.13-5.71-10.14 5.64 10.13 5.71z"/><path class="libp2p_svg__cls-2" d="M105.27 74a.27.27 0 0 1-.12 0L95 68.24a.23.23 0 0 1-.13-.21.25.25 0 0 1 .13-.22l10.14-5.64a.25.25 0 0 1 .24 0l10.13 5.71a.25.25 0 0 1 .12.22.24.24 0 0 1-.12.22L105.4 74a.28.28 0 0 1-.13 0zm-9.62-6l9.62 5.43 9.62-5.36-9.61-5.43z"/><path class="libp2p_svg__cls-21" d="M105.27 85.09V73.74l-10.13-5.71v11.35l10.13 5.71z"/><path class="libp2p_svg__cls-2" d="M105.27 85.34a.31.31 0 0 1-.13 0L95 79.6a.25.25 0 0 1-.13-.22V68a.26.26 0 0 1 .13-.22.23.23 0 0 1 .24 0l10.14 5.71a.27.27 0 0 1 .12.22v11.38a.25.25 0 0 1-.13.22.24.24 0 0 1-.1.03zm-9.88-6.11l9.61 5.44V73.89l-9.63-5.44z"/><path class="libp2p_svg__cls-21" d="M115.41 68.1l-10.05 5.59-.09.05V85.1l10.13-5.64.01-11.36z"/><path class="libp2p_svg__cls-2" d="M105.27 85.35a.25.25 0 0 1-.18-.08.27.27 0 0 1-.07-.18V73.74a.23.23 0 0 1 .08-.17.12.12 0 0 1 .05 0l10.14-5.64a.23.23 0 0 1 .24 0 .23.23 0 0 1 .13.21v11.32a.24.24 0 0 1-.12.21l-10.14 5.65a.27.27 0 0 1-.13.03zm.25-11.46v10.78l9.63-5.36V68.53z"/><path class="libp2p_svg__cls-13" d="M74.88 67.95l.08-.05 10.05-5.59-10.13-5.72-10.13 5.64 10.13 5.72z"/><path class="libp2p_svg__cls-14" d="M74.87 79.3l.01-11.35-10.13-5.72-.01 11.36h.01l10.12 5.71z"/><path class="libp2p_svg__cls-15" d="M85.01 62.31L74.96 67.9l-.08.05-.01 11.35 10.14-5.63V62.31z"/><path fill="#f4b000" d="M85.01 73.66l.08-.04 10.05-5.6-10.13-5.71-10.13 5.64 10.13 5.71z"/><path fill="#ee8e00" d="M85 85.02l.01-11.35v-.01l-10.13-5.71-.01 11.35.01.01L85 85.02z"/><path fill="#f6a200" d="M95.14 68.03l-10.05 5.59-.08.04L85 85.02l10.14-5.64V68.03z"/><path class="libp2p_svg__cls-21" d="M95.14 79.38l.09-.05 10.04-5.59-10.13-5.71-10.13 5.64 10.13 5.71z"/><path class="libp2p_svg__cls-2" d="M95.14 79.63a.2.2 0 0 1-.11 0l-10.14-5.75a.24.24 0 0 1-.13-.22.23.23 0 0 1 .13-.21L95 67.81a.28.28 0 0 1 .25 0l10.13 5.71a.27.27 0 0 1 .12.22.26.26 0 0 1-.13.22L95.26 79.6a.27.27 0 0 1-.12.03zm-9.62-6l9.62 5.42 9.62-5.35-9.62-5.43z"/><path class="libp2p_svg__cls-21" d="M95.13 90.73l.01-11.35-10.13-5.71L85 85.02h.01l10.12 5.71z"/><path class="libp2p_svg__cls-2" d="M95.13 91a.27.27 0 0 1-.13 0l-10.12-5.76a.22.22 0 0 1-.13-.22V73.67a.24.24 0 0 1 .12-.22.25.25 0 0 1 .25 0l10.13 5.71a.26.26 0 0 1 .13.22v11.35a.25.25 0 0 1-.12.22.28.28 0 0 1-.13.05zm-9.88-6.1l9.63 5.43v-10.8l-9.63-5.44z"/><path class="libp2p_svg__cls-21" d="M105.27 73.74l-10.05 5.59-.08.05-.01 11.35h.01l10.13-5.63v-.01l.01-11.35h-.01z"/><path class="libp2p_svg__cls-2" d="M95.14 91h-.08a.25.25 0 0 1-.18-.24V79.38a.24.24 0 0 1 .14-.22h.07l10.05-5.59a.25.25 0 0 1 .25 0 .22.22 0 0 1 .12.21v11.31a.26.26 0 0 1-.14.23L95.26 91a.27.27 0 0 1-.12 0zm.25-11.45v10.76L105 85V74.17z"/><path class="libp2p_svg__cls-21" d="M64.74 73.59l.09-.05 10.05-5.59-10.13-5.72-10.14 5.64 10.13 5.72z"/><path class="libp2p_svg__cls-2" d="M64.74 73.84a.27.27 0 0 1-.12 0l-10.13-5.75a.25.25 0 0 1-.13-.22.26.26 0 0 1 .13-.22L64.63 62a.23.23 0 0 1 .24 0L75 67.73a.25.25 0 0 1 0 .44l-10.14 5.64a.21.21 0 0 1-.12.03zm0-.25zm-9.62-5.72l9.62 5.43 9.62-5.3-9.61-5.43z"/><path class="libp2p_svg__cls-21" d="M64.74 84.94V73.59l-10.13-5.72v11.36l10.13 5.71z"/><path class="libp2p_svg__cls-2" d="M64.74 85.19a.31.31 0 0 1-.13 0l-10.12-5.74a.34.34 0 0 1-.13-.22V67.87a.25.25 0 0 1 .16-.23.27.27 0 0 1 .23 0l10.12 5.71a.27.27 0 0 1 .12.22v11.37a.26.26 0 0 1-.13.22.27.27 0 0 1-.12.03zm-9.88-6.11l9.63 5.43V73.73l-9.63-5.43z"/><path class="libp2p_svg__cls-21" d="M74.88 67.95l-10.05 5.59-.09.05v11.35l10.13-5.64.01-11.35z"/><path class="libp2p_svg__cls-2" d="M64.74 85.19a.26.26 0 0 1-.18-.07.29.29 0 0 1-.07-.18V73.59a.25.25 0 0 1 .14-.22l10.13-5.64a.25.25 0 0 1 .24 0 .26.26 0 0 1 .13.22V79.3a.26.26 0 0 1-.12.22l-10.15 5.64a.27.27 0 0 1-.12.03zM65 73.74v10.78l9.63-5.36V68.37z"/><path class="libp2p_svg__cls-12" d="M74.88 79.3l.08-.04 10.05-5.6-10.13-5.71-10.14 5.64 10.13 5.71h.01z"/><path class="libp2p_svg__cls-2" d="M74.88 79.55a.23.23 0 0 1-.14 0l-10.12-5.7a.26.26 0 0 1-.13-.22.25.25 0 0 1 .13-.22l10.14-5.64a.25.25 0 0 1 .24 0l10.13 5.71a.26.26 0 0 1 .13.22.25.25 0 0 1-.13.22L75 79.52a.27.27 0 0 1-.12.03zm-9.62-6L74.88 79l9.62-5.36-9.62-5.43z"/><path class="libp2p_svg__cls-12" d="M74.87 90.66V79.3l-10.13-5.71v11.35l10.13 5.72z"/><path class="libp2p_svg__cls-2" d="M74.87 90.91a.25.25 0 0 1-.12 0l-10.13-5.75a.25.25 0 0 1-.13-.22V73.59a.26.26 0 0 1 .13-.22.28.28 0 0 1 .25 0L75 79.09a.22.22 0 0 1 .12.21v11.36a.28.28 0 0 1-.25.25zM65 84.8l9.63 5.43V79.45L65 74z"/><path class="libp2p_svg__cls-12" d="M85.01 73.66l-10.05 5.6-.08.04h-.01v11.36L85 85.02l.01-11.36z"/><path class="libp2p_svg__cls-2" d="M74.87 90.91a.37.37 0 0 1-.14 0 .26.26 0 0 1-.11-.21V79.3a.26.26 0 0 1 .13-.22l10.14-5.64a.25.25 0 0 1 .25 0 .24.24 0 0 1 .12.21V85a.26.26 0 0 1-.13.22L75 90.88a.24.24 0 0 1-.13.03zm.25-11.46v10.78l9.64-5.36V74.09z"/><path class="libp2p_svg__cls-25" d="M85.01 85.02l.08-.05 10.05-5.59-10.13-5.72v.01-.01L74.88 79.3 85 85.02h.01z"/><path class="libp2p_svg__cls-2" d="M85 85.27a.28.28 0 0 1-.13 0l-10.12-5.75a.24.24 0 0 1-.12-.22.27.27 0 0 1 .12-.22l10.14-5.63a.25.25 0 0 1 .25 0l10.12 5.71a.25.25 0 0 1 0 .44l-10.13 5.64a.27.27 0 0 1-.13.03zm-9.62-6L85 84.73l9.62-5.35L85 74z"/><path class="libp2p_svg__cls-25" d="M85 96.37V85.02L74.87 79.3v.01-.01 11.36L85 96.37z"/><path class="libp2p_svg__cls-2" d="M85 96.62a.24.24 0 0 1-.12 0l-10.13-5.74a.21.21 0 0 1-.13-.22V79.3a.24.24 0 0 1 .13-.21.23.23 0 0 1 .25 0l10.13 5.71a.26.26 0 0 1 .13.22v11.35a.27.27 0 0 1-.12.22.31.31 0 0 1-.14.03zm-9.88-6.1l9.63 5.42V85.17l-9.64-5.44z"/><path class="libp2p_svg__cls-25" d="M95.14 79.38l-10.05 5.59-.08.05H85v11.35l10.14-5.64V79.38z"/><path class="libp2p_svg__cls-2" d="M85 96.62a.25.25 0 0 1-.14 0 .24.24 0 0 1-.11-.21V85a.24.24 0 0 1 .07-.18h.09l10-5.59a.25.25 0 0 1 .37.22v11.28a.25.25 0 0 1-.08.18l-10.08 5.68a.24.24 0 0 1-.12.03zm.26-11.45V96l9.64-5.36V79.8z"/><path class="libp2p_svg__cls-26" d="M85.01 49.85l.08-.04 10.05-5.6L85 38.5l-10.13 5.64L85 49.85h.01z"/><path class="libp2p_svg__cls-2" d="M85 50.1a.32.32 0 0 1-.14 0l-10.11-5.74a.25.25 0 0 1-.13-.22.26.26 0 0 1 .13-.22l10.13-5.64a.28.28 0 0 1 .25 0L95.26 44a.25.25 0 0 1 0 .44l-10.13 5.63a.27.27 0 0 1-.13.03zm-9.63-6L85 49.57l9.61-5.36L85 38.79z"/><path class="libp2p_svg__cls-26" d="M85 61.21V49.85l-10.13-5.71V55.5h.01L85 61.21z"/><path class="libp2p_svg__cls-2" d="M85 61.46a.28.28 0 0 1-.13 0l-10.12-5.74a.29.29 0 0 1-.13-.22V44.14a.23.23 0 0 1 .13-.21.21.21 0 0 1 .24 0l10.14 5.71a.23.23 0 0 1 .13.21v11.36a.25.25 0 0 1-.16.23zm-9.89-6.11l9.63 5.43V50l-9.64-5.43z"/><path class="libp2p_svg__cls-26" d="M95.14 44.21l-10.05 5.6-.08.04H85v11.36h.01l10.13-5.64V44.21z"/><path class="libp2p_svg__cls-2" d="M85 61.46a.25.25 0 0 1-.25-.25V49.85a.22.22 0 0 1 .12-.21L95 44a.25.25 0 0 1 .25 0 .24.24 0 0 1 .12.21v11.35a.26.26 0 0 1-.13.23l-10.11 5.64a.27.27 0 0 1-.13.03zM85.26 50v10.78l9.63-5.36V44.64z"/><path class="libp2p_svg__cls-17" d="M95.14 55.56l.09-.04 10.04-5.6-10.13-5.71-10.13 5.64 10.13 5.71z"/><path class="libp2p_svg__cls-2" d="M95.14 55.81a.2.2 0 0 1-.11 0l-10.15-5.74a.26.26 0 0 1 0-.44L95 44a.25.25 0 0 1 .25 0l10.12 5.7a.25.25 0 0 1 0 .44l-10.11 5.64a.27.27 0 0 1-.12.03zm-9.62-6l9.62 5.43 9.62-5.36-9.62-5.38z"/><path class="libp2p_svg__cls-17" d="M95.14 66.92V55.56l-10.13-5.71v11.36l10.13 5.71z"/><path class="libp2p_svg__cls-2" d="M95.14 67.17a.24.24 0 0 1-.12 0l-10.13-5.74a.26.26 0 0 1-.13-.22V49.85a.22.22 0 0 1 .12-.21.23.23 0 0 1 .25 0l10.13 5.71a.25.25 0 0 1 .13.22v11.35a.24.24 0 0 1-.12.21.22.22 0 0 1-.13.04zm-9.88-6.11l9.63 5.43V55.71l-9.63-5.43z"/><path class="libp2p_svg__cls-17" d="M105.27 49.92l-10.05 5.6-.08.04v11.36l10.13-5.64V49.92z"/><path class="libp2p_svg__cls-2" d="M95.14 67.17h-.08a.26.26 0 0 1-.17-.24V55.57a.24.24 0 0 1 .14-.23l10.12-5.64a.25.25 0 0 1 .25 0 .22.22 0 0 1 .12.21v11.37a.23.23 0 0 1-.13.21l-10.13 5.65a.24.24 0 0 1-.12.03zm.25-11.46V66.5l9.61-5.37V50.35z"/><path class="libp2p_svg__cls-21" d="M105.27 61.28l.09-.05 10.04-5.6-10.13-5.71-10.13 5.64 10.13 5.72z"/><path class="libp2p_svg__cls-2" d="M105.27 61.53a.19.19 0 0 1-.12 0L95 55.78a.24.24 0 0 1-.13-.22.23.23 0 0 1 .13-.21l10.13-5.65a.28.28 0 0 1 .25 0l10.13 5.71a.27.27 0 0 1 .12.22.26.26 0 0 1-.12.22l-10.12 5.65a.21.21 0 0 1-.12.03zm-9.62-6l9.63 5.47 9.61-5.36-9.62-5.42z"/><path class="libp2p_svg__cls-21" d="M105.27 72.63V61.28l-10.13-5.71v11.35l10.13 5.71z"/><path class="libp2p_svg__cls-2" d="M105.27 72.88a.27.27 0 0 1-.12 0L95 67.14a.22.22 0 0 1-.13-.22V55.57a.27.27 0 0 1 .12-.22.25.25 0 0 1 .25 0l10.14 5.71a.26.26 0 0 1 .12.22v11.35a.25.25 0 0 1-.12.22.28.28 0 0 1-.11.03zm-9.88-6.1L105 72.2V61.42L95.39 56z"/><path class="libp2p_svg__cls-21" d="M115.41 55.63l-10.05 5.6-.09.05v11.35h.01l10.13-5.64V55.63z"/><path class="libp2p_svg__cls-2" d="M105.28 72.88a.23.23 0 0 1-.14 0 .27.27 0 0 1-.12-.21V61.28a.25.25 0 0 1 .08-.18.1.1 0 0 1 .05 0l.09-.05 10-5.59a.23.23 0 0 1 .25 0 .24.24 0 0 1 .12.21V67a.26.26 0 0 1-.13.22l-10.08 5.63a.27.27 0 0 1-.12.03zm.24-11.46v10.79l9.64-5.37V56.06z"/><path class="libp2p_svg__cls-26" d="M74.88 55.5l.08-.05L85 49.85l-10.13-5.71-10.13 5.64 10.13 5.72h.01z"/><path class="libp2p_svg__cls-2" d="M74.88 55.75a.33.33 0 0 1-.14 0L64.62 50a.24.24 0 0 1-.13-.22.23.23 0 0 1 .13-.21l10.13-5.65a.28.28 0 0 1 .25 0l10.13 5.71a.25.25 0 0 1 .12.22.24.24 0 0 1-.12.22L75 55.72a.27.27 0 0 1-.12.03zm-9.63-6l9.63 5.42 9.61-5.36-9.62-5.42z"/><path class="libp2p_svg__cls-26" d="M74.87 66.85V55.5l-10.13-5.71v11.35h.01l10.12 5.71z"/><path class="libp2p_svg__cls-2" d="M74.87 67.1a.27.27 0 0 1-.12 0l-10.13-5.74a.34.34 0 0 1-.13-.22V49.79a.27.27 0 0 1 .12-.22.25.25 0 0 1 .25 0L75 55.28a.26.26 0 0 1 .12.22v11.35a.25.25 0 0 1-.12.22.28.28 0 0 1-.13.03zM65 61l9.63 5.42V55.64L65 50.21z"/><path class="libp2p_svg__cls-26" d="M85.01 49.85l-10.05 5.6-.08.05h-.01v11.35h.01l10.13-5.64V49.85z"/><path class="libp2p_svg__cls-2" d="M74.88 67.1a.26.26 0 0 1-.26-.25V55.5a.25.25 0 0 1 .08-.18l.09-.05 10-5.6a.25.25 0 0 1 .25 0 .23.23 0 0 1 .13.21v11.33a.26.26 0 0 1-.13.22L75 67.07a.27.27 0 0 1-.12.03zm.24-11.46v10.79l9.64-5.37V50.28z"/><path class="libp2p_svg__cls-26" d="M85.01 61.21l.08-.05 10.05-5.6-10.13-5.71-10.13 5.65 10.13 5.71z"/><path class="libp2p_svg__cls-2" d="M85 61.46a.33.33 0 0 1-.14 0l-10.11-5.75a.23.23 0 0 1-.12-.22.24.24 0 0 1 .12-.21l10.14-5.65a.23.23 0 0 1 .24 0l10.13 5.7a.26.26 0 0 1 .13.22.25.25 0 0 1-.13.22l-10.13 5.66a.27.27 0 0 1-.13.03zm-9.62-6L85 60.92l9.62-5.36L85 50.14z"/><path class="libp2p_svg__cls-26" d="M85.01 72.56V61.21L74.88 55.5h-.01v11.35h.01l10.13 5.71z"/><path class="libp2p_svg__cls-2" d="M85 72.81a.31.31 0 0 1-.13 0l-10.11-5.74a.26.26 0 0 1-.14-.22V55.5a.26.26 0 0 1 .13-.22.25.25 0 0 1 .25 0L85.13 61a.25.25 0 0 1 .13.22v11.34a.26.26 0 0 1-.13.22.27.27 0 0 1-.13.03zm-9.88-6.11l9.64 5.43V61.35l-9.64-5.43z"/><path class="libp2p_svg__cls-26" d="M95.14 55.56l-10.05 5.6-.08.05v11.35l10.13-5.64V55.56z"/><path class="libp2p_svg__cls-2" d="M85 72.81h-.08a.26.26 0 0 1-.17-.24V61.21a.24.24 0 0 1 .07-.18h.06L95 55.34a.25.25 0 0 1 .25 0 .24.24 0 0 1 .12.21v11.37a.26.26 0 0 1-.13.22l-10.11 5.64a.27.27 0 0 1-.13.03zm.25-11.46v10.79l9.63-5.37V56z"/><path class="libp2p_svg__cls-17" d="M95.14 66.92l.09-.05 10.01-5.64-10.16-5.67-10.1 5.7 10.16 5.66z"/><path class="libp2p_svg__cls-2" d="M95.14 67.17a.27.27 0 0 1-.12 0l-10.16-5.7a.23.23 0 0 1-.13-.21.25.25 0 0 1 .13-.22L95 55.35a.25.25 0 0 1 .25 0L105.37 61a.24.24 0 0 1 .12.22.25.25 0 0 1-.12.22l-10.1 5.69a.28.28 0 0 1-.13.04zm-9.65-5.91l9.65 5.37 9.59-5.4-9.64-5.38z"/><path class="libp2p_svg__cls-17" d="M95.2 78.27l-.06-11.35-10.16-5.66.06 11.35 10.16 5.66z"/><path class="libp2p_svg__cls-2" d="M95.2 78.52a.24.24 0 0 1-.12 0l-10.16-5.69a.34.34 0 0 1-.13-.22l-.06-11.35a.25.25 0 0 1 .37-.26l10.16 5.7a.26.26 0 0 1 .13.22l.06 11.35a.26.26 0 0 1-.13.22.24.24 0 0 1-.12.03zm-9.91-6.06L95 77.85l-.06-10.78-9.66-5.39z"/><path class="libp2p_svg__cls-17" d="M105.25 61.23l-10.02 5.64-.09.05.06 11.35 10.1-5.69-.05-11.35z"/><path class="libp2p_svg__cls-2" d="M95.2 78.52h-.08a.25.25 0 0 1-.17-.24l-.06-11.35a.29.29 0 0 1 .07-.18h.06l10.1-5.75a.28.28 0 0 1 .25 0 .26.26 0 0 1 .13.22v11.35a.24.24 0 0 1-.12.22l-10.06 5.7a.24.24 0 0 1-.12.03zm.19-11.45l.06 10.78 9.6-5.41V61.65z"/><path class="libp2p_svg__cls-21" d="M64.74 61.14l.09-.05 10.04-5.6-10.13-5.71v.01-.01l-10.13 5.65 10.13 5.71z"/><path class="libp2p_svg__cls-2" d="M64.74 61.39h-.11l-10.14-5.74a.26.26 0 0 1-.13-.22.25.25 0 0 1 .13-.22l10.13-5.64a.23.23 0 0 1 .24 0L75 55.28a.26.26 0 0 1 .12.22.23.23 0 0 1-.13.21l-10.13 5.65a.21.21 0 0 1-.12.03zm-9.62-6l9.62 5.42 9.62-5.36-9.62-5.42z"/><path class="libp2p_svg__cls-21" d="M64.74 72.49V61.14l-10.13-5.71v11.35l10.13 5.71z"/><path class="libp2p_svg__cls-2" d="M64.74 72.74a.27.27 0 0 1-.12 0L54.49 67a.32.32 0 0 1-.13-.22V55.43a.25.25 0 0 1 .37-.22l10.14 5.71a.27.27 0 0 1 .12.22v11.35a.25.25 0 0 1-.12.22.28.28 0 0 1-.13.03zm-9.88-6.1l9.63 5.43V61.29l-9.63-5.43z"/><path class="libp2p_svg__cls-21" d="M74.88 55.5l-10.05 5.59-.09.05v11.35h.01l10.13-5.64V55.5z"/><path class="libp2p_svg__cls-2" d="M64.74 72.74h-.07a.25.25 0 0 1-.18-.24V61.14a.26.26 0 0 1 .14-.22l10.12-5.64a.28.28 0 0 1 .25 0 .26.26 0 0 1 .13.22v11.35a.26.26 0 0 1-.13.22l-10.13 5.64a.28.28 0 0 1-.13.03zM65 61.29v10.78l9.64-5.36V55.92z"/><path class="libp2p_svg__cls-12" d="M74.88 66.85l.08-.05 10.05-5.59-10.13-5.71-10.14 5.64 10.14 5.71z"/><path class="libp2p_svg__cls-2" d="M74.88 67.1a.2.2 0 0 1-.11 0l-10.15-5.74a.26.26 0 0 1-.13-.22.25.25 0 0 1 .13-.22l10.13-5.64a.25.25 0 0 1 .25 0L85.13 61a.25.25 0 0 1 .13.22.23.23 0 0 1-.13.21L75 67.07a.27.27 0 0 1-.12.03zm-9.62-6l9.62 5.42 9.62-5.35-9.62-5.43z"/><path class="libp2p_svg__cls-12" d="M74.88 78.2V66.85l-10.14-5.71v11.35l.01.01 10.13 5.7z"/><path class="libp2p_svg__cls-2" d="M74.88 78.45a.28.28 0 0 1-.13 0l-10.13-5.74a.27.27 0 0 1-.13-.22V61.14a.26.26 0 0 1 .13-.22.28.28 0 0 1 .25 0L75 66.63a.26.26 0 0 1 .13.22V78.2a.26.26 0 0 1-.13.22.27.27 0 0 1-.12.03zM65 72.35l9.64 5.43V67L65 61.57z"/><path class="libp2p_svg__cls-12" d="M85.01 61.21L74.96 66.8l-.08.05V78.2l10.13-5.64V61.21z"/><path class="libp2p_svg__cls-2" d="M74.88 78.45a.2.2 0 0 1-.11 0 .24.24 0 0 1-.14-.23V66.85a.27.27 0 0 1 .12-.22L84.89 61a.25.25 0 0 1 .37.22v11.34a.26.26 0 0 1-.13.22L75 78.42a.27.27 0 0 1-.12.03zM75.13 67v10.78l9.63-5.36V61.63z"/><path class="libp2p_svg__cls-12" d="M85.01 72.56l.09-.04 10.04-5.6-10.13-5.71-10.13 5.64 10.13 5.71z"/><path class="libp2p_svg__cls-2" d="M85 72.81a.24.24 0 0 1-.12 0l-10.13-5.74a.27.27 0 0 1-.12-.22.26.26 0 0 1 .13-.22L84.89 61a.26.26 0 0 1 .24 0l10.13 5.7a.25.25 0 0 1 .13.22.26.26 0 0 1-.13.22l-10.13 5.64a.24.24 0 0 1-.13.03zm-9.62-6L85 72.28l9.62-5.36L85 61.49z"/><path class="libp2p_svg__cls-12" d="M85.01 83.92V72.56l-10.13-5.71v11.36l10.13 5.71z"/><path class="libp2p_svg__cls-2" d="M85 84.17a.17.17 0 0 1-.12 0l-10.12-5.75a.25.25 0 0 1-.13-.22V66.85a.22.22 0 0 1 .12-.21.25.25 0 0 1 .25 0l10.13 5.72a.23.23 0 0 1 .13.21v11.35a.24.24 0 0 1-.12.21.33.33 0 0 1-.14.04zm-9.88-6.11l9.63 5.43V72.71l-9.63-5.43z"/><path class="libp2p_svg__cls-12" d="M95.14 66.92l-10.04 5.6-.09.04v11.36l10.13-5.65V66.92z"/><path class="libp2p_svg__cls-2" d="M85 84.17a.33.33 0 0 1-.13 0 .26.26 0 0 1-.12-.21v-11.4a.26.26 0 0 1 .07-.17h.06L95 66.7a.28.28 0 0 1 .25 0 .25.25 0 0 1 .12.22v11.35a.26.26 0 0 1-.12.22l-10.12 5.65a.24.24 0 0 1-.13.03zm.25-11.46v10.78l9.63-5.36V67.34z"/><path class="libp2p_svg__cls-2" d="M85 109.58a.76.76 0 0 1-.33-.08L54.24 92.35a.75.75 0 0 1-.38-.65V80.34a.73.73 0 0 1 .25-.55.77.77 0 0 1-.25-.56V67.87a.73.73 0 0 1 .24-.54.76.76 0 0 1-.24-.55V55.43a.74.74 0 0 1 .41-.67l30.37-16.92a.76.76 0 0 1 .73 0L115.77 55a.48.48 0 0 1 .16.12.75.75 0 0 1 .22.53V67a.77.77 0 0 1-.25.55.81.81 0 0 1 .25.56v11.35a.73.73 0 0 1-.23.54.75.75 0 0 1 .23.55V91.9a.77.77 0 0 1-.39.66l-30.38 16.93a.81.81 0 0 1-.38.09zM55.36 91.26L85 108l29.65-16.51V81l-.6-.34a.75.75 0 0 1 0-1.31l.58-.32V68.54l-.62-.35a.75.75 0 0 1-.38-.65.74.74 0 0 1 .39-.65l.61-.34V56.07L85 39.36 55.36 55.87v10.48l.59.33a.71.71 0 0 1 .38.65.74.74 0 0 1-.33.67l-.59.32v10.47l.61.35a.75.75 0 0 1 0 1.3l-.61.34z"/><path class="libp2p_svg__cls-3" d="M38.02 111.62v5.07l2.03-1.69 2.02 1.69v-5.07h-4.05z"/><path class="libp2p_svg__cls-2" d="M37.52 117.76v-6.64h5v6.64L40 115.65zm2.53-3.41l1.52 1.27v-3.5h-3v3.5z"/><path class="libp2p_svg__cls-27" d="M61.78 65.47h1.35a6.11 6.11 0 0 1 6.09 6.09v33.81a6.11 6.11 0 0 1-6.09 6.08h-1.35"/><path class="libp2p_svg__cls-2" d="M63.13 112h-1.35v-1h1.35a5.59 5.59 0 0 0 5.59-5.58V71.56A5.6 5.6 0 0 0 63.13 66h-1.35v-1h1.35a6.6 6.6 0 0 1 6.59 6.59v33.81a6.59 6.59 0 0 1-6.59 6.6z"/><path class="libp2p_svg__cls-27" d="M58.4 111.45H33.38V65.47H58.4"/><path class="libp2p_svg__cls-2" d="M58.4 111.95H32.88V64.97H58.4v1H33.88v44.98H58.4v1z"/><path class="libp2p_svg__cls-2" d="M37.52 90.83h.5v20.15h-.5zM37.52 65.81h.5v10.14h-.5z"/><path class="libp2p_svg__cls-25" d="M58.4 90.83H33.38V75.95H58.4"/><path class="libp2p_svg__cls-2" d="M58.4 91.33H32.88V75.45H58.4v1H33.88v13.88H58.4v1z"/><path class="libp2p_svg__cls-25" d="M61.78 75.95h7.44v14.88h-7.44"/><path class="libp2p_svg__cls-2" d="M69.72 91.33h-7.94v-1h6.94V76.45h-6.94v-1h7.94v15.88z"/><path class="libp2p_svg__cls-3" d="M58.74 64.46h2.7v48.01h-2.7z"/><path class="libp2p_svg__cls-2" d="M61.82 112.84h-3.46V64.08h3.46zm-2.71-.75h2V64.83h-2z"/><path class="libp2p_svg__cls-2" d="M59.84 65.81h.5v44.63h-.5z"/><path class="libp2p_svg__cls-28" d="M40.05 82.91h15.28v.5H40.05zM52.14 80.2h3.19v.5h-3.19zM40.05 80.2h10.6v.5h-10.6zM40.05 85.76h3.19v.5h-3.19zM44.72 85.76h10.6v.5h-10.6z"/></svg>