<svg xmlns="http://www.w3.org/2000/svg" viewBox="0 0 157.03 167.35"><defs><style>.libp2p_svg__cls-2{fill:#2a2b60}.libp2p_svg__cls-6{fill:#c4c700}.libp2p_svg__cls-7{fill:#a7a81d}.libp2p_svg__cls-8{fill:#9f9d23}.libp2p_svg__cls-9{fill:#cd225d}.libp2p_svg__cls-10{fill:#a71846}.libp2p_svg__cls-11{fill:#b91f4e}.libp2p_svg__cls-12{fill:#f9c33e}.libp2p_svg__cls-13{fill:#d1d600}.libp2p_svg__cls-14{fill:#cacf00}.libp2p_svg__cls-15{fill:#c0bd07}.libp2p_svg__cls-16{fill:#69c4ce}.libp2p_svg__cls-17{fill:#c5e5eb}.libp2p_svg__cls-18{fill:#ea4a91}.libp2p_svg__cls-19{fill:#cf0d5f}.libp2p_svg__cls-20{fill:#e4005f}.libp2p_svg__cls-21{fill:#6dc3bf}.libp2p_svg__cls-22{fill:#f4b000}.libp2p_svg__cls-23{fill:#ee8e00}.libp2p_svg__cls-24{fill:#f6a200}.libp2p_svg__cls-25{fill:#159a96}.libp2p_svg__cls-26{fill:#fcd57d}</style></defs><g id="first_group"><path id="libp2p_svg___g_" data-name="&lt;g&gt;" d="M151.26 113.81V53.54A20.24 20.24 0 0 0 141.12 36L88.61 5.79a20.25 20.25 0 0 0-20.18 0L15.91 36A20.24 20.24 0 0 0 5.77 53.54v60.27a20.27 20.27 0 0 0 10.14 17.55l52.52 30.2a20.25 20.25 0 0 0 20.18 0l52.51-30.2a20.27 20.27 0 0 0 10.14-17.55z" fill="#a0d6de" opacity=".2"/><path class="libp2p_svg__cls-2" d="M81.54 43.92h1.5v9.83h-1.5z"/><path class="libp2p_svg__cls-2" d="M46.16 89.76h-1.5V46.1a6.67 6.67 0 0 1 6.67-6.67h62.34a6.6 6.6 0 0 1 6.59 6.57v42h-1.5V46a5.09 5.09 0 0 0-5.09-5.09H51.33a5.18 5.18 0 0 0-5.17 5.17z"/><circle cx="82.29" cy="40.83" r="3.27" fill="#51b7b7"/><path class="libp2p_svg__cls-2" d="M82.29 44.86a4 4 0 1 1 4-4 4 4 0 0 1-4 4zm0-6.55a2.53 2.53 0 1 0 2.52 2.52 2.52 2.52 0 0 0-2.52-2.52z"/><path d="M84.54 59.31V56a2.21 2.21 0 0 0-4.42 0v3.35z" fill="#fdd52f"/><path class="libp2p_svg__cls-2" d="M85.29 60.06h-5.92V56a3 3 0 0 1 5.92 0zm-4.42-1.5h2.92V56a1.46 1.46 0 0 0-2.92 0z"/><path d="M99 91.41a.38.38 0 0 1-.37-.28.38.38 0 0 1 .27-.46l.61-.17a.38.38 0 0 1 .47.26.39.39 0 0 1-.26.47l-.63.17z" fill="#482c2a"/><path class="libp2p_svg__cls-6" d="M82.45 94.96l.09-.05 10.04-5.6-10.13-5.71-10.13 5.64 10.13 5.71v.01z"/><path class="libp2p_svg__cls-7" d="M82.45 106.31V94.96l-10.13-5.71v11.35l10.13 5.71z"/><path class="libp2p_svg__cls-8" d="M92.58 89.31l-10.04 5.6-.09.05v11.35l10.14-5.64V89.31h-.01z"/><path class="libp2p_svg__cls-9" d="M92.59 100.67l.08-.05 10.05-5.6-10.13-5.71-10.14 5.64 10.14 5.72z"/><path class="libp2p_svg__cls-10" d="M92.59 112.02v-11.35l-10.14-5.71v11.35h.01l10.13 5.71z"/><path class="libp2p_svg__cls-11" d="M102.72 95.02l-10.05 5.6-.08.05v11.35l10.13-5.64V95.02z"/><path class="libp2p_svg__cls-12" d="M102.72 106.38l.09-.05 10.04-5.6-10.13-5.71-10.13 5.65 10.13 5.71z"/><path class="libp2p_svg__cls-2" d="M102.72 106.63h-.12l-10.14-5.72a.24.24 0 0 1-.12-.21.26.26 0 0 1 .12-.22l10.14-5.64a.21.21 0 0 1 .24 0l10.16 5.68a.23.23 0 0 1 .13.21.24.24 0 0 1-.13.22l-10.13 5.65a.27.27 0 0 1-.15.03zm-9.62-6l9.62 5.42 9.62-5.36-9.62-5.42z"/><path class="libp2p_svg__cls-12" d="M102.72 117.73v-11.35l-10.13-5.71v11.35l10.13 5.71z"/><path class="libp2p_svg__cls-2" d="M102.72 118a.24.24 0 0 1-.12 0l-10.13-5.71a.3.3 0 0 1-.13-.22v-11.4a.25.25 0 0 1 .12-.22.28.28 0 0 1 .25 0l10.13 5.71a.26.26 0 0 1 .13.22v11.35a.27.27 0 0 1-.12.22.31.31 0 0 1-.13.05zm-9.88-6.1l9.63 5.42v-10.79l-9.63-5.43z"/><path class="libp2p_svg__cls-12" d="M112.85 100.73l-10.04 5.6-.09.05v11.35l10.13-5.64v-11.36.01-.01z"/><path class="libp2p_svg__cls-2" d="M102.72 118a.23.23 0 0 1-.15 0 .25.25 0 0 1-.1-.2v-11.42a.29.29 0 0 1 .07-.18h.14l10-5.59a.25.25 0 0 1 .25 0 .24.24 0 0 1 .12.22v11.35a.26.26 0 0 1-.12.22l-10.09 5.6a.24.24 0 0 1-.12 0zm.25-11.45v10.78l9.63-5.37v-10.8z"/><path class="libp2p_svg__cls-13" d="M72.32 100.6l.09-.05 10.04-5.6-10.13-5.71-10.13 5.65 10.13 5.71z"/><path class="libp2p_svg__cls-14" d="M72.32 111.95V100.6l-10.13-5.71v11.35l10.13 5.71z"/><path class="libp2p_svg__cls-15" d="M82.45 94.95l-10.04 5.6-.09.05v11.35l10.13-5.64V94.95v.01-.01z"/><path class="libp2p_svg__cls-9" d="M82.46 106.31l.08-.05 10.05-5.6-10.14-5.71-10.13 5.65 10.13 5.71h.01z"/><path class="libp2p_svg__cls-10" d="M82.45 117.66v-11.35l-10.13-5.71v11.35h.01l10.12 5.71z"/><path class="libp2p_svg__cls-11" d="M92.59 100.67l-10.05 5.59-.08.05h-.01v11.35h.01l10.13-5.64v-11.35z"/><path class="libp2p_svg__cls-16" d="M92.59 112.02l.08-.05 10.05-5.59-10.13-5.71-10.13 5.64 10.13 5.71z"/><path class="libp2p_svg__cls-2" d="M92.59 112.27h-.13l-10.13-5.71a.26.26 0 0 1 0-.44l10.14-5.64a.25.25 0 0 1 .24 0l10.13 5.71a.25.25 0 0 1 .13.22.23.23 0 0 1-.13.21l-10.13 5.65a.27.27 0 0 1-.12 0zm-9.62-6l9.62 5.42 9.62-5.35-9.62-5.34z"/><path class="libp2p_svg__cls-16" d="M92.59 123.37v-11.35l-10.14-5.71v11.35l.01.01 10.13 5.7z"/><path class="libp2p_svg__cls-2" d="M92.59 123.62a.31.31 0 0 1-.13 0l-10.12-5.71a.26.26 0 0 1-.14-.22v-11.38a.26.26 0 0 1 .13-.22.28.28 0 0 1 .25 0l10.13 5.71a.26.26 0 0 1 .13.22v11.35a.25.25 0 0 1-.13.22.24.24 0 0 1-.12.03zm-9.89-6.1l9.64 5.48v-10.83l-9.64-5.43z"/><path class="libp2p_svg__cls-16" d="M102.72 106.38l-10.05 5.59-.08.05v11.36l10.13-5.65v-11.35z"/><path class="libp2p_svg__cls-2" d="M92.59 123.63a.27.27 0 0 1-.15 0 .28.28 0 0 1-.1-.21V112a.24.24 0 0 1 .14-.22h.07l10-5.6a.25.25 0 0 1 .37.22v11.35a.25.25 0 0 1-.13.22l-10.13 5.64a.19.19 0 0 1-.07.02zm.25-11.46V123l9.63-5.36V106.8z"/><path class="libp2p_svg__cls-17" d="M62.19 106.24l.09-.05 10.04-5.59-10.13-5.71-10.13 5.64 10.13 5.71z"/><path class="libp2p_svg__cls-2" d="M62.19 106.49a.27.27 0 0 1-.12 0l-10.14-5.71a.27.27 0 0 1-.12-.22.26.26 0 0 1 .13-.22l10.13-5.64a.25.25 0 0 1 .24 0l10.13 5.71a.25.25 0 0 1 .13.22.23.23 0 0 1-.13.21l-10.13 5.65a.24.24 0 0 1-.12 0zm-9.62-6l9.62 5.51 9.62-5.35-9.62-5.43z"/><path class="libp2p_svg__cls-17" d="M62.19 117.59v-11.35l-10.13-5.71v11.36l10.13 5.7z"/><path class="libp2p_svg__cls-2" d="M62.19 117.84a.24.24 0 0 1-.12 0l-10.13-5.74a.29.29 0 0 1-.13-.22v-11.35a.25.25 0 0 1 .12-.22.28.28 0 0 1 .25 0L62.31 106a.26.26 0 0 1 .13.22v11.35a.26.26 0 0 1-.12.22.31.31 0 0 1-.13.05zm-9.88-6.1l9.63 5.43v-10.78L52.31 101z"/><path class="libp2p_svg__cls-17" d="M72.32 100.6l-10.04 5.59-.09.05v11.36l10.13-5.65V100.6z"/><path class="libp2p_svg__cls-2" d="M62.19 117.85a.22.22 0 0 1-.15-.06.25.25 0 0 1-.1-.2v-11.35a.26.26 0 0 1 .07-.17h.06l10.13-5.64a.28.28 0 0 1 .25 0 .25.25 0 0 1 .12.22V112a.25.25 0 0 1-.13.22l-10.13 5.64a.17.17 0 0 1-.12-.01zm.25-11.46v10.78l9.63-5.36V101z"/><path class="libp2p_svg__cls-17" d="M72.32 111.95h.01l.08-.05 10.04-5.59-10.13-5.71-10.13 5.64 10.13 5.71z"/><path class="libp2p_svg__cls-2" d="M72.32 112.2a.22.22 0 0 1-.13 0l-10.12-5.7a.25.25 0 0 1 0-.44l10.13-5.64a.28.28 0 0 1 .25 0l10.13 5.71a.26.26 0 0 1 .12.22.24.24 0 0 1-.12.21l-10.13 5.65a.28.28 0 0 1-.13-.01zm-9.62-6l9.63 5.43 9.61-5.36-9.62-5.43z"/><path class="libp2p_svg__cls-17" d="M72.32 123.31v-11.36l-10.13-5.71v11.35l.01.01 10.12 5.71z"/><path class="libp2p_svg__cls-2" d="M72.32 123.55a.27.27 0 0 1-.12 0l-10.13-5.71a.21.21 0 0 1-.13-.22v-11.38a.25.25 0 0 1 .37-.22l10.14 5.71a.27.27 0 0 1 .12.22v11.36a.24.24 0 0 1-.12.21.28.28 0 0 1-.13.03zm-9.88-6.1l9.63 5.43V112.1l-9.63-5.43z"/><path class="libp2p_svg__cls-17" d="M82.46 106.31l-10.05 5.59-.09.05v11.36h.01l10.13-5.65v-11.35z"/><path class="libp2p_svg__cls-2" d="M72.33 123.56h-.12a.26.26 0 0 1-.14-.23V112a.26.26 0 0 1 .13-.22h.09l10-5.6a.28.28 0 0 1 .25 0 .26.26 0 0 1 .13.22v11.35a.25.25 0 0 1-.13.22l-10.13 5.64a.19.19 0 0 1-.08-.05zm.24-11.46v10.78l9.64-5.36v-10.79z"/><path class="libp2p_svg__cls-16" d="M82.46 117.66l.08-.04 10.05-5.6-10.13-5.71-10.13 5.64 10.13 5.71z"/><path class="libp2p_svg__cls-2" d="M82.46 117.91a.31.31 0 0 1-.13 0l-10.13-5.74a.25.25 0 0 1-.13-.22.26.26 0 0 1 .13-.22l10.13-5.64a.28.28 0 0 1 .25 0l10.13 5.71a.25.25 0 0 1 0 .44l-10.13 5.64a.27.27 0 0 1-.12.03zm-9.62-6l9.62 5.43 9.62-5.34-9.62-5.42z"/><path class="libp2p_svg__cls-16" d="M82.46 129.02v-11.36l-10.14-5.71v11.36h.01l10.13 5.71z"/><path class="libp2p_svg__cls-2" d="M82.46 129.27a.2.2 0 0 1-.13 0l-10.12-5.7a.2.2 0 0 1-.14-.22V112a.23.23 0 0 1 .13-.21.23.23 0 0 1 .25 0l10.13 5.71a.23.23 0 0 1 .13.21V129a.23.23 0 0 1-.13.21.19.19 0 0 1-.12.06zm-9.89-6.1l9.64 5.42v-10.78l-9.64-5.43z"/><path class="libp2p_svg__cls-16" d="M92.59 112.02l-10.05 5.6-.08.04v11.36l10.13-5.64v-11.36z"/><path class="libp2p_svg__cls-2" d="M82.46 129.27a.2.2 0 0 1-.11 0 .24.24 0 0 1-.14-.22v-11.39a.22.22 0 0 1 .07-.17h.14l10-5.6a.25.25 0 0 1 .25 0 .24.24 0 0 1 .12.21v11.35a.24.24 0 0 1-.13.22l-10.13 5.65zm.25-11.46v10.78l9.63-5.36v-10.78z"/><path class="libp2p_svg__cls-6" d="M82.46 82.5l.08-.05 10.05-5.59-10.13-5.72-10.13 5.64 10.13 5.72z"/><path class="libp2p_svg__cls-7" d="M82.45 93.85l.01-11.35-10.13-5.72-.01 11.36h.01l10.12 5.71z"/><path class="libp2p_svg__cls-8" d="M92.59 76.86l-10.05 5.59-.08.05-.01 11.35 10.14-5.63V76.86z"/><path class="libp2p_svg__cls-18" d="M92.59 88.21l.08-.04 10.05-5.6-10.13-5.71-10.13 5.64 10.13 5.71z"/><path class="libp2p_svg__cls-19" d="M92.58 99.57l.01-11.36-10.13-5.71-.01 11.35h.01l10.12 5.72z"/><path class="libp2p_svg__cls-20" d="M102.72 82.58l-10.05 5.59-.08.04-.01 11.36h.01l10.13-5.64V82.58z"/><path class="libp2p_svg__cls-21" d="M102.72 93.93l.09-.05 10.04-5.59-10.13-5.71-10.13 5.63 10.13 5.72z"/><path class="libp2p_svg__cls-2" d="M102.72 94.18h-.12l-10.13-5.75a.25.25 0 0 1-.13-.22.23.23 0 0 1 .13-.21l10.13-5.64a.23.23 0 0 1 .25 0L113 88.07a.27.27 0 0 1 .12.22.26.26 0 0 1-.13.22l-10.13 5.64a.27.27 0 0 1-.14.03zm-9.62-6l9.62 5.42 9.62-5.35-9.62-5.43z"/><path class="libp2p_svg__cls-21" d="M102.71 105.28h.01V93.93l-10.13-5.71-.01 11.35h.01l10.12 5.71z"/><path class="libp2p_svg__cls-2" d="M102.71 105.53a.27.27 0 0 1-.12 0l-10.12-5.74a.27.27 0 0 1-.14-.22V88.21a.26.26 0 0 1 .12-.21.23.23 0 0 1 .25 0l10.13 5.71a.26.26 0 0 1 .13.22v11.35a.25.25 0 0 1-.12.22.28.28 0 0 1-.13.03zm-9.88-6.11l9.63 5.43V94.08l-9.63-5.44z"/><path class="libp2p_svg__cls-21" d="M112.85 88.29l-10.04 5.59-.09.05-.01 11.35h.01l10.13-5.63v-.01l.01-11.35h-.01z"/><path class="libp2p_svg__cls-2" d="M102.72 105.53a.2.2 0 0 1-.15 0 .23.23 0 0 1-.11-.2v-11.4a.29.29 0 0 1 .07-.18h.14l10-5.59a.25.25 0 0 1 .25 0 .22.22 0 0 1 .12.21v11.27a.25.25 0 0 1-.13.22l-10.13 5.64a.27.27 0 0 1-.06.03zm.28-11.45v10.78l9.64-5.36V88.72z"/><path class="libp2p_svg__cls-13" d="M72.32 88.14h.01l.08-.05 10.05-5.59-10.13-5.72-10.14 5.64 10.13 5.72z"/><path class="libp2p_svg__cls-14" d="M72.32 99.49V88.14l-10.13-5.72v11.36l10.13 5.71z"/><path class="libp2p_svg__cls-15" d="M82.46 82.5l-10.05 5.59-.09.05v11.35l10.13-5.64.01-11.35z"/><path class="libp2p_svg__cls-22" d="M82.46 93.85l.08-.04 10.05-5.6-10.13-5.71-10.13 5.64 10.12 5.71h.01z"/><path class="libp2p_svg__cls-23" d="M82.45 105.21v-.01.01-11.36l-10.13-5.71v11.35l10.13 5.72z"/><path class="libp2p_svg__cls-24" d="M92.59 88.21l-10.05 5.6-.08.04h-.01v11.36l10.14-5.64V88.21z"/><path class="libp2p_svg__cls-21" d="M92.59 99.57l.08-.05 10.05-5.59-10.13-5.72-10.13 5.64 10.13 5.72z"/><path class="libp2p_svg__cls-2" d="M92.59 99.82a.23.23 0 0 1-.14 0l-10.12-5.75a.26.26 0 0 1 0-.44L92.47 88a.21.21 0 0 1 .24 0l10.13 5.71a.25.25 0 0 1 .13.22.26.26 0 0 1-.13.22l-10.13 5.64a.27.27 0 0 1-.12.03zm-9.62-6l9.62 5.43 9.62-5.35-9.62-5.4z"/><path class="libp2p_svg__cls-21" d="M92.58 110.92l.01-11.35-10.14-5.72v11.36l10.13 5.71z"/><path class="libp2p_svg__cls-2" d="M92.58 111.17a.27.27 0 0 1-.12 0l-10.13-5.71a.26.26 0 0 1-.13-.22V93.85a.23.23 0 0 1 .13-.21.23.23 0 0 1 .25 0l10.13 5.71a.26.26 0 0 1 .13.22v11.35a.27.27 0 0 1-.12.22.31.31 0 0 1-.14.03zm-9.88-6.11l9.63 5.43V99.71l-9.63-5.43z"/><path class="libp2p_svg__cls-21" d="M102.72 93.93l-10.05 5.59-.08.05-.01 11.35 10.14-5.64V93.93z"/><path class="libp2p_svg__cls-2" d="M92.58 111.17h-.11a.27.27 0 0 1-.14-.23V99.57a.25.25 0 0 1 .12-.22h.09l10-5.59a.25.25 0 0 1 .37.22v11.35a.25.25 0 0 1-.15.23l-10.06 5.58a.21.21 0 0 1-.12.03zm.26-11.46v10.79l9.64-5.36V94.35z"/><path class="libp2p_svg__cls-21" d="M62.19 93.78l.09-.05 10.04-5.59-10.13-5.72-10.13 5.64 10.13 5.72z"/><path class="libp2p_svg__cls-2" d="M62.19 94a.19.19 0 0 1-.12 0l-10.13-5.72a.25.25 0 0 1 0-.44l10.13-5.64a.28.28 0 0 1 .25 0l10.13 5.72a.26.26 0 0 1 .12.22.23.23 0 0 1-.13.21L62.31 94a.27.27 0 0 1-.12 0zm-9.62-6l9.62 5.43 9.62-5.36-9.62-5.42z"/><path class="libp2p_svg__cls-21" d="M62.18 105.13l.01-11.35-10.13-5.72-.01 11.36h.01l10.12 5.71z"/><path class="libp2p_svg__cls-2" d="M62.18 105.38a.27.27 0 0 1-.12 0l-10.12-5.74a.27.27 0 0 1-.14-.22V88.06a.25.25 0 0 1 .15-.23.26.26 0 0 1 .23 0l10.12 5.71a.25.25 0 0 1 .13.22v11.35a.25.25 0 0 1-.12.22.28.28 0 0 1-.13.05zm-9.88-6.11l9.63 5.43V93.92l-9.63-5.43z"/><path class="libp2p_svg__cls-21" d="M72.33 88.14l-10.05 5.59-.09.05-.01 11.35h.01l10.13-5.64.01-11.35z"/><path class="libp2p_svg__cls-2" d="M62.19 105.38a.27.27 0 0 1-.26-.25V93.78a.29.29 0 0 1 .07-.18h.15l10-5.59a.28.28 0 0 1 .25 0 .25.25 0 0 1 .12.22v11.26a.25.25 0 0 1-.13.22l-10.13 5.64a.27.27 0 0 1-.07.03zm.25-11.46v10.79l9.64-5.36V88.56z"/><path class="libp2p_svg__cls-12" d="M72.32 99.49l.09-.05 10.04-5.59-10.12-5.71-10.14 5.64 10.13 5.71z"/><path class="libp2p_svg__cls-2" d="M72.32 99.74h-.12L62.07 94a.23.23 0 0 1-.13-.21.24.24 0 0 1 .13-.22l10.13-5.65a.28.28 0 0 1 .25 0l10.13 5.71a.26.26 0 0 1 0 .44l-10.14 5.64a.24.24 0 0 1-.12.03zm-9.62-6l9.62 5.43 9.62-5.36-9.62-5.43z"/><path class="libp2p_svg__cls-12" d="M72.32 110.84V99.49l-10.13-5.71v11.35l10.13 5.71z"/><path class="libp2p_svg__cls-2" d="M72.32 111.09a.28.28 0 0 1-.13 0l-10.12-5.71a.3.3 0 0 1-.13-.22V93.78a.27.27 0 0 1 .12-.22.25.25 0 0 1 .25 0l10.13 5.71a.26.26 0 0 1 .13.22v11.35a.25.25 0 0 1-.13.22.27.27 0 0 1-.12.03zM62.44 105l9.63 5.43V99.64l-9.63-5.44z"/><path class="libp2p_svg__cls-12" d="M82.46 93.85l-10.05 5.59-.09.05v11.35l10.13-5.63.01-11.36z"/><path class="libp2p_svg__cls-2" d="M72.32 111.1a.27.27 0 0 1-.15 0 .28.28 0 0 1-.1-.21v-11.4a.31.31 0 0 1 .07-.18h.15l10-5.59a.23.23 0 0 1 .24 0 .23.23 0 0 1 .13.21v11.36a.26.26 0 0 1-.13.22l-10.13 5.63a.19.19 0 0 1-.08-.04zm.25-11.46v10.78l9.63-5.36V94.28z"/><path class="libp2p_svg__cls-25" d="M82.45 105.21l.09-.05 10.04-5.59-10.12-5.72-10.14 5.64 10.13 5.72z"/><path class="libp2p_svg__cls-2" d="M82.45 105.46h-.12L72.2 99.71a.25.25 0 0 1-.13-.22.26.26 0 0 1 .13-.22l10.14-5.64a.25.25 0 0 1 .24 0l10.13 5.72a.24.24 0 0 1 .12.22.27.27 0 0 1-.12.22l-10.14 5.64a.21.21 0 0 1-.12.03zm-9.62-6l9.62 5.43 9.62-5.35-9.61-5.43z"/><path class="libp2p_svg__cls-25" d="M82.45 116.56v-11.35l-10.13-5.72v11.36l10.13 5.71z"/><path class="libp2p_svg__cls-2" d="M82.45 116.81a.28.28 0 0 1-.13 0l-10.12-5.74a.21.21 0 0 1-.13-.22V99.49a.24.24 0 0 1 .12-.21.25.25 0 0 1 .25 0L82.57 105a.25.25 0 0 1 .13.22v11.35a.26.26 0 0 1-.13.22.27.27 0 0 1-.12.02zm-9.88-6.11l9.63 5.43v-10.78l-9.63-5.43z"/><path class="libp2p_svg__cls-25" d="M92.59 99.57l-10.05 5.59-.09.05v11.35l10.13-5.64.01-11.35z"/><path class="libp2p_svg__cls-2" d="M82.45 116.81h-.11a.25.25 0 0 1-.14-.23v-11.37a.27.27 0 0 1 .14-.23h.08l10-5.59a.25.25 0 0 1 .24 0 .26.26 0 0 1 .13.22v11.35a.25.25 0 0 1-.13.22l-10.13 5.64a.27.27 0 0 1-.08-.01zm.25-11.46v10.79l9.63-5.36V100z"/><path class="libp2p_svg__cls-26" d="M82.45 70.04l.09-.04 10.04-5.6-10.13-5.71-10.13 5.64 10.13 5.71z"/><path class="libp2p_svg__cls-2" d="M82.45 70.29h-.11L72.2 64.55a.25.25 0 0 1 0-.44l10.13-5.64a.26.26 0 0 1 .24 0l10.14 5.71a.26.26 0 0 1 0 .44l-10.13 5.64a.28.28 0 0 1-.13.03zm-9.62-6l9.62 5.43 9.62-5.36L82.45 59z"/><path class="libp2p_svg__cls-26" d="M82.45 81.4v-.01.01-11.36l-10.13-5.71v11.36l10.13 5.71z"/><path class="libp2p_svg__cls-2" d="M82.45 81.65a.19.19 0 0 1-.12 0L72.2 75.91a.28.28 0 0 1-.13-.23V64.33a.22.22 0 0 1 .12-.21.25.25 0 0 1 .25 0l10.13 5.72a.23.23 0 0 1 .13.21V81.4a.26.26 0 0 1-.12.21.33.33 0 0 1-.13.04zm-9.88-6.11L82.2 81V70.19l-9.63-5.43z"/><path class="libp2p_svg__cls-26" d="M92.58 64.4L82.54 70l-.09.04V81.4l10.14-5.65V64.4h-.01z"/><path class="libp2p_svg__cls-2" d="M82.45 81.65h-.11a.26.26 0 0 1-.14-.22V70a.23.23 0 0 1 .08-.17.12.12 0 0 1 0-.05h.09l10-5.6a.28.28 0 0 1 .25 0 .25.25 0 0 1 .12.22v11.35a.25.25 0 0 1-.13.22l-10.03 5.65a.28.28 0 0 1-.13.03zm.25-11.46V81l9.64-5.36V64.82z"/><path class="libp2p_svg__cls-17" d="M92.59 75.75l.08-.04 10.05-5.6-10.13-5.71-10.14 5.64 10.14 5.71z"/><path class="libp2p_svg__cls-2" d="M92.59 76a.23.23 0 0 1-.14 0l-10.12-5.7a.25.25 0 0 1 0-.44l10.13-5.64a.27.27 0 0 1 .26 0l10.12 5.7a.25.25 0 0 1 0 .44L92.71 76a.27.27 0 0 1-.12 0zM83 70l9.62 5.43 9.61-5.36-9.61-5.43z"/><path class="libp2p_svg__cls-17" d="M92.59 87.11V75.75l-10.14-5.71v11.35l.01.01 10.13 5.71z"/><path class="libp2p_svg__cls-2" d="M92.59 87.36a.2.2 0 0 1-.13 0l-10.13-5.7a.36.36 0 0 1-.13-.23V70a.23.23 0 0 1 .13-.21.25.25 0 0 1 .25 0l10.13 5.72a.23.23 0 0 1 .13.21v11.39a.24.24 0 0 1-.13.21.28.28 0 0 1-.12.04zm-9.89-6.11l9.64 5.43V75.9l-9.64-5.43z"/><path class="libp2p_svg__cls-17" d="M102.72 70.11l-10.05 5.6-.08.04v11.36l10.13-5.64V70.11z"/><path class="libp2p_svg__cls-2" d="M92.59 87.36a.2.2 0 0 1-.11 0 .24.24 0 0 1-.14-.22V75.75a.22.22 0 0 1 .12-.21l10.14-5.65a.25.25 0 0 1 .37.22v11.35a.25.25 0 0 1-.13.22l-10.13 5.65a.27.27 0 0 1-.12.03zm.25-11.46v10.78l9.63-5.36V70.53z"/><path class="libp2p_svg__cls-21" d="M102.72 81.47l.09-.05 10.04-5.6-10.13-5.71-10.13 5.64 10.13 5.71v.01z"/><path class="libp2p_svg__cls-2" d="M102.72 81.71h-.12L92.46 76a.26.26 0 0 1-.12-.22.24.24 0 0 1 .12-.21l10.14-5.65a.25.25 0 0 1 .24 0L113 75.6a.25.25 0 0 1 0 .44l-10.13 5.64a.27.27 0 0 1-.15.03zm-9.62-6l9.62 5.43 9.62-5.36-9.62-5.42z"/><path class="libp2p_svg__cls-21" d="M102.72 92.82V81.47l-10.13-5.72v11.36l10.13 5.71z"/><path class="libp2p_svg__cls-2" d="M102.72 93.07a.24.24 0 0 1-.12 0l-10.13-5.74a.3.3 0 0 1-.13-.22V75.75a.24.24 0 0 1 .12-.21.23.23 0 0 1 .25 0l10.13 5.71a.25.25 0 0 1 .13.22v11.35a.24.24 0 0 1-.12.21.22.22 0 0 1-.13.04zM92.84 87l9.63 5.43V81.61l-9.63-5.43z"/><path class="libp2p_svg__cls-21" d="M112.85 75.82l-10.04 5.6-.09.05v11.35l10.13-5.64V75.82z"/><path class="libp2p_svg__cls-2" d="M102.72 93.07a.3.3 0 0 1-.15 0 .26.26 0 0 1-.1-.2v-11.4a.29.29 0 0 1 .07-.18h.14l10-5.6a.25.25 0 0 1 .25 0 .22.22 0 0 1 .12.21v11.28a.27.27 0 0 1-.12.22L102.84 93a.24.24 0 0 1-.12.07zm.28-11.46V92.4l9.6-5.4V76.25z"/><path class="libp2p_svg__cls-26" d="M72.32 75.69l.09-.05 10.04-5.6-10.13-5.71-10.13 5.64 10.13 5.71v.01z"/><path class="libp2p_svg__cls-2" d="M72.32 75.94h-.12l-10.13-5.75a.25.25 0 0 1-.13-.22.26.26 0 0 1 .13-.22l10.13-5.64a.25.25 0 0 1 .24 0l10.13 5.71a.25.25 0 0 1 0 .44L72.44 75.9a.25.25 0 0 1-.12.04zM62.7 70l9.62 5.43L81.94 70l-9.62-5.42z"/><path class="libp2p_svg__cls-26" d="M72.32 87.04V75.69l-10.13-5.72v11.36l10.13 5.71z"/><path class="libp2p_svg__cls-2" d="M72.32 87.29a.27.27 0 0 1-.12 0l-10.13-5.74a.26.26 0 0 1-.13-.22V70a.24.24 0 0 1 .12-.21.23.23 0 0 1 .25 0l10.13 5.71a.25.25 0 0 1 .13.22V87a.24.24 0 0 1-.12.21.22.22 0 0 1-.13.08zm-9.88-6.11l9.63 5.43V75.83l-9.63-5.43z"/><path class="libp2p_svg__cls-26" d="M82.45 70.04l-10.04 5.6-.09.05v11.35l10.13-5.64V70.04z"/><path class="libp2p_svg__cls-2" d="M72.32 87.29a.26.26 0 0 1-.21-.25V75.69a.24.24 0 0 1 .14-.23l10.12-5.64a.25.25 0 0 1 .25 0 .22.22 0 0 1 .12.21V81.4a.27.27 0 0 1-.12.22l-10.18 5.64a.24.24 0 0 1-.12.03zm.25-11.46v10.79l9.63-5.37V70.47z"/><path class="libp2p_svg__cls-26" d="M82.46 81.39l.08-.04 10.05-5.6-10.14-5.71-10.13 5.64 10.13 5.71h.01z"/><path class="libp2p_svg__cls-2" d="M82.46 81.65a.27.27 0 0 1-.12 0L72.2 75.9a.25.25 0 0 1-.13-.22.23.23 0 0 1 .13-.21l10.13-5.65a.28.28 0 0 1 .25 0l10.13 5.71a.26.26 0 0 1 .13.22.25.25 0 0 1-.13.22l-10.13 5.64a.28.28 0 0 1-.12.04zm-9.63-6l9.63 5.42 9.61-5.36-9.62-5.42z"/><path class="libp2p_svg__cls-26" d="M82.45 92.75V81.4l-10.13-5.71v11.35h.01l10.12 5.71z"/><path class="libp2p_svg__cls-2" d="M82.45 93a.27.27 0 0 1-.12 0L72.2 87.26a.26.26 0 0 1-.13-.22V75.68a.26.26 0 0 1 .12-.21.23.23 0 0 1 .25 0l10.14 5.71a.24.24 0 0 1 .12.22v11.35a.22.22 0 0 1-.12.21.2.2 0 0 1-.13.04zm-9.88-6.11l9.63 5.43V81.54l-9.63-5.43z"/><path class="libp2p_svg__cls-26" d="M92.59 75.75l-10.05 5.6-.08.04-.01.01v11.35h.01l10.13-5.64V75.75z"/><path class="libp2p_svg__cls-2" d="M82.46 93a.27.27 0 0 1-.26-.25V81.4a.25.25 0 0 1 .13-.22l10.14-5.65a.24.24 0 0 1 .29 0 .26.26 0 0 1 .07.17v11.41a.26.26 0 0 1-.13.22L82.58 93a.27.27 0 0 1-.12 0zm.25-11.46v10.79L92.34 87V76.18z"/><path class="libp2p_svg__cls-17" d="M92.59 87.11l.08-.05 10.02-5.64-10.16-5.67-10.1 5.69 10.16 5.67z"/><path class="libp2p_svg__cls-2" d="M92.59 87.36h-.12l-10.16-5.7a.25.25 0 0 1-.13-.22.24.24 0 0 1 .12-.21l10.11-5.69a.21.21 0 0 1 .24 0l10.16 5.66a.25.25 0 0 1 .13.22.23.23 0 0 1-.13.21l-10.1 5.7a.27.27 0 0 1-.12.03zm-9.65-5.92l9.65 5.38 9.59-5.4L92.53 76z"/><path class="libp2p_svg__cls-17" d="M92.64 98.46l-.05-11.35-10.16-5.67.05 11.36h.01l10.15 5.66z"/><path class="libp2p_svg__cls-2" d="M92.64 98.71a.27.27 0 0 1-.12 0L82.37 93a.27.27 0 0 1-.14-.22V81.43a.24.24 0 0 1 .12-.22.23.23 0 0 1 .25 0l10.16 5.66a.25.25 0 0 1 .13.22l.06 11.35a.26.26 0 0 1-.13.22.28.28 0 0 1-.18.05zm-9.91-6.06L92.39 98V87.23l-9.66-5.39z"/><path class="libp2p_svg__cls-17" d="M102.69 81.42l-10.02 5.64-.08.05.05 11.35h.01l10.1-5.69-.06-11.35z"/><path class="libp2p_svg__cls-2" d="M92.65 98.71h-.11a.26.26 0 0 1-.15-.23V87.13a.25.25 0 0 1 .14-.23h.07l10-5.64a.25.25 0 0 1 .37.22l.03 11.29a.25.25 0 0 1-.13.22l-10.1 5.69a.27.27 0 0 1-.12.03zm.19-11.46v10.79l9.61-5.41-.06-10.79z"/><path class="libp2p_svg__cls-21" d="M62.19 81.33l.09-.05 10.04-5.6-10.13-5.71-10.13 5.65 10.13 5.71z"/><path class="libp2p_svg__cls-2" d="M62.19 81.58a.27.27 0 0 1-.12 0l-10.14-5.75a.24.24 0 0 1-.12-.21.24.24 0 0 1 .13-.22l10.13-5.65a.23.23 0 0 1 .24 0l10.13 5.71a.23.23 0 0 1 .13.21.25.25 0 0 1-.13.22l-10.13 5.66a.27.27 0 0 1-.12.03zm-9.62-6L62.19 81l9.62-5.36-9.62-5.42z"/><path class="libp2p_svg__cls-21" d="M62.19 92.68V81.33l-10.13-5.71v11.35l10.13 5.71z"/><path class="libp2p_svg__cls-2" d="M62.19 92.93a.24.24 0 0 1-.12 0l-10.13-5.74a.3.3 0 0 1-.13-.22V75.62a.25.25 0 0 1 .12-.22.28.28 0 0 1 .25 0l10.13 5.71a.26.26 0 0 1 .13.22v11.35a.27.27 0 0 1-.12.22.31.31 0 0 1-.13.03zm-9.88-6.1l9.63 5.42V81.47L52.31 76z"/><path class="libp2p_svg__cls-21" d="M72.32 75.69l-10.04 5.59-.09.05v11.35l10.13-5.64V75.69z"/><path class="libp2p_svg__cls-2" d="M62.19 92.93h-.11a.27.27 0 0 1-.14-.23V81.33a.29.29 0 0 1 .07-.18h.15l10-5.59a.23.23 0 0 1 .25 0 .24.24 0 0 1 .12.21V87a.26.26 0 0 1-.13.22L62.31 92.9a.24.24 0 0 1-.12.03zm.25-11.45v10.78l9.63-5.37V76.11z"/><path class="libp2p_svg__cls-12" d="M72.32 87.04h.01l.08-.05 10.04-5.6-10.13-5.71-10.13 5.65 10.13 5.71z"/><path class="libp2p_svg__cls-2" d="M72.32 87.29a.27.27 0 0 1-.12 0l-10.13-5.75a.23.23 0 0 1-.13-.21.25.25 0 0 1 .13-.22l10.13-5.64a.23.23 0 0 1 .25 0l10.13 5.71a.24.24 0 0 1 .12.21.25.25 0 0 1-.12.22l-10.13 5.65a.28.28 0 0 1-.13.03zm-9.62-6l9.62 5.42 9.62-5.36L72.32 76z"/><path class="libp2p_svg__cls-12" d="M72.32 98.39V87.04l-10.13-5.71v11.35h.01l10.12 5.71z"/><path class="libp2p_svg__cls-2" d="M72.32 98.64a.27.27 0 0 1-.12 0L62.07 92.9a.25.25 0 0 1-.13-.22V81.33a.25.25 0 0 1 .37-.22l10.14 5.71a.27.27 0 0 1 .12.22v11.35a.25.25 0 0 1-.12.22.28.28 0 0 1-.13.03zm-9.88-6.11L72.07 98V87.19l-9.63-5.43z"/><path class="libp2p_svg__cls-12" d="M82.46 81.39l-10.05 5.6-.09.05v11.35h.01l10.13-5.64V81.39z"/><path class="libp2p_svg__cls-2" d="M72.33 98.64a.26.26 0 0 1-.21-.25V87a.25.25 0 0 1 .13-.22l10.13-5.64a.25.25 0 0 1 .25 0 .26.26 0 0 1 .13.22v11.39a.26.26 0 0 1-.13.22l-10.18 5.64a.27.27 0 0 1-.12.03zm.24-11.45V98l9.64-5.37V81.82z"/><path class="libp2p_svg__cls-12" d="M82.46 92.75l.08-.05 10.05-5.59-10.13-5.71-10.13 5.64 10.13 5.71z"/><path class="libp2p_svg__cls-2" d="M82.46 93a.31.31 0 0 1-.13 0L72.2 87.26a.26.26 0 0 1-.13-.22.25.25 0 0 1 .13-.22l10.13-5.64a.28.28 0 0 1 .25 0l10.13 5.71a.25.25 0 0 1 .13.22.23.23 0 0 1-.13.21L82.58 93a.27.27 0 0 1-.12 0zm-9.62-6l9.62 5.42 9.62-5.36-9.62-5.42z"/><path class="libp2p_svg__cls-12" d="M82.46 104.1V92.75l-10.14-5.71v11.35h.01l10.13 5.71z"/><path class="libp2p_svg__cls-2" d="M82.46 104.35a.28.28 0 0 1-.13 0l-10.12-5.74a.26.26 0 0 1-.14-.22V87a.26.26 0 0 1 .13-.22.28.28 0 0 1 .25 0l10.13 5.71a.26.26 0 0 1 .13.22v11.39a.26.26 0 0 1-.13.22.27.27 0 0 1-.12.03zm-9.89-6.1l9.64 5.43V92.9l-9.64-5.43z"/><path class="libp2p_svg__cls-12" d="M92.59 87.11L82.54 92.7l-.08.05v11.36l10.13-5.65V87.11z"/><path class="libp2p_svg__cls-2" d="M82.46 104.36a.2.2 0 0 1-.15-.06.25.25 0 0 1-.1-.2V92.75a.26.26 0 0 1 .13-.22l10.13-5.64a.25.25 0 0 1 .37.22v11.35a.25.25 0 0 1-.13.22l-10.13 5.64a.19.19 0 0 1-.12.04zm.25-11.46v10.78l9.63-5.36V87.53z"/><path class="libp2p_svg__cls-2" d="M82.46 129.77a.67.67 0 0 1-.24 0l-.13-.06-30.4-17.13-.08-.06a.74.74 0 0 1-.3-.6v-11.39a.78.78 0 0 1 .24-.56.77.77 0 0 1-.25-.56V88.06a.76.76 0 0 1 .23-.54.75.75 0 0 1-.23-.55V75.62a.75.75 0 0 1 .38-.66L82.09 58a.79.79 0 0 1 .73 0l30.4 17.14h.08a.75.75 0 0 1 .3.6v11.44a.76.76 0 0 1-.24.55.75.75 0 0 1 .22.53v11.38a.79.79 0 0 1-.23.55.75.75 0 0 1 .23.55v11.35a.73.73 0 0 1-.38.65l-30.4 16.93a.65.65 0 0 1-.34.1zm-29.65-18.32l29.65 16.71 29.64-16.51v-10.48l-.59-.33a.74.74 0 0 1-.38-.66.75.75 0 0 1 .38-.65l.59-.33V88.73l-.62-.35a.75.75 0 0 1-.38-.65.77.77 0 0 1 .39-.66l.6-.33V76.26L82.45 59.55 52.81 76.06v10.48l.59.33a.73.73 0 0 1 .38.65.78.78 0 0 1-.38.66l-.59.32V99l.62.34a.78.78 0 0 1 .38.66.74.74 0 0 1-.39.65l-.6.34z"/><path class="libp2p_svg__cls-6" d="M45.41 108.66l.04-.03 5.38-2.99-5.42-3.06-5.42 3.02 5.42 3.05v.01z"/><path class="libp2p_svg__cls-7" d="M45.41 114.73v-6.07l-5.42-3.06v6.07l5.42 3.06z"/><path class="libp2p_svg__cls-8" d="M50.83 105.64l-5.38 2.99-.04.03v6.07l5.42-3.02v-6.07z"/><path class="libp2p_svg__cls-9" d="M50.83 111.71l.04-.03 5.38-2.99-5.42-3.05-5.42 3.01 5.42 3.06z"/><path class="libp2p_svg__cls-10" d="M50.83 117.78v-6.07l-5.42-3.05v6.07l5.42 3.05z"/><path class="libp2p_svg__cls-11" d="M56.25 108.69l-5.38 2.99-.04.03v6.07l5.42-3.02v-6.07z"/><path class="libp2p_svg__cls-12" d="M56.25 114.76l.04-.02 5.37-2.99-5.41-3.06-5.42 3.02 5.42 3.05z"/><path class="libp2p_svg__cls-2" d="M56.23 115a.2.2 0 0 1-.11 0l-5.42-3a.27.27 0 0 1-.12-.22.26.26 0 0 1 .13-.22l5.41-3a.28.28 0 0 1 .25 0l5.42 3.06a.25.25 0 0 1 .13.22.23.23 0 0 1-.13.21l-5.37 3a.58.58 0 0 1-.19-.05zm-4.89-3.29l4.91 2.77 4.9-2.74-4.9-2.74z"/><path class="libp2p_svg__cls-12" d="M56.25 120.84v-6.08l-5.42-3.05v6.07l5.42 3.06z"/><path class="libp2p_svg__cls-2" d="M56.25 121.09a.2.2 0 0 1-.13 0l-5.41-3a.3.3 0 0 1-.13-.22v-6.07a.25.25 0 0 1 .12-.22.28.28 0 0 1 .25 0l5.42 3.06a.23.23 0 0 1 .13.21v6.08a.24.24 0 0 1-.13.21.28.28 0 0 1-.12-.05zm-5.17-3.45l4.92 2.77v-5.5l-4.92-2.77z"/><path class="libp2p_svg__cls-12" d="M61.67 111.75l-5.38 2.99-.04.02v6.08l5.42-3.02v-6.07z"/><path class="libp2p_svg__cls-2" d="M56.25 121.09h-.06a.26.26 0 0 1-.19-.24v-6.08a.23.23 0 0 1 .13-.21l5.41-3a.23.23 0 0 1 .25 0 .26.26 0 0 1 .13.22v6.07a.26.26 0 0 1-.13.22l-5.42 3a.19.19 0 0 1-.12.02zm.25-6.18v5.5l4.92-2.74v-5.5z"/><path class="libp2p_svg__cls-13" d="M39.99 111.67l.05-.02 5.37-3-5.42-3.05-5.42 3.02 5.42 3.05z"/><path class="libp2p_svg__cls-14" d="M39.99 117.74v-6.07l-5.42-3.05v6.07l5.42 3.05z"/><path class="libp2p_svg__cls-15" d="M45.41 108.65l-5.37 3-.05.02v6.08l5.42-3.02v-6.08.01-.01z"/><path class="libp2p_svg__cls-9" d="M45.41 114.73l.05-.03 5.37-2.99-5.42-3.06-5.42 3.02 5.42 3.06z"/><path class="libp2p_svg__cls-10" d="M45.41 120.8v-6.07l-5.42-3.06v6.08l5.42 3.05z"/><path class="libp2p_svg__cls-11" d="M50.83 111.71l-5.37 2.99-.05.03v6.07l5.42-3.02v-6.07z"/><path class="libp2p_svg__cls-25" d="M50.83 117.78l.05-.02 5.37-3-5.42-3.05-5.42 3.02 5.42 3.05z"/><path class="libp2p_svg__cls-2" d="M50.81 118a.15.15 0 0 1-.1 0l-5.42-3.06a.23.23 0 0 1-.13-.21.25.25 0 0 1 .13-.22l5.42-3a.26.26 0 0 1 .24 0l5.42 3.05a.26.26 0 0 1 .13.22.25.25 0 0 1-.13.22L51 118a.41.41 0 0 1-.19 0zm-4.89-3.29l4.91 2.77 4.91-2.74-4.91-2.74z"/><path class="libp2p_svg__cls-25" d="M50.83 123.85v-6.07l-5.42-3.05v6.07l5.42 3.05z"/><path class="libp2p_svg__cls-2" d="M50.83 124.1a.24.24 0 0 1-.12 0l-5.42-3a.34.34 0 0 1-.13-.22v-6.07a.25.25 0 0 1 .37-.22l5.42 3a.26.26 0 0 1 .13.22v6.07a.26.26 0 0 1-.13.22.24.24 0 0 1-.12 0zm-5.17-3.44l4.92 2.77v-5.5l-4.92-2.77z"/><path class="libp2p_svg__cls-25" d="M56.25 114.76l-5.37 3-.05.02v6.07l5.42-3.01v-6.08z"/><path class="libp2p_svg__cls-2" d="M50.83 124.1a.31.31 0 0 1-.13 0 .27.27 0 0 1-.12-.22v-6.07a.26.26 0 0 1 .13-.22l5.42-3a.23.23 0 0 1 .25 0 .26.26 0 0 1 .12.21v6.08a.23.23 0 0 1-.13.21l-5.42 3a.27.27 0 0 1-.12.01zm.25-6.17v5.5l4.92-2.74v-5.5z"/><path class="libp2p_svg__cls-26" d="M34.57 114.69l.05-.02 5.37-3-5.42-3.05-5.42 3.02 5.42 3.05z"/><path class="libp2p_svg__cls-2" d="M34.55 114.93h-.1L29 111.85a.23.23 0 0 1-.13-.21.24.24 0 0 1 .13-.22l5.42-3a.25.25 0 0 1 .24 0l5.42 3a.26.26 0 0 1 .13.22.25.25 0 0 1-.13.22l-5.37 3a.38.38 0 0 1-.16.07zm-4.89-3.29l4.91 2.76 4.91-2.73-4.91-2.77z"/><path class="libp2p_svg__cls-26" d="M34.57 120.76v-6.07l-5.42-3.05v6.07l5.42 3.05z"/><path class="libp2p_svg__cls-2" d="M34.57 121a.27.27 0 0 1-.12 0l-5.42-3a.26.26 0 0 1-.13-.22v-6.07a.26.26 0 0 1 .13-.22.23.23 0 0 1 .24 0l5.42 3a.26.26 0 0 1 .13.22v6.07a.27.27 0 0 1-.12.22.31.31 0 0 1-.13 0zm-5.17-3.45l4.92 2.77v-5.49l-4.92-2.78z"/><path class="libp2p_svg__cls-26" d="M39.99 111.67l-5.37 3-.05.02v6.07l5.42-3.01v-6.08z"/><path class="libp2p_svg__cls-2" d="M34.57 121a.22.22 0 0 1-.17-.07.25.25 0 0 1-.08-.18v-6.07a.26.26 0 0 1 .13-.22l5.42-3a.25.25 0 0 1 .25 0 .24.24 0 0 1 .12.21v6.07a.24.24 0 0 1-.13.22l-5.42 3a.24.24 0 0 1-.12.04zm.25-6.17v5.5l4.92-2.74v-5.5z"/><path class="libp2p_svg__cls-26" d="M39.99 117.74l.05-.02 5.37-3-5.42-3.05-5.42 3.02 5.42 3.05z"/><path class="libp2p_svg__cls-2" d="M40 118a.16.16 0 0 1-.1 0l-5.42-3a.25.25 0 0 1 0-.44l5.42-3a.26.26 0 0 1 .24 0l5.42 3.06a.25.25 0 0 1 .13.22.23.23 0 0 1-.13.21l-5.37 3A.53.53 0 0 1 40 118zm-4.89-3.29l4.89 2.75 4.91-2.74L40 112z"/><path class="libp2p_svg__cls-26" d="M39.99 123.82v-6.07l-5.42-3.06v6.07l5.42 3.06z"/><path class="libp2p_svg__cls-2" d="M40 124.07a.19.19 0 0 1-.12 0l-5.42-3c-.1 0-.13-.11-.13-.22v-6.07a.25.25 0 0 1 .37-.22l5.42 3.06a.23.23 0 0 1 .13.21v6.08a.24.24 0 0 1-.12.21.22.22 0 0 1-.13-.05zm-5.17-3.45l4.92 2.77v-5.5l-4.92-2.77z"/><path class="libp2p_svg__cls-26" d="M45.41 114.73l-5.37 2.99-.05.02v6.08l5.42-3.02v-6.07z"/><path class="libp2p_svg__cls-2" d="M40 124.07a.22.22 0 0 1-.13 0 .24.24 0 0 1-.12-.21v-6.08a.23.23 0 0 1 .13-.21l5.42-3a.25.25 0 0 1 .25 0 .27.27 0 0 1 .12.22v6.07a.26.26 0 0 1-.13.22l-5.42 3a.24.24 0 0 1-.12-.01zm.25-6.18v5.5l4.92-2.74v-5.5z"/><path class="libp2p_svg__cls-16" d="M45.41 120.8l.05-.03 5.37-2.99-5.42-3.05-5.42 3.02 5.42 3.05z"/><path class="libp2p_svg__cls-2" d="M45.39 121h-.1l-5.42-3a.25.25 0 0 1-.13-.22.23.23 0 0 1 .13-.21l5.42-3a.25.25 0 0 1 .24 0l5.42 3a.25.25 0 0 1 0 .44l-5.37 3a.38.38 0 0 1-.19-.01zm-4.89-3.29l4.91 2.76 4.91-2.73-4.91-2.74z"/><path class="libp2p_svg__cls-16" d="M45.41 126.87v-6.07l-5.42-3.05v6.07l5.42 3.05z"/><path class="libp2p_svg__cls-2" d="M45.41 127.12a.24.24 0 0 1-.12 0l-5.42-3a.21.21 0 0 1-.13-.22v-6.07a.26.26 0 0 1 .12-.22.23.23 0 0 1 .25 0l5.42 3a.26.26 0 0 1 .13.22v6.07a.27.27 0 0 1-.12.22.31.31 0 0 1-.13 0zm-5.17-3.44l4.92 2.76V121l-4.92-2.78z"/><path class="libp2p_svg__cls-16" d="M50.83 117.78l-5.37 2.99-.05.03v6.07l5.42-3.02v-6.07z"/><path class="libp2p_svg__cls-2" d="M45.41 127.12h-.11a.27.27 0 0 1-.14-.23v-6.09a.25.25 0 0 1 .13-.22l5.42-3a.25.25 0 0 1 .25 0 .24.24 0 0 1 .12.21v6.07a.25.25 0 0 1-.13.22l-5.42 3a.24.24 0 0 1-.12.04zm.25-6.17v5.5l4.92-2.74v-5.5z"/><path class="libp2p_svg__cls-6" d="M45.41 101.99l.05-.02 5.37-2.99-5.42-3.06-5.42 3.02 5.42 3.05z"/><path class="libp2p_svg__cls-7" d="M45.41 108.06v-6.07l-5.42-3.05v6.07l5.42 3.05z"/><path class="libp2p_svg__cls-8" d="M50.83 98.98l-5.37 2.99-.05.02v6.07l5.42-3.01v-6.07z"/><path class="libp2p_svg__cls-18" d="M50.83 105.05l.05-.03 5.37-2.99-5.42-3.05-5.42 3.01 5.42 3.06z"/><path class="libp2p_svg__cls-19" d="M50.83 111.12v-6.07l-5.42-3.06v6.07l5.42 3.06z"/><path class="libp2p_svg__cls-20" d="M56.25 102.03l-5.37 2.99-.05.03v6.07l5.42-3.01v-6.08z"/><path class="libp2p_svg__cls-25" d="M56.25 108.32l.04-.03 5.38-2.99-5.42-3.06-5.42 3.02 5.42 3.06z"/><path class="libp2p_svg__cls-2" d="M56.23 108.56a.2.2 0 0 1-.11 0l-5.41-3a.26.26 0 0 1-.13-.22.25.25 0 0 1 .13-.22l5.42-3a.21.21 0 0 1 .24 0l5.42 3a.25.25 0 0 1 0 .44l-5.37 3a.41.41 0 0 1-.19 0zm-4.89-3.3l4.91 2.74 4.9-2.73-4.9-2.77z"/><path class="libp2p_svg__cls-25" d="M56.24 114.39l.01-6.07-5.42-3.06v6.07l5.41 3.06z"/><path class="libp2p_svg__cls-2" d="M56.24 114.64a.27.27 0 0 1-.12 0l-5.41-3.06a.3.3 0 0 1-.13-.22v-6.07A.25.25 0 0 1 51 105l5.42 3.06a.25.25 0 0 1 .13.22v6.07a.22.22 0 0 1-.12.21.2.2 0 0 1-.19.08zm-5.16-3.45L56 114v-5.5l-4.92-2.77z"/><path class="libp2p_svg__cls-25" d="M61.67 105.3l-5.38 2.99-.04.03-.01 6.07h.01l5.41-3.02.01-6.07z"/><path class="libp2p_svg__cls-2" d="M56.25 114.64a.29.29 0 0 1-.18-.07.27.27 0 0 1-.08-.18v-6.07a.25.25 0 0 1 .13-.22l5.42-3a.26.26 0 0 1 .24 0 .26.26 0 0 1 .13.22v6.07a.25.25 0 0 1-.13.22l-5.42 3a.27.27 0 0 1-.11.03zm.25-6.18V114l4.93-2.73v-5.5z"/><path class="libp2p_svg__cls-13" d="M39.99 105.01l.05-.03 5.37-2.99-5.42-3.05-5.42 3.01 5.42 3.06z"/><path class="libp2p_svg__cls-14" d="M39.99 111.08v-6.07l-5.42-3.06v6.08l5.42 3.05z"/><path class="libp2p_svg__cls-15" d="M45.41 101.99l-5.37 2.99-.05.03v6.07l5.42-3.02v-6.07z"/><path class="libp2p_svg__cls-22" d="M45.41 108.06l.05-.02 5.37-2.99-5.42-3.06-5.42 3.02 5.42 3.05z"/><path class="libp2p_svg__cls-23" d="M45.41 114.14v-6.08l-5.42-3.05v6.07l5.42 3.06z"/><path class="libp2p_svg__cls-24" d="M50.83 105.05l-5.37 2.99-.05.02v6.08l5.42-3.02v-6.07z"/><path class="libp2p_svg__cls-25" d="M50.83 111.33l.04-.02 5.38-3-5.42-3.05-5.42 3.02 5.42 3.05z"/><path class="libp2p_svg__cls-2" d="M50.81 111.57a.2.2 0 0 1-.11 0l-5.41-3.06a.24.24 0 0 1-.13-.22.23.23 0 0 1 .13-.21l5.42-3a.25.25 0 0 1 .24 0l5.42 3.06a.25.25 0 0 1 .13.22.23.23 0 0 1-.13.21l-5.37 3a.41.41 0 0 1-.19 0zm-4.89-3.29l4.91 2.77 4.91-2.74-4.91-2.76z"/><path class="libp2p_svg__cls-25" d="M50.83 117.4v-6.07l-5.42-3.05v6.07l5.42 3.05z"/><path class="libp2p_svg__cls-2" d="M50.82 117.65a.27.27 0 0 1-.12 0l-5.41-3.05a.26.26 0 0 1-.13-.22v-6.07a.26.26 0 0 1 .12-.22.25.25 0 0 1 .25 0l5.42 3a.26.26 0 0 1 .13.22v6.07a.25.25 0 0 1-.12.22.28.28 0 0 1-.14.05zm-5.16-3.45l4.91 2.8v-5.5l-4.92-2.78z"/><path class="libp2p_svg__cls-25" d="M56.25 108.32l-5.38 2.99-.04.02v6.07l5.42-3.01v-6.07z"/><path class="libp2p_svg__cls-2" d="M50.83 117.65h-.06a.26.26 0 0 1-.2-.25v-6.07a.27.27 0 0 1 .12-.22l5.43-3a.26.26 0 0 1 .24 0 .26.26 0 0 1 .13.22v6.07a.26.26 0 0 1-.13.22l-5.42 3a.27.27 0 0 1-.11.03zm.25-6.17V117l4.92-2.76v-5.5z"/><path class="libp2p_svg__cls-21" d="M34.57 108.23l.05-.02 5.37-2.99-5.42-3.06-5.42 3.02 5.42 3.05z"/><path class="libp2p_svg__cls-2" d="M34.55 108.47a.16.16 0 0 1-.1 0l-5.42-3a.26.26 0 0 1-.13-.22.25.25 0 0 1 .1-.25l5.42-3a.28.28 0 0 1 .25 0l5.44 3a.25.25 0 0 1 .13.22.26.26 0 0 1-.13.22l-5.37 3a.53.53 0 0 1-.19.03zm-4.89-3.29l4.91 2.82 4.91-2.73-4.91-2.77z"/><path class="libp2p_svg__cls-21" d="M34.57 114.31v-6.08l-5.42-3.05v6.07l5.42 3.06z"/><path class="libp2p_svg__cls-2" d="M34.57 114.56a.22.22 0 0 1-.13 0l-5.41-3a.26.26 0 0 1-.13-.22v-6.07a.26.26 0 0 1 .1-.27.28.28 0 0 1 .25 0l5.44 3a.23.23 0 0 1 .13.21v6.08a.23.23 0 0 1-.13.21.28.28 0 0 1-.12.06zm-5.17-3.46l4.92 2.78v-5.5l-4.92-2.77z"/><path class="libp2p_svg__cls-21" d="M39.99 105.22l-5.37 2.99-.05.02v6.08l5.42-3.02v-6.07z"/><path class="libp2p_svg__cls-2" d="M34.57 114.56a.2.2 0 0 1-.11 0 .24.24 0 0 1-.14-.22v-6.08a.23.23 0 0 1 .13-.21l5.42-3a.25.25 0 0 1 .37.22v6.07a.26.26 0 0 1-.13.22l-5.42 3a.27.27 0 0 1-.12 0zm.25-6.18v5.5l4.92-2.74v-5.5z"/><path class="libp2p_svg__cls-12" d="M39.99 111.29l.05-.02 5.37-3-5.42-3.05-5.42 3.01 5.42 3.06z"/><path class="libp2p_svg__cls-2" d="M40 111.53h-.1l-5.42-3.06a.25.25 0 0 1-.13-.22.23.23 0 0 1 .13-.21l5.42-3a.25.25 0 0 1 .24 0l5.42 3.06a.23.23 0 0 1 .13.21.24.24 0 0 1-.13.22l-5.37 3a.38.38 0 0 1-.19 0zm-4.89-3.29L40 111l4.91-2.73L40 105.5z"/><path class="libp2p_svg__cls-12" d="M39.99 117.36v-6.07l-5.42-3.06v6.08l5.42 3.05z"/><path class="libp2p_svg__cls-2" d="M40 117.61a.28.28 0 0 1-.13 0l-5.41-3h-.06a.26.26 0 0 1-.07-.17v-6.08a.26.26 0 0 1 .12-.21.23.23 0 0 1 .25 0l5.42 3a.26.26 0 0 1 .13.22v6.07a.26.26 0 0 1-.13.22.27.27 0 0 1-.12-.05zm-5.17-3.45l4.92 2.77v-5.49l-4.92-2.78z"/><path class="libp2p_svg__cls-12" d="M45.41 108.28l-5.37 2.99-.05.02v6.07l5.42-3.01v-6.07z"/><path class="libp2p_svg__cls-2" d="M40 117.61a.24.24 0 0 1-.25-.25v-6.07a.26.26 0 0 1 .13-.22l5.42-3a.23.23 0 0 1 .25 0 .26.26 0 0 1 .12.21v6.08a.23.23 0 0 1-.13.21l-5.42 3a.27.27 0 0 1-.12.04zm.25-6.17v5.5l4.92-2.74v-5.5z"/><path class="libp2p_svg__cls-25" d="M45.41 114.35l.04-.03 5.38-2.99-5.42-3.05-5.42 3.01 5.42 3.06z"/><path class="libp2p_svg__cls-2" d="M45.39 114.59h-.1l-5.42-3.06a.25.25 0 0 1 0-.44l5.42-3a.21.21 0 0 1 .24 0l5.42 3a.26.26 0 0 1 .13.22.25.25 0 0 1-.13.22l-5.37 3a.41.41 0 0 1-.19.06zm-4.89-3.3l4.91 2.77 4.91-2.73-4.91-2.77z"/><path class="libp2p_svg__cls-25" d="M45.41 120.42v-6.07l-5.42-3.06v6.07l5.42 3.06z"/><path class="libp2p_svg__cls-2" d="M45.4 120.67a.27.27 0 0 1-.12 0l-5.41-3.06c-.1 0-.13-.11-.13-.22v-6.07a.24.24 0 0 1 .12-.21.25.25 0 0 1 .25 0l5.42 3.06a.25.25 0 0 1 .13.22v6.07a.26.26 0 0 1-.13.22.28.28 0 0 1-.13-.01zm-5.16-3.45l4.91 2.78v-5.5l-4.92-2.77z"/><path class="libp2p_svg__cls-25" d="M50.83 111.33l-5.38 2.99-.04.03v6.07l5.42-3.02v-6.07z"/><path class="libp2p_svg__cls-2" d="M45.41 120.67a.2.2 0 0 1-.11 0 .25.25 0 0 1-.15-.22v-6.07a.26.26 0 0 1 .12-.22l5.43-3a.23.23 0 0 1 .24 0 .23.23 0 0 1 .13.21v6.07a.25.25 0 0 1-.13.22l-5.42 3a.27.27 0 0 1-.11.01zm.25-6.18V120l4.93-2.74v-5.5z"/><path class="libp2p_svg__cls-16" d="M45.41 95.83l.04-.02 5.38-3-5.42-3.05-5.42 3.02 5.42 3.05z"/><path class="libp2p_svg__cls-2" d="M45.39 96.07a.2.2 0 0 1-.11 0l-5.41-3a.26.26 0 0 1-.13-.22.25.25 0 0 1 .13-.22l5.42-3a.25.25 0 0 1 .24 0L51 92.6a.23.23 0 0 1 .13.21.24.24 0 0 1-.13.19l-5.37 3a.58.58 0 0 1-.24.07zm-4.89-3.29l4.91 2.77 4.9-2.74-4.9-2.76z"/><path class="libp2p_svg__cls-26" d="M45.41 101.91v-.01.01-6.08l-5.42-3.05v6.07l5.42 3.06z"/><path class="libp2p_svg__cls-2" d="M45.41 102.15a.31.31 0 0 1-.13 0l-5.41-3.05a.26.26 0 0 1-.13-.22v-6.1a.25.25 0 0 1 .12-.22.28.28 0 0 1 .25 0l5.42 3.06a.23.23 0 0 1 .13.21v6.07a.25.25 0 0 1-.13.22.27.27 0 0 1-.12.03zm-5.17-3.45l4.92 2.78V96l-4.92-2.77z"/><path class="libp2p_svg__cls-26" d="M50.83 92.81l-5.38 3-.04.02v6.08l5.42-3.02v-6.08z"/><path class="libp2p_svg__cls-2" d="M45.41 102.16a.28.28 0 0 1-.13 0 .26.26 0 0 1-.12-.21v-6.12a.24.24 0 0 1 .12-.21l5.42-3a.25.25 0 0 1 .25 0 .24.24 0 0 1 .13.21v6.08a.23.23 0 0 1-.13.21l-5.42 3a.28.28 0 0 1-.12.04zm.25-6.16v5.5l4.92-2.74v-5.5z"/><path class="libp2p_svg__cls-17" d="M50.83 98.89l.04-.03 5.38-2.99-5.42-3.06-5.42 3.02 5.42 3.06z"/><path class="libp2p_svg__cls-2" d="M50.81 99.13a.2.2 0 0 1-.11 0l-5.41-3a.25.25 0 0 1-.13-.22.26.26 0 0 1 .13-.22l5.42-3a.21.21 0 0 1 .24 0l5.42 3.05a.25.25 0 0 1 .13.22.26.26 0 0 1-.13.22l-5.37 3a.41.41 0 0 1-.19-.05zm-4.89-3.3l4.91 2.77 4.9-2.73-4.9-2.77z"/><path class="libp2p_svg__cls-17" d="M50.83 104.96v-6.07l-5.42-3.06v6.08l5.42 3.05z"/><path class="libp2p_svg__cls-2" d="M50.83 105.21a.31.31 0 0 1-.13 0l-5.41-3.06a.25.25 0 0 1-.13-.22v-6.1a.22.22 0 0 1 .12-.21.25.25 0 0 1 .25 0L51 98.67a.25.25 0 0 1 .13.22V105a.23.23 0 0 1-.13.21.19.19 0 0 1-.17 0zm-5.17-3.45l4.92 2.77V99l-4.92-2.77z"/><path class="libp2p_svg__cls-17" d="M56.25 95.87l-5.38 2.99-.04.03v6.07l5.42-3.02v-6.07z"/><path class="libp2p_svg__cls-2" d="M50.83 105.21a.29.29 0 0 1-.18-.07.31.31 0 0 1-.07-.18v-6.07a.26.26 0 0 1 .12-.22l5.42-3a.28.28 0 0 1 .25 0 .26.26 0 0 1 .13.22v6.07a.25.25 0 0 1-.13.22l-5.42 3a.27.27 0 0 1-.12.03zm.25-6.21v5.5l4.92-2.71v-5.5z"/><path class="libp2p_svg__cls-12" d="M56.25 101.94l.04-.02 5.37-3-5.41-3.05-5.42 3.02 5.42 3.05z"/><path class="libp2p_svg__cls-2" d="M56.23 102.18h-.11L50.7 99.1a.24.24 0 0 1-.12-.21.25.25 0 0 1 .13-.22l5.41-3a.28.28 0 0 1 .25 0l5.42 3.06a.23.23 0 0 1 .13.21.25.25 0 0 1-.13.22l-5.37 3a.41.41 0 0 1-.19.02zm-4.89-3.29l4.91 2.77 4.9-2.74-4.9-2.76z"/><path class="libp2p_svg__cls-21" d="M56.25 108.01v-6.07l-5.42-3.05v6.07l5.42 3.05z"/><path class="libp2p_svg__cls-2" d="M56.25 108.26a.28.28 0 0 1-.13 0l-5.41-3a.3.3 0 0 1-.13-.22v-6.15a.25.25 0 0 1 .12-.22.25.25 0 0 1 .25 0l5.42 3a.26.26 0 0 1 .13.22V108a.26.26 0 0 1-.13.22.27.27 0 0 1-.12.04zm-5.17-3.44l4.92 2.77v-5.5l-4.92-2.78z"/><path class="libp2p_svg__cls-12" d="M61.67 98.92l-5.38 3-.04.02v6.07l5.42-3.01v-6.08z"/><path class="libp2p_svg__cls-2" d="M56.25 108.26h-.06A.26.26 0 0 1 56 108v-6.07a.26.26 0 0 1 .13-.22l5.41-3a.23.23 0 0 1 .25 0 .23.23 0 0 1 .13.21V105a.23.23 0 0 1-.13.21l-5.42 3a.27.27 0 0 1-.12.05zm.25-6.17v5.5l4.92-2.74v-5.5z"/><path class="libp2p_svg__cls-16" d="M39.99 98.81l.05-.02 5.37-2.99-5.42-3.06-5.42 3.02 5.42 3.05z"/><path class="libp2p_svg__cls-2" d="M40 99.05a.16.16 0 0 1-.1 0l-5.42-3a.26.26 0 0 1-.13-.22.25.25 0 0 1 .13-.22l5.42-3a.25.25 0 0 1 .24 0l5.42 3.06a.25.25 0 0 1 .13.22.23.23 0 0 1-.13.21l-5.37 3a.53.53 0 0 1-.19-.05zm-4.89-3.29L40 98.53l4.91-2.74L40 93z"/><path class="libp2p_svg__cls-26" d="M39.99 104.89v-6.08l-5.42-3.05v6.07l5.42 3.06z"/><path class="libp2p_svg__cls-2" d="M40 105.14a.25.25 0 0 1-.12 0l-5.42-3a.34.34 0 0 1-.13-.22v-6.16a.25.25 0 0 1 .37-.22l5.42 3.06a.23.23 0 0 1 .13.21v6.08a.28.28 0 0 1-.25.25zm-5.17-3.45l4.92 2.77V99l-4.92-2.77z"/><path class="libp2p_svg__cls-26" d="M45.41 95.8l-5.37 2.99-.05.02v6.08l5.42-3.02V95.8z"/><path class="libp2p_svg__cls-2" d="M40 105.14h-.06a.26.26 0 0 1-.19-.24v-6.09a.26.26 0 0 1 .13-.22l5.42-3a.25.25 0 0 1 .25 0 .27.27 0 0 1 .12.22v6.07a.26.26 0 0 1-.13.22l-5.42 3a.19.19 0 0 1-.12.04zm.24-6.14v5.5l4.92-2.74v-5.5z"/><path class="libp2p_svg__cls-26" d="M45.41 101.87l.05-.03 5.37-2.99-5.42-3.05-5.42 3.01 5.42 3.06z"/><path class="libp2p_svg__cls-2" d="M45.39 102.11h-.1L39.87 99a.25.25 0 0 1-.13-.22.23.23 0 0 1 .13-.21l5.42-3a.25.25 0 0 1 .24 0l5.42 3a.25.25 0 0 1 0 .44l-5.37 3a.38.38 0 0 1-.19.1zm-4.89-3.3l4.91 2.77 4.91-2.73-4.91-2.77z"/><path class="libp2p_svg__cls-26" d="M45.41 107.94v-6.07l-5.42-3.06v6.08l5.42 3.05z"/><path class="libp2p_svg__cls-2" d="M45.41 108.19a.24.24 0 0 1-.12 0l-5.42-3.06a.23.23 0 0 1-.13-.21v-6.11a.26.26 0 0 1 .12-.21.23.23 0 0 1 .25 0l5.42 3.05a.26.26 0 0 1 .13.22v6.07a.27.27 0 0 1-.12.22.31.31 0 0 1-.13.03zm-5.17-3.45l4.92 2.77V102l-4.92-2.77z"/><path class="libp2p_svg__cls-26" d="M50.83 98.85l-5.37 2.99-.05.03v6.07l5.42-3.02v-6.07z"/><path class="libp2p_svg__cls-2" d="M45.41 108.19a.26.26 0 0 1-.18-.07.29.29 0 0 1-.07-.18v-6.07a.27.27 0 0 1 .12-.22l5.43-3a.25.25 0 0 1 .37.22v6.07a.25.25 0 0 1-.13.22l-5.42 3a.27.27 0 0 1-.12.03zm.25-6.18v5.51l4.92-2.74v-5.5z"/><path class="libp2p_svg__cls-17" d="M50.83 104.96l.05-.03 5.35-3.01-5.43-3.03-5.4 3.04 5.43 3.03z"/><path class="libp2p_svg__cls-2" d="M50.81 105.2h-.1l-5.44-3a.25.25 0 0 1 0-.44l5.41-3a.25.25 0 0 1 .24 0l5.43 3a.23.23 0 0 1 .13.21.26.26 0 0 1-.12.22l-5.36 3a.38.38 0 0 1-.19.01zm-4.9-3.27l4.92 2.74 4.89-2.75-4.92-2.75z"/><path class="libp2p_svg__cls-17" d="M50.86 111.03l-.03-6.07-5.44-3.03.03 6.07h.01l5.43 3.03z"/><path class="libp2p_svg__cls-2" d="M50.86 111.28a.27.27 0 0 1-.12 0l-5.44-3a.32.32 0 0 1-.13-.22v-6.07a.23.23 0 0 1 .13-.21.25.25 0 0 1 .25 0l5.43 3a.26.26 0 0 1 .13.22v6.07a.27.27 0 0 1-.12.22.31.31 0 0 1-.13-.01zm-5.19-3.42l4.94 2.74v-5.49l-4.93-2.75z"/><path class="libp2p_svg__cls-17" d="M56.23 101.92l-5.35 3.01-.05.03.03 6.07 5.4-3.04-.03-6.07z"/><path class="libp2p_svg__cls-2" d="M50.86 111.28h-.11a.25.25 0 0 1-.14-.23v-6.07a.26.26 0 0 1 .13-.22l5.4-3a.25.25 0 0 1 .25 0 .24.24 0 0 1 .12.21v6.08a.25.25 0 0 1-.12.22l-5.41 3a.24.24 0 0 1-.12.01zm.22-6.18v5.51l4.9-2.77v-5.5z"/><path class="libp2p_svg__cls-21" d="M34.57 101.87l.05-.03 5.37-2.99-5.42-3.05-5.42 3.01 5.42 3.06z"/><path class="libp2p_svg__cls-2" d="M34.55 102.11h-.1L29 99a.25.25 0 0 1-.13-.22.23.23 0 0 1 .13-.18l5.42-3a.23.23 0 0 1 .24 0l5.42 3a.25.25 0 0 1 0 .44l-5.37 3a.38.38 0 0 1-.16.07zm-4.89-3.3l4.91 2.77 4.91-2.73-4.91-2.77z"/><path class="libp2p_svg__cls-21" d="M34.57 107.94v-6.07l-5.42-3.06v6.08l5.42 3.05z"/><path class="libp2p_svg__cls-2" d="M34.57 108.19a.27.27 0 0 1-.12 0L29 105.1a.23.23 0 0 1-.13-.21v-6.08a.24.24 0 0 1 .13-.21.21.21 0 0 1 .24 0l5.42 3.05a.26.26 0 0 1 .13.22v6.07a.27.27 0 0 1-.12.22.31.31 0 0 1-.1.03zm-5.17-3.45l4.92 2.77V102l-4.92-2.76z"/><path class="libp2p_svg__cls-21" d="M39.99 98.85l-5.37 2.99-.05.03v6.07l5.42-3.02v-6.07z"/><path class="libp2p_svg__cls-2" d="M34.57 108.19a.22.22 0 0 1-.17-.07.25.25 0 0 1-.08-.18v-6.07a.25.25 0 0 1 .13-.22l5.42-3a.25.25 0 0 1 .37.22v6.07a.25.25 0 0 1-.13.22l-5.42 3a.24.24 0 0 1-.12.03zm.25-6.17v5.5l4.92-2.74v-5.5z"/><path class="libp2p_svg__cls-12" d="M39.99 104.92l.05-.02 5.37-3-5.42-3.05-5.42 3.02 5.42 3.05z"/><path class="libp2p_svg__cls-2" d="M40 105.16a.16.16 0 0 1-.1 0l-5.42-3a.26.26 0 0 1-.13-.22.25.25 0 0 1 .13-.22l5.42-3a.25.25 0 0 1 .24 0l5.42 3.06a.23.23 0 0 1 .13.21.24.24 0 0 1-.13.22l-5.37 3a.53.53 0 0 1-.19-.05zm-4.89-3.29l4.89 2.77 4.91-2.74L40 99.14z"/><path class="libp2p_svg__cls-12" d="M39.99 110.99v-6.07l-5.42-3.05v6.07l5.42 3.05z"/><path class="libp2p_svg__cls-2" d="M40 111.24a.27.27 0 0 1-.12 0l-5.42-3a.26.26 0 0 1-.13-.22v-6.07a.25.25 0 0 1 .37-.22l5.42 3.06a.23.23 0 0 1 .13.21v6a.26.26 0 0 1-.12.22.31.31 0 0 1-.13.02zm-5.17-3.45l4.92 2.78v-5.5l-4.92-2.77z"/><path class="libp2p_svg__cls-12" d="M45.41 101.9l-5.37 3-.05.02V111l5.42-3.02v-6.08z"/><path class="libp2p_svg__cls-2" d="M40 111.24a.31.31 0 0 1-.13 0 .26.26 0 0 1-.12-.22v-6.07a.23.23 0 0 1 .13-.21l5.42-3a.23.23 0 0 1 .25 0 .26.26 0 0 1 .12.21V108a.23.23 0 0 1-.13.21l-5.42 3a.24.24 0 0 1-.12.03zm.25-6.17v5.5l4.92-2.74v-5.5z"/><path class="libp2p_svg__cls-21" d="M45.41 107.98l.05-.03 5.37-2.99-5.42-3.05-5.42 3.01 5.42 3.06z"/><path class="libp2p_svg__cls-2" d="M45.39 108.22h-.1l-5.42-3.06a.25.25 0 0 1-.13-.22.26.26 0 0 1 .13-.22l5.42-3a.21.21 0 0 1 .24 0l5.42 3a.25.25 0 0 1 0 .44l-5.37 3a.38.38 0 0 1-.19.06zm-4.89-3.3l4.91 2.77 4.91-2.69-4.91-2.77z"/><path class="libp2p_svg__cls-21" d="M45.41 114.05v-6.07l-5.42-3.06V111l5.42 3.05z"/><path class="libp2p_svg__cls-2" d="M45.41 114.3a.24.24 0 0 1-.12 0l-5.42-3.06a.25.25 0 0 1-.13-.22v-6.07a.24.24 0 0 1 .12-.21.23.23 0 0 1 .25 0l5.42 3.05a.25.25 0 0 1 .13.22v6.07a.27.27 0 0 1-.12.22.31.31 0 0 1-.13 0zm-5.17-3.45l4.92 2.77v-5.5l-4.92-2.77z"/><path class="libp2p_svg__cls-21" d="M50.83 104.96l-5.37 2.99-.05.03v6.07l5.42-3.02v-6.07z"/><path class="libp2p_svg__cls-2" d="M45.41 114.3a.23.23 0 0 1-.11 0 .26.26 0 0 1-.14-.22V108a.25.25 0 0 1 .13-.22l5.42-3a.25.25 0 0 1 .37.22v6a.25.25 0 0 1-.13.22l-5.42 3a.24.24 0 0 1-.12.08zm.25-6.18v5.51l4.92-2.74v-5.51z"/><path class="libp2p_svg__cls-2" d="M45.41 127.62a.64.64 0 0 1-.33-.08l-16.29-9.18a.74.74 0 0 1-.39-.65v-19.4a.74.74 0 0 1 .39-.65L45 88.6a.81.81 0 0 1 .74 0L62 97.77a.74.74 0 0 1 .39.65v19.4a.74.74 0 0 1-.39.65l-16.25 9.06a.81.81 0 0 1-.34.09zM29.9 117.27L45.41 126l15.51-8.63V98.86l-15.51-8.74-15.51 8.63v18.52z"/><path class="libp2p_svg__cls-6" d="M119.08 69.7l.04-.03 5.37-2.99-5.42-3.05-5.41 3.01 5.41 3.06h.01z"/><path class="libp2p_svg__cls-7" d="M119.07 75.77V69.7l-5.41-3.06v6.08l5.41 3.05z"/><path class="libp2p_svg__cls-8" d="M124.49 66.68l-5.37 2.99-.04.03h-.01v6.07h.01l5.41-3.02v-6.07z"/><path class="libp2p_svg__cls-9" d="M124.5 72.75l.04-.02 5.37-3-5.42-3.05-5.41 3.02 5.41 3.05h.01z"/><path class="libp2p_svg__cls-10" d="M124.49 78.82v-6.07l-5.41-3.05v6.07l5.41 3.05z"/><path class="libp2p_svg__cls-11" d="M129.91 69.73l-5.37 3-.04.02h-.01v6.07h.01l5.41-3.01v-6.08z"/><path class="libp2p_svg__cls-12" d="M129.91 75.81l.05-.03 5.37-2.99-5.42-3.06-5.41 3.02 5.41 3.06z"/><path class="libp2p_svg__cls-2" d="M129.89 76.05a.17.17 0 0 1-.1 0l-5.42-3a.25.25 0 0 1-.13-.22.26.26 0 0 1 .13-.22l5.42-3a.23.23 0 0 1 .25 0l5.41 3a.25.25 0 0 1 .13.22.26.26 0 0 1-.13.22l-5.37 3a.38.38 0 0 1-.19 0zm-4.89-3.3l4.91 2.77 4.9-2.73-4.9-2.79z"/><path class="libp2p_svg__cls-12" d="M129.91 81.88v-6.07l-5.42-3.06v6.07l.01.01 5.41 3.05z"/><path class="libp2p_svg__cls-2" d="M129.91 82.13a.27.27 0 0 1-.12 0L124.37 79a.32.32 0 0 1-.13-.22v-6.03a.23.23 0 0 1 .13-.21.25.25 0 0 1 .25 0l5.38 3.05a.26.26 0 0 1 .12.22v6.07a.22.22 0 0 1-.12.21.2.2 0 0 1-.09.04zm-5.17-3.45l4.92 2.77V76l-4.92-2.77z"/><path class="libp2p_svg__cls-12" d="M135.33 72.79l-5.37 2.99-.05.03v6.07l5.42-3.02v-6.07z"/><path class="libp2p_svg__cls-2" d="M129.91 82.13a.28.28 0 0 1-.17-.07.27.27 0 0 1-.08-.18v-6.07a.25.25 0 0 1 .13-.22l5.42-3a.28.28 0 0 1 .25 0 .25.25 0 0 1 .12.22v6.07a.26.26 0 0 1-.12.22l-5.42 3a.28.28 0 0 1-.13.03zm.25-6.18v5.5l4.92-2.74v-5.5z"/><path class="libp2p_svg__cls-13" d="M113.66 72.72l.04-.03 5.37-2.99-5.41-3.06-5.42 3.02 5.42 3.06z"/><path class="libp2p_svg__cls-14" d="M113.66 78.79v-6.07l-5.42-3.06v6.07l5.42 3.06z"/><path class="libp2p_svg__cls-15" d="M119.08 69.7l-5.38 2.99-.04.03v6.07l5.42-3.02V69.7z"/><path class="libp2p_svg__cls-9" d="M119.08 75.77l.04-.03 5.37-2.99-5.41-3.05-5.42 3.02 5.42 3.05z"/><path class="libp2p_svg__cls-10" d="M119.08 81.84v-6.07l-5.42-3.05v6.07l5.42 3.05z"/><path class="libp2p_svg__cls-11" d="M124.5 72.75l-5.38 2.99-.04.03v6.07l5.42-3.02v-6.07z"/><path class="libp2p_svg__cls-17" d="M124.5 78.82l.04-.02 5.37-2.99-5.41-3.06-5.42 3.02 5.42 3.05z"/><path class="libp2p_svg__cls-2" d="M124.47 79.06a.18.18 0 0 1-.1 0L119 76a.26.26 0 0 1 0-.44l5.42-3a.28.28 0 0 1 .25 0l5.33 3.03a.26.26 0 0 1 .12.22.24.24 0 0 1-.12.19l-5.38 3a.53.53 0 0 1-.15.06zm-4.88-3.29l4.91 2.77 4.9-2.74-4.91-2.8z"/><path class="libp2p_svg__cls-17" d="M124.5 84.9v-6.07l-5.42-3.06v6.07l5.42 3.06z"/><path class="libp2p_svg__cls-2" d="M124.49 85.15a.19.19 0 0 1-.12 0l-5.42-3a.32.32 0 0 1-.12-.22v-6.16a.25.25 0 0 1 .12-.22.28.28 0 0 1 .25 0l5.42 3.06a.23.23 0 0 1 .13.21v6.08a.23.23 0 0 1-.13.21.2.2 0 0 1-.13.04zm-5.16-3.45l4.91 2.77V79l-4.92-2.77z"/><path class="libp2p_svg__cls-17" d="M129.91 75.81l-5.37 2.99-.04.02v6.08l5.41-3.02v-6.07z"/><path class="libp2p_svg__cls-2" d="M124.5 85.15h-.06a.25.25 0 0 1-.2-.24v-6.09a.23.23 0 0 1 .13-.21l5.42-3a.25.25 0 0 1 .25 0 .25.25 0 0 1 .12.22v6.07a.25.25 0 0 1-.12.22l-5.42 3a.27.27 0 0 1-.12.03zm.25-6.18v5.5l4.92-2.74v-5.5z"/><path class="libp2p_svg__cls-26" d="M108.24 75.73l.04-.02 5.38-3-5.42-3.05-5.42 3.02 5.42 3.05z"/><path class="libp2p_svg__cls-2" d="M108.22 76a.2.2 0 0 1-.11 0l-5.41-3a.26.26 0 0 1-.13-.22.25.25 0 0 1 .13-.22l5.41-3a.28.28 0 0 1 .25 0l5.42 3.06a.23.23 0 0 1 .13.21.24.24 0 0 1-.13.22l-5.37 3a.58.58 0 0 1-.19-.05zm-4.89-3.29l4.91 2.77 4.9-2.74-4.9-2.74z"/><path class="libp2p_svg__cls-26" d="M108.24 81.81v-6.08l-5.42-3.05v6.07l5.42 3.06z"/><path class="libp2p_svg__cls-2" d="M108.24 82.06a.28.28 0 0 1-.13 0l-5.41-3a.3.3 0 0 1-.13-.22v-6.16a.25.25 0 0 1 .12-.22.28.28 0 0 1 .25 0l5.42 3.06a.23.23 0 0 1 .13.21v6.08a.24.24 0 0 1-.13.21.28.28 0 0 1-.12.04zm-5.17-3.45l4.93 2.77v-5.5l-4.92-2.77z"/><path class="libp2p_svg__cls-26" d="M113.66 72.72l-5.38 2.99-.04.02v6.08l5.42-3.02v-6.07z"/><path class="libp2p_svg__cls-2" d="M108.24 82.06a.2.2 0 0 1-.11 0 .24.24 0 0 1-.14-.22v-6.11a.24.24 0 0 1 .12-.21l5.42-3a.26.26 0 0 1 .38.22v6.07a.26.26 0 0 1-.13.22l-5.42 3a.19.19 0 0 1-.12.03zm.25-6.18v5.5l4.92-2.74v-5.5z"/><path class="libp2p_svg__cls-26" d="M113.66 78.79l.04-.03 5.38-2.99-5.42-3.05-5.42 3.01 5.42 3.06z"/><path class="libp2p_svg__cls-2" d="M113.64 79a.2.2 0 0 1-.11 0l-5.41-3a.25.25 0 0 1-.13-.22.26.26 0 0 1 .13-.22l5.41-3a.23.23 0 0 1 .25 0l5.42 3a.25.25 0 0 1 .13.22.26.26 0 0 1-.13.22l-5.37 3a.41.41 0 0 1-.19 0zm-4.89-3.3l4.91 2.77 4.9-2.73-4.9-2.74z"/><path class="libp2p_svg__cls-26" d="M113.66 84.86v-6.07l-5.42-3.06v6.08l5.42 3.05z"/><path class="libp2p_svg__cls-2" d="M113.66 85.11a.28.28 0 0 1-.13 0L108.12 82a.24.24 0 0 1-.13-.22v-6.05a.22.22 0 0 1 .12-.21.23.23 0 0 1 .25 0l5.42 3a.25.25 0 0 1 .13.22v6.07a.26.26 0 0 1-.13.22.27.27 0 0 1-.12.08zm-5.17-3.45l4.92 2.77v-5.5l-4.92-2.77z"/><path class="libp2p_svg__cls-26" d="M119.08 75.77l-5.38 2.99-.04.03v6.07l5.42-3.02v-6.07z"/><path class="libp2p_svg__cls-2" d="M113.66 85.11a.2.2 0 0 1-.11 0 .24.24 0 0 1-.14-.22v-6.1a.25.25 0 0 1 .13-.22l5.41-3a.28.28 0 0 1 .25 0 .26.26 0 0 1 .13.22v6.07a.25.25 0 0 1-.13.22l-5.42 3a.27.27 0 0 1-.12.03zm.25-6.18v5.51l4.92-2.74v-5.51z"/><path class="libp2p_svg__cls-17" d="M119.08 81.84l.04-.02 5.38-3-5.42-3.05-5.42 3.02 5.42 3.05z"/><path class="libp2p_svg__cls-2" d="M119.06 82.08a.2.2 0 0 1-.11 0l-5.42-3a.27.27 0 0 1-.12-.22.25.25 0 0 1 .13-.22l5.41-3a.28.28 0 0 1 .25 0l5.42 3.06a.22.22 0 0 1 .12.21.24.24 0 0 1-.12.22l-5.37 3a.58.58 0 0 1-.19-.05zm-4.89-3.29l4.91 2.77 4.9-2.74-4.9-2.76z"/><path class="libp2p_svg__cls-17" d="M119.08 87.91v-6.07l-5.42-3.05v6.07l5.42 3.05z"/><path class="libp2p_svg__cls-2" d="M119.08 88.16a.28.28 0 0 1-.13 0l-5.41-3a.2.2 0 0 1-.13-.22v-6.15a.25.25 0 0 1 .12-.22.28.28 0 0 1 .25 0l5.42 3.05a.26.26 0 0 1 .13.22v6.07a.25.25 0 0 1-.13.22.27.27 0 0 1-.12.03zm-5.17-3.44l4.92 2.77V82l-4.92-2.77z"/><path class="libp2p_svg__cls-17" d="M124.5 78.82l-5.38 3-.04.02v6.08l5.42-3.02v-6.08z"/><path class="libp2p_svg__cls-2" d="M119.08 88.16a.28.28 0 0 1-.13 0 .25.25 0 0 1-.12-.22v-6.1a.26.26 0 0 1 .13-.22l5.41-3a.23.23 0 0 1 .25 0 .24.24 0 0 1 .13.21v6.07a.23.23 0 0 1-.13.21l-5.42 3a.27.27 0 0 1-.12.05zm.25-6.17v5.5l4.92-2.74v-5.5z"/><path class="libp2p_svg__cls-6" d="M119.08 63.04l.04-.03 5.38-2.99-5.42-3.06-5.42 3.02 5.42 3.05v.01z"/><path class="libp2p_svg__cls-7" d="M119.07 69.11l.01-6.07-5.42-3.06v6.07l5.41 3.06z"/><path class="libp2p_svg__cls-8" d="M124.5 60.02l-5.38 2.99-.04.03-.01 6.07h.01l5.42-3.02v-6.07z"/><path class="libp2p_svg__cls-18" d="M124.5 66.09l.04-.02 5.37-2.99-5.41-3.06-5.42 3.01 5.42 3.06z"/><path class="libp2p_svg__cls-19" d="M124.49 72.16l.01-6.07-5.42-3.05v-.01 6.08l5.41 3.05z"/><path class="libp2p_svg__cls-20" d="M129.92 63.08l-5.38 2.99-.04.02-.01 6.07 5.42-3.01.01-6.07z"/><path class="libp2p_svg__cls-25" d="M129.91 69.36l.05-.03 5.37-2.99-5.41-3.05-5.42 3.01 5.41 3.06z"/><path class="libp2p_svg__cls-2" d="M129.89 69.6h-.1l-5.42-3.06a.26.26 0 0 1 0-.44l5.41-3a.28.28 0 0 1 .25 0l5.42 3.05a.27.27 0 0 1 .12.22.25.25 0 0 1-.13.22l-5.37 3a.38.38 0 0 1-.18.01zM125 66.3l4.9 2.77 4.91-2.73-4.9-2.77z"/><path class="libp2p_svg__cls-25" d="M129.91 75.43v-6.07l-5.41-3.06-.01 6.07.01.01 5.41 3.05z"/><path class="libp2p_svg__cls-2" d="M129.91 75.68h-.12l-5.42-3.06a.25.25 0 0 1-.13-.22v-6.1a.22.22 0 0 1 .12-.21.25.25 0 0 1 .25 0l5.39 3.05a.27.27 0 0 1 .12.22v6.07a.27.27 0 0 1-.12.22.31.31 0 0 1-.09.03zm-5.17-3.45l4.92 2.77v-5.49l-4.91-2.78z"/><path class="libp2p_svg__cls-25" d="M135.33 66.34l-5.37 2.99-.05.03v6.07l5.42-3.01.01-6.08h-.01z"/><path class="libp2p_svg__cls-2" d="M129.91 75.68a.22.22 0 0 1-.17-.07.25.25 0 0 1-.08-.18v-6.07a.26.26 0 0 1 .13-.22l5.42-3a.25.25 0 0 1 .25 0 .22.22 0 0 1 .12.21v6.08a.23.23 0 0 1-.13.21l-5.42 3a.27.27 0 0 1-.12.04zm.25-6.17V75l4.92-2.74v-5.5z"/><path class="libp2p_svg__cls-13" d="M113.66 66.05l.04-.02 5.38-3-5.42-3.05-5.42 3.01 5.42 3.06z"/><path class="libp2p_svg__cls-14" d="M113.66 72.12v-6.07l-5.42-3.06v6.08l5.42 3.05z"/><path class="libp2p_svg__cls-15" d="M119.08 63.03l-5.38 3-.04.02v6.07l5.42-3.01v-6.08.01-.01z"/><path class="libp2p_svg__cls-22" d="M119.08 69.11l.04-.03 5.38-2.99-5.42-3.06-5.42 3.02 5.42 3.06z"/><path class="libp2p_svg__cls-23" d="M119.07 75.18l.01-6.07-5.42-3.06v6.07l5.41 3.06z"/><path class="libp2p_svg__cls-24" d="M124.5 66.09l-5.38 2.99-.04.03-.01 6.07 5.42-3.02.01-6.07z"/><path class="libp2p_svg__cls-17" d="M124.5 72.38l.04-.03 5.37-2.99-5.41-3.06-5.42 3.02 5.41 3.05.01.01z"/><path class="libp2p_svg__cls-2" d="M124.47 72.61a.18.18 0 0 1-.1 0l-5.42-3a.27.27 0 0 1-.12-.22.25.25 0 0 1 .13-.22l5.42-3a.25.25 0 0 1 .24 0l5.38 2.97a.26.26 0 0 1 .12.22.27.27 0 0 1-.12.22l-5.38 3a.53.53 0 0 1-.15.03zm-4.88-3.29l4.91 2.77 4.9-2.73-4.9-2.77z"/><path class="libp2p_svg__cls-17" d="M124.49 78.45v-6.07l-5.41-3.06-.01 6.07h.01l5.41 3.06z"/><path class="libp2p_svg__cls-2" d="M124.49 78.7a.19.19 0 0 1-.12 0l-5.42-3a.26.26 0 0 1-.13-.22v-6.16a.25.25 0 0 1 .12-.22.28.28 0 0 1 .25 0l5.42 3.06a.25.25 0 0 1 .12.22v6.07a.24.24 0 0 1-.12.21.22.22 0 0 1-.12.04zm-5.17-3.46l4.92 2.76v-5.5l-4.91-2.77z"/><path class="libp2p_svg__cls-17" d="M129.91 69.36l-5.37 2.99-.04.03h-.01v6.07l5.42-3.02v-6.07z"/><path class="libp2p_svg__cls-2" d="M124.49 78.7h-.06a.26.26 0 0 1-.19-.24v-6.08a.24.24 0 0 1 .13-.22l5.42-3a.28.28 0 0 1 .25 0 .25.25 0 0 1 .12.22v6.07a.25.25 0 0 1-.13.22l-5.42 3a.24.24 0 0 1-.12.03zm.25-6.18V78l4.92-2.74v-5.5z"/><path class="libp2p_svg__cls-21" d="M108.24 69.28l.04-.03 5.38-2.99-5.42-3.06-5.42 3.02 5.42 3.06z"/><path class="libp2p_svg__cls-2" d="M108.22 69.52h-.11l-5.41-3.06a.25.25 0 0 1 0-.44l5.42-3a.21.21 0 0 1 .24 0l5.42 2.98a.26.26 0 0 1 .13.22.25.25 0 0 1-.13.22l-5.37 3a.41.41 0 0 1-.19.08zm-4.89-3.3l4.91 2.78 4.91-2.73-4.91-2.77z"/><path class="libp2p_svg__cls-21" d="M108.23 75.35l.01-6.07-5.42-3.06v6.07l5.41 3.06z"/><path class="libp2p_svg__cls-2" d="M108.24 75.6a.28.28 0 0 1-.13 0l-5.41-3.06a.3.3 0 0 1-.13-.22v-6.1a.25.25 0 0 1 .37-.22l5.42 3.06a.25.25 0 0 1 .13.22v6.07a.23.23 0 0 1-.13.21.19.19 0 0 1-.12.04zm-5.17-3.45l4.93 2.77v-5.5l-4.92-2.77z"/><path class="libp2p_svg__cls-21" d="M113.66 66.26l-5.38 2.99-.04.03-.01 6.07h.01l5.42-3.02v-6.07z"/><path class="libp2p_svg__cls-2" d="M108.24 75.6a.24.24 0 0 1-.25-.25v-6.07a.25.25 0 0 1 .13-.22l5.42-3a.23.23 0 0 1 .24 0 .23.23 0 0 1 .13.21v6.07a.25.25 0 0 1-.13.22l-5.42 3a.27.27 0 0 1-.12.04zm.25-6.18v5.51l4.92-2.74v-5.5z"/><path class="libp2p_svg__cls-25" d="M113.66 72.33l.04-.02 5.38-2.99-5.42-3.06-5.42 3.02 5.42 3.05z"/><path class="libp2p_svg__cls-2" d="M113.64 72.57a.2.2 0 0 1-.11 0l-5.41-3.06a.23.23 0 0 1-.13-.21.25.25 0 0 1 .13-.22l5.42-3a.26.26 0 0 1 .24 0l5.42 3.06a.25.25 0 0 1 .13.22.26.26 0 0 1-.13.22l-5.38 3a.48.48 0 0 1-.18-.01zm-4.89-3.29l4.91 2.77 4.9-2.73-4.9-2.77z"/><path class="libp2p_svg__cls-25" d="M113.65 78.41l.01-6.08-5.42-3.05-.01 6.07h.01l5.41 3.06z"/><path class="libp2p_svg__cls-2" d="M113.65 78.66a.28.28 0 0 1-.12 0l-5.42-3.05a.27.27 0 0 1-.12-.22v-6.11a.25.25 0 0 1 .12-.22.28.28 0 0 1 .25 0l5.42 3.06a.23.23 0 0 1 .13.21v6.08a.24.24 0 0 1-.12.21.28.28 0 0 1-.14.04zm-5.16-3.46l4.91 2.8v-5.5l-4.92-2.77z"/><path class="libp2p_svg__cls-25" d="M119.08 69.32l-5.38 2.99-.04.02-.01 6.08h.01l5.41-3.02.01-6.07z"/><path class="libp2p_svg__cls-2" d="M113.65 78.66a.28.28 0 0 1-.12 0 .24.24 0 0 1-.13-.21v-6.12a.26.26 0 0 1 .13-.22l5.42-3a.25.25 0 0 1 .24 0 .26.26 0 0 1 .13.22v6.07a.25.25 0 0 1-.12.22l-5.42 3a.2.2 0 0 1-.13.04zm.26-6.18V78l4.92-2.74v-5.5z"/><path class="libp2p_svg__cls-12" d="M119.08 75.39l.04-.03 5.37-2.99-5.41-3.05-5.42 3.01 5.41 3.06h.01z"/><path class="libp2p_svg__cls-2" d="M119.05 75.63h-.1l-5.42-3.06a.26.26 0 0 1-.12-.22.23.23 0 0 1 .13-.21l5.42-3a.25.25 0 0 1 .24 0l5.42 3.06a.24.24 0 0 1 .12.21.25.25 0 0 1-.12.22l-5.38 3a.38.38 0 0 1-.19 0zm-4.88-3.3l4.91 2.77 4.9-2.73-4.9-2.77z"/><path class="libp2p_svg__cls-12" d="M119.07 81.46v-6.07l-5.41-3.06-.01 6.08h.01l5.41 3.05z"/><path class="libp2p_svg__cls-2" d="M119.07 81.71a.27.27 0 0 1-.12 0l-5.42-3.06a.32.32 0 0 1-.13-.21v-6.11a.24.24 0 0 1 .12-.21.23.23 0 0 1 .25 0l5.42 3a.25.25 0 0 1 .12.22v6.07a.25.25 0 0 1-.12.22.28.28 0 0 1-.12.08zm-5.17-3.45l4.92 2.74v-5.46l-4.91-2.78z"/><path class="libp2p_svg__cls-12" d="M124.5 72.38l-5.38 2.98-.04.03h-.01v6.07l5.42-3.01.01-6.07z"/><path class="libp2p_svg__cls-2" d="M119.07 81.71a.22.22 0 0 1-.17-.07.25.25 0 0 1-.08-.18v-6.07a.26.26 0 0 1 .13-.22l5.42-3a.23.23 0 0 1 .25 0 .24.24 0 0 1 .12.21v6.08a.26.26 0 0 1-.13.22l-5.42 3a.24.24 0 0 1-.12.03zm.25-6.17V81l4.92-2.74V72.8z"/><path class="libp2p_svg__cls-16" d="M119.08 56.88l.04-.03 5.37-2.99-5.42-3.06-5.41 3.02 5.41 3.06h.01z"/><path class="libp2p_svg__cls-2" d="M119.05 57.12a.19.19 0 0 1-.1 0L113.53 54a.26.26 0 0 1 0-.44l5.42-3a.28.28 0 0 1 .25 0l5.42 3.06a.26.26 0 0 1 0 .44l-5.37 3a.38.38 0 0 1-.2.06zm-4.88-3.3l4.91 2.77 4.9-2.73-4.91-2.77z"/><path class="libp2p_svg__cls-26" d="M119.07 62.95v-6.07l-5.41-3.06v6.07l5.41 3.06z"/><path class="libp2p_svg__cls-2" d="M119.07 63.2h-.12l-5.42-3.06a.34.34 0 0 1-.13-.22v-6.1a.23.23 0 0 1 .13-.21.25.25 0 0 1 .25 0l5.42 3.06a.24.24 0 0 1 .12.22V63a.22.22 0 0 1-.12.21.2.2 0 0 1-.13-.01zm-5.17-3.45l4.92 2.77V57l-4.92-2.77z"/><path class="libp2p_svg__cls-26" d="M124.49 53.86l-5.37 2.99-.04.03h-.01v6.07h.01l5.41-3.02v-6.07z"/><path class="libp2p_svg__cls-2" d="M119.08 63.2a.26.26 0 0 1-.26-.25v-6.07a.24.24 0 0 1 .13-.22l5.42-3a.28.28 0 0 1 .25 0 .25.25 0 0 1 .12.22v6.07a.27.27 0 0 1-.12.22l-5.42 3a.27.27 0 0 1-.12.03zm.24-6.18v5.5l4.92-2.74v-5.5z"/><path class="libp2p_svg__cls-17" d="M124.5 59.93l.04-.03 5.37-2.99-5.42-3.05-5.41 3.02 5.41 3.05h.01z"/><path class="libp2p_svg__cls-2" d="M124.47 60.17h-.1L119 57.09a.24.24 0 0 1-.12-.22.22.22 0 0 1 .12-.21l5.42-3a.28.28 0 0 1 .25 0l5.41 3a.25.25 0 0 1 0 .44l-5.37 3a.38.38 0 0 1-.24.07zm-4.88-3.29l4.91 2.76 4.9-2.73-4.91-2.77z"/><path class="libp2p_svg__cls-17" d="M124.49 66v-6.07l-5.41-3.05v6.07l5.41 3.05z"/><path class="libp2p_svg__cls-2" d="M124.49 66.25a.27.27 0 0 1-.12 0l-5.42-3a.34.34 0 0 1-.13-.22v-6.15a.25.25 0 0 1 .13-.22.23.23 0 0 1 .25 0l5.42 3.05a.25.25 0 0 1 .12.22V66a.25.25 0 0 1-.12.22.28.28 0 0 1-.13.03zm-5.17-3.45l4.92 2.77v-5.49l-4.92-2.78z"/><path class="libp2p_svg__cls-17" d="M129.91 56.91l-5.37 2.99-.04.03h-.01V66h.01l5.41-3.02v-6.07z"/><path class="libp2p_svg__cls-2" d="M124.5 66.25h-.06a.24.24 0 0 1-.2-.24v-6.08a.25.25 0 0 1 .13-.22l5.42-3a.25.25 0 0 1 .25 0 .22.22 0 0 1 .12.21V63a.26.26 0 0 1-.12.22l-5.42 3a.27.27 0 0 1-.12.03zm.24-6.17v5.5l4.92-2.74v-5.5z"/><path class="libp2p_svg__cls-12" d="M129.91 62.98l.05-.02 5.37-2.99-5.42-3.06-5.41 3.02 5.41 3.05z"/><path class="libp2p_svg__cls-2" d="M129.89 63.22a.18.18 0 0 1-.1 0l-5.42-3.05a.25.25 0 0 1 0-.44l5.42-3a.28.28 0 0 1 .25 0l5.41 3.06a.25.25 0 0 1 .13.22.23.23 0 0 1-.13.21l-5.37 3a.53.53 0 0 1-.19 0zM125 59.93l4.91 2.77 4.9-2.74-4.91-2.76z"/><path class="libp2p_svg__cls-21" d="M129.91 69.06v-6.08l-5.42-3.05V66h.01l5.41 3.06z"/><path class="libp2p_svg__cls-2" d="M129.91 69.31a.19.19 0 0 1-.12 0l-5.42-3a.34.34 0 0 1-.13-.22v-6.16a.26.26 0 0 1 .13-.22.28.28 0 0 1 .25 0l5.38 3.06a.24.24 0 0 1 .12.21v6.08a.22.22 0 0 1-.12.21.28.28 0 0 1-.09.04zm-5.17-3.45l4.92 2.77v-5.5l-4.92-2.77z"/><path class="libp2p_svg__cls-12" d="M135.33 59.97l-5.37 2.99-.05.02v6.08l5.42-3.02v-6.07z"/><path class="libp2p_svg__cls-2" d="M129.91 69.31a.25.25 0 0 1-.17-.08.23.23 0 0 1-.08-.17V63a.23.23 0 0 1 .13-.21l5.42-3a.28.28 0 0 1 .25 0 .25.25 0 0 1 .12.22V66a.27.27 0 0 1-.12.22l-5.42 3a.28.28 0 0 1-.13.09zm.25-6.18v5.5l4.92-2.74v-5.5z"/><path class="libp2p_svg__cls-16" d="M113.66 59.86l.04-.03 5.37-2.99-5.41-3.06-5.42 3.02 5.42 3.06z"/><path class="libp2p_svg__cls-2" d="M113.64 60.1a.2.2 0 0 1-.11 0l-5.42-3a.26.26 0 0 1-.12-.22.27.27 0 0 1 .12-.22l5.42-3a.23.23 0 0 1 .25 0l5.42 3a.24.24 0 0 1 .12.22.25.25 0 0 1-.12.22l-5.38 3a.35.35 0 0 1-.18 0zm-4.89-3.3l4.91 2.77 4.9-2.73-4.91-2.77z"/><path class="libp2p_svg__cls-26" d="M113.66 65.93v-6.07l-5.42-3.06v6.08l5.42 3.05z"/><path class="libp2p_svg__cls-2" d="M113.66 66.18a.28.28 0 0 1-.13 0l-5.41-3.06a.29.29 0 0 1-.13-.22v-6.1a.22.22 0 0 1 .12-.21.25.25 0 0 1 .25 0l5.42 3.06a.25.25 0 0 1 .13.22v6.07a.23.23 0 0 1-.13.21.19.19 0 0 1-.12.03zm-5.17-3.45l4.92 2.77V60l-4.92-2.77z"/><path class="libp2p_svg__cls-26" d="M119.08 56.84l-5.38 2.99-.04.03v6.07l5.42-3.02v-6.07z"/><path class="libp2p_svg__cls-2" d="M113.66 66.18a.2.2 0 0 1-.13 0 .22.22 0 0 1-.12-.21v-6.11a.24.24 0 0 1 .12-.22l5.42-3a.28.28 0 0 1 .25 0 .25.25 0 0 1 .12.22v6.07a.26.26 0 0 1-.13.22l-5.42 3a.27.27 0 0 1-.11.03zm.25-6.18v5.5l4.92-2.74v-5.5z"/><path class="libp2p_svg__cls-26" d="M119.08 62.91l.04-.02 5.37-3-5.41-3.05-5.42 3.02 5.42 3.05z"/><path class="libp2p_svg__cls-2" d="M119.06 63.15h-.11l-5.42-3.06a.24.24 0 0 1-.12-.21.26.26 0 0 1 .12-.22l5.42-3a.28.28 0 0 1 .25 0l5.42 3.05a.27.27 0 0 1 .12.22.26.26 0 0 1-.12.22l-5.38 3a.37.37 0 0 1-.18 0zm-4.89-3.29l4.91 2.76 4.9-2.73-4.91-2.77z"/><path class="libp2p_svg__cls-26" d="M119.08 68.98v-6.07l-5.42-3.05v6.07l5.42 3.05z"/><path class="libp2p_svg__cls-2" d="M119.08 69.23a.28.28 0 0 1-.13 0l-5.41-3a.26.26 0 0 1-.13-.22v-6.15a.25.25 0 0 1 .12-.22.25.25 0 0 1 .25 0l5.42 3a.26.26 0 0 1 .13.22V69a.26.26 0 0 1-.13.22.27.27 0 0 1-.12.01zm-5.17-3.45l4.92 2.78v-5.5l-4.92-2.78z"/><path class="libp2p_svg__cls-26" d="M124.5 59.89l-5.38 2.99-.04.03v6.07l5.42-3.01v-6.08z"/><path class="libp2p_svg__cls-2" d="M119.08 69.23a.28.28 0 0 1-.13 0 .25.25 0 0 1-.12-.22v-6.1a.25.25 0 0 1 .12-.22l5.42-3a.25.25 0 0 1 .25 0 .22.22 0 0 1 .12.21V66a.23.23 0 0 1-.13.21l-5.42 3a.27.27 0 0 1-.11.02zm.25-6.17v5.5l4.91-2.74v-5.5z"/><path class="libp2p_svg__cls-17" d="M124.5 66l.04-.02 5.36-3.02-5.43-3.03-5.41 3.04L124.5 66z"/><path class="libp2p_svg__cls-2" d="M124.47 66.24a.18.18 0 0 1-.1 0l-5.43-3a.25.25 0 0 1-.13-.22.23.23 0 0 1 .13-.21l5.4-3a.28.28 0 0 1 .25 0l5.43 3a.25.25 0 0 1 .13.22.26.26 0 0 1-.13.22l-5.36 3a.36.36 0 0 1-.19-.01zm-4.9-3.24l4.92 2.75 4.9-2.76-4.92-2.74z"/><path class="libp2p_svg__cls-17" d="M124.53 72.07L124.5 66l-5.44-3.03.03 6.08 5.44 3.02z"/><path class="libp2p_svg__cls-2" d="M124.53 72.32a.28.28 0 0 1-.13 0l-5.43-3a.32.32 0 0 1-.13-.21v-6.07a.26.26 0 0 1 .12-.22.23.23 0 0 1 .25 0l5.44 3a.26.26 0 0 1 .13.22v6.07a.26.26 0 0 1-.13.22.27.27 0 0 1-.12-.01zm-5.19-3.42l4.93 2.75v-5.5l-4.94-2.75z"/><path class="libp2p_svg__cls-17" d="M129.9 62.96l-5.36 3.02-.04.02.03 6.07v.01l5.4-3.05-.03-6.07z"/><path class="libp2p_svg__cls-2" d="M124.53 72.32h-.06a.26.26 0 0 1-.19-.24V66a.26.26 0 0 1 .13-.22l5.41-3a.25.25 0 0 1 .37.22v6.07a.26.26 0 0 1-.13.22l-5.4 3a.27.27 0 0 1-.13.03zm.22-6.17v5.5l4.91-2.76v-5.51z"/><path class="libp2p_svg__cls-25" d="M108.24 62.91l.04-.02 5.38-3-5.42-3.05-5.42 3.02 5.42 3.05z"/><path class="libp2p_svg__cls-2" d="M108.22 63.15h-.11l-5.41-3.06a.23.23 0 0 1-.13-.21.25.25 0 0 1 .13-.22l5.41-3a.28.28 0 0 1 .25 0l5.42 3.05a.26.26 0 0 1 .13.22.25.25 0 0 1-.13.22l-5.37 3a.41.41 0 0 1-.19 0zm-4.89-3.29l4.91 2.76 4.9-2.73-4.9-2.77z"/><path class="libp2p_svg__cls-25" d="M108.24 68.98v-6.07l-5.42-3.05v6.07l5.42 3.05z"/><path class="libp2p_svg__cls-2" d="M108.24 69.23a.28.28 0 0 1-.13 0l-5.41-3a.3.3 0 0 1-.13-.22v-6.15a.25.25 0 0 1 .12-.22.28.28 0 0 1 .25 0l5.42 3a.26.26 0 0 1 .13.22V69a.26.26 0 0 1-.13.22.27.27 0 0 1-.12.01zm-5.17-3.45l4.93 2.78v-5.5l-4.92-2.78z"/><path class="libp2p_svg__cls-25" d="M113.66 59.89l-5.38 3-.04.02v6.07l5.42-3.01v-6.08z"/><path class="libp2p_svg__cls-2" d="M108.24 69.23a.2.2 0 0 1-.11 0A.24.24 0 0 1 108 69v-6.09a.26.26 0 0 1 .13-.22l5.41-3a.25.25 0 0 1 .25 0 .23.23 0 0 1 .13.21V66a.23.23 0 0 1-.13.21l-5.42 3a.27.27 0 0 1-.13.02zm.25-6.17v5.5l4.92-2.74v-5.5z"/><path class="libp2p_svg__cls-25" d="M113.66 65.97l.04-.03 5.38-2.99-5.42-3.06-5.42 3.02 5.42 3.06z"/><path class="libp2p_svg__cls-2" d="M113.64 66.21a.2.2 0 0 1-.11 0l-5.41-3.05a.25.25 0 0 1 0-.44l5.41-3a.28.28 0 0 1 .25 0l5.42 3.06a.25.25 0 0 1 .13.22.23.23 0 0 1-.13.21l-5.37 3a.41.41 0 0 1-.19 0zm-4.89-3.3l4.91 2.77 4.9-2.74-4.9-2.76z"/><path class="libp2p_svg__cls-25" d="M113.66 72.04v-6.07l-5.42-3.06v6.07l5.42 3.06z"/><path class="libp2p_svg__cls-2" d="M113.66 72.29a.2.2 0 0 1-.13 0l-5.41-3A.25.25 0 0 1 108 69v-6.09a.22.22 0 0 1 .12-.21.25.25 0 0 1 .25 0l5.42 3.06a.25.25 0 0 1 .13.22V72a.23.23 0 0 1-.13.21.19.19 0 0 1-.13.08zm-5.17-3.45l4.92 2.77v-5.5l-4.92-2.77z"/><path class="libp2p_svg__cls-25" d="M119.08 62.95l-5.38 2.99-.04.03v6.07l5.42-3.02v-6.07z"/><path class="libp2p_svg__cls-2" d="M113.66 72.29h-.06a.26.26 0 0 1-.19-.24V66a.26.26 0 0 1 .12-.22l5.42-3a.28.28 0 0 1 .25 0 .26.26 0 0 1 .13.22v6a.26.26 0 0 1-.13.22l-5.42 3a.27.27 0 0 1-.12.07zm.25-6.18v5.5l4.92-2.74v-5.5z"/><path class="libp2p_svg__cls-12" d="M119.08 69.02l.04-.02 5.38-3-5.42-3.05-5.42 3.02 5.42 3.05z"/><path class="libp2p_svg__cls-2" d="M119.06 69.26h-.11l-5.42-3.06a.24.24 0 0 1-.12-.21.24.24 0 0 1 .13-.22l5.41-3a.28.28 0 0 1 .25 0l5.42 3.05a.25.25 0 0 1 .12.22.24.24 0 0 1-.12.22l-5.37 3a.41.41 0 0 1-.19 0zM114.17 66l4.91 2.76L124 66l-4.9-2.77z"/><path class="libp2p_svg__cls-12" d="M119.08 75.09v-6.07l-5.42-3.05v6.07l5.42 3.05z"/><path class="libp2p_svg__cls-2" d="M119.08 75.34a.28.28 0 0 1-.13 0l-5.41-3a.26.26 0 0 1-.13-.22V66a.24.24 0 0 1 .12-.22.25.25 0 0 1 .25 0l5.42 3a.26.26 0 0 1 .13.22v6.07a.26.26 0 0 1-.13.22.27.27 0 0 1-.12.05zm-5.17-3.45l4.92 2.77v-5.49l-4.92-2.78z"/><path class="libp2p_svg__cls-12" d="M124.5 66l-5.38 3-.04.02v6.07l5.42-3.01V66z"/><path class="libp2p_svg__cls-2" d="M119.08 75.34a.28.28 0 0 1-.13 0 .25.25 0 0 1-.12-.22V69a.26.26 0 0 1 .13-.22l5.41-3a.25.25 0 0 1 .25 0 .23.23 0 0 1 .13.21v6.07a.24.24 0 0 1-.13.22l-5.42 3a.27.27 0 0 1-.12.06zm.25-6.17v5.5l4.92-2.74v-5.5z"/><path class="libp2p_svg__cls-2" d="M119.08 88.66a.78.78 0 0 1-.37-.09l-16.26-9.16-.08-.06a.74.74 0 0 1-.3-.6v-19.4a.75.75 0 0 1 .38-.65l16.26-9.05a.73.73 0 0 1 .73 0l16.25 9.15a.75.75 0 0 1 .39.66v19.4a.76.76 0 0 1-.38.66l-16.26 9a.77.77 0 0 1-.36.14zm-15.51-10.34l15.51 8.73 15.5-8.63V59.9l-15.51-8.74-15.5 8.64v18.52z"/></g></svg>
