<svg xmlns="http://www.w3.org/2000/svg" viewBox="0 0 157.03 167.35"><defs><style>.peers_svg__cls-2{fill:#2a2b60}.peers_svg__cls-3{fill:#fdd52f}.peers_svg__cls-4{fill:#51b7b7}.peers_svg__cls-5{fill:#dab41a}</style></defs><g id="first_group"><path id="peers_svg___g_" data-name="&lt;g&gt;" d="M151.26 113.81V53.54A20.24 20.24 0 0 0 141.12 36L88.61 5.79a20.25 20.25 0 0 0-20.18 0L15.91 36A20.24 20.24 0 0 0 5.77 53.54v60.27a20.27 20.27 0 0 0 10.14 17.55l52.52 30.2a20.25 20.25 0 0 0 20.18 0l52.51-30.2a20.27 20.27 0 0 0 10.14-17.55z" fill="#a0d6de" opacity=".2"/><g id="peers_svg__icon"><path class="peers_svg__cls-2" d="M99.36 96.64a.45.45 0 0 1-.38-.52.44.44 0 0 1 .51-.38.45.45 0 0 1 .38.52.45.45 0 0 1-.45.38h-.06zm-1.8-.29a.47.47 0 0 1-.38-.52.45.45 0 0 1 .53-.37.44.44 0 0 1 .37.51.45.45 0 0 1-.45.38h-.07zm-1.79-.29a.45.45 0 0 1-.37-.52.44.44 0 0 1 .51-.37.44.44 0 0 1 .38.51.44.44 0 0 1-.45.38h-.07zM94 95.77a.46.46 0 0 1-.38-.51.46.46 0 0 1 .53-.38.45.45 0 0 1 .37.52.46.46 0 0 1-.45.38H94zm-1.79-.28a.45.45 0 0 1-.37-.52.43.43 0 0 1 .51-.37.44.44 0 0 1 .38.51.44.44 0 0 1-.45.38h-.07zm-1.81-.29a.45.45 0 0 1-.38-.51.46.46 0 0 1 .53-.38.44.44 0 0 1 .37.51.46.46 0 0 1-.45.39h-.07zm-1.79-.29a.45.45 0 0 1-.38-.51.44.44 0 0 1 .52-.37.44.44 0 0 1 .38.51.44.44 0 0 1-.45.38h-.07zm-1.79-.28a.45.45 0 0 1-.37-.52.45.45 0 0 1 .52-.37.44.44 0 0 1 .37.51.45.45 0 0 1-.45.38h-.07zM85 94.34a.44.44 0 0 1-.38-.51.44.44 0 0 1 .51-.38.45.45 0 0 1 .38.52.45.45 0 0 1-.45.38H85zm-1.8-.28a.45.45 0 0 1-.37-.52.45.45 0 0 1 .52-.38.46.46 0 0 1 .37.52.45.45 0 0 1-.45.38h-.07zm-1.78-.29a.45.45 0 0 1-.39-.51.47.47 0 0 1 .52-.39.46.46 0 0 1 .38.52.44.44 0 0 1-.45.39h-.06zm-1.8-.29a.44.44 0 0 1-.37-.52.45.45 0 0 1 .52-.37.46.46 0 0 1 .37.52.45.45 0 0 1-.45.38h-.07zm-1.79-.28a.47.47 0 0 1-.38-.53.47.47 0 0 1 .55-.37.46.46 0 0 1 .38.52.44.44 0 0 1-.45.38h-.07zm-1.79-.29a.45.45 0 0 1-.37-.52.46.46 0 0 1 .51-.38.46.46 0 0 1 .38.53.46.46 0 0 1-.45.38h-.07zm-1.79-.28a.47.47 0 0 1-.38-.53.46.46 0 0 1 .52-.37.45.45 0 0 1 .38.52.44.44 0 0 1-.45.38h-.07zm-1.79-.29a.45.45 0 0 1-.37-.52.46.46 0 0 1 .52-.38.46.46 0 0 1 .39.56.46.46 0 0 1-.45.39h-.05z"/><path class="peers_svg__cls-3" d="M57.99 73.5l34.06-15.22"/><path class="peers_svg__cls-2" transform="rotate(-24.09 75.021 65.889)" d="M56.37 65.44h37.31v.91H56.37z"/><path class="peers_svg__cls-2" transform="rotate(-28.62 48.136 55.431)" d="M47.68 37.13h.91v36.62h-.91z"/><circle class="peers_svg__cls-4" cx="40.18" cy="40.18" r="6.44"/><path class="peers_svg__cls-2" d="M40.18 47.3a7.12 7.12 0 1 1 7.12-7.12 7.13 7.13 0 0 1-7.12 7.12zm0-12.88a5.76 5.76 0 1 0 5.76 5.76 5.77 5.77 0 0 0-5.76-5.76zM31.16 108.81l-.72-.55L57.57 73.3l5.3-24.82.89.19-5.35 25.02-.06.09-27.19 35.03z"/><circle class="peers_svg__cls-4" cx="63.32" cy="48.58" r="4.31"/><path class="peers_svg__cls-2" d="M63.32 53.56a5 5 0 1 1 5-5 5 5 0 0 1-5 5zm0-8.61a3.63 3.63 0 1 0 3.62 3.63A3.64 3.64 0 0 0 63.32 45z"/><circle class="peers_svg__cls-4" cx="32.59" cy="106.74" r="5.45"/><path class="peers_svg__cls-2" d="M32.59 112.87a6.13 6.13 0 1 1 6.14-6.13 6.14 6.14 0 0 1-6.14 6.13zm0-10.9a4.77 4.77 0 1 0 4.78 4.77 4.78 4.78 0 0 0-4.78-4.74zM61.57 103.67l-.64-.65 11.04-10.88-14.34-18.36.72-.56 14.83 19-11.61 11.45z"/><circle class="peers_svg__cls-4" cx="72.57" cy="91.89" r="4.31"/><path class="peers_svg__cls-2" d="M72.57 96.88a5 5 0 1 1 5-5 5 5 0 0 1-5 5zm0-8.62a3.63 3.63 0 1 0 3.63 3.63 3.63 3.63 0 0 0-3.63-3.63z"/><circle class="peers_svg__cls-4" cx="60.97" cy="103.35" r="4.31"/><path class="peers_svg__cls-2" d="M61 108.33a5 5 0 1 1 5-5 5 5 0 0 1-5 5zm0-8.61a3.63 3.63 0 1 0 3.63 3.63A3.63 3.63 0 0 0 61 99.72z"/><circle class="peers_svg__cls-3" cx="57.99" cy="73.5" r="8.21"/><path class="peers_svg__cls-2" d="M58 82.16a8.67 8.67 0 1 1 8.66-8.66A8.67 8.67 0 0 1 58 82.16zm0-16.42a7.76 7.76 0 1 0 7.76 7.76A7.77 7.77 0 0 0 58 65.74zM91.68 58.91l-3.03-21.45.9-.13 2.87 20.31 10.74-4.29.34.84-11.82 4.72z"/><circle class="peers_svg__cls-4" cx="89.1" cy="36.43" r="4.31"/><path class="peers_svg__cls-2" d="M89.1 41.41a5 5 0 1 1 5-5 5 5 0 0 1-5 5zm0-8.61a3.63 3.63 0 1 0 3.63 3.63 3.64 3.64 0 0 0-3.63-3.63z"/><circle class="peers_svg__cls-4" cx="105.93" cy="52.88" r="4.31"/><path class="peers_svg__cls-2" d="M105.93 57.87a5 5 0 1 1 5-5 5 5 0 0 1-5 5zm0-8.61a3.63 3.63 0 1 0 3.63 3.62 3.62 3.62 0 0 0-3.63-3.62zM25.75 73.65L23.44 57.5l.9-.12 2.2 15.34 23.28-.63.03.91-24.1.65z"/><circle class="peers_svg__cls-4" cx="26.38" cy="73.35" r="4.31"/><path class="peers_svg__cls-2" d="M26.37 78.34a5 5 0 0 1-3-1 5 5 0 1 1 3 1zm-2.15-2.07a3.62 3.62 0 0 0 5.07-.76 3.63 3.63 0 0 0-5.83-4.31 3.63 3.63 0 0 0 .76 5.07z"/><circle class="peers_svg__cls-4" cx="24.05" cy="57.22" r="4.31"/><path class="peers_svg__cls-2" d="M24 62.21a5 5 0 0 1-2.95-1 5 5 0 0 1-1.05-7 5 5 0 0 1 7-1 5 5 0 0 1-2.22 8.94 4.74 4.74 0 0 1-.78.06zm-2.1-2.07a3.64 3.64 0 0 0 5.1-.77 3.63 3.63 0 1 0-5.07.77z"/><path class="peers_svg__cls-3" d="M99.66 96.23l-12.38 17.89"/><path class="peers_svg__cls-2" transform="rotate(-55.35 93.464 105.166)" d="M82.59 104.72h21.76v.91H82.59z"/><path class="peers_svg__cls-2" transform="rotate(-41.15 106.843 105.316)" d="M106.4 95.92h.91v18.8h-.91z"/><circle class="peers_svg__cls-4" cx="114.06" cy="113.5" r="6.44"/><path class="peers_svg__cls-2" d="M114.06 120.62h-.26a7 7 0 1 1 .26 0zm0-12.88a6.18 6.18 0 1 0 .22 0zM99.29 96.49L84.85 76.54l17.57.62-.03.9-15.72-.54 13.36 18.44-.74.53z"/><circle class="peers_svg__cls-4" cx="85.75" cy="77.31" r="4.31"/><path class="peers_svg__cls-2" d="M85.76 82.3h-.19a5.08 5.08 0 1 1 .19 0zm0-8.61a3.63 3.63 0 0 0-3.62 3.49 3.64 3.64 0 0 0 3.49 3.76 3.63 3.63 0 1 0 .26-7.25z"/><circle class="peers_svg__cls-4" cx="102.41" cy="77.61" r="4.31"/><path class="peers_svg__cls-2" d="M102.41 82.6h-.18a5 5 0 0 1-4.8-5.16 5 5 0 1 1 5 5.17zm0-8.61a3.56 3.56 0 1 0 .13 0z"/><circle class="peers_svg__cls-3" cx="99.66" cy="96.23" r="8.21"/><path class="peers_svg__cls-2" d="M99.66 104.89h-.32a8.68 8.68 0 0 1-8.34-9 8.67 8.67 0 1 1 8.66 9zm-7.76-9a7.76 7.76 0 1 0 8-7.47 7.78 7.78 0 0 0-8 7.47zM101.19 129.98l-13.85-15.13-6.43 9.62-.76-.5 7.08-10.58 14.63 15.98-.67.61z"/><circle class="peers_svg__cls-3" cx="87.54" cy="113.86" r="3.95"/><path class="peers_svg__cls-2" d="M87.55 118.26a4.45 4.45 0 0 1-.81-.08 4.36 4.36 0 0 1-2.83-1.83 4.41 4.41 0 1 1 3.64 1.91zm0-7.89a3.49 3.49 0 0 0-3.42 2.85 3.45 3.45 0 0 0 .55 2.61 3.5 3.5 0 0 0 4.86.91 3.49 3.49 0 0 0-2-6.37z"/><circle class="peers_svg__cls-4" cx="102.07" cy="130.47" r="4.31"/><path class="peers_svg__cls-2" d="M102.08 135.46a4.86 4.86 0 0 1-.92-.09 4.92 4.92 0 0 1-3.2-2.08 5 5 0 1 1 6.93 1.29 4.92 4.92 0 0 1-2.81.88zm0-8.61a3.62 3.62 0 1 0 3 1.57 3.66 3.66 0 0 0-3.01-1.57z"/><circle class="peers_svg__cls-4" cx="78.89" cy="126.42" r="4.31"/><path class="peers_svg__cls-2" d="M78.89 131.4a5 5 0 0 1-4.12-2.16 5 5 0 0 1 1.3-6.93 4.88 4.88 0 0 1 3.73-.79 5 5 0 0 1-.91 9.88zm-3-2.93a3.63 3.63 0 1 0 3.66-5.62 3.6 3.6 0 0 0-2.72.58 3.64 3.64 0 0 0-.94 5zM132.7 113.56l-1.64-15.41-23.29-.23.01-.9 24.1.23 1.72 16.22-.9.09z"/><circle class="peers_svg__cls-4" cx="131.25" cy="97.52" r="4.31"/><path class="peers_svg__cls-2" d="M131.24 102.51a5 5 0 1 1 3.11-8.89 5 5 0 0 1-2.54 8.86 5.44 5.44 0 0 1-.57.03zm0-8.62h-.41a3.62 3.62 0 0 0-1.85 6.44 3.63 3.63 0 0 0 5.86-3.25 3.66 3.66 0 0 0-1.34-2.43 3.66 3.66 0 0 0-2.25-.76z"/><circle class="peers_svg__cls-4" cx="132.98" cy="113.73" r="4.31"/><path class="peers_svg__cls-2" d="M133 118.71a5 5 0 1 1 3.12-8.88 5 5 0 0 1-3.12 8.88zm0-8.6a3.62 3.62 0 1 0 2.26.78 3.63 3.63 0 0 0-2.26-.78z"/><circle class="peers_svg__cls-5" cx="57.99" cy="73.5" r="4.54"/><path class="peers_svg__cls-2" d="M58 78.38a4.88 4.88 0 1 1 4.88-4.88A4.89 4.89 0 0 1 58 78.38zm0-9.08a4.2 4.2 0 1 0 4.2 4.2 4.2 4.2 0 0 0-4.2-4.2z"/><circle class="peers_svg__cls-5" cx="99.49" cy="96.2" r="4.54"/><path class="peers_svg__cls-2" d="M99.49 101.08a4.88 4.88 0 1 1 4.88-4.88 4.89 4.89 0 0 1-4.88 4.88zm0-9.08a4.2 4.2 0 1 0 4.2 4.2 4.2 4.2 0 0 0-4.2-4.2z"/><circle class="peers_svg__cls-3" cx="93.37" cy="56.78" r="5.32"/><path class="peers_svg__cls-2" d="M93.37 62.55a5.77 5.77 0 1 1 5.77-5.77 5.78 5.78 0 0 1-5.77 5.77zm0-10.64a4.87 4.87 0 1 0 4.86 4.87 4.87 4.87 0 0 0-4.86-4.87z"/><circle class="peers_svg__cls-5" cx="93.37" cy="56.78" r="2.88"/><path class="peers_svg__cls-2" d="M93.37 60a3.23 3.23 0 1 1 3.22-3.22A3.22 3.22 0 0 1 93.37 60zm0-5.77a2.55 2.55 0 1 0 2.54 2.55 2.55 2.55 0 0 0-2.54-2.55z"/><circle class="peers_svg__cls-5" cx="87.54" cy="113.86" r="1.97"/><path class="peers_svg__cls-2" d="M87.54 116.17a2.31 2.31 0 1 1 2.32-2.31 2.31 2.31 0 0 1-2.32 2.31zm0-3.94a1.63 1.63 0 1 0 1.64 1.63 1.63 1.63 0 0 0-1.64-1.63z"/><circle class="peers_svg__cls-3" cx="31.2" cy="82.14" r=".52"/><path class="peers_svg__cls-2" d="M31.2 82.88a.74.74 0 0 1-.74-.74.74.74 0 1 1 1.48 0 .74.74 0 0 1-.74.74zm0-1a.29.29 0 1 0 .29.29.29.29 0 0 0-.29-.32z"/><circle class="peers_svg__cls-3" cx="57.99" cy="126.42" r=".52"/><path class="peers_svg__cls-2" d="M58 127.16a.74.74 0 0 1-.74-.74.74.74 0 1 1 1.48 0 .74.74 0 0 1-.74.74zm0-1a.29.29 0 1 0 .29.29.29.29 0 0 0-.29-.32z"/><circle class="peers_svg__cls-3" cx="122.2" cy="65.89" r=".52"/><path class="peers_svg__cls-2" d="M122.2 66.63a.74.74 0 1 1 0-1.48.74.74 0 0 1 0 1.48zm0-1a.29.29 0 1 0 .29.29.29.29 0 0 0-.29-.32z"/><circle class="peers_svg__cls-3" cx="135.55" cy="77.66" r=".52"/><path class="peers_svg__cls-2" d="M135.55 78.4a.74.74 0 1 1 0-1.48.74.74 0 1 1 0 1.48zm0-1a.29.29 0 1 0 .29.29.29.29 0 0 0-.29-.32z"/><circle class="peers_svg__cls-3" cx="53.45" cy="92.41" r=".52"/><path class="peers_svg__cls-2" d="M53.45 93.15a.74.74 0 1 1 0-1.48.74.74 0 1 1 0 1.48zm0-1a.29.29 0 1 0 .29.29.29.29 0 0 0-.29-.32z"/><circle class="peers_svg__cls-3" cx="36.86" cy="122.41" r=".52"/><path class="peers_svg__cls-2" d="M36.86 123.15a.74.74 0 1 1 .74-.74.74.74 0 0 1-.74.74zm0-1a.29.29 0 1 0 .29.29.29.29 0 0 0-.29-.32z"/><circle class="peers_svg__cls-3" cx="114.06" cy="82.65" r=".52"/><path class="peers_svg__cls-2" d="M114.06 83.4a.75.75 0 0 1-.74-.75.74.74 0 0 1 1.48 0 .75.75 0 0 1-.74.75zm0-1a.29.29 0 1 0 .29.29.29.29 0 0 0-.29-.33z"/><circle class="peers_svg__cls-3" cx="60.97" cy="26.82" r=".52"/><path class="peers_svg__cls-2" d="M61 27.56a.74.74 0 0 1 0-1.48.74.74 0 1 1 0 1.48zm0-1a.29.29 0 1 0 .29.29.29.29 0 0 0-.29-.32z"/><circle class="peers_svg__cls-3" cx="70.95" cy="33.74" r=".52"/><path class="peers_svg__cls-2" d="M71 34.49a.75.75 0 1 1 .74-.74.74.74 0 0 1-.74.74zm0-1a.29.29 0 1 0 .29.29.29.29 0 0 0-.29-.32z"/></g></g></svg>
