<svg viewBox="0 0 157.03 167.35" xmlns="http://www.w3.org/2000/svg"><path d="M151.26 113.81V53.54A20.24 20.24 0 0 0 141.12 36L88.61 5.79a20.25 20.25 0 0 0-20.18 0L15.91 36A20.24 20.24 0 0 0 5.77 53.54v60.27a20.27 20.27 0 0 0 10.14 17.55l52.52 30.2a20.25 20.25 0 0 0 20.18 0l52.51-30.2a20.27 20.27 0 0 0 10.14-17.55z" fill="#a0d6de" opacity=".2"/><path d="M98 103.13a.43.43 0 0 1-.36-.49.43.43 0 0 1 .49-.37.44.44 0 0 1 .36.5.44.44 0 0 1-.43.37H98zm-1.71-.28a.44.44 0 0 1-.36-.49.43.43 0 0 1 .5-.35.41.41 0 0 1 .35.49.42.42 0 0 1-.42.36h-.07zm-1.7-.27a.43.43 0 0 1-.36-.5.44.44 0 0 1 .49-.35.44.44 0 0 1 .37.49.44.44 0 0 1-.44.36zm-1.7-.27a.44.44 0 0 1-.37-.49.45.45 0 0 1 .5-.37.44.44 0 0 1 .36.5.45.45 0 0 1-.42.37h-.07zm-1.68-.31a.43.43 0 0 1-.35-.5.42.42 0 0 1 .49-.35.43.43 0 0 1 .36.49.44.44 0 0 1-.43.36zm-1.7-.28a.42.42 0 0 1-.36-.49.44.44 0 0 1 .5-.36.43.43 0 0 1 .35.49.42.42 0 0 1-.42.37h-.07zm-1.71-.27a.43.43 0 0 1-.35-.49.42.42 0 0 1 .49-.36.43.43 0 0 1 .36.5.42.42 0 0 1-.43.36h-.07zm-1.7-.27a.43.43 0 0 1-.35-.5.42.42 0 0 1 .49-.35.43.43 0 0 1 .36.49.44.44 0 0 1-.43.36zm-1.7-.18a.44.44 0 0 1-.36-.5.44.44 0 0 1 .49-.36.44.44 0 0 1 .37.5.45.45 0 0 1-.44.36zm-1.7-.27a.44.44 0 0 1-.36-.5.44.44 0 0 1 .5-.36.43.43 0 0 1 .35.5.44.44 0 0 1-.42.36zm-1.7-.33a.42.42 0 0 1-.36-.49.42.42 0 0 1 .49-.36.44.44 0 0 1 .36.49.43.43 0 0 1-.43.37H81zm-1.71-.27a.43.43 0 0 1-.35-.5.42.42 0 0 1 .49-.35.42.42 0 0 1 .35.49.41.41 0 0 1-.42.36zm-1.7-.27a.44.44 0 0 1-.36-.5.44.44 0 0 1 .49-.36.43.43 0 0 1 .36.5.43.43 0 0 1-.43.36zm-1.71-.28a.42.42 0 0 1-.35-.49.44.44 0 0 1 .49-.36.43.43 0 0 1 .36.5.44.44 0 0 1-.43.36h-.07zm-1.69-.26a.44.44 0 0 1-.37-.5.43.43 0 0 1 .49-.36.44.44 0 0 1 .37.49.44.44 0 0 1-.43.37zM72.48 99a.43.43 0 0 1-.36-.49.43.43 0 0 1 .5-.36.42.42 0 0 1 .35.49.44.44 0 0 1-.42.37h-.07z" fill="#2a2b60"/><path d="M58.67 81.11l32.41-14.48" fill="#fdd52f"/><path d="M58.5 80.715l32.409-14.49.35.785L58.852 81.5zM40.577 48.839l.755-.412L58.02 79.01l-.755.412z" fill="#2a2b60"/><circle cx="41.73" cy="49.41" fill="#51b7b7" r="6.12"/><path d="M41.73 56.19a6.78 6.78 0 1 1 6.77-6.78 6.78 6.78 0 0 1-6.77 6.78zm0-12.25a5.48 5.48 0 1 0 5.48 5.47 5.48 5.48 0 0 0-5.48-5.47zM33.14 114.71l-.68-.52 25.81-33.26 5.05-23.62.84.18-5.09 23.81-.06.08z" fill="#2a2b60"/><circle cx="63.74" cy="57.4" fill="#51b7b7" r="4.1"/><path d="M63.74 62.15a4.75 4.75 0 1 1 4.74-4.75 4.75 4.75 0 0 1-4.74 4.75zm0-8.2a3.45 3.45 0 1 0 3.45 3.45 3.46 3.46 0 0 0-3.45-3.4z" fill="#2a2b60"/><circle cx="34.51" cy="112.74" fill="#51b7b7" r="5.19"/><path d="M34.51 118.58a5.84 5.84 0 1 1 5.84-5.84 5.85 5.85 0 0 1-5.84 5.84zm0-10.38a4.54 4.54 0 1 0 4.54 4.54 4.55 4.55 0 0 0-4.54-4.54zM62.08 109.82l-.61-.62 10.5-10.35-13.64-17.47.68-.53 14.11 18.07z" fill="#2a2b60"/><circle cx="72.55" cy="98.61" fill="#51b7b7" r="4.1"/><path d="M72.55 103.36a4.75 4.75 0 1 1 4.74-4.75 4.75 4.75 0 0 1-4.74 4.75zm0-8.2A3.45 3.45 0 1 0 76 98.61a3.46 3.46 0 0 0-3.45-3.45z" fill="#2a2b60"/><circle cx="61.51" cy="109.51" fill="#51b7b7" r="4.1"/><path d="M61.51 114.26a4.75 4.75 0 1 1 4.75-4.75 4.75 4.75 0 0 1-4.75 4.75zm0-8.2a3.45 3.45 0 1 0 3.49 3.45 3.46 3.46 0 0 0-3.49-3.45z" fill="#2a2b60"/><circle cx="58.67" cy="81.11" fill="#fdd52f" r="7.81"/><path d="M58.67 89.36a8.25 8.25 0 1 1 8.25-8.25 8.25 8.25 0 0 1-8.25 8.25zm0-15.63a7.39 7.39 0 1 0 7.38 7.38 7.39 7.39 0 0 0-7.38-7.38zM90.73 67.24l-2.89-20.42.86-.12 2.73 19.33 10.22-4.09.32.8z" fill="#2a2b60"/><circle cx="88.27" cy="45.84" fill="#51b7b7" r="4.1"/><path d="M88.27 50.59A4.75 4.75 0 1 1 93 45.84a4.75 4.75 0 0 1-4.73 4.75zm0-8.2a3.45 3.45 0 1 0 3.45 3.45 3.46 3.46 0 0 0-3.45-3.45z" fill="#2a2b60"/><circle cx="104.29" cy="61.5" fill="#51b7b7" r="4.1"/><path d="M104.29 66.24A4.75 4.75 0 1 1 109 61.5a4.75 4.75 0 0 1-4.71 4.74zm0-8.19a3.45 3.45 0 1 0 3.45 3.45 3.45 3.45 0 0 0-3.45-3.45zM28 81.26L25.8 65.9l.85-.13 2.1 14.6 22.15-.59.03.86z" fill="#2a2b60"/><circle cx="28.59" cy="80.98" fill="#51b7b7" r="4.1"/><path d="M28.59 85.72a4.72 4.72 0 0 1-2.82-.93 4.74 4.74 0 1 1 5.64-7.63 4.75 4.75 0 0 1 1 6.63 4.75 4.75 0 0 1-3.82 1.93zm-2.05-2A3.44 3.44 0 0 0 32 80.46a3.41 3.41 0 0 0-1.36-2.26 3.44 3.44 0 0 0-2.56-.64 3.4 3.4 0 0 0-2.26 1.37 3.45 3.45 0 0 0 .72 4.82z" fill="#2a2b60"/><circle cx="26.38" cy="65.62" fill="#51b7b7" r="4.1"/><path d="M26.37 70.37a4.74 4.74 0 0 1-2.81-.93 4.74 4.74 0 1 1 6.64-1 4.67 4.67 0 0 1-3.11 1.87 4.37 4.37 0 0 1-.72.06zm-2-2a3.45 3.45 0 1 0 4.1-5.55 3.44 3.44 0 0 0-4.82.72 3.46 3.46 0 0 0 .72 4.83z" fill="#2a2b60"/><path d="M98.32 102.74l-11.78 17.02" fill="#fdd52f"/><path d="M86.193 119.516l11.769-17.029.707.489L86.9 120.005zM98.956 104.938l.648-.566 11.765 13.464-.647.565z" fill="#2a2b60"/><circle cx="112.02" cy="119.17" fill="#51b7b7" r="6.12"/><path d="M112 125.94h-.25a6.77 6.77 0 0 1-4.36-11.73 6.76 6.76 0 0 1 11.37 5.21 6.77 6.77 0 0 1-6.76 6.52zm0-12.25a5.9 5.9 0 1 0 .21 0zM97.97 102.99L84.23 84.01l16.72.59-.03.86-14.96-.52 12.71 17.54z" fill="#2a2b60"/><circle cx="85.09" cy="84.74" fill="#51b7b7" r="4.1"/><path d="M85.09 89.49h-.18a4.58 4.58 0 1 1 .18 0zm0-8.2a3.46 3.46 0 0 0-3.45 3.33A3.45 3.45 0 0 0 85 88.19a3.45 3.45 0 1 0 .25-6.89z" fill="#2a2b60"/><circle cx="100.93" cy="85.03" fill="#51b7b7" r="4.1"/><path d="M100.94 89.77h-.18a4.7 4.7 0 0 1-3.3-1.51 4.74 4.74 0 1 1 3.48 1.51zm0-8.19a3.39 3.39 0 1 0 .13 0z" fill="#2a2b60"/><circle cx="98.32" cy="102.74" fill="#fdd52f" r="7.81"/><path d="M98.32 111H98a8.26 8.26 0 0 1-7.94-8.54 8.25 8.25 0 1 1 8.26 8.54zm-7.38-8.51a7.38 7.38 0 1 0 7.65-7.11 7.38 7.38 0 0 0-7.65 7.11zM99.78 134.85L86.6 120.46l-6.12 9.15-.72-.48 6.73-10.07 13.92 15.21z" fill="#2a2b60"/><circle cx="86.79" cy="119.51" fill="#fdd52f" r="3.75"/><path d="M86.8 123.7a4.11 4.11 0 0 1-.78-.07 4.17 4.17 0 0 1-2.68-1.75 4.2 4.2 0 0 1 1.08-5.82 4.19 4.19 0 1 1 2.38 7.64zm0-7.51a3.32 3.32 0 0 0-2.73 5.2 3.32 3.32 0 0 0 5.48-3.75 3.36 3.36 0 0 0-2.75-1.45z" fill="#2a2b60"/><circle cx="100.62" cy="135.32" fill="#51b7b7" r="4.1"/><path d="M100.63 140.06a4.3 4.3 0 0 1-.88-.08 4.74 4.74 0 0 1-1.82-8.57 4.74 4.74 0 1 1 5.37 7.82 4.7 4.7 0 0 1-2.67.83zm0-8.19a3.52 3.52 0 0 0-2 .6 3.45 3.45 0 0 0 1.32 6.24 3.4 3.4 0 0 0 2.59-.55 3.45 3.45 0 0 0-2-6.29z" fill="#2a2b60"/><circle cx="78.55" cy="131.46" fill="#51b7b7" r="4.1"/><path d="M78.56 136.21a4.77 4.77 0 0 1-3.92-2.06 4.75 4.75 0 0 1 1.23-6.6 4.75 4.75 0 0 1 6.6 1.23 4.74 4.74 0 0 1-3.91 7.43zm-2.85-2.8a3.45 3.45 0 1 0 .89-4.79 3.45 3.45 0 0 0-.89 4.79zM129.76 119.23l-1.57-14.66-22.16-.22.01-.86 22.93.22 1.64 15.43z" fill="#2a2b60"/><circle cx="128.37" cy="103.97" fill="#51b7b7" r="4.1"/><path d="M128.36 108.71a4.75 4.75 0 0 1-3.7-7.7 4.76 4.76 0 0 1 6.67-.75 4.75 4.75 0 0 1-2.42 8.42zm0-8.19h-.4a3.45 3.45 0 0 0-3 3.82 3.45 3.45 0 0 0 6.86-.78 3.42 3.42 0 0 0-1.28-2.31 3.44 3.44 0 0 0-2.16-.73z" fill="#2a2b60"/><circle cx="130.02" cy="119.39" fill="#51b7b7" r="4.1"/><path d="M130 124.13a4.74 4.74 0 0 1-3.71-7.69 4.75 4.75 0 0 1 6.67-.76 4.74 4.74 0 0 1-3 8.45zm0-8.19a3.45 3.45 0 1 0 2.15.75 3.46 3.46 0 0 0-2.15-.75z" fill="#2a2b60"/><circle cx="58.67" cy="81.11" fill="#dab41a" r="4.32"/><path d="M58.67 85.76a4.65 4.65 0 1 1 4.65-4.65 4.65 4.65 0 0 1-4.65 4.65zm0-8.64a4 4 0 1 0 4 4 4 4 0 0 0-4-4z" fill="#2a2b60"/><circle cx="98.16" cy="102.71" fill="#dab41a" r="4.32"/><path d="M98.16 107.35a4.64 4.64 0 1 1 4.64-4.64 4.65 4.65 0 0 1-4.64 4.64zm0-8.64a4 4 0 1 0 4 4 4 4 0 0 0-4-4z" fill="#2a2b60"/><circle cx="92.33" cy="65.2" fill="#fdd52f" r="5.06"/><path d="M92.33 70.69a5.49 5.49 0 1 1 5.49-5.49 5.5 5.5 0 0 1-5.49 5.49zm0-10.11A4.63 4.63 0 1 0 97 65.2a4.62 4.62 0 0 0-4.67-4.62z" fill="#2a2b60"/><circle cx="92.33" cy="65.2" fill="#dab41a" r="2.74"/><path d="M92.33 68.27a3.07 3.07 0 1 1 3.07-3.07 3.07 3.07 0 0 1-3.07 3.07zm0-5.49a2.42 2.42 0 1 0 2.42 2.42 2.43 2.43 0 0 0-2.42-2.42z" fill="#2a2b60"/><circle cx="86.79" cy="119.51" fill="#dab41a" r="1.88"/><path d="M86.79 121.72a2.21 2.21 0 1 1 2.2-2.21 2.21 2.21 0 0 1-2.2 2.21zm0-3.76a1.56 1.56 0 1 0 1.55 1.55 1.56 1.56 0 0 0-1.55-1.51z" fill="#2a2b60"/><circle cx="33.18" cy="89.33" fill="#fdd52f" r=".49"/><path d="M33.18 90a.71.71 0 0 1-.71-.71.71.71 0 0 1 1.42 0 .71.71 0 0 1-.71.71zm0-1a.27.27 0 0 0-.27.27.28.28 0 0 0 .27.28.29.29 0 0 0 .28-.28.28.28 0 0 0-.28-.21z" fill="#2a2b60"/><circle cx="58.67" cy="131.46" fill="#fdd52f" r=".49"/><path d="M58.67 132.17a.71.71 0 0 1-.71-.71.71.71 0 0 1 1.42 0 .71.71 0 0 1-.71.71zm0-1a.27.27 0 0 0-.27.27.28.28 0 0 0 .27.28.29.29 0 0 0 .28-.28.28.28 0 0 0-.28-.25z" fill="#2a2b60"/><circle cx="119.76" cy="73.87" fill="#fdd52f" r=".49"/><path d="M119.76 74.58a.7.7 0 0 1-.7-.71.7.7 0 0 1 .7-.7.7.7 0 0 1 .71.7.71.71 0 0 1-.71.71zm0-1a.27.27 0 0 0-.27.27.28.28 0 0 0 .27.28.29.29 0 0 0 .28-.28.28.28 0 0 0-.28-.25z" fill="#2a2b60"/><circle cx="132.47" cy="85.07" fill="#fdd52f" r=".49"/><path d="M132.47 85.78a.71.71 0 0 1-.71-.71.7.7 0 0 1 .71-.7.7.7 0 0 1 .7.7.7.7 0 0 1-.7.71zm0-1a.28.28 0 1 0 0 .55.28.28 0 0 0 0-.55z" fill="#2a2b60"/><circle cx="54.35" cy="99.1" fill="#fdd52f" r=".49"/><path d="M54.35 99.81a.71.71 0 1 1 .71-.71.71.71 0 0 1-.71.71zm0-1a.28.28 0 1 0 .28.27.28.28 0 0 0-.28-.25z" fill="#2a2b60"/><circle cx="38.57" cy="127.65" fill="#fdd52f" r=".49"/><path d="M38.57 128.36a.71.71 0 1 1 .71-.71.71.71 0 0 1-.71.71zm0-1a.28.28 0 0 0-.28.27.28.28 0 0 0 .56 0 .28.28 0 0 0-.28-.25z" fill="#2a2b60"/><circle cx="112.02" cy="89.82" fill="#fdd52f" r=".49"/><path d="M112 90.53a.71.71 0 0 1-.71-.71.71.71 0 0 1 1.42 0 .71.71 0 0 1-.71.71zm0-1a.28.28 0 1 0 0 .55.28.28 0 0 0 0-.55z" fill="#2a2b60"/><circle cx="61.51" cy="36.7" fill="#fdd52f" r=".49"/><path d="M61.51 37.41a.7.7 0 0 1-.7-.71.7.7 0 0 1 .7-.7.7.7 0 0 1 .71.7.71.71 0 0 1-.71.71zm0-1a.28.28 0 0 0 0 .55.28.28 0 1 0 0-.55z" fill="#2a2b60"/><circle cx="71" cy="43.29" fill="#fdd52f" r=".49"/><path d="M71 44a.71.71 0 1 1 .71-.71.71.71 0 0 1-.71.71zm0-1a.28.28 0 1 0 .28.28A.29.29 0 0 0 71 43z" fill="#2a2b60"/></svg>