<svg xmlns="http://www.w3.org/2000/svg" viewBox="0 0 157.03 167.35"><defs><style>.web_svg__cls-5{fill:#a0d6de}.web_svg__cls-2{fill:#51b7b7}.web_svg__cls-3{fill:#2a2b60}.web_svg__cls-4{fill:#fdd52f}</style></defs><g id="web_svg__Web"><path d="M151.26 113.81V53.54A20.24 20.24 0 0 0 141.12 36L88.61 5.79a20.25 20.25 0 0 0-20.18 0L15.91 36A20.24 20.24 0 0 0 5.77 53.54v60.27a20.27 20.27 0 0 0 10.14 17.55l52.52 30.2a20.25 20.25 0 0 0 20.18 0l52.51-30.2a20.27 20.27 0 0 0 10.14-17.55z" opacity=".2" fill="#a0d6de"/><circle class="web_svg__cls-2" cx="90.22" cy="64.64" r="31.47"/><path class="web_svg__cls-3" d="M90.2 96.88a32.25 32.25 0 1 1 29.44-19.11A32.31 32.31 0 0 1 90.2 96.88zm.06-63a30.73 30.73 0 1 0 28 43.24 30.73 30.73 0 0 0-28-43.24z"/><path class="web_svg__cls-3" transform="rotate(-.08 93.06 64.523)" d="M89.84 33.17h.75v63.28h-.75z"/><path class="web_svg__cls-3" d="M58.75 65.07l-.01-.75 62.46-.1v.75l-62.45.1zM67.64 86.81l-.56-.5a30.62 30.62 0 0 1 22.67-10.18h.06a30.58 30.58 0 0 1 22.64 10.1l-.56.5a29.81 29.81 0 0 0-22.08-9.85h-.06a29.89 29.89 0 0 0-22.11 9.93zM89.66 53.15A30.58 30.58 0 0 1 67 43.05l.55-.51a29.83 29.83 0 0 0 22.1 9.86 29.82 29.82 0 0 0 22.1-9.94l.56.5a30.59 30.59 0 0 1-22.6 10.19z"/><path class="web_svg__cls-3" d="M90.48 96.25l-.44-.6c10.75-7.79 16.9-19.06 16.88-30.93 0-11.22-6.37-22.73-17-30.8l.45-.6c10.79 8.21 17.25 20 17.27 31.4.05 12.11-6.22 23.61-17.16 31.53z"/><path class="web_svg__cls-3" d="M89.58 95.75c-10.42-7.93-16.42-19.26-16.44-31.08s5.93-23.18 16.33-31.15l.46.6c-10.22 7.83-16.06 19-16 30.55S79.8 87.37 90 95.16zM89.68 99.77h1.5v25.56h-1.5z"/><path class="web_svg__cls-3" d="M111.24 126.08H62.68a6.51 6.51 0 0 1-6.51-6.5V85.26H30.52a6.92 6.92 0 0 1-6.9-6.91V61.5h1.5v16.85a5.41 5.41 0 0 0 5.4 5.41h27.15v35.82a5 5 0 0 0 5 5h48.56a3.19 3.19 0 0 0 3.19-3.18v-16.54h1.5v16.54a4.69 4.69 0 0 1-4.68 4.68z"/><circle class="web_svg__cls-2" cx="90.28" cy="124.54" r="3.99"/><path class="web_svg__cls-3" d="M90.28 129.28a4.75 4.75 0 1 1 4.72-4.74 4.75 4.75 0 0 1-4.72 4.74zm0-8a3.25 3.25 0 1 0 3.25 3.25 3.25 3.25 0 0 0-3.25-3.24z"/><path class="web_svg__cls-4" d="M87.24 96.54l.05 4.5c-.05 1.61 1.25 2.7 3.23 2.7a2.88 2.88 0 0 0 3.11-2.7v-4.5z"/><path class="web_svg__cls-3" d="M90.52 104.49a4.28 4.28 0 0 1-3.11-1.15 3.12 3.12 0 0 1-.87-2.33l-.06-5.22h7.9V101a3.33 3.33 0 0 1-1 2.33 4 4 0 0 1-2.86 1.16zM88 97.29V101a1.61 1.61 0 0 0 .45 1.26 2.77 2.77 0 0 0 2 .7 2.47 2.47 0 0 0 1.81-.68 1.81 1.81 0 0 0 .55-1.26v-3.73z"/><circle class="web_svg__cls-4" cx="115.18" cy="101.37" r="4.14"/><path class="web_svg__cls-3" d="M115.18 106.26a4.89 4.89 0 1 1 4.89-4.89 4.9 4.9 0 0 1-4.89 4.89zm0-8.28a3.39 3.39 0 1 0 3.39 3.39 3.39 3.39 0 0 0-3.39-3.37z"/><path class="web_svg__cls-5" d="M47 55h-.79a5.43 5.43 0 0 0-5.47 5.35v37.7a5.43 5.43 0 0 0 5.47 5.35h27.31A5.43 5.43 0 0 0 79 98.07V67.42L66.3 55H54.55"/><path class="web_svg__cls-3" d="M73.52 103.92H46.23a5.92 5.92 0 0 1-6-5.85v-37.7a5.92 5.92 0 0 1 6-5.85H47v1h-.8a4.91 4.91 0 0 0-5 4.85v37.7a4.92 4.92 0 0 0 5 4.85h27.32a4.92 4.92 0 0 0 5-4.85V67.63L66.1 55.52H54.55v-1h12l13 12.69v30.86a5.92 5.92 0 0 1-6.03 5.85z"/><path class="web_svg__cls-2" d="M66.14 55.32v6.73a5.45 5.45 0 0 0 5.33 5.53h7.08"/><path class="web_svg__cls-3" d="M78.55 68h-7.08a5.81 5.81 0 0 1-5.7-5.9v-6.78h.75v6.73a5.06 5.06 0 0 0 5 5.15h7.08zM71.06 100.42H48.69a4.82 4.82 0 0 1-4.86-4.78V63.38a4.74 4.74 0 0 1 2.15-4l.41.62a4 4 0 0 0-1.81 3.34v32.3a4.07 4.07 0 0 0 4.11 4h22.37a4.07 4.07 0 0 0 4.11-4V84.73h.75v10.91a4.82 4.82 0 0 1-4.86 4.78z"/><path class="web_svg__cls-3" d="M53.68 56.24v7.09a2.49 2.49 0 0 1-2.43 2.41 2.59 2.59 0 0 1-2.53-2.43v-7.49a1.73 1.73 0 0 1 1.64-1.53 1.56 1.56 0 0 1 1.44 1.51v6.42s-.3.61-.62.61-.71-.22-.63-.56v-6h-.63v5.92c0 .84.46 1.22 1.3 1.22s1.23-.43 1.23-1.28v-6.28a2 2 0 0 0-2.16-2.14A2 2 0 0 0 48 55.87v7.42a2.9 2.9 0 0 0 3.11 3 2.85 2.85 0 0 0 3.14-2.91v-7.14z"/><circle class="web_svg__cls-4" cx="24.37" cy="60.16" r="4.14"/><path class="web_svg__cls-3" d="M24.37 65.05a4.89 4.89 0 1 1 4.89-4.89 4.89 4.89 0 0 1-4.89 4.89zm0-8.28a3.39 3.39 0 1 0 3.39 3.39 3.39 3.39 0 0 0-3.39-3.39z"/><path class="web_svg__cls-5" d="M47.59 68.79h11.76L72 81.19v30.65a5.44 5.44 0 0 1-5.48 5.35H39.28a5.43 5.43 0 0 1-5.48-5.35v-37.7a5.43 5.43 0 0 1 5.48-5.35h8.31z"/><path class="web_svg__cls-3" d="M66.56 117.69H39.28a5.92 5.92 0 0 1-6-5.85v-37.7a5.92 5.92 0 0 1 6-5.85h20.27L72.54 81v30.86a5.92 5.92 0 0 1-5.98 5.83zm-27.28-48.4a4.92 4.92 0 0 0-5 4.85v37.7a4.92 4.92 0 0 0 5 4.85h27.28a4.92 4.92 0 0 0 5-4.85V81.4L59.14 69.29z"/><path class="web_svg__cls-2" d="M59.19 69.1v6.73a5.44 5.44 0 0 0 5.32 5.52h7.08"/><path class="web_svg__cls-3" d="M71.59 81.72h-7.08a5.81 5.81 0 0 1-5.7-5.9V69.1h.75v6.72a5.06 5.06 0 0 0 5 5.15h7.08zM64.1 114.19H41.74a4.83 4.83 0 0 1-4.87-4.78V77.15a4.76 4.76 0 0 1 2.15-4 .37.37 0 0 1 .42.62 4 4 0 0 0-1.82 3.34v32.26a4.08 4.08 0 0 0 4.12 4H64.1a4.07 4.07 0 0 0 4.11-4V98.5a.38.38 0 0 1 .38-.37.37.37 0 0 1 .37.37v10.91a4.82 4.82 0 0 1-4.86 4.78z"/><path class="web_svg__cls-3" d="M50.37 95.22H40.7a.38.38 0 0 1-.37-.38.37.37 0 0 1 .37-.37h9.67a.37.37 0 0 1 .37.37.38.38 0 0 1-.37.38zM48.71 99.68h-7.86a.38.38 0 0 1 0-.75h7.86a.38.38 0 0 1 0 .75zM65 99.68H50.52a.38.38 0 1 1 0-.75H65a.38.38 0 1 1 0 .75zM59.43 103.64h-6.65a.38.38 0 0 1 0-.75h6.65a.38.38 0 0 1 0 .75zM65.47 103.64h-4.84a.38.38 0 0 1 0-.75h4.84a.38.38 0 0 1 0 .75zM51 103.64H40.7a.38.38 0 0 1 0-.75H51a.38.38 0 1 1 0 .75zM64.86 107.61h-8.45a.38.38 0 0 1-.38-.38.37.37 0 0 1 .38-.37h8.45a.37.37 0 0 1 .38.37.38.38 0 0 1-.38.38zM55.2 107.61H40.7a.38.38 0 0 1-.37-.38.37.37 0 0 1 .37-.37h14.5a.36.36 0 0 1 .37.37.37.37 0 0 1-.37.38zM50.37 90.75H40.7a.38.38 0 0 1 0-.75h9.67a.38.38 0 0 1 0 .75zM50.37 86.29H40.7a.38.38 0 0 1 0-.75h9.67a.38.38 0 0 1 0 .75z"/><rect x="52.21" y="84.57" width="11.96" height="11.65" rx="1.27" ry="1.27" fill="#fff"/><path class="web_svg__cls-3" d="M62.89 96.59h-9.41a1.65 1.65 0 0 1-1.65-1.65v-9.1a1.65 1.65 0 0 1 1.65-1.65h9.41a1.65 1.65 0 0 1 1.65 1.65v9.1a1.65 1.65 0 0 1-1.65 1.65zm-9.41-11.65a.9.9 0 0 0-.9.9v9.1a.9.9 0 0 0 .9.9h9.41a.9.9 0 0 0 .9-.9v-9.1a.9.9 0 0 0-.9-.9z"/><circle class="web_svg__cls-4" cx="55.74" cy="87.56" r="1.69"/><path class="web_svg__cls-3" d="M55.74 89.49a1.94 1.94 0 1 1 1.93-1.93 1.93 1.93 0 0 1-1.93 1.93zm0-3.37a1.44 1.44 0 1 0 1.43 1.44 1.44 1.44 0 0 0-1.43-1.44z"/><path class="web_svg__cls-2" d="M52.21 93.46l2.86-3.07 2.31 3-1.87 2.8h-2.22S52.21 96 52.21 95z"/><path class="web_svg__cls-3" d="M55.64 96.47h-2.35A1.47 1.47 0 0 1 52 95v-1.64L55.09 90l2.6 3.41zm-3.18-2.91V95c0 .76.83.91.87.92h2l1.71-2.53-2-2.66z"/><path class="web_svg__cls-2" d="M64.13 92.5l-3-4.27-5.56 8H63a1.19 1.19 0 0 0 1.21-1.15v-2.57z"/><path class="web_svg__cls-3" d="M63 96.47h-7.95l6-8.68 3.19 4.48h.14v2.78A1.43 1.43 0 0 1 63 96.47zM56 96h7a.93.93 0 0 0 .95-.9v-2.46l-2.83-4zM54.13 80.72H49.3a.37.37 0 0 1-.37-.37.38.38 0 0 1 .37-.35h4.83a.38.38 0 0 1 .37.38.37.37 0 0 1-.37.34zM44 77.44h-3.5a.38.38 0 1 1 0-.75H44a.38.38 0 1 1 0 .75zM48 80.72h-7.46a.37.37 0 0 1-.38-.37.38.38 0 0 1 .38-.38H48a.38.38 0 0 1 .38.38.37.37 0 0 1-.38.37z"/></g></svg>