<svg xmlns="http://www.w3.org/2000/svg" viewBox="0 0 157.03 167.35"><defs><style>.window_svg__cls-5{fill:#a0d6de}.window_svg__cls-2{fill:#2a2b60}.window_svg__cls-3{fill:#51b7b7}.window_svg__cls-4{fill:#fdd52f}</style></defs><g id="window_svg__Window"><path d="M151.26 113.81V53.54A20.24 20.24 0 0 0 141.12 36L88.61 5.79a20.25 20.25 0 0 0-20.18 0L15.91 36A20.24 20.24 0 0 0 5.77 53.54v60.27a20.27 20.27 0 0 0 10.14 17.55l52.52 30.2a20.25 20.25 0 0 0 20.18 0l52.51-30.2a20.27 20.27 0 0 0 10.14-17.55z" opacity=".2" fill="#a0d6de"/><path class="window_svg__cls-2" d="M80.27 101.4h1.5v25.56h-1.5z"/><path class="window_svg__cls-2" d="M80.57 116.71H58.26a6.52 6.52 0 0 1-6.51-6.51v-10a4.35 4.35 0 0 0-4.34-4.35h-10.3A6.91 6.91 0 0 1 30.2 89V72.13h1.5V89a5.41 5.41 0 0 0 5.41 5.4h10.3a5.86 5.86 0 0 1 5.84 5.85v10a5 5 0 0 0 5 5h22.32zM101.83 127.71H81v-1.5h20.81A3.2 3.2 0 0 0 105 123v-11.77h1.5V123a4.7 4.7 0 0 1-4.67 4.71z"/><circle class="window_svg__cls-3" cx="80.87" cy="126.16" r="3.99"/><path class="window_svg__cls-2" d="M80.87 130.91a4.75 4.75 0 1 1 4.74-4.75 4.75 4.75 0 0 1-4.74 4.75zm0-8a3.25 3.25 0 1 0 3.24 3.24 3.25 3.25 0 0 0-3.24-3.23z"/><path class="window_svg__cls-4" d="M77.82 98.16l.05 4.5c-.05 1.61 1.25 2.71 3.23 2.71a2.87 2.87 0 0 0 3.11-2.7v-4.51z"/><path class="window_svg__cls-2" d="M81.1 106.11A4.25 4.25 0 0 1 78 105a3.14 3.14 0 0 1-.87-2.32l-.06-5.23H85v5.26a3.33 3.33 0 0 1-1 2.29 4 4 0 0 1-2.9 1.11zm-2.52-7.2v3.74a1.71 1.71 0 0 0 .45 1.27 2.8 2.8 0 0 0 2 .69 2.45 2.45 0 0 0 1.81-.67 1.85 1.85 0 0 0 .55-1.27v-3.76z"/><circle class="window_svg__cls-4" cx="105.77" cy="112.99" r="4.14"/><path class="window_svg__cls-2" d="M105.77 117.89a4.9 4.9 0 1 1 4.89-4.9 4.91 4.91 0 0 1-4.89 4.9zm0-8.29a3.4 3.4 0 1 0 3.39 3.39 3.4 3.4 0 0 0-3.39-3.39z"/><circle class="window_svg__cls-4" cx="30.96" cy="72.13" r="4.14"/><path class="window_svg__cls-2" d="M31 77a4.89 4.89 0 1 1 4.9-4.89A4.9 4.9 0 0 1 31 77zm0-8.28a3.39 3.39 0 1 0 3.4 3.39 3.39 3.39 0 0 0-3.4-3.37z"/><rect class="window_svg__cls-3" x="53.64" y="44.41" width="53.75" height="53.75" rx="5.54" ry="5.54"/><path class="window_svg__cls-2" d="M101.85 98.91H59.18a6.29 6.29 0 0 1-6.29-6.29V50a6.29 6.29 0 0 1 6.29-6.29h42.67a6.29 6.29 0 0 1 6.29 6.29v42.62a6.29 6.29 0 0 1-6.29 6.29zM59.18 45.16A4.8 4.8 0 0 0 54.39 50v42.62a4.8 4.8 0 0 0 4.79 4.79h42.67a4.8 4.8 0 0 0 4.79-4.79V50a4.8 4.8 0 0 0-4.79-4.79z"/><path class="window_svg__cls-5" d="M54.5 52.71h52.03v39.52H54.5z"/><path class="window_svg__cls-2" d="M54.03 52.33h53.83v.75H54.03z"/><circle cx="60.36" cy="48.76" r="1.58" fill="#b7dfe4"/><path class="window_svg__cls-2" d="M60.36 50.71a2 2 0 1 1 2-2 2 2 0 0 1-2 2zm0-3.16a1.21 1.21 0 1 0 1.2 1.21 1.21 1.21 0 0 0-1.2-1.21z"/><circle cx="65.89" cy="48.76" r="1.58" fill="#fff"/><path class="window_svg__cls-2" d="M65.89 50.71a2 2 0 1 1 2-2 2 2 0 0 1-2 2zm0-3.16a1.21 1.21 0 1 0 1.21 1.21 1.21 1.21 0 0 0-1.21-1.21z"/><circle class="window_svg__cls-4" cx="71.42" cy="48.76" r="1.58"/><path class="window_svg__cls-2" d="M71.42 50.71a2 2 0 1 1 2-2 1.95 1.95 0 0 1-2 2zm0-3.16a1.21 1.21 0 1 0 1.21 1.21 1.21 1.21 0 0 0-1.21-1.21zM53.6 91.86h53.83v.75H53.6zM58.92 61.58l.62-.45.71-.53c.24-.19.47-.36.71-.53l.61-.46q-.23-.2-.57-.45c-.23-.18-.47-.36-.71-.56l-.72-.6q-.34-.26-.57-.45a.7.7 0 0 1-.17-.44.5.5 0 0 1 .52-.5.79.79 0 0 1 .29.07 2.31 2.31 0 0 1 .29.23l.57.44.69.55.7.54.56.44.3.24a.56.56 0 0 1 .25.46.63.63 0 0 1-.21.44l-.75.55-.84.63-.83.62-.75.55a.8.8 0 0 1-.33.08.53.53 0 0 1-.37-.14.48.48 0 0 1-.15-.36.69.69 0 0 1 .15-.37zM63.42 63.65a.56.56 0 0 1-.14-.36.46.46 0 0 1 .16-.35.67.67 0 0 1 .45-.19H71a.63.63 0 0 1 .38.23.56.56 0 0 1 .11.31.48.48 0 0 1-.13.34.89.89 0 0 1-.4.21h-7.11a.64.64 0 0 1-.43-.19z"/><path class="window_svg__cls-5" d="M48.49 107.37l-3.48 3.49"/><path class="window_svg__cls-2" transform="rotate(-45 46.756 109.113)" d="M44.29 108.62h4.92v1h-4.92z"/><rect class="window_svg__cls-4" x="34.03" y="107.77" width="7.03" height="21.1" rx="2.72" ry="2.72" transform="rotate(45 37.552 118.315)"/><path class="window_svg__cls-2" d="M32.57 127.64a3.17 3.17 0 0 1-2.27-1l-1.13-1.12a3.24 3.24 0 0 1 0-4.56l11.07-11.07a3.22 3.22 0 0 1 4.56 0l1.12 1.13a3.21 3.21 0 0 1 0 4.55l-11.07 11.12a3.19 3.19 0 0 1-2.28.95zm10-17.64a2.18 2.18 0 0 0-1.57.65l-11.12 11.07a2.22 2.22 0 0 0 0 3.14L31 126a2.29 2.29 0 0 0 3.14 0l11.08-11.08a2.23 2.23 0 0 0 0-3.14l-1.13-1.12a2.18 2.18 0 0 0-1.57-.66z"/><path class="window_svg__cls-5" d="M40.14 111.46l4.48 4.48"/><path class="window_svg__cls-2" transform="rotate(-45 42.379 113.706)" d="M41.88 110.54h1v6.33h-1z"/><circle cx="59.46" cy="96.4" r="12.31" fill="#7ac8d0" opacity=".74"/><path d="M70.38 85.49a15.48 15.48 0 1 0 0 21.88 15.49 15.49 0 0 0 0-21.88zm-2.24 19.65a12.31 12.31 0 1 1 0-17.41 12.32 12.32 0 0 1 0 17.41z" fill="#e3f2f6"/><path class="window_svg__cls-2" d="M59.43 112.41a15.83 15.83 0 0 1-11.29-4.68 16 16 0 0 1 0-22.59 16 16 0 0 1 22.59 0 16 16 0 0 1-11.3 27.27zm0-30.95A15 15 0 1 0 70 85.84a14.87 14.87 0 0 0-10.57-4.38zm0 27.78a12.81 12.81 0 1 1 9.06-3.75 12.73 12.73 0 0 1-9.06 3.75zm0-24.61a11.8 11.8 0 1 0 8.35 3.45 11.78 11.78 0 0 0-8.35-3.45z"/></g></svg>