<svg id="window_svg__Warstwa_1" xmlns="http://www.w3.org/2000/svg" viewBox="0 0 157 167.4"><style>.window_svg__st1{fill:#2a2b60}.window_svg__st2{fill:#51b7b7}.window_svg__st3{fill:#fdd52f}</style><g id="first_group"><path id="window_svg___x3C_g_x3E_" d="M151.3 113.8V53.5c0-7.2-3.9-13.9-10.1-17.5L88.6 5.8c-6.2-3.6-13.9-3.6-20.2 0L15.9 36C9.6 39.6 5.8 46.3 5.8 53.5v60.3c0 7.2 3.9 13.9 10.1 17.6l52.5 30.2c6.2 3.6 13.9 3.6 20.2 0l52.5-30.2c6.3-3.7 10.2-10.3 10.2-17.6z" opacity=".2" fill="#a0d6de"/><path class="window_svg__st1" d="M80.9 108.2h1.5v25.6h-1.5z"/><path class="window_svg__st1" d="M81.6 123.5H53.7c-3.6 0-6.5-2.9-6.5-6.5v-10c0-2.4-1.9-4.3-4.3-4.3H32.5c-3.8 0-6.9-3.1-6.9-6.9V78.9h1.5v16.8c0 3 2.4 5.4 5.4 5.4h10.3c3.2 0 5.8 2.6 5.8 5.8v10c0 2.8 2.2 5 5 5h27.9v1.6zM97.8 134.5H80.1V133h17.8c1.6-.2 2.7-1.6 2.6-3.2V118h1.5v11.8c.1 2.4-1.7 4.5-4.2 4.7z"/><circle class="window_svg__st2" cx="81.6" cy="133" r="4"/><path class="window_svg__st1" d="M81.6 137.7c-2.6 0-4.7-2.1-4.7-4.8s2.1-4.7 4.8-4.7 4.7 2.1 4.7 4.8c-.1 2.6-2.2 4.7-4.8 4.7zm0-8c-1.8 0-3.2 1.5-3.2 3.3s1.5 3.2 3.3 3.2c1.8 0 3.2-1.4 3.2-3.2-.1-1.8-1.5-3.3-3.3-3.3z"/><path class="window_svg__st3" d="M78.5 105v4.5c0 1.6 1.2 2.7 3.2 2.7 1.6.1 3-1.1 3.1-2.6V105h-6.3z"/><path class="window_svg__st1" d="M81.8 112.9c-1.1.1-2.3-.4-3.1-1.2-.6-.6-.9-1.5-.9-2.3l-.1-5.2h7.9v5.3c0 .9-.4 1.7-1 2.3-.7.7-1.7 1.1-2.8 1.1zm-2.5-7.2v3.8c0 .5.1.9.4 1.3.5.5 1.3.7 2 .7s1.3-.2 1.8-.7c.3-.3.5-.8.6-1.3v-3.8h-4.8z"/><circle class="window_svg__st3" cx="101.2" cy="119.8" r="4.1"/><path class="window_svg__st1" d="M101.2 124.7c-2.7 0-4.9-2.2-4.9-4.9s2.2-4.9 4.9-4.9 4.9 2.2 4.9 4.9-2.2 4.9-4.9 4.9zm0-8.3c-1.9 0-3.4 1.5-3.4 3.4s1.5 3.4 3.4 3.4 3.4-1.5 3.4-3.4-1.5-3.4-3.4-3.4z"/><circle class="window_svg__st3" cx="26.4" cy="78.9" r="4.1"/><path class="window_svg__st1" d="M26.4 83.8c-2.7 0-4.9-2.2-4.9-4.9s2.2-4.9 4.9-4.9 4.9 2.2 4.9 4.9-2.2 4.9-4.9 4.9zm0-8.3c-1.9 0-3.4 1.5-3.4 3.4s1.5 3.4 3.4 3.4 3.4-1.5 3.4-3.4c0-1.8-1.5-3.4-3.4-3.4z"/><path class="window_svg__st2" d="M54.6 40h53.9c3.1 0 5.5 2.5 5.5 5.5v53.9c0 3.1-2.5 5.5-5.5 5.5H54.6c-3.1 0-5.5-2.5-5.5-5.5V45.5c0-3 2.5-5.5 5.5-5.5z"/><path class="window_svg__st1" d="M108.5 105.7H54.6c-3.5 0-6.3-2.8-6.3-6.3V45.5c0-3.5 2.8-6.3 6.3-6.3h53.9c3.5 0 6.3 2.8 6.3 6.3v53.9c0 3.5-2.8 6.3-6.3 6.3zm-53.9-65c-2.6 0-4.8 2.1-4.8 4.8v53.9c0 2.6 2.1 4.8 4.8 4.8h53.9c2.6 0 4.8-2.1 4.8-4.8V45.5c0-2.6-2.1-4.8-4.8-4.8H54.6z"/><path fill="#a0d6de" d="M49.8 50h63.5v47.8H49.8z"/><path class="window_svg__st1" d="M49.5 49.7h65.1v.8H49.5z"/><circle cx="57.2" cy="45.3" r="1.9" fill="#b7dfe4"/><path class="window_svg__st1" d="M57.2 47.5c-1.3 0-2.3-1-2.3-2.3 0-1.3 1-2.3 2.3-2.3 1.3 0 2.3 1 2.3 2.3s-1 2.3-2.3 2.3zm0-3.8c-.9 0-1.5.7-1.5 1.5 0 .9.7 1.5 1.5 1.5.9 0 1.5-.7 1.5-1.5s-.7-1.5-1.5-1.5z"/><circle cx="63.9" cy="45.3" r="1.9" fill="#fff"/><path class="window_svg__st1" d="M63.9 47.5c-1.3 0-2.3-1-2.3-2.3 0-1.3 1-2.3 2.3-2.3 1.3 0 2.3 1 2.3 2.3 0 1.3-1.1 2.3-2.3 2.3zm0-3.8c-.9 0-1.5.7-1.5 1.5 0 .9.7 1.5 1.5 1.5.9 0 1.5-.7 1.5-1.5s-.7-1.5-1.5-1.5z"/><circle class="window_svg__st3" cx="70.6" cy="45.3" r="1.9"/><path class="window_svg__st1" d="M70.6 47.5c-1.3 0-2.3-1-2.3-2.3 0-1.3 1-2.3 2.3-2.3 1.3 0 2.3 1 2.3 2.3-.1 1.3-1.1 2.3-2.3 2.3zm0-3.8c-.9 0-1.5.7-1.5 1.5 0 .9.7 1.5 1.5 1.5.9 0 1.5-.7 1.5-1.5s-.7-1.5-1.5-1.5zM49 97.4h65.1v.8H49zM52.9 60.7l.6-.5.2-.2.5-.4.7-.6.6-.5c.1-.1.1-.2.1-.3 0-.1-.1-.3-.2-.3l-.2-.2-.5-.4-.6-.5-.6-.5c-.2-.2-.3-.3-.5-.4l-.2-.2h-.2c-.1 0-.2 0-.2.1-.1.1-.1.2-.1.2 0 .1 0 .2.1.3.1.1.3.3.5.4l.6.5.6.5c.2.1.3.3.5.4l.1.1-.1.1-.5.4-.6.5-.5.5-.5.4c-.1.1-.1.2-.1.3 0 .1 0 .2.1.2.1.2.3.2.4.1zM107.1 61c0-.1-.1-.2-.1-.3 0-.1 0-.2.1-.3 0-.1.1-.1.2-.1h2.8c.1 0 .1.1.2.2v.4c0 .1-.1.1-.2.2h-2.8c-.1 0-.2 0-.2-.1zM57.8 56.8h1V61c.1.4-.1.8-.3 1.2-.3.3-.7.4-1.1.4-.2 0-.4 0-.5-.1v-.8h.4c.4 0 .5-.3.5-.7v-4.2zm.5-1.9c.3 0 .6.3.6.6s-.3.6-.6.6-.6-.3-.6-.6.2-.6.6-.6zM59.6 59.6c.5.3 1 .4 1.5.4.4 0 .7-.1.7-.4s-.5-.4-1.1-.5c-.8-.2-1.3-.4-1.3-1.1s.7-1.2 1.7-1.2c.5 0 1 .1 1.5.3v.9c-.4-.2-.9-.4-1.5-.4-.4 0-.7.1-.7.4s.5.3 1.1.5 1.3.4 1.3 1.2S62 61 61.1 61c-.5 0-1-.1-1.5-.3v-1.1zM63.9 54.9c.3 0 .6.3.6.6s-.3.6-.6.6-.6-.3-.6-.6.3-.6.6-.6zm-.4 1.9h1v3.9h-1v-3.9zM66.3 62.5h-1v-5.7h1v.2c.3-.2.6-.3 1-.3 1 0 1.9.9 1.9 1.9v.1c0 1.1-.8 2-1.9 2.1h-.1c-.3 0-.6-.1-.9-.2v1.9zm.8-2.5c.6 0 1.1-.5 1.1-1.1v-.1c.1-.6-.4-1.2-1-1.2h-.1c-.3 0-.6.1-.8.3v2c.3 0 .5.1.8.1zM70.2 57.6h-.6v-.8h.6v-.7c0-.4.1-.9.4-1.2.3-.2.6-.4 1-.3.2 0 .4 0 .6.1v.8c-.2 0-.4-.1-.5-.1-.4 0-.5.3-.5.7v.8h1v.8h-1v3.1h-1v-3.2zM72.5 59.6c.5.3 1 .4 1.5.4.4 0 .7-.1.7-.4s-.5-.4-1.1-.5-1.3-.4-1.3-1.1.7-1.2 1.7-1.2c.5 0 1 .1 1.4.3v.9c-.4-.2-.9-.4-1.5-.4-.4 0-.7.1-.7.4s.5.3 1.1.5c.8.2 1.3.4 1.3 1.2s-.8 1.3-1.7 1.3c-.5 0-1-.1-1.5-.3l.1-1.1zM80.8 60.5c-.3.2-.6.3-1 .3-1 0-1.9-.8-1.9-1.9v-.1c-.1-1.1.8-2 1.9-2.1h.2c.3 0 .6.1.8.2v-2.2h1v6.1h-1v-.3zm0-2.8c-.2-.1-.5-.2-.8-.2-.6 0-1.2.5-1.2 1.1v.1c-.1.6.4 1.1 1 1.2h.1c.3 0 .6-.1.9-.3v-1.9zM84.9 60.4c-.3.2-.7.4-1.2.4-.3 0-.6-.1-.9-.3-.3-.2-.4-.5-.4-.9s.2-.7.5-1c.3-.2.7-.3 1.1-.3.3 0 .5 0 .8.1v-.2c0-.2-.1-.4-.2-.5-.2-.1-.4-.2-.7-.2-.4 0-.8.1-1.2.3V57c.4-.2.9-.3 1.3-.3s.9.1 1.3.4c.3.3.4.7.4 1v1.5c0 .2.1.4.3.4.1 0 .2 0 .2-.1v.8c-.2.1-.3.1-.5.1s-.5-.2-.8-.4zm-.1-1.2c-.2-.1-.4-.1-.6-.1-.4 0-.8.1-.8.5s.3.5.6.5.5-.1.8-.2v-.7zM87.5 59c.1.6.7 1.1 1.3 1 .5 0 1-.2 1.3-.5v.9c-.4.2-.9.4-1.4.4-1.1.1-2.1-.7-2.2-1.8v-.2c0-1.1.8-2 1.9-2h.1c1 0 1.8.7 1.8 1.7V59.1l-2.8-.1zm2-.7c0-.5-.4-.9-.9-.9s-.9.4-1 .9h1.9zM96.3 58.4c0-.2 0-.5-.2-.7-.1-.1-.3-.2-.5-.2-.4 0-.7.2-1 .5v2.7h-1v-2.3c0-.2 0-.5-.2-.7-.1-.1-.3-.2-.5-.2-.4 0-.7.2-1 .4v2.7h-1v-3.9h1v.4c.3-.3.8-.5 1.2-.5.5 0 .9.2 1.2.6.4-.4.9-.6 1.4-.6.4 0 .7.1 1 .4.3.3.4.7.3 1.2v2.5h-1l.3-2.3zM100.1 56.7c1.1.1 1.9 1 1.9 2.1s-1 1.9-2.1 1.9c-1.1-.1-1.9-.9-1.9-2s.9-2 2-2h.1zm0 3.3c.7 0 1.2-.5 1.2-1.2s-.5-1.2-1.2-1.2-1.2.5-1.2 1.2c0 .6.4 1.2 1.2 1.2-.1 0-.1 0 0 0zM102.9 56.8h1v.4c.4-.3.8-.5 1.3-.5.4 0 .7.1 1 .4.3.3.4.7.3 1.2v2.4h-1v-2.3c0-.2 0-.5-.2-.7-.1-.1-.3-.2-.5-.2-.4 0-.7.2-1 .5v2.7h-1l.1-3.9z"/></g></svg>
