<svg id="Layer_3" xmlns="http://www.w3.org/2000/svg" viewBox="0 0 252 144">
  <style>
    .st0{opacity:.2}.st1{fill:#5d79bb}
  </style>
  <g class="st0">
    <path class="st1" d="M125.1 49.6l-24.4 14.2-24.6-14.1V21.4h.1l24.5-14.1 24.4 14.2v28.1zm0 0V21.4L100.6 7.3h.1L76.2 21.5l.1-.1v28.2-.1l24.4 14.2 24.4-14.1z"/>
  </g>
  <g class="st0">
    <path class="st1" d="M174 49.6l-24.4 14.2L125 49.6V21.3h.1l24.5-14.1L174 21.3v28.3zm0 0V21.4L149.5 7.3h.1l-24.4 14.2.1-.1v28.2-.1l24.4 14.2L174 49.6z"/>
  </g>
  <g class="st0">
    <path class="st1" d="M100.6 91.9l-24.4 14.2L51.6 92V63.7h.1l24.5-14.1 24.4 14.2v28.1zm0 0V63.7L76.1 49.6h.1L51.7 63.8l.1-.1v28.2-.1L76.2 106l24.4-14.1z"/>
  </g>
  <g class="st0">
    <path class="st1" d="M149.5 91.9l-24.4 14.2L100.6 92V63.7h.1L125 49.5l24.4 14.2.1 28.2zm0 0V63.7L125 49.6h.1l-24.4 14.2.1-.1v28.2-.1l24.4 14.2 24.3-14.1z"/>
  </g>
  <g class="st0">
    <path class="st1" d="M198.5 91.9L174 106.1 149.5 92V63.7h.1L174 49.5l24.4 14.2.1 28.2zm0 0V63.7L174 49.6h.1l-24.4 14.2.1-.1v28.2-.1L174 106l24.5-14.1z"/>
  </g>
  <path class="st1" d="M100.6 63.7L76.2 77.8 51.6 63.7V35.4h.1l24.5-14.1 24.4 14.2v28.2zm0 0V35.5L76.1 21.4h.1L51.7 35.5l.1-.1v28.2-.1l24.4 14.2 24.4-14zM149.5 63.7l-24.4 14.2-24.5-14.1V35.5h.1L125 21.2l24.4 14.2.1 28.3zm0 0V35.5L125 21.4h.1l-24.4 14.2.1-.1v28.2-.1l24.4 14.2 24.3-14.1zM198.4 63.7L174 77.8l-24.5-14.1V35.4h.1l24.5-14.1 24.4 14.2-.1 28.2zm0 0V35.5l-24.5-14.1h.1l-24.4 14.2.1-.1v28.2-.1L174 77.8l24.4-14.1z"/>
  <path class="st1" d="M174 106.1l-24.4 14.2-24.6-14.2V77.8h.1l24.5-14.1L174 77.8v28.3zm0 0V77.9l-24.5-14.1h.1L125.2 78l.1-.1v28.2-.1l24.4 14.2 24.3-14.1z"/>
  <path class="st1" d="M125.1 106.1l-24.4 14.2-24.5-14.1V77.9h.1l24.5-14.1L125.2 78l-.1 28.1zm0 0V77.9l-24.5-14.1h.1L76.2 77.9l.1-.1V106v-.1l24.4 14.2 24.4-14z"/>
  <g class="st0">
    <path class="st1" d="M247.4 91.9L223 106.1 198.4 92V63.7h.1L223 49.6l24.4 14.2v28.1zm0 0V63.7l-24.5-14.1h.1l-24.4 14.2.1-.1v28.2-.1l24.4 14.2 24.3-14.1z"/>
  </g>
  <g class="st0">
    <path class="st1" d="M222.9 134.3l-24.4 14.2-24.5-14.1v-28.3h.1L198.6 92l24.4 14.2-.1 28.1zm0 0v-28.2L198.4 92h.1l-24.4 14.2.1-.1v28.2-.1l24.4 14.2 24.3-14.1z"/>
  </g>
  <g class="st0">
    <path class="st1" d="M76.2 106l-24.4 14.2L27.2 106V77.7h.1l24.5-14.1 24.4 14.2V106zm0 0V77.8L51.7 63.7h.1L27.3 77.8l.1-.1v28.2-.1L51.8 120l24.4-14z"/>
  </g>
  <g class="st0">
    <path class="st1" d="M51.7 63.6L27.3 77.8 2.7 63.7V35.4h.1l24.5-14.1 24.4 14.2v28.1zm0 0V35.4L27.2 21.3h.1L2.9 35.5l.1-.1v28.2-.1l24.4 14.2 24.3-14.1z"/>
  </g>
  <g class="st0">
    <path class="st1" d="M76.2 21.2L51.7 35.4 27.2 21.3V-7h.1l24.5-14.1L76.2-7v28.2zm0 0V-7L51.7-21h.1L27.3-6.9l.1-.1v28.2-.1l24.4 14.2 24.4-14.1z"/>
  </g>
</svg>
